G04 #@! TF.GenerationSoftware,KiCad,Pcbnew,(5.1.2)-2*
G04 #@! TF.CreationDate,2019-10-28T15:07:55+07:00*
G04 #@! TF.ProjectId,ph_shield_sim7000_pm2_hw,70685f73-6869-4656-9c64-5f73696d3730,rev?*
G04 #@! TF.SameCoordinates,Original*
G04 #@! TF.FileFunction,Soldermask,Bot*
G04 #@! TF.FilePolarity,Negative*
%FSLAX46Y46*%
G04 Gerber Fmt 4.6, Leading zero omitted, Abs format (unit mm)*
G04 Created by KiCad (PCBNEW (5.1.2)-2) date 2019-10-28 15:07:55*
%MOMM*%
%LPD*%
G04 APERTURE LIST*
%ADD10C,0.100000*%
G04 APERTURE END LIST*
D10*
G36*
X146802585Y-114978802D02*
G01*
X146952410Y-115008604D01*
X147234674Y-115125521D01*
X147488705Y-115295259D01*
X147704741Y-115511295D01*
X147874479Y-115765326D01*
X147991396Y-116047590D01*
X148021198Y-116197415D01*
X148046135Y-116322779D01*
X148051000Y-116347240D01*
X148051000Y-116652760D01*
X147991396Y-116952410D01*
X147874479Y-117234674D01*
X147704741Y-117488705D01*
X147488705Y-117704741D01*
X147234674Y-117874479D01*
X146952410Y-117991396D01*
X146802585Y-118021198D01*
X146652761Y-118051000D01*
X146347239Y-118051000D01*
X146197415Y-118021198D01*
X146047590Y-117991396D01*
X145765326Y-117874479D01*
X145511295Y-117704741D01*
X145295259Y-117488705D01*
X145125521Y-117234674D01*
X145008604Y-116952410D01*
X144949000Y-116652760D01*
X144949000Y-116347240D01*
X144953866Y-116322779D01*
X144978802Y-116197415D01*
X145008604Y-116047590D01*
X145125521Y-115765326D01*
X145295259Y-115511295D01*
X145511295Y-115295259D01*
X145765326Y-115125521D01*
X146047590Y-115008604D01*
X146197415Y-114978802D01*
X146347239Y-114949000D01*
X146652761Y-114949000D01*
X146802585Y-114978802D01*
X146802585Y-114978802D01*
G37*
G36*
X138794443Y-114675519D02*
G01*
X138860627Y-114682037D01*
X139030466Y-114733557D01*
X139186991Y-114817222D01*
X139222729Y-114846552D01*
X139324186Y-114929814D01*
X139388846Y-115008604D01*
X139436778Y-115067009D01*
X139520443Y-115223534D01*
X139571963Y-115393373D01*
X139589359Y-115570000D01*
X139571963Y-115746627D01*
X139520443Y-115916466D01*
X139436778Y-116072991D01*
X139407448Y-116108729D01*
X139324186Y-116210186D01*
X139222729Y-116293448D01*
X139186991Y-116322778D01*
X139030466Y-116406443D01*
X138860627Y-116457963D01*
X138794442Y-116464482D01*
X138728260Y-116471000D01*
X138639740Y-116471000D01*
X138573558Y-116464482D01*
X138507373Y-116457963D01*
X138337534Y-116406443D01*
X138181009Y-116322778D01*
X138145271Y-116293448D01*
X138043814Y-116210186D01*
X137960552Y-116108729D01*
X137931222Y-116072991D01*
X137847557Y-115916466D01*
X137796037Y-115746627D01*
X137778641Y-115570000D01*
X137796037Y-115393373D01*
X137847557Y-115223534D01*
X137931222Y-115067009D01*
X137979154Y-115008604D01*
X138043814Y-114929814D01*
X138145271Y-114846552D01*
X138181009Y-114817222D01*
X138337534Y-114733557D01*
X138507373Y-114682037D01*
X138573557Y-114675519D01*
X138639740Y-114669000D01*
X138728260Y-114669000D01*
X138794443Y-114675519D01*
X138794443Y-114675519D01*
G37*
G36*
X138794443Y-112135519D02*
G01*
X138860627Y-112142037D01*
X139030466Y-112193557D01*
X139186991Y-112277222D01*
X139222729Y-112306552D01*
X139324186Y-112389814D01*
X139407448Y-112491271D01*
X139436778Y-112527009D01*
X139520443Y-112683534D01*
X139571963Y-112853373D01*
X139589359Y-113030000D01*
X139571963Y-113206627D01*
X139520443Y-113376466D01*
X139436778Y-113532991D01*
X139407448Y-113568729D01*
X139324186Y-113670186D01*
X139222729Y-113753448D01*
X139186991Y-113782778D01*
X139030466Y-113866443D01*
X138860627Y-113917963D01*
X138794443Y-113924481D01*
X138728260Y-113931000D01*
X138639740Y-113931000D01*
X138573557Y-113924481D01*
X138507373Y-113917963D01*
X138337534Y-113866443D01*
X138181009Y-113782778D01*
X138145271Y-113753448D01*
X138043814Y-113670186D01*
X137960552Y-113568729D01*
X137931222Y-113532991D01*
X137847557Y-113376466D01*
X137796037Y-113206627D01*
X137778641Y-113030000D01*
X137796037Y-112853373D01*
X137847557Y-112683534D01*
X137931222Y-112527009D01*
X137960552Y-112491271D01*
X138043814Y-112389814D01*
X138145271Y-112306552D01*
X138181009Y-112277222D01*
X138337534Y-112193557D01*
X138507373Y-112142037D01*
X138573557Y-112135519D01*
X138639740Y-112129000D01*
X138728260Y-112129000D01*
X138794443Y-112135519D01*
X138794443Y-112135519D01*
G37*
G36*
X138794442Y-109595518D02*
G01*
X138860627Y-109602037D01*
X139030466Y-109653557D01*
X139186991Y-109737222D01*
X139222729Y-109766552D01*
X139324186Y-109849814D01*
X139407448Y-109951271D01*
X139436778Y-109987009D01*
X139520443Y-110143534D01*
X139571963Y-110313373D01*
X139589359Y-110490000D01*
X139571963Y-110666627D01*
X139520443Y-110836466D01*
X139436778Y-110992991D01*
X139407448Y-111028729D01*
X139324186Y-111130186D01*
X139222729Y-111213448D01*
X139186991Y-111242778D01*
X139030466Y-111326443D01*
X138860627Y-111377963D01*
X138794443Y-111384481D01*
X138728260Y-111391000D01*
X138639740Y-111391000D01*
X138573557Y-111384481D01*
X138507373Y-111377963D01*
X138337534Y-111326443D01*
X138181009Y-111242778D01*
X138145271Y-111213448D01*
X138043814Y-111130186D01*
X137960552Y-111028729D01*
X137931222Y-110992991D01*
X137847557Y-110836466D01*
X137796037Y-110666627D01*
X137778641Y-110490000D01*
X137796037Y-110313373D01*
X137847557Y-110143534D01*
X137931222Y-109987009D01*
X137960552Y-109951271D01*
X138043814Y-109849814D01*
X138145271Y-109766552D01*
X138181009Y-109737222D01*
X138337534Y-109653557D01*
X138507373Y-109602037D01*
X138573558Y-109595518D01*
X138639740Y-109589000D01*
X138728260Y-109589000D01*
X138794442Y-109595518D01*
X138794442Y-109595518D01*
G37*
G36*
X139585000Y-108851000D02*
G01*
X137783000Y-108851000D01*
X137783000Y-107049000D01*
X139585000Y-107049000D01*
X139585000Y-108851000D01*
X139585000Y-108851000D01*
G37*
G36*
X149709213Y-103544502D02*
G01*
X149780321Y-103551505D01*
X149917172Y-103593019D01*
X149917175Y-103593020D01*
X150043294Y-103660432D01*
X150153843Y-103751157D01*
X150244568Y-103861706D01*
X150311980Y-103987825D01*
X150311981Y-103987828D01*
X150353495Y-104124679D01*
X150367512Y-104267000D01*
X150353495Y-104409321D01*
X150311981Y-104546172D01*
X150311980Y-104546175D01*
X150244568Y-104672294D01*
X150153843Y-104782843D01*
X150043294Y-104873568D01*
X149917175Y-104940980D01*
X149917172Y-104940981D01*
X149780321Y-104982495D01*
X149709213Y-104989498D01*
X149673660Y-104993000D01*
X149602340Y-104993000D01*
X149566787Y-104989498D01*
X149495679Y-104982495D01*
X149358828Y-104940981D01*
X149358825Y-104940980D01*
X149232706Y-104873568D01*
X149122157Y-104782843D01*
X149031432Y-104672294D01*
X148964020Y-104546175D01*
X148964019Y-104546172D01*
X148922505Y-104409321D01*
X148908488Y-104267000D01*
X148922505Y-104124679D01*
X148964019Y-103987828D01*
X148964020Y-103987825D01*
X149031432Y-103861706D01*
X149122157Y-103751157D01*
X149232706Y-103660432D01*
X149358825Y-103593020D01*
X149358828Y-103593019D01*
X149495679Y-103551505D01*
X149566787Y-103544502D01*
X149602340Y-103541000D01*
X149673660Y-103541000D01*
X149709213Y-103544502D01*
X149709213Y-103544502D01*
G37*
G36*
X133709213Y-103544502D02*
G01*
X133780321Y-103551505D01*
X133917172Y-103593019D01*
X133917175Y-103593020D01*
X134043294Y-103660432D01*
X134153843Y-103751157D01*
X134244568Y-103861706D01*
X134311980Y-103987825D01*
X134311981Y-103987828D01*
X134353495Y-104124679D01*
X134367512Y-104267000D01*
X134353495Y-104409321D01*
X134311981Y-104546172D01*
X134311980Y-104546175D01*
X134244568Y-104672294D01*
X134153843Y-104782843D01*
X134043294Y-104873568D01*
X133917175Y-104940980D01*
X133917172Y-104940981D01*
X133780321Y-104982495D01*
X133709213Y-104989498D01*
X133673660Y-104993000D01*
X133602340Y-104993000D01*
X133566787Y-104989498D01*
X133495679Y-104982495D01*
X133358828Y-104940981D01*
X133358825Y-104940980D01*
X133232706Y-104873568D01*
X133122157Y-104782843D01*
X133031432Y-104672294D01*
X132964020Y-104546175D01*
X132964019Y-104546172D01*
X132922505Y-104409321D01*
X132908488Y-104267000D01*
X132922505Y-104124679D01*
X132964019Y-103987828D01*
X132964020Y-103987825D01*
X133031432Y-103861706D01*
X133122157Y-103751157D01*
X133232706Y-103660432D01*
X133358825Y-103593020D01*
X133358828Y-103593019D01*
X133495679Y-103551505D01*
X133566787Y-103544502D01*
X133602340Y-103541000D01*
X133673660Y-103541000D01*
X133709213Y-103544502D01*
X133709213Y-103544502D01*
G37*
G36*
X152364000Y-104993000D02*
G01*
X150912000Y-104993000D01*
X150912000Y-103541000D01*
X152364000Y-103541000D01*
X152364000Y-104993000D01*
X152364000Y-104993000D01*
G37*
G36*
X147709213Y-103544502D02*
G01*
X147780321Y-103551505D01*
X147917172Y-103593019D01*
X147917175Y-103593020D01*
X148043294Y-103660432D01*
X148153843Y-103751157D01*
X148244568Y-103861706D01*
X148311980Y-103987825D01*
X148311981Y-103987828D01*
X148353495Y-104124679D01*
X148367512Y-104267000D01*
X148353495Y-104409321D01*
X148311981Y-104546172D01*
X148311980Y-104546175D01*
X148244568Y-104672294D01*
X148153843Y-104782843D01*
X148043294Y-104873568D01*
X147917175Y-104940980D01*
X147917172Y-104940981D01*
X147780321Y-104982495D01*
X147709213Y-104989498D01*
X147673660Y-104993000D01*
X147602340Y-104993000D01*
X147566787Y-104989498D01*
X147495679Y-104982495D01*
X147358828Y-104940981D01*
X147358825Y-104940980D01*
X147232706Y-104873568D01*
X147122157Y-104782843D01*
X147031432Y-104672294D01*
X146964020Y-104546175D01*
X146964019Y-104546172D01*
X146922505Y-104409321D01*
X146908488Y-104267000D01*
X146922505Y-104124679D01*
X146964019Y-103987828D01*
X146964020Y-103987825D01*
X147031432Y-103861706D01*
X147122157Y-103751157D01*
X147232706Y-103660432D01*
X147358825Y-103593020D01*
X147358828Y-103593019D01*
X147495679Y-103551505D01*
X147566787Y-103544502D01*
X147602340Y-103541000D01*
X147673660Y-103541000D01*
X147709213Y-103544502D01*
X147709213Y-103544502D01*
G37*
G36*
X145709213Y-103544502D02*
G01*
X145780321Y-103551505D01*
X145917172Y-103593019D01*
X145917175Y-103593020D01*
X146043294Y-103660432D01*
X146153843Y-103751157D01*
X146244568Y-103861706D01*
X146311980Y-103987825D01*
X146311981Y-103987828D01*
X146353495Y-104124679D01*
X146367512Y-104267000D01*
X146353495Y-104409321D01*
X146311981Y-104546172D01*
X146311980Y-104546175D01*
X146244568Y-104672294D01*
X146153843Y-104782843D01*
X146043294Y-104873568D01*
X145917175Y-104940980D01*
X145917172Y-104940981D01*
X145780321Y-104982495D01*
X145709213Y-104989498D01*
X145673660Y-104993000D01*
X145602340Y-104993000D01*
X145566787Y-104989498D01*
X145495679Y-104982495D01*
X145358828Y-104940981D01*
X145358825Y-104940980D01*
X145232706Y-104873568D01*
X145122157Y-104782843D01*
X145031432Y-104672294D01*
X144964020Y-104546175D01*
X144964019Y-104546172D01*
X144922505Y-104409321D01*
X144908488Y-104267000D01*
X144922505Y-104124679D01*
X144964019Y-103987828D01*
X144964020Y-103987825D01*
X145031432Y-103861706D01*
X145122157Y-103751157D01*
X145232706Y-103660432D01*
X145358825Y-103593020D01*
X145358828Y-103593019D01*
X145495679Y-103551505D01*
X145566787Y-103544502D01*
X145602340Y-103541000D01*
X145673660Y-103541000D01*
X145709213Y-103544502D01*
X145709213Y-103544502D01*
G37*
G36*
X143709213Y-103544502D02*
G01*
X143780321Y-103551505D01*
X143917172Y-103593019D01*
X143917175Y-103593020D01*
X144043294Y-103660432D01*
X144153843Y-103751157D01*
X144244568Y-103861706D01*
X144311980Y-103987825D01*
X144311981Y-103987828D01*
X144353495Y-104124679D01*
X144367512Y-104267000D01*
X144353495Y-104409321D01*
X144311981Y-104546172D01*
X144311980Y-104546175D01*
X144244568Y-104672294D01*
X144153843Y-104782843D01*
X144043294Y-104873568D01*
X143917175Y-104940980D01*
X143917172Y-104940981D01*
X143780321Y-104982495D01*
X143709213Y-104989498D01*
X143673660Y-104993000D01*
X143602340Y-104993000D01*
X143566787Y-104989498D01*
X143495679Y-104982495D01*
X143358828Y-104940981D01*
X143358825Y-104940980D01*
X143232706Y-104873568D01*
X143122157Y-104782843D01*
X143031432Y-104672294D01*
X142964020Y-104546175D01*
X142964019Y-104546172D01*
X142922505Y-104409321D01*
X142908488Y-104267000D01*
X142922505Y-104124679D01*
X142964019Y-103987828D01*
X142964020Y-103987825D01*
X143031432Y-103861706D01*
X143122157Y-103751157D01*
X143232706Y-103660432D01*
X143358825Y-103593020D01*
X143358828Y-103593019D01*
X143495679Y-103551505D01*
X143566787Y-103544502D01*
X143602340Y-103541000D01*
X143673660Y-103541000D01*
X143709213Y-103544502D01*
X143709213Y-103544502D01*
G37*
G36*
X141709213Y-103544502D02*
G01*
X141780321Y-103551505D01*
X141917172Y-103593019D01*
X141917175Y-103593020D01*
X142043294Y-103660432D01*
X142153843Y-103751157D01*
X142244568Y-103861706D01*
X142311980Y-103987825D01*
X142311981Y-103987828D01*
X142353495Y-104124679D01*
X142367512Y-104267000D01*
X142353495Y-104409321D01*
X142311981Y-104546172D01*
X142311980Y-104546175D01*
X142244568Y-104672294D01*
X142153843Y-104782843D01*
X142043294Y-104873568D01*
X141917175Y-104940980D01*
X141917172Y-104940981D01*
X141780321Y-104982495D01*
X141709213Y-104989498D01*
X141673660Y-104993000D01*
X141602340Y-104993000D01*
X141566787Y-104989498D01*
X141495679Y-104982495D01*
X141358828Y-104940981D01*
X141358825Y-104940980D01*
X141232706Y-104873568D01*
X141122157Y-104782843D01*
X141031432Y-104672294D01*
X140964020Y-104546175D01*
X140964019Y-104546172D01*
X140922505Y-104409321D01*
X140908488Y-104267000D01*
X140922505Y-104124679D01*
X140964019Y-103987828D01*
X140964020Y-103987825D01*
X141031432Y-103861706D01*
X141122157Y-103751157D01*
X141232706Y-103660432D01*
X141358825Y-103593020D01*
X141358828Y-103593019D01*
X141495679Y-103551505D01*
X141566787Y-103544502D01*
X141602340Y-103541000D01*
X141673660Y-103541000D01*
X141709213Y-103544502D01*
X141709213Y-103544502D01*
G37*
G36*
X139709213Y-103544502D02*
G01*
X139780321Y-103551505D01*
X139917172Y-103593019D01*
X139917175Y-103593020D01*
X140043294Y-103660432D01*
X140153843Y-103751157D01*
X140244568Y-103861706D01*
X140311980Y-103987825D01*
X140311981Y-103987828D01*
X140353495Y-104124679D01*
X140367512Y-104267000D01*
X140353495Y-104409321D01*
X140311981Y-104546172D01*
X140311980Y-104546175D01*
X140244568Y-104672294D01*
X140153843Y-104782843D01*
X140043294Y-104873568D01*
X139917175Y-104940980D01*
X139917172Y-104940981D01*
X139780321Y-104982495D01*
X139709213Y-104989498D01*
X139673660Y-104993000D01*
X139602340Y-104993000D01*
X139566787Y-104989498D01*
X139495679Y-104982495D01*
X139358828Y-104940981D01*
X139358825Y-104940980D01*
X139232706Y-104873568D01*
X139122157Y-104782843D01*
X139031432Y-104672294D01*
X138964020Y-104546175D01*
X138964019Y-104546172D01*
X138922505Y-104409321D01*
X138908488Y-104267000D01*
X138922505Y-104124679D01*
X138964019Y-103987828D01*
X138964020Y-103987825D01*
X139031432Y-103861706D01*
X139122157Y-103751157D01*
X139232706Y-103660432D01*
X139358825Y-103593020D01*
X139358828Y-103593019D01*
X139495679Y-103551505D01*
X139566787Y-103544502D01*
X139602340Y-103541000D01*
X139673660Y-103541000D01*
X139709213Y-103544502D01*
X139709213Y-103544502D01*
G37*
G36*
X137709213Y-103544502D02*
G01*
X137780321Y-103551505D01*
X137917172Y-103593019D01*
X137917175Y-103593020D01*
X138043294Y-103660432D01*
X138153843Y-103751157D01*
X138244568Y-103861706D01*
X138311980Y-103987825D01*
X138311981Y-103987828D01*
X138353495Y-104124679D01*
X138367512Y-104267000D01*
X138353495Y-104409321D01*
X138311981Y-104546172D01*
X138311980Y-104546175D01*
X138244568Y-104672294D01*
X138153843Y-104782843D01*
X138043294Y-104873568D01*
X137917175Y-104940980D01*
X137917172Y-104940981D01*
X137780321Y-104982495D01*
X137709213Y-104989498D01*
X137673660Y-104993000D01*
X137602340Y-104993000D01*
X137566787Y-104989498D01*
X137495679Y-104982495D01*
X137358828Y-104940981D01*
X137358825Y-104940980D01*
X137232706Y-104873568D01*
X137122157Y-104782843D01*
X137031432Y-104672294D01*
X136964020Y-104546175D01*
X136964019Y-104546172D01*
X136922505Y-104409321D01*
X136908488Y-104267000D01*
X136922505Y-104124679D01*
X136964019Y-103987828D01*
X136964020Y-103987825D01*
X137031432Y-103861706D01*
X137122157Y-103751157D01*
X137232706Y-103660432D01*
X137358825Y-103593020D01*
X137358828Y-103593019D01*
X137495679Y-103551505D01*
X137566787Y-103544502D01*
X137602340Y-103541000D01*
X137673660Y-103541000D01*
X137709213Y-103544502D01*
X137709213Y-103544502D01*
G37*
G36*
X135709213Y-103544502D02*
G01*
X135780321Y-103551505D01*
X135917172Y-103593019D01*
X135917175Y-103593020D01*
X136043294Y-103660432D01*
X136153843Y-103751157D01*
X136244568Y-103861706D01*
X136311980Y-103987825D01*
X136311981Y-103987828D01*
X136353495Y-104124679D01*
X136367512Y-104267000D01*
X136353495Y-104409321D01*
X136311981Y-104546172D01*
X136311980Y-104546175D01*
X136244568Y-104672294D01*
X136153843Y-104782843D01*
X136043294Y-104873568D01*
X135917175Y-104940980D01*
X135917172Y-104940981D01*
X135780321Y-104982495D01*
X135709213Y-104989498D01*
X135673660Y-104993000D01*
X135602340Y-104993000D01*
X135566787Y-104989498D01*
X135495679Y-104982495D01*
X135358828Y-104940981D01*
X135358825Y-104940980D01*
X135232706Y-104873568D01*
X135122157Y-104782843D01*
X135031432Y-104672294D01*
X134964020Y-104546175D01*
X134964019Y-104546172D01*
X134922505Y-104409321D01*
X134908488Y-104267000D01*
X134922505Y-104124679D01*
X134964019Y-103987828D01*
X134964020Y-103987825D01*
X135031432Y-103861706D01*
X135122157Y-103751157D01*
X135232706Y-103660432D01*
X135358825Y-103593020D01*
X135358828Y-103593019D01*
X135495679Y-103551505D01*
X135566787Y-103544502D01*
X135602340Y-103541000D01*
X135673660Y-103541000D01*
X135709213Y-103544502D01*
X135709213Y-103544502D01*
G37*
G36*
X162113987Y-97554996D02*
G01*
X162350753Y-97653068D01*
X162350755Y-97653069D01*
X162563839Y-97795447D01*
X162745053Y-97976661D01*
X162887432Y-98189747D01*
X162985504Y-98426513D01*
X163035500Y-98677861D01*
X163035500Y-98934139D01*
X162985504Y-99185487D01*
X162887432Y-99422253D01*
X162887431Y-99422255D01*
X162745053Y-99635339D01*
X162563839Y-99816553D01*
X162350755Y-99958931D01*
X162350754Y-99958932D01*
X162350753Y-99958932D01*
X162113987Y-100057004D01*
X161862639Y-100107000D01*
X161606361Y-100107000D01*
X161355013Y-100057004D01*
X161118247Y-99958932D01*
X161118246Y-99958932D01*
X161118245Y-99958931D01*
X160905161Y-99816553D01*
X160723947Y-99635339D01*
X160581569Y-99422255D01*
X160581568Y-99422253D01*
X160483496Y-99185487D01*
X160433500Y-98934139D01*
X160433500Y-98677861D01*
X160483496Y-98426513D01*
X160581568Y-98189747D01*
X160723947Y-97976661D01*
X160905161Y-97795447D01*
X161118245Y-97653069D01*
X161118247Y-97653068D01*
X161355013Y-97554996D01*
X161606361Y-97505000D01*
X161862639Y-97505000D01*
X162113987Y-97554996D01*
X162113987Y-97554996D01*
G37*
G36*
X167193987Y-97554996D02*
G01*
X167430753Y-97653068D01*
X167430755Y-97653069D01*
X167643839Y-97795447D01*
X167825053Y-97976661D01*
X167967432Y-98189747D01*
X168065504Y-98426513D01*
X168115500Y-98677861D01*
X168115500Y-98934139D01*
X168065504Y-99185487D01*
X167967432Y-99422253D01*
X167967431Y-99422255D01*
X167825053Y-99635339D01*
X167643839Y-99816553D01*
X167430755Y-99958931D01*
X167430754Y-99958932D01*
X167430753Y-99958932D01*
X167193987Y-100057004D01*
X166942639Y-100107000D01*
X166686361Y-100107000D01*
X166435013Y-100057004D01*
X166198247Y-99958932D01*
X166198246Y-99958932D01*
X166198245Y-99958931D01*
X165985161Y-99816553D01*
X165803947Y-99635339D01*
X165661569Y-99422255D01*
X165661568Y-99422253D01*
X165563496Y-99185487D01*
X165513500Y-98934139D01*
X165513500Y-98677861D01*
X165563496Y-98426513D01*
X165661568Y-98189747D01*
X165803947Y-97976661D01*
X165985161Y-97795447D01*
X166198245Y-97653069D01*
X166198247Y-97653068D01*
X166435013Y-97554996D01*
X166686361Y-97505000D01*
X166942639Y-97505000D01*
X167193987Y-97554996D01*
X167193987Y-97554996D01*
G37*
G36*
X164624818Y-95111153D02*
G01*
X164843385Y-95201687D01*
X164843387Y-95201688D01*
X165040093Y-95333122D01*
X165207378Y-95500407D01*
X165338812Y-95697113D01*
X165338813Y-95697115D01*
X165429347Y-95915682D01*
X165475500Y-96147710D01*
X165475500Y-96384290D01*
X165429347Y-96616318D01*
X165338813Y-96834885D01*
X165338812Y-96834887D01*
X165207378Y-97031593D01*
X165040093Y-97198878D01*
X164843387Y-97330312D01*
X164843386Y-97330313D01*
X164843385Y-97330313D01*
X164624818Y-97420847D01*
X164392790Y-97467000D01*
X164156210Y-97467000D01*
X163924182Y-97420847D01*
X163705615Y-97330313D01*
X163705614Y-97330313D01*
X163705613Y-97330312D01*
X163508907Y-97198878D01*
X163341622Y-97031593D01*
X163210188Y-96834887D01*
X163210187Y-96834885D01*
X163119653Y-96616318D01*
X163073500Y-96384290D01*
X163073500Y-96147710D01*
X163119653Y-95915682D01*
X163210187Y-95697115D01*
X163210188Y-95697113D01*
X163341622Y-95500407D01*
X163508907Y-95333122D01*
X163705613Y-95201688D01*
X163705615Y-95201687D01*
X163924182Y-95111153D01*
X164156210Y-95065000D01*
X164392790Y-95065000D01*
X164624818Y-95111153D01*
X164624818Y-95111153D01*
G37*
G36*
X162113987Y-92474996D02*
G01*
X162350753Y-92573068D01*
X162350755Y-92573069D01*
X162563839Y-92715447D01*
X162745053Y-92896661D01*
X162887432Y-93109747D01*
X162985504Y-93346513D01*
X163035500Y-93597861D01*
X163035500Y-93854139D01*
X162985504Y-94105487D01*
X162887432Y-94342253D01*
X162887431Y-94342255D01*
X162745053Y-94555339D01*
X162563839Y-94736553D01*
X162350755Y-94878931D01*
X162350754Y-94878932D01*
X162350753Y-94878932D01*
X162113987Y-94977004D01*
X161862639Y-95027000D01*
X161606361Y-95027000D01*
X161355013Y-94977004D01*
X161118247Y-94878932D01*
X161118246Y-94878932D01*
X161118245Y-94878931D01*
X160905161Y-94736553D01*
X160723947Y-94555339D01*
X160581569Y-94342255D01*
X160581568Y-94342253D01*
X160483496Y-94105487D01*
X160433500Y-93854139D01*
X160433500Y-93597861D01*
X160483496Y-93346513D01*
X160581568Y-93109747D01*
X160723947Y-92896661D01*
X160905161Y-92715447D01*
X161118245Y-92573069D01*
X161118247Y-92573068D01*
X161355013Y-92474996D01*
X161606361Y-92425000D01*
X161862639Y-92425000D01*
X162113987Y-92474996D01*
X162113987Y-92474996D01*
G37*
G36*
X167193987Y-92474996D02*
G01*
X167430753Y-92573068D01*
X167430755Y-92573069D01*
X167643839Y-92715447D01*
X167825053Y-92896661D01*
X167967432Y-93109747D01*
X168065504Y-93346513D01*
X168115500Y-93597861D01*
X168115500Y-93854139D01*
X168065504Y-94105487D01*
X167967432Y-94342253D01*
X167967431Y-94342255D01*
X167825053Y-94555339D01*
X167643839Y-94736553D01*
X167430755Y-94878931D01*
X167430754Y-94878932D01*
X167430753Y-94878932D01*
X167193987Y-94977004D01*
X166942639Y-95027000D01*
X166686361Y-95027000D01*
X166435013Y-94977004D01*
X166198247Y-94878932D01*
X166198246Y-94878932D01*
X166198245Y-94878931D01*
X165985161Y-94736553D01*
X165803947Y-94555339D01*
X165661569Y-94342255D01*
X165661568Y-94342253D01*
X165563496Y-94105487D01*
X165513500Y-93854139D01*
X165513500Y-93597861D01*
X165563496Y-93346513D01*
X165661568Y-93109747D01*
X165803947Y-92896661D01*
X165985161Y-92715447D01*
X166198245Y-92573069D01*
X166198247Y-92573068D01*
X166435013Y-92474996D01*
X166686361Y-92425000D01*
X166942639Y-92425000D01*
X167193987Y-92474996D01*
X167193987Y-92474996D01*
G37*
G36*
X102599443Y-89783519D02*
G01*
X102665627Y-89790037D01*
X102835466Y-89841557D01*
X102991991Y-89925222D01*
X103027729Y-89954552D01*
X103129186Y-90037814D01*
X103212448Y-90139271D01*
X103241778Y-90175009D01*
X103325443Y-90331534D01*
X103376963Y-90501373D01*
X103394359Y-90678000D01*
X103376963Y-90854627D01*
X103325443Y-91024466D01*
X103241778Y-91180991D01*
X103212448Y-91216729D01*
X103129186Y-91318186D01*
X103027729Y-91401448D01*
X102991991Y-91430778D01*
X102835466Y-91514443D01*
X102665627Y-91565963D01*
X102599443Y-91572481D01*
X102533260Y-91579000D01*
X102444740Y-91579000D01*
X102378557Y-91572481D01*
X102312373Y-91565963D01*
X102142534Y-91514443D01*
X101986009Y-91430778D01*
X101950271Y-91401448D01*
X101848814Y-91318186D01*
X101765552Y-91216729D01*
X101736222Y-91180991D01*
X101652557Y-91024466D01*
X101601037Y-90854627D01*
X101583641Y-90678000D01*
X101601037Y-90501373D01*
X101652557Y-90331534D01*
X101736222Y-90175009D01*
X101765552Y-90139271D01*
X101848814Y-90037814D01*
X101950271Y-89954552D01*
X101986009Y-89925222D01*
X102142534Y-89841557D01*
X102312373Y-89790037D01*
X102378557Y-89783519D01*
X102444740Y-89777000D01*
X102533260Y-89777000D01*
X102599443Y-89783519D01*
X102599443Y-89783519D01*
G37*
G36*
X102599442Y-87243518D02*
G01*
X102665627Y-87250037D01*
X102835466Y-87301557D01*
X102991991Y-87385222D01*
X103027729Y-87414552D01*
X103129186Y-87497814D01*
X103212448Y-87599271D01*
X103241778Y-87635009D01*
X103325443Y-87791534D01*
X103376963Y-87961373D01*
X103394359Y-88138000D01*
X103376963Y-88314627D01*
X103325443Y-88484466D01*
X103241778Y-88640991D01*
X103212448Y-88676729D01*
X103129186Y-88778186D01*
X103027729Y-88861448D01*
X102991991Y-88890778D01*
X102835466Y-88974443D01*
X102665627Y-89025963D01*
X102599443Y-89032481D01*
X102533260Y-89039000D01*
X102444740Y-89039000D01*
X102378557Y-89032481D01*
X102312373Y-89025963D01*
X102142534Y-88974443D01*
X101986009Y-88890778D01*
X101950271Y-88861448D01*
X101848814Y-88778186D01*
X101765552Y-88676729D01*
X101736222Y-88640991D01*
X101652557Y-88484466D01*
X101601037Y-88314627D01*
X101583641Y-88138000D01*
X101601037Y-87961373D01*
X101652557Y-87791534D01*
X101736222Y-87635009D01*
X101765552Y-87599271D01*
X101848814Y-87497814D01*
X101950271Y-87414552D01*
X101986009Y-87385222D01*
X102142534Y-87301557D01*
X102312373Y-87250037D01*
X102378558Y-87243518D01*
X102444740Y-87237000D01*
X102533260Y-87237000D01*
X102599442Y-87243518D01*
X102599442Y-87243518D01*
G37*
G36*
X107835000Y-87515000D02*
G01*
X106033000Y-87515000D01*
X106033000Y-85713000D01*
X107835000Y-85713000D01*
X107835000Y-87515000D01*
X107835000Y-87515000D01*
G37*
G36*
X102599443Y-84703519D02*
G01*
X102665627Y-84710037D01*
X102835466Y-84761557D01*
X102835468Y-84761558D01*
X102858769Y-84774013D01*
X102991991Y-84845222D01*
X103027729Y-84874552D01*
X103129186Y-84957814D01*
X103184621Y-85025363D01*
X103241778Y-85095009D01*
X103325443Y-85251534D01*
X103376963Y-85421373D01*
X103394359Y-85598000D01*
X103376963Y-85774627D01*
X103325443Y-85944466D01*
X103241778Y-86100991D01*
X103212448Y-86136729D01*
X103129186Y-86238186D01*
X103027729Y-86321448D01*
X102991991Y-86350778D01*
X102991989Y-86350779D01*
X102891478Y-86404504D01*
X102835466Y-86434443D01*
X102665627Y-86485963D01*
X102599442Y-86492482D01*
X102533260Y-86499000D01*
X102444740Y-86499000D01*
X102378558Y-86492482D01*
X102312373Y-86485963D01*
X102142534Y-86434443D01*
X102086523Y-86404504D01*
X101986011Y-86350779D01*
X101986009Y-86350778D01*
X101950271Y-86321448D01*
X101848814Y-86238186D01*
X101765552Y-86136729D01*
X101736222Y-86100991D01*
X101652557Y-85944466D01*
X101601037Y-85774627D01*
X101583641Y-85598000D01*
X101601037Y-85421373D01*
X101652557Y-85251534D01*
X101736222Y-85095009D01*
X101793379Y-85025363D01*
X101848814Y-84957814D01*
X101950271Y-84874552D01*
X101986009Y-84845222D01*
X102119231Y-84774013D01*
X102142532Y-84761558D01*
X102142534Y-84761557D01*
X102312373Y-84710037D01*
X102378557Y-84703519D01*
X102444740Y-84697000D01*
X102533260Y-84697000D01*
X102599443Y-84703519D01*
X102599443Y-84703519D01*
G37*
G36*
X167257487Y-83902496D02*
G01*
X167494253Y-84000568D01*
X167494255Y-84000569D01*
X167604152Y-84074000D01*
X167707339Y-84142947D01*
X167888553Y-84324161D01*
X168030932Y-84537247D01*
X168129004Y-84774013D01*
X168179000Y-85025361D01*
X168179000Y-85281639D01*
X168129004Y-85532987D01*
X168054440Y-85713000D01*
X168030931Y-85769755D01*
X167888553Y-85982839D01*
X167707339Y-86164053D01*
X167494255Y-86306431D01*
X167494254Y-86306432D01*
X167494253Y-86306432D01*
X167257487Y-86404504D01*
X167006139Y-86454500D01*
X166749861Y-86454500D01*
X166498513Y-86404504D01*
X166261747Y-86306432D01*
X166261746Y-86306432D01*
X166261745Y-86306431D01*
X166048661Y-86164053D01*
X165867447Y-85982839D01*
X165725069Y-85769755D01*
X165701560Y-85713000D01*
X165626996Y-85532987D01*
X165577000Y-85281639D01*
X165577000Y-85025361D01*
X165626996Y-84774013D01*
X165725068Y-84537247D01*
X165867447Y-84324161D01*
X166048661Y-84142947D01*
X166151848Y-84074000D01*
X166261745Y-84000569D01*
X166261747Y-84000568D01*
X166498513Y-83902496D01*
X166749861Y-83852500D01*
X167006139Y-83852500D01*
X167257487Y-83902496D01*
X167257487Y-83902496D01*
G37*
G36*
X162177487Y-83902496D02*
G01*
X162414253Y-84000568D01*
X162414255Y-84000569D01*
X162524152Y-84074000D01*
X162627339Y-84142947D01*
X162808553Y-84324161D01*
X162950932Y-84537247D01*
X163049004Y-84774013D01*
X163099000Y-85025361D01*
X163099000Y-85281639D01*
X163049004Y-85532987D01*
X162974440Y-85713000D01*
X162950931Y-85769755D01*
X162808553Y-85982839D01*
X162627339Y-86164053D01*
X162414255Y-86306431D01*
X162414254Y-86306432D01*
X162414253Y-86306432D01*
X162177487Y-86404504D01*
X161926139Y-86454500D01*
X161669861Y-86454500D01*
X161418513Y-86404504D01*
X161181747Y-86306432D01*
X161181746Y-86306432D01*
X161181745Y-86306431D01*
X160968661Y-86164053D01*
X160787447Y-85982839D01*
X160645069Y-85769755D01*
X160621560Y-85713000D01*
X160546996Y-85532987D01*
X160497000Y-85281639D01*
X160497000Y-85025361D01*
X160546996Y-84774013D01*
X160645068Y-84537247D01*
X160787447Y-84324161D01*
X160968661Y-84142947D01*
X161071848Y-84074000D01*
X161181745Y-84000569D01*
X161181747Y-84000568D01*
X161418513Y-83902496D01*
X161669861Y-83852500D01*
X161926139Y-83852500D01*
X162177487Y-83902496D01*
X162177487Y-83902496D01*
G37*
G36*
X107044442Y-83179518D02*
G01*
X107110627Y-83186037D01*
X107280466Y-83237557D01*
X107436991Y-83321222D01*
X107472729Y-83350552D01*
X107574186Y-83433814D01*
X107657448Y-83535271D01*
X107686778Y-83571009D01*
X107770443Y-83727534D01*
X107821963Y-83897373D01*
X107839359Y-84074000D01*
X107821963Y-84250627D01*
X107770443Y-84420466D01*
X107686778Y-84576991D01*
X107657448Y-84612729D01*
X107574186Y-84714186D01*
X107472729Y-84797448D01*
X107436991Y-84826778D01*
X107280466Y-84910443D01*
X107110627Y-84961963D01*
X107044442Y-84968482D01*
X106978260Y-84975000D01*
X106889740Y-84975000D01*
X106823558Y-84968482D01*
X106757373Y-84961963D01*
X106587534Y-84910443D01*
X106431009Y-84826778D01*
X106395271Y-84797448D01*
X106293814Y-84714186D01*
X106210552Y-84612729D01*
X106181222Y-84576991D01*
X106097557Y-84420466D01*
X106046037Y-84250627D01*
X106028641Y-84074000D01*
X106046037Y-83897373D01*
X106097557Y-83727534D01*
X106181222Y-83571009D01*
X106210552Y-83535271D01*
X106293814Y-83433814D01*
X106395271Y-83350552D01*
X106431009Y-83321222D01*
X106587534Y-83237557D01*
X106757373Y-83186037D01*
X106823558Y-83179518D01*
X106889740Y-83173000D01*
X106978260Y-83173000D01*
X107044442Y-83179518D01*
X107044442Y-83179518D01*
G37*
G36*
X102599442Y-82163518D02*
G01*
X102665627Y-82170037D01*
X102835466Y-82221557D01*
X102991991Y-82305222D01*
X103027729Y-82334552D01*
X103129186Y-82417814D01*
X103192702Y-82495210D01*
X103241778Y-82555009D01*
X103325443Y-82711534D01*
X103376963Y-82881373D01*
X103394359Y-83058000D01*
X103376963Y-83234627D01*
X103325443Y-83404466D01*
X103241778Y-83560991D01*
X103212448Y-83596729D01*
X103129186Y-83698186D01*
X103043693Y-83768347D01*
X102991991Y-83810778D01*
X102835466Y-83894443D01*
X102665627Y-83945963D01*
X102599442Y-83952482D01*
X102533260Y-83959000D01*
X102444740Y-83959000D01*
X102378558Y-83952482D01*
X102312373Y-83945963D01*
X102142534Y-83894443D01*
X101986009Y-83810778D01*
X101934307Y-83768347D01*
X101848814Y-83698186D01*
X101765552Y-83596729D01*
X101736222Y-83560991D01*
X101652557Y-83404466D01*
X101601037Y-83234627D01*
X101583641Y-83058000D01*
X101601037Y-82881373D01*
X101652557Y-82711534D01*
X101736222Y-82555009D01*
X101785298Y-82495210D01*
X101848814Y-82417814D01*
X101950271Y-82334552D01*
X101986009Y-82305222D01*
X102142534Y-82221557D01*
X102312373Y-82170037D01*
X102378558Y-82163518D01*
X102444740Y-82157000D01*
X102533260Y-82157000D01*
X102599442Y-82163518D01*
X102599442Y-82163518D01*
G37*
G36*
X164688318Y-81458653D02*
G01*
X164906885Y-81549187D01*
X164906887Y-81549188D01*
X165103593Y-81680622D01*
X165270878Y-81847907D01*
X165397219Y-82036991D01*
X165402313Y-82044615D01*
X165492847Y-82263182D01*
X165539000Y-82495210D01*
X165539000Y-82731790D01*
X165492847Y-82963818D01*
X165453835Y-83058000D01*
X165402312Y-83182387D01*
X165270878Y-83379093D01*
X165103593Y-83546378D01*
X164906887Y-83677812D01*
X164906886Y-83677813D01*
X164906885Y-83677813D01*
X164688318Y-83768347D01*
X164456290Y-83814500D01*
X164219710Y-83814500D01*
X163987682Y-83768347D01*
X163769115Y-83677813D01*
X163769114Y-83677813D01*
X163769113Y-83677812D01*
X163572407Y-83546378D01*
X163405122Y-83379093D01*
X163273688Y-83182387D01*
X163222165Y-83058000D01*
X163183153Y-82963818D01*
X163137000Y-82731790D01*
X163137000Y-82495210D01*
X163183153Y-82263182D01*
X163273687Y-82044615D01*
X163278781Y-82036991D01*
X163405122Y-81847907D01*
X163572407Y-81680622D01*
X163769113Y-81549188D01*
X163769115Y-81549187D01*
X163987682Y-81458653D01*
X164219710Y-81412500D01*
X164456290Y-81412500D01*
X164688318Y-81458653D01*
X164688318Y-81458653D01*
G37*
G36*
X107044443Y-80639519D02*
G01*
X107110627Y-80646037D01*
X107280466Y-80697557D01*
X107436991Y-80781222D01*
X107472729Y-80810552D01*
X107574186Y-80893814D01*
X107657448Y-80995271D01*
X107686778Y-81031009D01*
X107770443Y-81187534D01*
X107821963Y-81357373D01*
X107839359Y-81534000D01*
X107821963Y-81710627D01*
X107770443Y-81880466D01*
X107686778Y-82036991D01*
X107680521Y-82044615D01*
X107574186Y-82174186D01*
X107472729Y-82257448D01*
X107436991Y-82286778D01*
X107280466Y-82370443D01*
X107110627Y-82421963D01*
X107044443Y-82428481D01*
X106978260Y-82435000D01*
X106889740Y-82435000D01*
X106823557Y-82428481D01*
X106757373Y-82421963D01*
X106587534Y-82370443D01*
X106431009Y-82286778D01*
X106395271Y-82257448D01*
X106293814Y-82174186D01*
X106187479Y-82044615D01*
X106181222Y-82036991D01*
X106097557Y-81880466D01*
X106046037Y-81710627D01*
X106028641Y-81534000D01*
X106046037Y-81357373D01*
X106097557Y-81187534D01*
X106181222Y-81031009D01*
X106210552Y-80995271D01*
X106293814Y-80893814D01*
X106395271Y-80810552D01*
X106431009Y-80781222D01*
X106587534Y-80697557D01*
X106757373Y-80646037D01*
X106823557Y-80639519D01*
X106889740Y-80633000D01*
X106978260Y-80633000D01*
X107044443Y-80639519D01*
X107044443Y-80639519D01*
G37*
G36*
X102599442Y-79623518D02*
G01*
X102665627Y-79630037D01*
X102835466Y-79681557D01*
X102835468Y-79681558D01*
X102858769Y-79694013D01*
X102991991Y-79765222D01*
X103027729Y-79794552D01*
X103129186Y-79877814D01*
X103184621Y-79945363D01*
X103241778Y-80015009D01*
X103325443Y-80171534D01*
X103376963Y-80341373D01*
X103394359Y-80518000D01*
X103376963Y-80694627D01*
X103325443Y-80864466D01*
X103241778Y-81020991D01*
X103212448Y-81056729D01*
X103129186Y-81158186D01*
X103027729Y-81241448D01*
X102991991Y-81270778D01*
X102991989Y-81270779D01*
X102891478Y-81324504D01*
X102835466Y-81354443D01*
X102665627Y-81405963D01*
X102599442Y-81412482D01*
X102533260Y-81419000D01*
X102444740Y-81419000D01*
X102378558Y-81412482D01*
X102312373Y-81405963D01*
X102142534Y-81354443D01*
X102086523Y-81324504D01*
X101986011Y-81270779D01*
X101986009Y-81270778D01*
X101950271Y-81241448D01*
X101848814Y-81158186D01*
X101765552Y-81056729D01*
X101736222Y-81020991D01*
X101652557Y-80864466D01*
X101601037Y-80694627D01*
X101583641Y-80518000D01*
X101601037Y-80341373D01*
X101652557Y-80171534D01*
X101736222Y-80015009D01*
X101793379Y-79945363D01*
X101848814Y-79877814D01*
X101950271Y-79794552D01*
X101986009Y-79765222D01*
X102119231Y-79694013D01*
X102142532Y-79681558D01*
X102142534Y-79681557D01*
X102312373Y-79630037D01*
X102378558Y-79623518D01*
X102444740Y-79617000D01*
X102533260Y-79617000D01*
X102599442Y-79623518D01*
X102599442Y-79623518D01*
G37*
G36*
X167257487Y-78822496D02*
G01*
X167494253Y-78920568D01*
X167494255Y-78920569D01*
X167604152Y-78994000D01*
X167707339Y-79062947D01*
X167888553Y-79244161D01*
X168030932Y-79457247D01*
X168129004Y-79694013D01*
X168179000Y-79945361D01*
X168179000Y-80201639D01*
X168129004Y-80452987D01*
X168054440Y-80633000D01*
X168030931Y-80689755D01*
X167888553Y-80902839D01*
X167707339Y-81084053D01*
X167494255Y-81226431D01*
X167494254Y-81226432D01*
X167494253Y-81226432D01*
X167257487Y-81324504D01*
X167006139Y-81374500D01*
X166749861Y-81374500D01*
X166498513Y-81324504D01*
X166261747Y-81226432D01*
X166261746Y-81226432D01*
X166261745Y-81226431D01*
X166048661Y-81084053D01*
X165867447Y-80902839D01*
X165725069Y-80689755D01*
X165701560Y-80633000D01*
X165626996Y-80452987D01*
X165577000Y-80201639D01*
X165577000Y-79945361D01*
X165626996Y-79694013D01*
X165725068Y-79457247D01*
X165867447Y-79244161D01*
X166048661Y-79062947D01*
X166151848Y-78994000D01*
X166261745Y-78920569D01*
X166261747Y-78920568D01*
X166498513Y-78822496D01*
X166749861Y-78772500D01*
X167006139Y-78772500D01*
X167257487Y-78822496D01*
X167257487Y-78822496D01*
G37*
G36*
X162177487Y-78822496D02*
G01*
X162414253Y-78920568D01*
X162414255Y-78920569D01*
X162524152Y-78994000D01*
X162627339Y-79062947D01*
X162808553Y-79244161D01*
X162950932Y-79457247D01*
X163049004Y-79694013D01*
X163099000Y-79945361D01*
X163099000Y-80201639D01*
X163049004Y-80452987D01*
X162974440Y-80633000D01*
X162950931Y-80689755D01*
X162808553Y-80902839D01*
X162627339Y-81084053D01*
X162414255Y-81226431D01*
X162414254Y-81226432D01*
X162414253Y-81226432D01*
X162177487Y-81324504D01*
X161926139Y-81374500D01*
X161669861Y-81374500D01*
X161418513Y-81324504D01*
X161181747Y-81226432D01*
X161181746Y-81226432D01*
X161181745Y-81226431D01*
X160968661Y-81084053D01*
X160787447Y-80902839D01*
X160645069Y-80689755D01*
X160621560Y-80633000D01*
X160546996Y-80452987D01*
X160497000Y-80201639D01*
X160497000Y-79945361D01*
X160546996Y-79694013D01*
X160645068Y-79457247D01*
X160787447Y-79244161D01*
X160968661Y-79062947D01*
X161071848Y-78994000D01*
X161181745Y-78920569D01*
X161181747Y-78920568D01*
X161418513Y-78822496D01*
X161669861Y-78772500D01*
X161926139Y-78772500D01*
X162177487Y-78822496D01*
X162177487Y-78822496D01*
G37*
G36*
X107044442Y-78099518D02*
G01*
X107110627Y-78106037D01*
X107280466Y-78157557D01*
X107436991Y-78241222D01*
X107472729Y-78270552D01*
X107574186Y-78353814D01*
X107657448Y-78455271D01*
X107686778Y-78491009D01*
X107770443Y-78647534D01*
X107821963Y-78817373D01*
X107839359Y-78994000D01*
X107821963Y-79170627D01*
X107770443Y-79340466D01*
X107686778Y-79496991D01*
X107657448Y-79532729D01*
X107574186Y-79634186D01*
X107472729Y-79717448D01*
X107436991Y-79746778D01*
X107280466Y-79830443D01*
X107110627Y-79881963D01*
X107044443Y-79888481D01*
X106978260Y-79895000D01*
X106889740Y-79895000D01*
X106823557Y-79888481D01*
X106757373Y-79881963D01*
X106587534Y-79830443D01*
X106431009Y-79746778D01*
X106395271Y-79717448D01*
X106293814Y-79634186D01*
X106210552Y-79532729D01*
X106181222Y-79496991D01*
X106097557Y-79340466D01*
X106046037Y-79170627D01*
X106028641Y-78994000D01*
X106046037Y-78817373D01*
X106097557Y-78647534D01*
X106181222Y-78491009D01*
X106210552Y-78455271D01*
X106293814Y-78353814D01*
X106395271Y-78270552D01*
X106431009Y-78241222D01*
X106587534Y-78157557D01*
X106757373Y-78106037D01*
X106823558Y-78099518D01*
X106889740Y-78093000D01*
X106978260Y-78093000D01*
X107044442Y-78099518D01*
X107044442Y-78099518D01*
G37*
G36*
X102599442Y-77083518D02*
G01*
X102665627Y-77090037D01*
X102835466Y-77141557D01*
X102991991Y-77225222D01*
X103027729Y-77254552D01*
X103129186Y-77337814D01*
X103212448Y-77439271D01*
X103241778Y-77475009D01*
X103325443Y-77631534D01*
X103376963Y-77801373D01*
X103394359Y-77978000D01*
X103376963Y-78154627D01*
X103325443Y-78324466D01*
X103241778Y-78480991D01*
X103212448Y-78516729D01*
X103129186Y-78618186D01*
X103027729Y-78701448D01*
X102991991Y-78730778D01*
X102835466Y-78814443D01*
X102665627Y-78865963D01*
X102599443Y-78872481D01*
X102533260Y-78879000D01*
X102444740Y-78879000D01*
X102378557Y-78872481D01*
X102312373Y-78865963D01*
X102142534Y-78814443D01*
X101986009Y-78730778D01*
X101950271Y-78701448D01*
X101848814Y-78618186D01*
X101765552Y-78516729D01*
X101736222Y-78480991D01*
X101652557Y-78324466D01*
X101601037Y-78154627D01*
X101583641Y-77978000D01*
X101601037Y-77801373D01*
X101652557Y-77631534D01*
X101736222Y-77475009D01*
X101765552Y-77439271D01*
X101848814Y-77337814D01*
X101950271Y-77254552D01*
X101986009Y-77225222D01*
X102142534Y-77141557D01*
X102312373Y-77090037D01*
X102378558Y-77083518D01*
X102444740Y-77077000D01*
X102533260Y-77077000D01*
X102599442Y-77083518D01*
X102599442Y-77083518D01*
G37*
G36*
X103390000Y-76339000D02*
G01*
X101588000Y-76339000D01*
X101588000Y-74537000D01*
X103390000Y-74537000D01*
X103390000Y-76339000D01*
X103390000Y-76339000D01*
G37*
G36*
X103969511Y-70355164D02*
G01*
X104049812Y-70379523D01*
X104123818Y-70419080D01*
X104123819Y-70419081D01*
X104123821Y-70419082D01*
X104188685Y-70472315D01*
X104241920Y-70537182D01*
X104281477Y-70611188D01*
X104305836Y-70691489D01*
X104314061Y-70775000D01*
X104305836Y-70858511D01*
X104281477Y-70938812D01*
X104241920Y-71012818D01*
X104241918Y-71012821D01*
X104188685Y-71077685D01*
X104123821Y-71130918D01*
X104123819Y-71130919D01*
X104123818Y-71130920D01*
X104049812Y-71170477D01*
X103969511Y-71194836D01*
X103906926Y-71201000D01*
X103865074Y-71201000D01*
X103802489Y-71194836D01*
X103722188Y-71170477D01*
X103648182Y-71130920D01*
X103648181Y-71130919D01*
X103648179Y-71130918D01*
X103583315Y-71077685D01*
X103530082Y-71012821D01*
X103530080Y-71012818D01*
X103490523Y-70938812D01*
X103466164Y-70858511D01*
X103457939Y-70775000D01*
X103466164Y-70691489D01*
X103490523Y-70611188D01*
X103530080Y-70537182D01*
X103583315Y-70472315D01*
X103648179Y-70419082D01*
X103648181Y-70419081D01*
X103648182Y-70419080D01*
X103722188Y-70379523D01*
X103802489Y-70355164D01*
X103865074Y-70349000D01*
X103906926Y-70349000D01*
X103969511Y-70355164D01*
X103969511Y-70355164D01*
G37*
G36*
X103969511Y-66255164D02*
G01*
X104049812Y-66279523D01*
X104123818Y-66319080D01*
X104123819Y-66319081D01*
X104123821Y-66319082D01*
X104188685Y-66372315D01*
X104241920Y-66437182D01*
X104281477Y-66511188D01*
X104305836Y-66591489D01*
X104314061Y-66675000D01*
X104305836Y-66758511D01*
X104281477Y-66838812D01*
X104241920Y-66912818D01*
X104241918Y-66912821D01*
X104188685Y-66977685D01*
X104123821Y-67030918D01*
X104123819Y-67030919D01*
X104123818Y-67030920D01*
X104049812Y-67070477D01*
X103969511Y-67094836D01*
X103906926Y-67101000D01*
X103865074Y-67101000D01*
X103802489Y-67094836D01*
X103722188Y-67070477D01*
X103648182Y-67030920D01*
X103648181Y-67030919D01*
X103648179Y-67030918D01*
X103583315Y-66977685D01*
X103530082Y-66912821D01*
X103530080Y-66912818D01*
X103490523Y-66838812D01*
X103466164Y-66758511D01*
X103457939Y-66675000D01*
X103466164Y-66591489D01*
X103490523Y-66511188D01*
X103530080Y-66437182D01*
X103583315Y-66372315D01*
X103648179Y-66319082D01*
X103648181Y-66319081D01*
X103648182Y-66319080D01*
X103722188Y-66279523D01*
X103802489Y-66255164D01*
X103865074Y-66249000D01*
X103906926Y-66249000D01*
X103969511Y-66255164D01*
X103969511Y-66255164D01*
G37*
G36*
X105302585Y-59478802D02*
G01*
X105452410Y-59508604D01*
X105734674Y-59625521D01*
X105988705Y-59795259D01*
X106204741Y-60011295D01*
X106374479Y-60265326D01*
X106491396Y-60547590D01*
X106551000Y-60847240D01*
X106551000Y-61152760D01*
X106491396Y-61452410D01*
X106374479Y-61734674D01*
X106204741Y-61988705D01*
X105988705Y-62204741D01*
X105734674Y-62374479D01*
X105452410Y-62491396D01*
X105302585Y-62521198D01*
X105152761Y-62551000D01*
X104847239Y-62551000D01*
X104697415Y-62521198D01*
X104547590Y-62491396D01*
X104265326Y-62374479D01*
X104011295Y-62204741D01*
X103795259Y-61988705D01*
X103625521Y-61734674D01*
X103508604Y-61452410D01*
X103449000Y-61152760D01*
X103449000Y-60847240D01*
X103508604Y-60547590D01*
X103625521Y-60265326D01*
X103795259Y-60011295D01*
X104011295Y-59795259D01*
X104265326Y-59625521D01*
X104547590Y-59508604D01*
X104697415Y-59478802D01*
X104847239Y-59449000D01*
X105152761Y-59449000D01*
X105302585Y-59478802D01*
X105302585Y-59478802D01*
G37*
G36*
X165302585Y-59478802D02*
G01*
X165452410Y-59508604D01*
X165734674Y-59625521D01*
X165988705Y-59795259D01*
X166204741Y-60011295D01*
X166374479Y-60265326D01*
X166491396Y-60547590D01*
X166551000Y-60847240D01*
X166551000Y-61152760D01*
X166491396Y-61452410D01*
X166374479Y-61734674D01*
X166204741Y-61988705D01*
X165988705Y-62204741D01*
X165734674Y-62374479D01*
X165452410Y-62491396D01*
X165302585Y-62521198D01*
X165152761Y-62551000D01*
X164847239Y-62551000D01*
X164697415Y-62521198D01*
X164547590Y-62491396D01*
X164265326Y-62374479D01*
X164011295Y-62204741D01*
X163795259Y-61988705D01*
X163625521Y-61734674D01*
X163508604Y-61452410D01*
X163449000Y-61152760D01*
X163449000Y-60847240D01*
X163508604Y-60547590D01*
X163625521Y-60265326D01*
X163795259Y-60011295D01*
X164011295Y-59795259D01*
X164265326Y-59625521D01*
X164547590Y-59508604D01*
X164697415Y-59478802D01*
X164847239Y-59449000D01*
X165152761Y-59449000D01*
X165302585Y-59478802D01*
X165302585Y-59478802D01*
G37*
G36*
X109916780Y-50770934D02*
G01*
X110051073Y-50811672D01*
X110098310Y-50826001D01*
X110256037Y-50910308D01*
X110265603Y-50915421D01*
X110303800Y-50946769D01*
X110412239Y-51035761D01*
X110501231Y-51144200D01*
X110532579Y-51182397D01*
X110532580Y-51182399D01*
X110621999Y-51349690D01*
X110622000Y-51349693D01*
X110677066Y-51531219D01*
X110691000Y-51672696D01*
X110691000Y-52467303D01*
X110677066Y-52608781D01*
X110622000Y-52790307D01*
X110621999Y-52790310D01*
X110541756Y-52940434D01*
X110532579Y-52957603D01*
X110501231Y-52995800D01*
X110412239Y-53104239D01*
X110303800Y-53193231D01*
X110265603Y-53224579D01*
X110265601Y-53224580D01*
X110098310Y-53313999D01*
X110098307Y-53314000D01*
X109916781Y-53369066D01*
X109728000Y-53387659D01*
X109539220Y-53369066D01*
X109357694Y-53314000D01*
X109357691Y-53313999D01*
X109190400Y-53224580D01*
X109190398Y-53224579D01*
X109152201Y-53193231D01*
X109043762Y-53104239D01*
X108954770Y-52995800D01*
X108923422Y-52957603D01*
X108917648Y-52946801D01*
X108834000Y-52790307D01*
X108778934Y-52608782D01*
X108765000Y-52467306D01*
X108765000Y-51672695D01*
X108778934Y-51531222D01*
X108778934Y-51531220D01*
X108834000Y-51349694D01*
X108834001Y-51349690D01*
X108923420Y-51182399D01*
X108923421Y-51182397D01*
X108954769Y-51144200D01*
X109043761Y-51035761D01*
X109152200Y-50946769D01*
X109190397Y-50915421D01*
X109207566Y-50906244D01*
X109357690Y-50826001D01*
X109357693Y-50826000D01*
X109539219Y-50770934D01*
X109728000Y-50752341D01*
X109916780Y-50770934D01*
X109916780Y-50770934D01*
G37*
G36*
X107376780Y-50770934D02*
G01*
X107511073Y-50811672D01*
X107558310Y-50826001D01*
X107716037Y-50910308D01*
X107725603Y-50915421D01*
X107763800Y-50946769D01*
X107872239Y-51035761D01*
X107961231Y-51144200D01*
X107992579Y-51182397D01*
X107992580Y-51182399D01*
X108081999Y-51349690D01*
X108082000Y-51349693D01*
X108137066Y-51531219D01*
X108151000Y-51672696D01*
X108151000Y-52467303D01*
X108137066Y-52608781D01*
X108082000Y-52790307D01*
X108081999Y-52790310D01*
X108001756Y-52940434D01*
X107992579Y-52957603D01*
X107961231Y-52995800D01*
X107872239Y-53104239D01*
X107763800Y-53193231D01*
X107725603Y-53224579D01*
X107725601Y-53224580D01*
X107558310Y-53313999D01*
X107558307Y-53314000D01*
X107376781Y-53369066D01*
X107188000Y-53387659D01*
X106999220Y-53369066D01*
X106817694Y-53314000D01*
X106817691Y-53313999D01*
X106650400Y-53224580D01*
X106650398Y-53224579D01*
X106612201Y-53193231D01*
X106503762Y-53104239D01*
X106414770Y-52995800D01*
X106383422Y-52957603D01*
X106377648Y-52946801D01*
X106294000Y-52790307D01*
X106238934Y-52608782D01*
X106225000Y-52467306D01*
X106225000Y-51672695D01*
X106238934Y-51531222D01*
X106238934Y-51531220D01*
X106294000Y-51349694D01*
X106294001Y-51349690D01*
X106383420Y-51182399D01*
X106383421Y-51182397D01*
X106414769Y-51144200D01*
X106503761Y-51035761D01*
X106612200Y-50946769D01*
X106650397Y-50915421D01*
X106667566Y-50906244D01*
X106817690Y-50826001D01*
X106817693Y-50826000D01*
X106999219Y-50770934D01*
X107188000Y-50752341D01*
X107376780Y-50770934D01*
X107376780Y-50770934D01*
G37*
G36*
X104836780Y-50770934D02*
G01*
X104971073Y-50811672D01*
X105018310Y-50826001D01*
X105176037Y-50910308D01*
X105185603Y-50915421D01*
X105223800Y-50946769D01*
X105332239Y-51035761D01*
X105421231Y-51144200D01*
X105452579Y-51182397D01*
X105452580Y-51182399D01*
X105541999Y-51349690D01*
X105542000Y-51349693D01*
X105597066Y-51531219D01*
X105611000Y-51672696D01*
X105611000Y-52467303D01*
X105597066Y-52608781D01*
X105542000Y-52790307D01*
X105541999Y-52790310D01*
X105461756Y-52940434D01*
X105452579Y-52957603D01*
X105421231Y-52995800D01*
X105332239Y-53104239D01*
X105223800Y-53193231D01*
X105185603Y-53224579D01*
X105185601Y-53224580D01*
X105018310Y-53313999D01*
X105018307Y-53314000D01*
X104836781Y-53369066D01*
X104648000Y-53387659D01*
X104459220Y-53369066D01*
X104277694Y-53314000D01*
X104277691Y-53313999D01*
X104110400Y-53224580D01*
X104110398Y-53224579D01*
X104072201Y-53193231D01*
X103963762Y-53104239D01*
X103874770Y-52995800D01*
X103843422Y-52957603D01*
X103837648Y-52946801D01*
X103754000Y-52790307D01*
X103698934Y-52608782D01*
X103685000Y-52467306D01*
X103685000Y-51672695D01*
X103698934Y-51531222D01*
X103698934Y-51531220D01*
X103754000Y-51349694D01*
X103754001Y-51349690D01*
X103843420Y-51182399D01*
X103843421Y-51182397D01*
X103874769Y-51144200D01*
X103963761Y-51035761D01*
X104072200Y-50946769D01*
X104110397Y-50915421D01*
X104127566Y-50906244D01*
X104277690Y-50826001D01*
X104277693Y-50826000D01*
X104459219Y-50770934D01*
X104648000Y-50752341D01*
X104836780Y-50770934D01*
X104836780Y-50770934D01*
G37*
G36*
X103071000Y-53383000D02*
G01*
X101145000Y-53383000D01*
X101145000Y-50757000D01*
X103071000Y-50757000D01*
X103071000Y-53383000D01*
X103071000Y-53383000D01*
G37*
M02*
