M48
; DRILL file {KiCad (5.1.2)-2} date 28/10/2019 15:08:02
; FORMAT={3:3/ absolute / metric / suppress leading zeros}
; #@! TF.CreationDate,2019-10-28T15:08:02+07:00
; #@! TF.GenerationSoftware,Kicad,Pcbnew,(5.1.2)-2
FMAT,2
METRIC,TZ
T1C0.400
T2C0.500
T3C0.550
T4C0.800
T5C1.000
T6C1.350
T7C1.450
T8C3.000
%
G90
G05
T1
X104394Y-93218
X104394Y-94234
X105156Y-93726
T2
X101600Y-68072
X101600Y-69342
X101854Y-103886
X102108Y-114046
X103632Y-103886
X103886Y-114046
X104902Y-86868
X105410Y-103886
X105537Y-64643
X105664Y-72771
X105664Y-114046
X107188Y-103886
X107442Y-114046
X108966Y-103886
X109220Y-114046
X109601Y-70866
X109601Y-73152
X110236Y-88392
X110236Y-93980
X110744Y-103886
X110998Y-114046
X111760Y-88138
X112014Y-70866
X112522Y-103886
X112522Y-105410
X112522Y-106934
X112522Y-108458
X112522Y-109982
X112522Y-111506
X112522Y-113030
X112649Y-76454
X113792Y-81026
X113792Y-82804
X114300Y-84201
X114554Y-79502
X115570Y-73660
X115697Y-89555
X116332Y-72898
X117094Y-85852
X117348Y-111506
X118618Y-105791
X119253Y-75946
X119380Y-78232
X119380Y-81534
X119380Y-93472
X119380Y-94996
X119380Y-96520
X119380Y-98044
X119380Y-99568
X119380Y-101092
X119380Y-102616
X119634Y-83312
X119634Y-79756
X120142Y-84836
X120142Y-87376
X122428Y-94996
X122428Y-96520
X122428Y-98044
X122428Y-99568
X122428Y-101092
X122682Y-71120
X122682Y-72898
X123190Y-69342
X123317Y-108712
X124460Y-73914
X124968Y-82296
X124968Y-84328
X126492Y-78994
X126746Y-99822
X126746Y-101092
X126746Y-102362
X129794Y-80772
X129794Y-88138
X130556Y-51562
X130556Y-52832
X130556Y-54102
X130556Y-55372
X130556Y-56642
X130556Y-57912
X130556Y-59182
X131318Y-99314
X131318Y-100584
X131318Y-101854
X131826Y-51562
X131826Y-52832
X131826Y-54102
X131826Y-55372
X131826Y-56642
X131826Y-57912
X131826Y-59182
X133096Y-51562
X133096Y-52832
X133096Y-54102
X133096Y-55372
X133096Y-56642
X133096Y-57912
X133096Y-59182
X133604Y-101346
X134366Y-51562
X134366Y-52832
X134366Y-54102
X134366Y-55372
X134366Y-56642
X134366Y-57912
X134366Y-59182
X135636Y-51562
X135636Y-52832
X135636Y-54102
X135636Y-55372
X135636Y-56642
X135636Y-57912
X135636Y-59182
X136906Y-51562
X136906Y-52832
X136906Y-54102
X136906Y-55372
X136906Y-56642
X136906Y-57912
X136906Y-59182
X138176Y-51562
X138176Y-52832
X138176Y-54102
X138176Y-55372
X138176Y-56642
X138176Y-57912
X138176Y-59182
X138684Y-75692
X139446Y-51562
X139446Y-52832
X139446Y-54102
X139446Y-55372
X139446Y-56642
X139446Y-57912
X139446Y-59182
X139446Y-71120
X139700Y-80264
X139700Y-81534
X139700Y-82804
X139700Y-84074
X139700Y-85344
X139700Y-86614
X139700Y-87884
X140716Y-64008
X140716Y-75692
X140716Y-93980
X142240Y-90424
X142748Y-75692
X143510Y-88900
X144145Y-90424
X144907Y-82296
X147193Y-68072
X147447Y-108966
X148844Y-89408
X149479Y-67818
X149733Y-106680
X149860Y-86614
X150114Y-84074
X150876Y-86614
X150876Y-96520
X150876Y-97536
X151130Y-82296
X151130Y-88392
X151384Y-83820
X151511Y-66040
X151638Y-71140
X151765Y-79883
X152273Y-109220
X152400Y-82296
X152400Y-88392
X152781Y-79248
X152781Y-80391
X153670Y-82296
X153670Y-88392
X153670Y-91694
X153670Y-92964
X153670Y-94234
X153670Y-95504
X153797Y-79883
X154940Y-82296
X154940Y-88392
X156718Y-96266
X157950Y-102850
X157988Y-80772
X158496Y-66548
X159004Y-80772
X159300Y-102850
X160020Y-80772
X160380Y-101600
X160528Y-86868
X160782Y-89154
X161290Y-87884
X161544Y-101092
X162560Y-87884
X162814Y-101092
X163449Y-86995
X164084Y-101092
X164338Y-87884
X165354Y-101092
X165608Y-54243
X165608Y-55993
X165862Y-57912
X166370Y-87122
X166624Y-101092
X167386Y-87884
X167894Y-66548
X167894Y-101092
X168402Y-52324
X168402Y-60706
X168402Y-88900
X168402Y-90170
X168402Y-91440
T4
X133638Y-104267
X135638Y-104267
X137638Y-104267
X139638Y-104267
X141638Y-104267
X143638Y-104267
X145638Y-104267
X147638Y-104267
X149638Y-104267
X151638Y-104267
T5
X102108Y-52070
X104648Y-52070
X107188Y-52070
X109728Y-52070
X106934Y-78994
X106934Y-81534
X106934Y-84074
X106934Y-86614
X102489Y-75438
X102489Y-77978
X102489Y-80518
X102489Y-83058
X102489Y-85598
X102489Y-88138
X102489Y-90678
X138684Y-107950
X138684Y-110490
X138684Y-113030
X138684Y-115570
T6
X164274Y-96266
X164338Y-82614
T7
X161735Y-93726
X161735Y-98806
X166814Y-93726
X166814Y-98806
X161798Y-80073
X161798Y-85154
X166878Y-80073
X166878Y-85154
T8
X165000Y-61000
X105000Y-61000
X146500Y-116500
T3
G00X103886Y-66675
M15
G01X103886Y-66675
M16
G05
G00X103886Y-70775
M15
G01X103886Y-70775
M16
G05
T0
M30
