G04 #@! TF.GenerationSoftware,KiCad,Pcbnew,(5.1.2)-2*
G04 #@! TF.CreationDate,2019-10-28T15:07:55+07:00*
G04 #@! TF.ProjectId,ph_shield_sim7000_pm2_hw,70685f73-6869-4656-9c64-5f73696d3730,rev?*
G04 #@! TF.SameCoordinates,Original*
G04 #@! TF.FileFunction,Paste,Top*
G04 #@! TF.FilePolarity,Positive*
%FSLAX46Y46*%
G04 Gerber Fmt 4.6, Leading zero omitted, Abs format (unit mm)*
G04 Created by KiCad (PCBNEW (5.1.2)-2) date 2019-10-28 15:07:55*
%MOMM*%
%LPD*%
G04 APERTURE LIST*
%ADD10R,0.600000X1.600000*%
%ADD11O,0.600000X1.600000*%
%ADD12O,1.600000X0.600000*%
%ADD13R,0.400000X1.500000*%
%ADD14C,0.100000*%
%ADD15C,1.150000*%
%ADD16R,1.450000X0.450000*%
%ADD17C,0.950000*%
%ADD18R,1.500000X1.250000*%
%ADD19R,2.500000X4.000000*%
%ADD20R,1.250000X1.500000*%
%ADD21R,1.500000X1.300000*%
%ADD22R,1.300000X1.500000*%
%ADD23R,2.000000X4.000000*%
%ADD24R,1.254000X0.800100*%
%ADD25R,0.400000X0.900000*%
%ADD26R,2.180000X0.400000*%
%ADD27R,2.500000X1.800000*%
%ADD28R,2.286000X1.778000*%
%ADD29R,1.000000X1.000000*%
%ADD30R,1.350000X0.400000*%
%ADD31R,1.000000X3.000000*%
%ADD32R,2.000000X1.524000*%
%ADD33R,1.524000X0.624000*%
%ADD34R,5.400040X2.900680*%
%ADD35R,1.100000X4.600000*%
%ADD36R,5.250000X4.550000*%
%ADD37C,2.250000*%
G04 APERTURE END LIST*
D10*
X142620000Y-73344000D03*
D11*
X141620000Y-73344000D03*
X140620000Y-73344000D03*
X139620000Y-73344000D03*
X138620000Y-73344000D03*
X137620000Y-73344000D03*
X136620000Y-73344000D03*
X135620000Y-73344000D03*
X134620000Y-73344000D03*
X133620000Y-73344000D03*
X132620000Y-73344000D03*
X131620000Y-73344000D03*
X130620000Y-73344000D03*
X129620000Y-73344000D03*
X128620000Y-73344000D03*
X127620000Y-73344000D03*
X126620000Y-73344000D03*
D12*
X122620000Y-77344000D03*
X122620000Y-78344000D03*
X122620000Y-79344000D03*
X122620000Y-80344000D03*
X122620000Y-81344000D03*
X122620000Y-82344000D03*
X122620000Y-83344000D03*
X122620000Y-84344000D03*
X122620000Y-85344000D03*
X122620000Y-86344000D03*
X122620000Y-87344000D03*
X122620000Y-88344000D03*
X122620000Y-89344000D03*
X122620000Y-90344000D03*
X122620000Y-91344000D03*
X122620000Y-92344000D03*
X122620000Y-93344000D03*
D11*
X126620000Y-97344000D03*
X127620000Y-97344000D03*
X128620000Y-97344000D03*
X129620000Y-97344000D03*
X130620000Y-97344000D03*
X131620000Y-97344000D03*
X132620000Y-97344000D03*
X133620000Y-97344000D03*
X134620000Y-97344000D03*
X135620000Y-97344000D03*
X136620000Y-97344000D03*
X137620000Y-97344000D03*
X138620000Y-97344000D03*
X139620000Y-97344000D03*
X140620000Y-97344000D03*
X141620000Y-97344000D03*
X142620000Y-97344000D03*
D12*
X146620000Y-93344000D03*
X146620000Y-92344000D03*
X146620000Y-91344000D03*
X146620000Y-90344000D03*
X146620000Y-89344000D03*
X146620000Y-88344000D03*
X146620000Y-87344000D03*
X146620000Y-86344000D03*
X146620000Y-85344000D03*
X146620000Y-84344000D03*
X146620000Y-83344000D03*
X146620000Y-82344000D03*
X146620000Y-81344000D03*
X146620000Y-80344000D03*
X146620000Y-79344000D03*
X146620000Y-78344000D03*
X146620000Y-77344000D03*
D13*
X120792000Y-107128000D03*
X120142000Y-107128000D03*
X119492000Y-107128000D03*
X119492000Y-109788000D03*
X120142000Y-109788000D03*
X120792000Y-109788000D03*
D14*
G36*
X150080505Y-91746204D02*
G01*
X150104773Y-91749804D01*
X150128572Y-91755765D01*
X150151671Y-91764030D01*
X150173850Y-91774520D01*
X150194893Y-91787132D01*
X150214599Y-91801747D01*
X150232777Y-91818223D01*
X150249253Y-91836401D01*
X150263868Y-91856107D01*
X150276480Y-91877150D01*
X150286970Y-91899329D01*
X150295235Y-91922428D01*
X150301196Y-91946227D01*
X150304796Y-91970495D01*
X150306000Y-91994999D01*
X150306000Y-92645001D01*
X150304796Y-92669505D01*
X150301196Y-92693773D01*
X150295235Y-92717572D01*
X150286970Y-92740671D01*
X150276480Y-92762850D01*
X150263868Y-92783893D01*
X150249253Y-92803599D01*
X150232777Y-92821777D01*
X150214599Y-92838253D01*
X150194893Y-92852868D01*
X150173850Y-92865480D01*
X150151671Y-92875970D01*
X150128572Y-92884235D01*
X150104773Y-92890196D01*
X150080505Y-92893796D01*
X150056001Y-92895000D01*
X149155999Y-92895000D01*
X149131495Y-92893796D01*
X149107227Y-92890196D01*
X149083428Y-92884235D01*
X149060329Y-92875970D01*
X149038150Y-92865480D01*
X149017107Y-92852868D01*
X148997401Y-92838253D01*
X148979223Y-92821777D01*
X148962747Y-92803599D01*
X148948132Y-92783893D01*
X148935520Y-92762850D01*
X148925030Y-92740671D01*
X148916765Y-92717572D01*
X148910804Y-92693773D01*
X148907204Y-92669505D01*
X148906000Y-92645001D01*
X148906000Y-91994999D01*
X148907204Y-91970495D01*
X148910804Y-91946227D01*
X148916765Y-91922428D01*
X148925030Y-91899329D01*
X148935520Y-91877150D01*
X148948132Y-91856107D01*
X148962747Y-91836401D01*
X148979223Y-91818223D01*
X148997401Y-91801747D01*
X149017107Y-91787132D01*
X149038150Y-91774520D01*
X149060329Y-91764030D01*
X149083428Y-91755765D01*
X149107227Y-91749804D01*
X149131495Y-91746204D01*
X149155999Y-91745000D01*
X150056001Y-91745000D01*
X150080505Y-91746204D01*
X150080505Y-91746204D01*
G37*
D15*
X149606000Y-92320000D03*
D14*
G36*
X150080505Y-93796204D02*
G01*
X150104773Y-93799804D01*
X150128572Y-93805765D01*
X150151671Y-93814030D01*
X150173850Y-93824520D01*
X150194893Y-93837132D01*
X150214599Y-93851747D01*
X150232777Y-93868223D01*
X150249253Y-93886401D01*
X150263868Y-93906107D01*
X150276480Y-93927150D01*
X150286970Y-93949329D01*
X150295235Y-93972428D01*
X150301196Y-93996227D01*
X150304796Y-94020495D01*
X150306000Y-94044999D01*
X150306000Y-94695001D01*
X150304796Y-94719505D01*
X150301196Y-94743773D01*
X150295235Y-94767572D01*
X150286970Y-94790671D01*
X150276480Y-94812850D01*
X150263868Y-94833893D01*
X150249253Y-94853599D01*
X150232777Y-94871777D01*
X150214599Y-94888253D01*
X150194893Y-94902868D01*
X150173850Y-94915480D01*
X150151671Y-94925970D01*
X150128572Y-94934235D01*
X150104773Y-94940196D01*
X150080505Y-94943796D01*
X150056001Y-94945000D01*
X149155999Y-94945000D01*
X149131495Y-94943796D01*
X149107227Y-94940196D01*
X149083428Y-94934235D01*
X149060329Y-94925970D01*
X149038150Y-94915480D01*
X149017107Y-94902868D01*
X148997401Y-94888253D01*
X148979223Y-94871777D01*
X148962747Y-94853599D01*
X148948132Y-94833893D01*
X148935520Y-94812850D01*
X148925030Y-94790671D01*
X148916765Y-94767572D01*
X148910804Y-94743773D01*
X148907204Y-94719505D01*
X148906000Y-94695001D01*
X148906000Y-94044999D01*
X148907204Y-94020495D01*
X148910804Y-93996227D01*
X148916765Y-93972428D01*
X148925030Y-93949329D01*
X148935520Y-93927150D01*
X148948132Y-93906107D01*
X148962747Y-93886401D01*
X148979223Y-93868223D01*
X148997401Y-93851747D01*
X149017107Y-93837132D01*
X149038150Y-93824520D01*
X149060329Y-93814030D01*
X149083428Y-93805765D01*
X149107227Y-93799804D01*
X149131495Y-93796204D01*
X149155999Y-93795000D01*
X150056001Y-93795000D01*
X150080505Y-93796204D01*
X150080505Y-93796204D01*
G37*
D15*
X149606000Y-94370000D03*
D16*
X116488000Y-84205000D03*
X116488000Y-83555000D03*
X116488000Y-82905000D03*
X116488000Y-82255000D03*
X116488000Y-81605000D03*
X116488000Y-80955000D03*
X116488000Y-80305000D03*
X116488000Y-79655000D03*
X116488000Y-79005000D03*
X116488000Y-78355000D03*
X110588000Y-78355000D03*
X110588000Y-79005000D03*
X110588000Y-79655000D03*
X110588000Y-80305000D03*
X110588000Y-80955000D03*
X110588000Y-81605000D03*
X110588000Y-82255000D03*
X110588000Y-82905000D03*
X110588000Y-83555000D03*
X110588000Y-84205000D03*
D14*
G36*
X119549779Y-75472144D02*
G01*
X119572834Y-75475563D01*
X119595443Y-75481227D01*
X119617387Y-75489079D01*
X119638457Y-75499044D01*
X119658448Y-75511026D01*
X119677168Y-75524910D01*
X119694438Y-75540562D01*
X119710090Y-75557832D01*
X119723974Y-75576552D01*
X119735956Y-75596543D01*
X119745921Y-75617613D01*
X119753773Y-75639557D01*
X119759437Y-75662166D01*
X119762856Y-75685221D01*
X119764000Y-75708500D01*
X119764000Y-76183500D01*
X119762856Y-76206779D01*
X119759437Y-76229834D01*
X119753773Y-76252443D01*
X119745921Y-76274387D01*
X119735956Y-76295457D01*
X119723974Y-76315448D01*
X119710090Y-76334168D01*
X119694438Y-76351438D01*
X119677168Y-76367090D01*
X119658448Y-76380974D01*
X119638457Y-76392956D01*
X119617387Y-76402921D01*
X119595443Y-76410773D01*
X119572834Y-76416437D01*
X119549779Y-76419856D01*
X119526500Y-76421000D01*
X118951500Y-76421000D01*
X118928221Y-76419856D01*
X118905166Y-76416437D01*
X118882557Y-76410773D01*
X118860613Y-76402921D01*
X118839543Y-76392956D01*
X118819552Y-76380974D01*
X118800832Y-76367090D01*
X118783562Y-76351438D01*
X118767910Y-76334168D01*
X118754026Y-76315448D01*
X118742044Y-76295457D01*
X118732079Y-76274387D01*
X118724227Y-76252443D01*
X118718563Y-76229834D01*
X118715144Y-76206779D01*
X118714000Y-76183500D01*
X118714000Y-75708500D01*
X118715144Y-75685221D01*
X118718563Y-75662166D01*
X118724227Y-75639557D01*
X118732079Y-75617613D01*
X118742044Y-75596543D01*
X118754026Y-75576552D01*
X118767910Y-75557832D01*
X118783562Y-75540562D01*
X118800832Y-75524910D01*
X118819552Y-75511026D01*
X118839543Y-75499044D01*
X118860613Y-75489079D01*
X118882557Y-75481227D01*
X118905166Y-75475563D01*
X118928221Y-75472144D01*
X118951500Y-75471000D01*
X119526500Y-75471000D01*
X119549779Y-75472144D01*
X119549779Y-75472144D01*
G37*
D17*
X119239000Y-75946000D03*
D14*
G36*
X117799779Y-75472144D02*
G01*
X117822834Y-75475563D01*
X117845443Y-75481227D01*
X117867387Y-75489079D01*
X117888457Y-75499044D01*
X117908448Y-75511026D01*
X117927168Y-75524910D01*
X117944438Y-75540562D01*
X117960090Y-75557832D01*
X117973974Y-75576552D01*
X117985956Y-75596543D01*
X117995921Y-75617613D01*
X118003773Y-75639557D01*
X118009437Y-75662166D01*
X118012856Y-75685221D01*
X118014000Y-75708500D01*
X118014000Y-76183500D01*
X118012856Y-76206779D01*
X118009437Y-76229834D01*
X118003773Y-76252443D01*
X117995921Y-76274387D01*
X117985956Y-76295457D01*
X117973974Y-76315448D01*
X117960090Y-76334168D01*
X117944438Y-76351438D01*
X117927168Y-76367090D01*
X117908448Y-76380974D01*
X117888457Y-76392956D01*
X117867387Y-76402921D01*
X117845443Y-76410773D01*
X117822834Y-76416437D01*
X117799779Y-76419856D01*
X117776500Y-76421000D01*
X117201500Y-76421000D01*
X117178221Y-76419856D01*
X117155166Y-76416437D01*
X117132557Y-76410773D01*
X117110613Y-76402921D01*
X117089543Y-76392956D01*
X117069552Y-76380974D01*
X117050832Y-76367090D01*
X117033562Y-76351438D01*
X117017910Y-76334168D01*
X117004026Y-76315448D01*
X116992044Y-76295457D01*
X116982079Y-76274387D01*
X116974227Y-76252443D01*
X116968563Y-76229834D01*
X116965144Y-76206779D01*
X116964000Y-76183500D01*
X116964000Y-75708500D01*
X116965144Y-75685221D01*
X116968563Y-75662166D01*
X116974227Y-75639557D01*
X116982079Y-75617613D01*
X116992044Y-75596543D01*
X117004026Y-75576552D01*
X117017910Y-75557832D01*
X117033562Y-75540562D01*
X117050832Y-75524910D01*
X117069552Y-75511026D01*
X117089543Y-75499044D01*
X117110613Y-75489079D01*
X117132557Y-75481227D01*
X117155166Y-75475563D01*
X117178221Y-75472144D01*
X117201500Y-75471000D01*
X117776500Y-75471000D01*
X117799779Y-75472144D01*
X117799779Y-75472144D01*
G37*
D17*
X117489000Y-75946000D03*
D18*
X112288000Y-76454000D03*
X114788000Y-76454000D03*
D19*
X121666000Y-60642000D03*
X121666000Y-52642000D03*
D20*
X128270000Y-55646000D03*
X128270000Y-58146000D03*
D18*
X112034000Y-86233000D03*
X114534000Y-86233000D03*
D20*
X113665000Y-92055000D03*
X113665000Y-89555000D03*
X113665000Y-95524000D03*
X113665000Y-98024000D03*
D18*
X165882000Y-52324000D03*
X168382000Y-52324000D03*
X165882000Y-57912000D03*
X168382000Y-57912000D03*
X112090000Y-64008000D03*
X109590000Y-64008000D03*
D20*
X156972000Y-90150000D03*
X156972000Y-87650000D03*
X159004000Y-87650000D03*
X159004000Y-90150000D03*
X151892000Y-92349000D03*
X151892000Y-94849000D03*
X158432500Y-98254500D03*
X158432500Y-100754500D03*
D18*
X120670000Y-104775000D03*
X123170000Y-104775000D03*
D20*
X153670000Y-71140000D03*
X153670000Y-73640000D03*
X151638000Y-73640000D03*
X151638000Y-71140000D03*
D21*
X149526000Y-67818000D03*
X152226000Y-67818000D03*
D22*
X163830000Y-55038000D03*
X163830000Y-57738000D03*
D21*
X152226000Y-109220000D03*
X149526000Y-109220000D03*
D23*
X106644000Y-56388000D03*
X102144000Y-56388000D03*
D24*
X111617000Y-90805000D03*
X109616240Y-91755000D03*
X109616240Y-89855000D03*
X109616240Y-95824000D03*
X109616240Y-97724000D03*
X111617000Y-96774000D03*
X147558000Y-65532000D03*
X145557240Y-66482000D03*
X145557240Y-64582000D03*
X145557240Y-110556000D03*
X145557240Y-112456000D03*
X147558000Y-111506000D03*
D21*
X109490000Y-68547500D03*
X112190000Y-68547500D03*
D22*
X156972000Y-85360500D03*
X156972000Y-82660500D03*
X159004000Y-82660500D03*
X159004000Y-85360500D03*
D25*
X151853900Y-85356700D03*
D26*
X153416000Y-87058500D03*
X153416000Y-83629500D03*
D27*
X110268000Y-59690000D03*
X114268000Y-59690000D03*
X114268000Y-55880000D03*
X110268000Y-55880000D03*
D28*
X143002000Y-54211000D03*
X143002000Y-58565000D03*
D29*
X115697000Y-89555000D03*
X115697000Y-92055000D03*
X115697000Y-95524000D03*
X115697000Y-98024000D03*
X109590000Y-66262750D03*
X112090000Y-66262750D03*
X112090000Y-73152000D03*
X109590000Y-73152000D03*
X109590000Y-70832250D03*
X112090000Y-70832250D03*
D27*
X161830000Y-89662000D03*
X165830000Y-89662000D03*
X167862000Y-66548000D03*
X163862000Y-66548000D03*
D14*
G36*
X168876505Y-62173204D02*
G01*
X168900773Y-62176804D01*
X168924572Y-62182765D01*
X168947671Y-62191030D01*
X168969850Y-62201520D01*
X168990893Y-62214132D01*
X169010599Y-62228747D01*
X169028777Y-62245223D01*
X169045253Y-62263401D01*
X169059868Y-62283107D01*
X169072480Y-62304150D01*
X169082970Y-62326329D01*
X169091235Y-62349428D01*
X169097196Y-62373227D01*
X169100796Y-62397495D01*
X169102000Y-62421999D01*
X169102000Y-63072001D01*
X169100796Y-63096505D01*
X169097196Y-63120773D01*
X169091235Y-63144572D01*
X169082970Y-63167671D01*
X169072480Y-63189850D01*
X169059868Y-63210893D01*
X169045253Y-63230599D01*
X169028777Y-63248777D01*
X169010599Y-63265253D01*
X168990893Y-63279868D01*
X168969850Y-63292480D01*
X168947671Y-63302970D01*
X168924572Y-63311235D01*
X168900773Y-63317196D01*
X168876505Y-63320796D01*
X168852001Y-63322000D01*
X167951999Y-63322000D01*
X167927495Y-63320796D01*
X167903227Y-63317196D01*
X167879428Y-63311235D01*
X167856329Y-63302970D01*
X167834150Y-63292480D01*
X167813107Y-63279868D01*
X167793401Y-63265253D01*
X167775223Y-63248777D01*
X167758747Y-63230599D01*
X167744132Y-63210893D01*
X167731520Y-63189850D01*
X167721030Y-63167671D01*
X167712765Y-63144572D01*
X167706804Y-63120773D01*
X167703204Y-63096505D01*
X167702000Y-63072001D01*
X167702000Y-62421999D01*
X167703204Y-62397495D01*
X167706804Y-62373227D01*
X167712765Y-62349428D01*
X167721030Y-62326329D01*
X167731520Y-62304150D01*
X167744132Y-62283107D01*
X167758747Y-62263401D01*
X167775223Y-62245223D01*
X167793401Y-62228747D01*
X167813107Y-62214132D01*
X167834150Y-62201520D01*
X167856329Y-62191030D01*
X167879428Y-62182765D01*
X167903227Y-62176804D01*
X167927495Y-62173204D01*
X167951999Y-62172000D01*
X168852001Y-62172000D01*
X168876505Y-62173204D01*
X168876505Y-62173204D01*
G37*
D15*
X168402000Y-62747000D03*
D14*
G36*
X168876505Y-60123204D02*
G01*
X168900773Y-60126804D01*
X168924572Y-60132765D01*
X168947671Y-60141030D01*
X168969850Y-60151520D01*
X168990893Y-60164132D01*
X169010599Y-60178747D01*
X169028777Y-60195223D01*
X169045253Y-60213401D01*
X169059868Y-60233107D01*
X169072480Y-60254150D01*
X169082970Y-60276329D01*
X169091235Y-60299428D01*
X169097196Y-60323227D01*
X169100796Y-60347495D01*
X169102000Y-60371999D01*
X169102000Y-61022001D01*
X169100796Y-61046505D01*
X169097196Y-61070773D01*
X169091235Y-61094572D01*
X169082970Y-61117671D01*
X169072480Y-61139850D01*
X169059868Y-61160893D01*
X169045253Y-61180599D01*
X169028777Y-61198777D01*
X169010599Y-61215253D01*
X168990893Y-61229868D01*
X168969850Y-61242480D01*
X168947671Y-61252970D01*
X168924572Y-61261235D01*
X168900773Y-61267196D01*
X168876505Y-61270796D01*
X168852001Y-61272000D01*
X167951999Y-61272000D01*
X167927495Y-61270796D01*
X167903227Y-61267196D01*
X167879428Y-61261235D01*
X167856329Y-61252970D01*
X167834150Y-61242480D01*
X167813107Y-61229868D01*
X167793401Y-61215253D01*
X167775223Y-61198777D01*
X167758747Y-61180599D01*
X167744132Y-61160893D01*
X167731520Y-61139850D01*
X167721030Y-61117671D01*
X167712765Y-61094572D01*
X167706804Y-61070773D01*
X167703204Y-61046505D01*
X167702000Y-61022001D01*
X167702000Y-60371999D01*
X167703204Y-60347495D01*
X167706804Y-60323227D01*
X167712765Y-60299428D01*
X167721030Y-60276329D01*
X167731520Y-60254150D01*
X167744132Y-60233107D01*
X167758747Y-60213401D01*
X167775223Y-60195223D01*
X167793401Y-60178747D01*
X167813107Y-60164132D01*
X167834150Y-60151520D01*
X167856329Y-60141030D01*
X167879428Y-60132765D01*
X167903227Y-60126804D01*
X167927495Y-60123204D01*
X167951999Y-60122000D01*
X168852001Y-60122000D01*
X168876505Y-60123204D01*
X168876505Y-60123204D01*
G37*
D15*
X168402000Y-60697000D03*
D14*
G36*
X158836505Y-65849204D02*
G01*
X158860773Y-65852804D01*
X158884572Y-65858765D01*
X158907671Y-65867030D01*
X158929850Y-65877520D01*
X158950893Y-65890132D01*
X158970599Y-65904747D01*
X158988777Y-65921223D01*
X159005253Y-65939401D01*
X159019868Y-65959107D01*
X159032480Y-65980150D01*
X159042970Y-66002329D01*
X159051235Y-66025428D01*
X159057196Y-66049227D01*
X159060796Y-66073495D01*
X159062000Y-66097999D01*
X159062000Y-66998001D01*
X159060796Y-67022505D01*
X159057196Y-67046773D01*
X159051235Y-67070572D01*
X159042970Y-67093671D01*
X159032480Y-67115850D01*
X159019868Y-67136893D01*
X159005253Y-67156599D01*
X158988777Y-67174777D01*
X158970599Y-67191253D01*
X158950893Y-67205868D01*
X158929850Y-67218480D01*
X158907671Y-67228970D01*
X158884572Y-67237235D01*
X158860773Y-67243196D01*
X158836505Y-67246796D01*
X158812001Y-67248000D01*
X158161999Y-67248000D01*
X158137495Y-67246796D01*
X158113227Y-67243196D01*
X158089428Y-67237235D01*
X158066329Y-67228970D01*
X158044150Y-67218480D01*
X158023107Y-67205868D01*
X158003401Y-67191253D01*
X157985223Y-67174777D01*
X157968747Y-67156599D01*
X157954132Y-67136893D01*
X157941520Y-67115850D01*
X157931030Y-67093671D01*
X157922765Y-67070572D01*
X157916804Y-67046773D01*
X157913204Y-67022505D01*
X157912000Y-66998001D01*
X157912000Y-66097999D01*
X157913204Y-66073495D01*
X157916804Y-66049227D01*
X157922765Y-66025428D01*
X157931030Y-66002329D01*
X157941520Y-65980150D01*
X157954132Y-65959107D01*
X157968747Y-65939401D01*
X157985223Y-65921223D01*
X158003401Y-65904747D01*
X158023107Y-65890132D01*
X158044150Y-65877520D01*
X158066329Y-65867030D01*
X158089428Y-65858765D01*
X158113227Y-65852804D01*
X158137495Y-65849204D01*
X158161999Y-65848000D01*
X158812001Y-65848000D01*
X158836505Y-65849204D01*
X158836505Y-65849204D01*
G37*
D15*
X158487000Y-66548000D03*
D14*
G36*
X160886505Y-65849204D02*
G01*
X160910773Y-65852804D01*
X160934572Y-65858765D01*
X160957671Y-65867030D01*
X160979850Y-65877520D01*
X161000893Y-65890132D01*
X161020599Y-65904747D01*
X161038777Y-65921223D01*
X161055253Y-65939401D01*
X161069868Y-65959107D01*
X161082480Y-65980150D01*
X161092970Y-66002329D01*
X161101235Y-66025428D01*
X161107196Y-66049227D01*
X161110796Y-66073495D01*
X161112000Y-66097999D01*
X161112000Y-66998001D01*
X161110796Y-67022505D01*
X161107196Y-67046773D01*
X161101235Y-67070572D01*
X161092970Y-67093671D01*
X161082480Y-67115850D01*
X161069868Y-67136893D01*
X161055253Y-67156599D01*
X161038777Y-67174777D01*
X161020599Y-67191253D01*
X161000893Y-67205868D01*
X160979850Y-67218480D01*
X160957671Y-67228970D01*
X160934572Y-67237235D01*
X160910773Y-67243196D01*
X160886505Y-67246796D01*
X160862001Y-67248000D01*
X160211999Y-67248000D01*
X160187495Y-67246796D01*
X160163227Y-67243196D01*
X160139428Y-67237235D01*
X160116329Y-67228970D01*
X160094150Y-67218480D01*
X160073107Y-67205868D01*
X160053401Y-67191253D01*
X160035223Y-67174777D01*
X160018747Y-67156599D01*
X160004132Y-67136893D01*
X159991520Y-67115850D01*
X159981030Y-67093671D01*
X159972765Y-67070572D01*
X159966804Y-67046773D01*
X159963204Y-67022505D01*
X159962000Y-66998001D01*
X159962000Y-66097999D01*
X159963204Y-66073495D01*
X159966804Y-66049227D01*
X159972765Y-66025428D01*
X159981030Y-66002329D01*
X159991520Y-65980150D01*
X160004132Y-65959107D01*
X160018747Y-65939401D01*
X160035223Y-65921223D01*
X160053401Y-65904747D01*
X160073107Y-65890132D01*
X160094150Y-65877520D01*
X160116329Y-65867030D01*
X160139428Y-65858765D01*
X160163227Y-65852804D01*
X160187495Y-65849204D01*
X160211999Y-65848000D01*
X160862001Y-65848000D01*
X160886505Y-65849204D01*
X160886505Y-65849204D01*
G37*
D15*
X160537000Y-66548000D03*
D30*
X104965940Y-67441660D03*
X104965940Y-68091660D03*
X104965940Y-68741660D03*
X104965940Y-69391660D03*
X104965940Y-70041660D03*
D31*
X101786000Y-65455800D03*
X101786000Y-71975000D03*
D32*
X102118000Y-118057000D03*
D33*
X116595500Y-106007000D03*
X116595500Y-103467000D03*
X116595500Y-107277000D03*
X116595500Y-109817000D03*
D32*
X114798000Y-118057000D03*
X102118000Y-101907000D03*
D33*
X116595500Y-104737000D03*
D32*
X114798000Y-101907000D03*
D33*
X116595500Y-108547000D03*
D34*
X151384000Y-62151260D03*
X151384000Y-52148740D03*
D14*
G36*
X157065505Y-97842204D02*
G01*
X157089773Y-97845804D01*
X157113572Y-97851765D01*
X157136671Y-97860030D01*
X157158850Y-97870520D01*
X157179893Y-97883132D01*
X157199599Y-97897747D01*
X157217777Y-97914223D01*
X157234253Y-97932401D01*
X157248868Y-97952107D01*
X157261480Y-97973150D01*
X157271970Y-97995329D01*
X157280235Y-98018428D01*
X157286196Y-98042227D01*
X157289796Y-98066495D01*
X157291000Y-98090999D01*
X157291000Y-98741001D01*
X157289796Y-98765505D01*
X157286196Y-98789773D01*
X157280235Y-98813572D01*
X157271970Y-98836671D01*
X157261480Y-98858850D01*
X157248868Y-98879893D01*
X157234253Y-98899599D01*
X157217777Y-98917777D01*
X157199599Y-98934253D01*
X157179893Y-98948868D01*
X157158850Y-98961480D01*
X157136671Y-98971970D01*
X157113572Y-98980235D01*
X157089773Y-98986196D01*
X157065505Y-98989796D01*
X157041001Y-98991000D01*
X156140999Y-98991000D01*
X156116495Y-98989796D01*
X156092227Y-98986196D01*
X156068428Y-98980235D01*
X156045329Y-98971970D01*
X156023150Y-98961480D01*
X156002107Y-98948868D01*
X155982401Y-98934253D01*
X155964223Y-98917777D01*
X155947747Y-98899599D01*
X155933132Y-98879893D01*
X155920520Y-98858850D01*
X155910030Y-98836671D01*
X155901765Y-98813572D01*
X155895804Y-98789773D01*
X155892204Y-98765505D01*
X155891000Y-98741001D01*
X155891000Y-98090999D01*
X155892204Y-98066495D01*
X155895804Y-98042227D01*
X155901765Y-98018428D01*
X155910030Y-97995329D01*
X155920520Y-97973150D01*
X155933132Y-97952107D01*
X155947747Y-97932401D01*
X155964223Y-97914223D01*
X155982401Y-97897747D01*
X156002107Y-97883132D01*
X156023150Y-97870520D01*
X156045329Y-97860030D01*
X156068428Y-97851765D01*
X156092227Y-97845804D01*
X156116495Y-97842204D01*
X156140999Y-97841000D01*
X157041001Y-97841000D01*
X157065505Y-97842204D01*
X157065505Y-97842204D01*
G37*
D15*
X156591000Y-98416000D03*
D14*
G36*
X157065505Y-99892204D02*
G01*
X157089773Y-99895804D01*
X157113572Y-99901765D01*
X157136671Y-99910030D01*
X157158850Y-99920520D01*
X157179893Y-99933132D01*
X157199599Y-99947747D01*
X157217777Y-99964223D01*
X157234253Y-99982401D01*
X157248868Y-100002107D01*
X157261480Y-100023150D01*
X157271970Y-100045329D01*
X157280235Y-100068428D01*
X157286196Y-100092227D01*
X157289796Y-100116495D01*
X157291000Y-100140999D01*
X157291000Y-100791001D01*
X157289796Y-100815505D01*
X157286196Y-100839773D01*
X157280235Y-100863572D01*
X157271970Y-100886671D01*
X157261480Y-100908850D01*
X157248868Y-100929893D01*
X157234253Y-100949599D01*
X157217777Y-100967777D01*
X157199599Y-100984253D01*
X157179893Y-100998868D01*
X157158850Y-101011480D01*
X157136671Y-101021970D01*
X157113572Y-101030235D01*
X157089773Y-101036196D01*
X157065505Y-101039796D01*
X157041001Y-101041000D01*
X156140999Y-101041000D01*
X156116495Y-101039796D01*
X156092227Y-101036196D01*
X156068428Y-101030235D01*
X156045329Y-101021970D01*
X156023150Y-101011480D01*
X156002107Y-100998868D01*
X155982401Y-100984253D01*
X155964223Y-100967777D01*
X155947747Y-100949599D01*
X155933132Y-100929893D01*
X155920520Y-100908850D01*
X155910030Y-100886671D01*
X155901765Y-100863572D01*
X155895804Y-100839773D01*
X155892204Y-100815505D01*
X155891000Y-100791001D01*
X155891000Y-100140999D01*
X155892204Y-100116495D01*
X155895804Y-100092227D01*
X155901765Y-100068428D01*
X155910030Y-100045329D01*
X155920520Y-100023150D01*
X155933132Y-100002107D01*
X155947747Y-99982401D01*
X155964223Y-99964223D01*
X155982401Y-99947747D01*
X156002107Y-99933132D01*
X156023150Y-99920520D01*
X156045329Y-99910030D01*
X156068428Y-99901765D01*
X156092227Y-99895804D01*
X156116495Y-99892204D01*
X156140999Y-99891000D01*
X157041001Y-99891000D01*
X157065505Y-99892204D01*
X157065505Y-99892204D01*
G37*
D15*
X156591000Y-100466000D03*
D14*
G36*
X158693279Y-93978144D02*
G01*
X158716334Y-93981563D01*
X158738943Y-93987227D01*
X158760887Y-93995079D01*
X158781957Y-94005044D01*
X158801948Y-94017026D01*
X158820668Y-94030910D01*
X158837938Y-94046562D01*
X158853590Y-94063832D01*
X158867474Y-94082552D01*
X158879456Y-94102543D01*
X158889421Y-94123613D01*
X158897273Y-94145557D01*
X158902937Y-94168166D01*
X158906356Y-94191221D01*
X158907500Y-94214500D01*
X158907500Y-94789500D01*
X158906356Y-94812779D01*
X158902937Y-94835834D01*
X158897273Y-94858443D01*
X158889421Y-94880387D01*
X158879456Y-94901457D01*
X158867474Y-94921448D01*
X158853590Y-94940168D01*
X158837938Y-94957438D01*
X158820668Y-94973090D01*
X158801948Y-94986974D01*
X158781957Y-94998956D01*
X158760887Y-95008921D01*
X158738943Y-95016773D01*
X158716334Y-95022437D01*
X158693279Y-95025856D01*
X158670000Y-95027000D01*
X158195000Y-95027000D01*
X158171721Y-95025856D01*
X158148666Y-95022437D01*
X158126057Y-95016773D01*
X158104113Y-95008921D01*
X158083043Y-94998956D01*
X158063052Y-94986974D01*
X158044332Y-94973090D01*
X158027062Y-94957438D01*
X158011410Y-94940168D01*
X157997526Y-94921448D01*
X157985544Y-94901457D01*
X157975579Y-94880387D01*
X157967727Y-94858443D01*
X157962063Y-94835834D01*
X157958644Y-94812779D01*
X157957500Y-94789500D01*
X157957500Y-94214500D01*
X157958644Y-94191221D01*
X157962063Y-94168166D01*
X157967727Y-94145557D01*
X157975579Y-94123613D01*
X157985544Y-94102543D01*
X157997526Y-94082552D01*
X158011410Y-94063832D01*
X158027062Y-94046562D01*
X158044332Y-94030910D01*
X158063052Y-94017026D01*
X158083043Y-94005044D01*
X158104113Y-93995079D01*
X158126057Y-93987227D01*
X158148666Y-93981563D01*
X158171721Y-93978144D01*
X158195000Y-93977000D01*
X158670000Y-93977000D01*
X158693279Y-93978144D01*
X158693279Y-93978144D01*
G37*
D17*
X158432500Y-94502000D03*
D14*
G36*
X158693279Y-95728144D02*
G01*
X158716334Y-95731563D01*
X158738943Y-95737227D01*
X158760887Y-95745079D01*
X158781957Y-95755044D01*
X158801948Y-95767026D01*
X158820668Y-95780910D01*
X158837938Y-95796562D01*
X158853590Y-95813832D01*
X158867474Y-95832552D01*
X158879456Y-95852543D01*
X158889421Y-95873613D01*
X158897273Y-95895557D01*
X158902937Y-95918166D01*
X158906356Y-95941221D01*
X158907500Y-95964500D01*
X158907500Y-96539500D01*
X158906356Y-96562779D01*
X158902937Y-96585834D01*
X158897273Y-96608443D01*
X158889421Y-96630387D01*
X158879456Y-96651457D01*
X158867474Y-96671448D01*
X158853590Y-96690168D01*
X158837938Y-96707438D01*
X158820668Y-96723090D01*
X158801948Y-96736974D01*
X158781957Y-96748956D01*
X158760887Y-96758921D01*
X158738943Y-96766773D01*
X158716334Y-96772437D01*
X158693279Y-96775856D01*
X158670000Y-96777000D01*
X158195000Y-96777000D01*
X158171721Y-96775856D01*
X158148666Y-96772437D01*
X158126057Y-96766773D01*
X158104113Y-96758921D01*
X158083043Y-96748956D01*
X158063052Y-96736974D01*
X158044332Y-96723090D01*
X158027062Y-96707438D01*
X158011410Y-96690168D01*
X157997526Y-96671448D01*
X157985544Y-96651457D01*
X157975579Y-96630387D01*
X157967727Y-96608443D01*
X157962063Y-96585834D01*
X157958644Y-96562779D01*
X157957500Y-96539500D01*
X157957500Y-95964500D01*
X157958644Y-95941221D01*
X157962063Y-95918166D01*
X157967727Y-95895557D01*
X157975579Y-95873613D01*
X157985544Y-95852543D01*
X157997526Y-95832552D01*
X158011410Y-95813832D01*
X158027062Y-95796562D01*
X158044332Y-95780910D01*
X158063052Y-95767026D01*
X158083043Y-95755044D01*
X158104113Y-95745079D01*
X158126057Y-95737227D01*
X158148666Y-95731563D01*
X158171721Y-95728144D01*
X158195000Y-95727000D01*
X158670000Y-95727000D01*
X158693279Y-95728144D01*
X158693279Y-95728144D01*
G37*
D17*
X158432500Y-96252000D03*
D14*
G36*
X109643779Y-75472144D02*
G01*
X109666834Y-75475563D01*
X109689443Y-75481227D01*
X109711387Y-75489079D01*
X109732457Y-75499044D01*
X109752448Y-75511026D01*
X109771168Y-75524910D01*
X109788438Y-75540562D01*
X109804090Y-75557832D01*
X109817974Y-75576552D01*
X109829956Y-75596543D01*
X109839921Y-75617613D01*
X109847773Y-75639557D01*
X109853437Y-75662166D01*
X109856856Y-75685221D01*
X109858000Y-75708500D01*
X109858000Y-76183500D01*
X109856856Y-76206779D01*
X109853437Y-76229834D01*
X109847773Y-76252443D01*
X109839921Y-76274387D01*
X109829956Y-76295457D01*
X109817974Y-76315448D01*
X109804090Y-76334168D01*
X109788438Y-76351438D01*
X109771168Y-76367090D01*
X109752448Y-76380974D01*
X109732457Y-76392956D01*
X109711387Y-76402921D01*
X109689443Y-76410773D01*
X109666834Y-76416437D01*
X109643779Y-76419856D01*
X109620500Y-76421000D01*
X109045500Y-76421000D01*
X109022221Y-76419856D01*
X108999166Y-76416437D01*
X108976557Y-76410773D01*
X108954613Y-76402921D01*
X108933543Y-76392956D01*
X108913552Y-76380974D01*
X108894832Y-76367090D01*
X108877562Y-76351438D01*
X108861910Y-76334168D01*
X108848026Y-76315448D01*
X108836044Y-76295457D01*
X108826079Y-76274387D01*
X108818227Y-76252443D01*
X108812563Y-76229834D01*
X108809144Y-76206779D01*
X108808000Y-76183500D01*
X108808000Y-75708500D01*
X108809144Y-75685221D01*
X108812563Y-75662166D01*
X108818227Y-75639557D01*
X108826079Y-75617613D01*
X108836044Y-75596543D01*
X108848026Y-75576552D01*
X108861910Y-75557832D01*
X108877562Y-75540562D01*
X108894832Y-75524910D01*
X108913552Y-75511026D01*
X108933543Y-75499044D01*
X108954613Y-75489079D01*
X108976557Y-75481227D01*
X108999166Y-75475563D01*
X109022221Y-75472144D01*
X109045500Y-75471000D01*
X109620500Y-75471000D01*
X109643779Y-75472144D01*
X109643779Y-75472144D01*
G37*
D17*
X109333000Y-75946000D03*
D14*
G36*
X107893779Y-75472144D02*
G01*
X107916834Y-75475563D01*
X107939443Y-75481227D01*
X107961387Y-75489079D01*
X107982457Y-75499044D01*
X108002448Y-75511026D01*
X108021168Y-75524910D01*
X108038438Y-75540562D01*
X108054090Y-75557832D01*
X108067974Y-75576552D01*
X108079956Y-75596543D01*
X108089921Y-75617613D01*
X108097773Y-75639557D01*
X108103437Y-75662166D01*
X108106856Y-75685221D01*
X108108000Y-75708500D01*
X108108000Y-76183500D01*
X108106856Y-76206779D01*
X108103437Y-76229834D01*
X108097773Y-76252443D01*
X108089921Y-76274387D01*
X108079956Y-76295457D01*
X108067974Y-76315448D01*
X108054090Y-76334168D01*
X108038438Y-76351438D01*
X108021168Y-76367090D01*
X108002448Y-76380974D01*
X107982457Y-76392956D01*
X107961387Y-76402921D01*
X107939443Y-76410773D01*
X107916834Y-76416437D01*
X107893779Y-76419856D01*
X107870500Y-76421000D01*
X107295500Y-76421000D01*
X107272221Y-76419856D01*
X107249166Y-76416437D01*
X107226557Y-76410773D01*
X107204613Y-76402921D01*
X107183543Y-76392956D01*
X107163552Y-76380974D01*
X107144832Y-76367090D01*
X107127562Y-76351438D01*
X107111910Y-76334168D01*
X107098026Y-76315448D01*
X107086044Y-76295457D01*
X107076079Y-76274387D01*
X107068227Y-76252443D01*
X107062563Y-76229834D01*
X107059144Y-76206779D01*
X107058000Y-76183500D01*
X107058000Y-75708500D01*
X107059144Y-75685221D01*
X107062563Y-75662166D01*
X107068227Y-75639557D01*
X107076079Y-75617613D01*
X107086044Y-75596543D01*
X107098026Y-75576552D01*
X107111910Y-75557832D01*
X107127562Y-75540562D01*
X107144832Y-75524910D01*
X107163552Y-75511026D01*
X107183543Y-75499044D01*
X107204613Y-75489079D01*
X107226557Y-75481227D01*
X107249166Y-75475563D01*
X107272221Y-75472144D01*
X107295500Y-75471000D01*
X107870500Y-75471000D01*
X107893779Y-75472144D01*
X107893779Y-75472144D01*
G37*
D17*
X107583000Y-75946000D03*
D14*
G36*
X107992779Y-89442144D02*
G01*
X108015834Y-89445563D01*
X108038443Y-89451227D01*
X108060387Y-89459079D01*
X108081457Y-89469044D01*
X108101448Y-89481026D01*
X108120168Y-89494910D01*
X108137438Y-89510562D01*
X108153090Y-89527832D01*
X108166974Y-89546552D01*
X108178956Y-89566543D01*
X108188921Y-89587613D01*
X108196773Y-89609557D01*
X108202437Y-89632166D01*
X108205856Y-89655221D01*
X108207000Y-89678500D01*
X108207000Y-90153500D01*
X108205856Y-90176779D01*
X108202437Y-90199834D01*
X108196773Y-90222443D01*
X108188921Y-90244387D01*
X108178956Y-90265457D01*
X108166974Y-90285448D01*
X108153090Y-90304168D01*
X108137438Y-90321438D01*
X108120168Y-90337090D01*
X108101448Y-90350974D01*
X108081457Y-90362956D01*
X108060387Y-90372921D01*
X108038443Y-90380773D01*
X108015834Y-90386437D01*
X107992779Y-90389856D01*
X107969500Y-90391000D01*
X107394500Y-90391000D01*
X107371221Y-90389856D01*
X107348166Y-90386437D01*
X107325557Y-90380773D01*
X107303613Y-90372921D01*
X107282543Y-90362956D01*
X107262552Y-90350974D01*
X107243832Y-90337090D01*
X107226562Y-90321438D01*
X107210910Y-90304168D01*
X107197026Y-90285448D01*
X107185044Y-90265457D01*
X107175079Y-90244387D01*
X107167227Y-90222443D01*
X107161563Y-90199834D01*
X107158144Y-90176779D01*
X107157000Y-90153500D01*
X107157000Y-89678500D01*
X107158144Y-89655221D01*
X107161563Y-89632166D01*
X107167227Y-89609557D01*
X107175079Y-89587613D01*
X107185044Y-89566543D01*
X107197026Y-89546552D01*
X107210910Y-89527832D01*
X107226562Y-89510562D01*
X107243832Y-89494910D01*
X107262552Y-89481026D01*
X107282543Y-89469044D01*
X107303613Y-89459079D01*
X107325557Y-89451227D01*
X107348166Y-89445563D01*
X107371221Y-89442144D01*
X107394500Y-89441000D01*
X107969500Y-89441000D01*
X107992779Y-89442144D01*
X107992779Y-89442144D01*
G37*
D17*
X107682000Y-89916000D03*
D14*
G36*
X106242779Y-89442144D02*
G01*
X106265834Y-89445563D01*
X106288443Y-89451227D01*
X106310387Y-89459079D01*
X106331457Y-89469044D01*
X106351448Y-89481026D01*
X106370168Y-89494910D01*
X106387438Y-89510562D01*
X106403090Y-89527832D01*
X106416974Y-89546552D01*
X106428956Y-89566543D01*
X106438921Y-89587613D01*
X106446773Y-89609557D01*
X106452437Y-89632166D01*
X106455856Y-89655221D01*
X106457000Y-89678500D01*
X106457000Y-90153500D01*
X106455856Y-90176779D01*
X106452437Y-90199834D01*
X106446773Y-90222443D01*
X106438921Y-90244387D01*
X106428956Y-90265457D01*
X106416974Y-90285448D01*
X106403090Y-90304168D01*
X106387438Y-90321438D01*
X106370168Y-90337090D01*
X106351448Y-90350974D01*
X106331457Y-90362956D01*
X106310387Y-90372921D01*
X106288443Y-90380773D01*
X106265834Y-90386437D01*
X106242779Y-90389856D01*
X106219500Y-90391000D01*
X105644500Y-90391000D01*
X105621221Y-90389856D01*
X105598166Y-90386437D01*
X105575557Y-90380773D01*
X105553613Y-90372921D01*
X105532543Y-90362956D01*
X105512552Y-90350974D01*
X105493832Y-90337090D01*
X105476562Y-90321438D01*
X105460910Y-90304168D01*
X105447026Y-90285448D01*
X105435044Y-90265457D01*
X105425079Y-90244387D01*
X105417227Y-90222443D01*
X105411563Y-90199834D01*
X105408144Y-90176779D01*
X105407000Y-90153500D01*
X105407000Y-89678500D01*
X105408144Y-89655221D01*
X105411563Y-89632166D01*
X105417227Y-89609557D01*
X105425079Y-89587613D01*
X105435044Y-89566543D01*
X105447026Y-89546552D01*
X105460910Y-89527832D01*
X105476562Y-89510562D01*
X105493832Y-89494910D01*
X105512552Y-89481026D01*
X105532543Y-89469044D01*
X105553613Y-89459079D01*
X105575557Y-89451227D01*
X105598166Y-89445563D01*
X105621221Y-89442144D01*
X105644500Y-89441000D01*
X106219500Y-89441000D01*
X106242779Y-89442144D01*
X106242779Y-89442144D01*
G37*
D17*
X105932000Y-89916000D03*
D14*
G36*
X108105779Y-95411144D02*
G01*
X108128834Y-95414563D01*
X108151443Y-95420227D01*
X108173387Y-95428079D01*
X108194457Y-95438044D01*
X108214448Y-95450026D01*
X108233168Y-95463910D01*
X108250438Y-95479562D01*
X108266090Y-95496832D01*
X108279974Y-95515552D01*
X108291956Y-95535543D01*
X108301921Y-95556613D01*
X108309773Y-95578557D01*
X108315437Y-95601166D01*
X108318856Y-95624221D01*
X108320000Y-95647500D01*
X108320000Y-96122500D01*
X108318856Y-96145779D01*
X108315437Y-96168834D01*
X108309773Y-96191443D01*
X108301921Y-96213387D01*
X108291956Y-96234457D01*
X108279974Y-96254448D01*
X108266090Y-96273168D01*
X108250438Y-96290438D01*
X108233168Y-96306090D01*
X108214448Y-96319974D01*
X108194457Y-96331956D01*
X108173387Y-96341921D01*
X108151443Y-96349773D01*
X108128834Y-96355437D01*
X108105779Y-96358856D01*
X108082500Y-96360000D01*
X107507500Y-96360000D01*
X107484221Y-96358856D01*
X107461166Y-96355437D01*
X107438557Y-96349773D01*
X107416613Y-96341921D01*
X107395543Y-96331956D01*
X107375552Y-96319974D01*
X107356832Y-96306090D01*
X107339562Y-96290438D01*
X107323910Y-96273168D01*
X107310026Y-96254448D01*
X107298044Y-96234457D01*
X107288079Y-96213387D01*
X107280227Y-96191443D01*
X107274563Y-96168834D01*
X107271144Y-96145779D01*
X107270000Y-96122500D01*
X107270000Y-95647500D01*
X107271144Y-95624221D01*
X107274563Y-95601166D01*
X107280227Y-95578557D01*
X107288079Y-95556613D01*
X107298044Y-95535543D01*
X107310026Y-95515552D01*
X107323910Y-95496832D01*
X107339562Y-95479562D01*
X107356832Y-95463910D01*
X107375552Y-95450026D01*
X107395543Y-95438044D01*
X107416613Y-95428079D01*
X107438557Y-95420227D01*
X107461166Y-95414563D01*
X107484221Y-95411144D01*
X107507500Y-95410000D01*
X108082500Y-95410000D01*
X108105779Y-95411144D01*
X108105779Y-95411144D01*
G37*
D17*
X107795000Y-95885000D03*
D14*
G36*
X106355779Y-95411144D02*
G01*
X106378834Y-95414563D01*
X106401443Y-95420227D01*
X106423387Y-95428079D01*
X106444457Y-95438044D01*
X106464448Y-95450026D01*
X106483168Y-95463910D01*
X106500438Y-95479562D01*
X106516090Y-95496832D01*
X106529974Y-95515552D01*
X106541956Y-95535543D01*
X106551921Y-95556613D01*
X106559773Y-95578557D01*
X106565437Y-95601166D01*
X106568856Y-95624221D01*
X106570000Y-95647500D01*
X106570000Y-96122500D01*
X106568856Y-96145779D01*
X106565437Y-96168834D01*
X106559773Y-96191443D01*
X106551921Y-96213387D01*
X106541956Y-96234457D01*
X106529974Y-96254448D01*
X106516090Y-96273168D01*
X106500438Y-96290438D01*
X106483168Y-96306090D01*
X106464448Y-96319974D01*
X106444457Y-96331956D01*
X106423387Y-96341921D01*
X106401443Y-96349773D01*
X106378834Y-96355437D01*
X106355779Y-96358856D01*
X106332500Y-96360000D01*
X105757500Y-96360000D01*
X105734221Y-96358856D01*
X105711166Y-96355437D01*
X105688557Y-96349773D01*
X105666613Y-96341921D01*
X105645543Y-96331956D01*
X105625552Y-96319974D01*
X105606832Y-96306090D01*
X105589562Y-96290438D01*
X105573910Y-96273168D01*
X105560026Y-96254448D01*
X105548044Y-96234457D01*
X105538079Y-96213387D01*
X105530227Y-96191443D01*
X105524563Y-96168834D01*
X105521144Y-96145779D01*
X105520000Y-96122500D01*
X105520000Y-95647500D01*
X105521144Y-95624221D01*
X105524563Y-95601166D01*
X105530227Y-95578557D01*
X105538079Y-95556613D01*
X105548044Y-95535543D01*
X105560026Y-95515552D01*
X105573910Y-95496832D01*
X105589562Y-95479562D01*
X105606832Y-95463910D01*
X105625552Y-95450026D01*
X105645543Y-95438044D01*
X105666613Y-95428079D01*
X105688557Y-95420227D01*
X105711166Y-95414563D01*
X105734221Y-95411144D01*
X105757500Y-95410000D01*
X106332500Y-95410000D01*
X106355779Y-95411144D01*
X106355779Y-95411144D01*
G37*
D17*
X106045000Y-95885000D03*
D14*
G36*
X107992779Y-91220144D02*
G01*
X108015834Y-91223563D01*
X108038443Y-91229227D01*
X108060387Y-91237079D01*
X108081457Y-91247044D01*
X108101448Y-91259026D01*
X108120168Y-91272910D01*
X108137438Y-91288562D01*
X108153090Y-91305832D01*
X108166974Y-91324552D01*
X108178956Y-91344543D01*
X108188921Y-91365613D01*
X108196773Y-91387557D01*
X108202437Y-91410166D01*
X108205856Y-91433221D01*
X108207000Y-91456500D01*
X108207000Y-91931500D01*
X108205856Y-91954779D01*
X108202437Y-91977834D01*
X108196773Y-92000443D01*
X108188921Y-92022387D01*
X108178956Y-92043457D01*
X108166974Y-92063448D01*
X108153090Y-92082168D01*
X108137438Y-92099438D01*
X108120168Y-92115090D01*
X108101448Y-92128974D01*
X108081457Y-92140956D01*
X108060387Y-92150921D01*
X108038443Y-92158773D01*
X108015834Y-92164437D01*
X107992779Y-92167856D01*
X107969500Y-92169000D01*
X107394500Y-92169000D01*
X107371221Y-92167856D01*
X107348166Y-92164437D01*
X107325557Y-92158773D01*
X107303613Y-92150921D01*
X107282543Y-92140956D01*
X107262552Y-92128974D01*
X107243832Y-92115090D01*
X107226562Y-92099438D01*
X107210910Y-92082168D01*
X107197026Y-92063448D01*
X107185044Y-92043457D01*
X107175079Y-92022387D01*
X107167227Y-92000443D01*
X107161563Y-91977834D01*
X107158144Y-91954779D01*
X107157000Y-91931500D01*
X107157000Y-91456500D01*
X107158144Y-91433221D01*
X107161563Y-91410166D01*
X107167227Y-91387557D01*
X107175079Y-91365613D01*
X107185044Y-91344543D01*
X107197026Y-91324552D01*
X107210910Y-91305832D01*
X107226562Y-91288562D01*
X107243832Y-91272910D01*
X107262552Y-91259026D01*
X107282543Y-91247044D01*
X107303613Y-91237079D01*
X107325557Y-91229227D01*
X107348166Y-91223563D01*
X107371221Y-91220144D01*
X107394500Y-91219000D01*
X107969500Y-91219000D01*
X107992779Y-91220144D01*
X107992779Y-91220144D01*
G37*
D17*
X107682000Y-91694000D03*
D14*
G36*
X106242779Y-91220144D02*
G01*
X106265834Y-91223563D01*
X106288443Y-91229227D01*
X106310387Y-91237079D01*
X106331457Y-91247044D01*
X106351448Y-91259026D01*
X106370168Y-91272910D01*
X106387438Y-91288562D01*
X106403090Y-91305832D01*
X106416974Y-91324552D01*
X106428956Y-91344543D01*
X106438921Y-91365613D01*
X106446773Y-91387557D01*
X106452437Y-91410166D01*
X106455856Y-91433221D01*
X106457000Y-91456500D01*
X106457000Y-91931500D01*
X106455856Y-91954779D01*
X106452437Y-91977834D01*
X106446773Y-92000443D01*
X106438921Y-92022387D01*
X106428956Y-92043457D01*
X106416974Y-92063448D01*
X106403090Y-92082168D01*
X106387438Y-92099438D01*
X106370168Y-92115090D01*
X106351448Y-92128974D01*
X106331457Y-92140956D01*
X106310387Y-92150921D01*
X106288443Y-92158773D01*
X106265834Y-92164437D01*
X106242779Y-92167856D01*
X106219500Y-92169000D01*
X105644500Y-92169000D01*
X105621221Y-92167856D01*
X105598166Y-92164437D01*
X105575557Y-92158773D01*
X105553613Y-92150921D01*
X105532543Y-92140956D01*
X105512552Y-92128974D01*
X105493832Y-92115090D01*
X105476562Y-92099438D01*
X105460910Y-92082168D01*
X105447026Y-92063448D01*
X105435044Y-92043457D01*
X105425079Y-92022387D01*
X105417227Y-92000443D01*
X105411563Y-91977834D01*
X105408144Y-91954779D01*
X105407000Y-91931500D01*
X105407000Y-91456500D01*
X105408144Y-91433221D01*
X105411563Y-91410166D01*
X105417227Y-91387557D01*
X105425079Y-91365613D01*
X105435044Y-91344543D01*
X105447026Y-91324552D01*
X105460910Y-91305832D01*
X105476562Y-91288562D01*
X105493832Y-91272910D01*
X105512552Y-91259026D01*
X105532543Y-91247044D01*
X105553613Y-91237079D01*
X105575557Y-91229227D01*
X105598166Y-91223563D01*
X105621221Y-91220144D01*
X105644500Y-91219000D01*
X106219500Y-91219000D01*
X106242779Y-91220144D01*
X106242779Y-91220144D01*
G37*
D17*
X105932000Y-91694000D03*
D14*
G36*
X108105779Y-97189144D02*
G01*
X108128834Y-97192563D01*
X108151443Y-97198227D01*
X108173387Y-97206079D01*
X108194457Y-97216044D01*
X108214448Y-97228026D01*
X108233168Y-97241910D01*
X108250438Y-97257562D01*
X108266090Y-97274832D01*
X108279974Y-97293552D01*
X108291956Y-97313543D01*
X108301921Y-97334613D01*
X108309773Y-97356557D01*
X108315437Y-97379166D01*
X108318856Y-97402221D01*
X108320000Y-97425500D01*
X108320000Y-97900500D01*
X108318856Y-97923779D01*
X108315437Y-97946834D01*
X108309773Y-97969443D01*
X108301921Y-97991387D01*
X108291956Y-98012457D01*
X108279974Y-98032448D01*
X108266090Y-98051168D01*
X108250438Y-98068438D01*
X108233168Y-98084090D01*
X108214448Y-98097974D01*
X108194457Y-98109956D01*
X108173387Y-98119921D01*
X108151443Y-98127773D01*
X108128834Y-98133437D01*
X108105779Y-98136856D01*
X108082500Y-98138000D01*
X107507500Y-98138000D01*
X107484221Y-98136856D01*
X107461166Y-98133437D01*
X107438557Y-98127773D01*
X107416613Y-98119921D01*
X107395543Y-98109956D01*
X107375552Y-98097974D01*
X107356832Y-98084090D01*
X107339562Y-98068438D01*
X107323910Y-98051168D01*
X107310026Y-98032448D01*
X107298044Y-98012457D01*
X107288079Y-97991387D01*
X107280227Y-97969443D01*
X107274563Y-97946834D01*
X107271144Y-97923779D01*
X107270000Y-97900500D01*
X107270000Y-97425500D01*
X107271144Y-97402221D01*
X107274563Y-97379166D01*
X107280227Y-97356557D01*
X107288079Y-97334613D01*
X107298044Y-97313543D01*
X107310026Y-97293552D01*
X107323910Y-97274832D01*
X107339562Y-97257562D01*
X107356832Y-97241910D01*
X107375552Y-97228026D01*
X107395543Y-97216044D01*
X107416613Y-97206079D01*
X107438557Y-97198227D01*
X107461166Y-97192563D01*
X107484221Y-97189144D01*
X107507500Y-97188000D01*
X108082500Y-97188000D01*
X108105779Y-97189144D01*
X108105779Y-97189144D01*
G37*
D17*
X107795000Y-97663000D03*
D14*
G36*
X106355779Y-97189144D02*
G01*
X106378834Y-97192563D01*
X106401443Y-97198227D01*
X106423387Y-97206079D01*
X106444457Y-97216044D01*
X106464448Y-97228026D01*
X106483168Y-97241910D01*
X106500438Y-97257562D01*
X106516090Y-97274832D01*
X106529974Y-97293552D01*
X106541956Y-97313543D01*
X106551921Y-97334613D01*
X106559773Y-97356557D01*
X106565437Y-97379166D01*
X106568856Y-97402221D01*
X106570000Y-97425500D01*
X106570000Y-97900500D01*
X106568856Y-97923779D01*
X106565437Y-97946834D01*
X106559773Y-97969443D01*
X106551921Y-97991387D01*
X106541956Y-98012457D01*
X106529974Y-98032448D01*
X106516090Y-98051168D01*
X106500438Y-98068438D01*
X106483168Y-98084090D01*
X106464448Y-98097974D01*
X106444457Y-98109956D01*
X106423387Y-98119921D01*
X106401443Y-98127773D01*
X106378834Y-98133437D01*
X106355779Y-98136856D01*
X106332500Y-98138000D01*
X105757500Y-98138000D01*
X105734221Y-98136856D01*
X105711166Y-98133437D01*
X105688557Y-98127773D01*
X105666613Y-98119921D01*
X105645543Y-98109956D01*
X105625552Y-98097974D01*
X105606832Y-98084090D01*
X105589562Y-98068438D01*
X105573910Y-98051168D01*
X105560026Y-98032448D01*
X105548044Y-98012457D01*
X105538079Y-97991387D01*
X105530227Y-97969443D01*
X105524563Y-97946834D01*
X105521144Y-97923779D01*
X105520000Y-97900500D01*
X105520000Y-97425500D01*
X105521144Y-97402221D01*
X105524563Y-97379166D01*
X105530227Y-97356557D01*
X105538079Y-97334613D01*
X105548044Y-97313543D01*
X105560026Y-97293552D01*
X105573910Y-97274832D01*
X105589562Y-97257562D01*
X105606832Y-97241910D01*
X105625552Y-97228026D01*
X105645543Y-97216044D01*
X105666613Y-97206079D01*
X105688557Y-97198227D01*
X105711166Y-97192563D01*
X105734221Y-97189144D01*
X105757500Y-97188000D01*
X106332500Y-97188000D01*
X106355779Y-97189144D01*
X106355779Y-97189144D01*
G37*
D17*
X106045000Y-97663000D03*
D14*
G36*
X151807779Y-65566144D02*
G01*
X151830834Y-65569563D01*
X151853443Y-65575227D01*
X151875387Y-65583079D01*
X151896457Y-65593044D01*
X151916448Y-65605026D01*
X151935168Y-65618910D01*
X151952438Y-65634562D01*
X151968090Y-65651832D01*
X151981974Y-65670552D01*
X151993956Y-65690543D01*
X152003921Y-65711613D01*
X152011773Y-65733557D01*
X152017437Y-65756166D01*
X152020856Y-65779221D01*
X152022000Y-65802500D01*
X152022000Y-66277500D01*
X152020856Y-66300779D01*
X152017437Y-66323834D01*
X152011773Y-66346443D01*
X152003921Y-66368387D01*
X151993956Y-66389457D01*
X151981974Y-66409448D01*
X151968090Y-66428168D01*
X151952438Y-66445438D01*
X151935168Y-66461090D01*
X151916448Y-66474974D01*
X151896457Y-66486956D01*
X151875387Y-66496921D01*
X151853443Y-66504773D01*
X151830834Y-66510437D01*
X151807779Y-66513856D01*
X151784500Y-66515000D01*
X151209500Y-66515000D01*
X151186221Y-66513856D01*
X151163166Y-66510437D01*
X151140557Y-66504773D01*
X151118613Y-66496921D01*
X151097543Y-66486956D01*
X151077552Y-66474974D01*
X151058832Y-66461090D01*
X151041562Y-66445438D01*
X151025910Y-66428168D01*
X151012026Y-66409448D01*
X151000044Y-66389457D01*
X150990079Y-66368387D01*
X150982227Y-66346443D01*
X150976563Y-66323834D01*
X150973144Y-66300779D01*
X150972000Y-66277500D01*
X150972000Y-65802500D01*
X150973144Y-65779221D01*
X150976563Y-65756166D01*
X150982227Y-65733557D01*
X150990079Y-65711613D01*
X151000044Y-65690543D01*
X151012026Y-65670552D01*
X151025910Y-65651832D01*
X151041562Y-65634562D01*
X151058832Y-65618910D01*
X151077552Y-65605026D01*
X151097543Y-65593044D01*
X151118613Y-65583079D01*
X151140557Y-65575227D01*
X151163166Y-65569563D01*
X151186221Y-65566144D01*
X151209500Y-65565000D01*
X151784500Y-65565000D01*
X151807779Y-65566144D01*
X151807779Y-65566144D01*
G37*
D17*
X151497000Y-66040000D03*
D14*
G36*
X150057779Y-65566144D02*
G01*
X150080834Y-65569563D01*
X150103443Y-65575227D01*
X150125387Y-65583079D01*
X150146457Y-65593044D01*
X150166448Y-65605026D01*
X150185168Y-65618910D01*
X150202438Y-65634562D01*
X150218090Y-65651832D01*
X150231974Y-65670552D01*
X150243956Y-65690543D01*
X150253921Y-65711613D01*
X150261773Y-65733557D01*
X150267437Y-65756166D01*
X150270856Y-65779221D01*
X150272000Y-65802500D01*
X150272000Y-66277500D01*
X150270856Y-66300779D01*
X150267437Y-66323834D01*
X150261773Y-66346443D01*
X150253921Y-66368387D01*
X150243956Y-66389457D01*
X150231974Y-66409448D01*
X150218090Y-66428168D01*
X150202438Y-66445438D01*
X150185168Y-66461090D01*
X150166448Y-66474974D01*
X150146457Y-66486956D01*
X150125387Y-66496921D01*
X150103443Y-66504773D01*
X150080834Y-66510437D01*
X150057779Y-66513856D01*
X150034500Y-66515000D01*
X149459500Y-66515000D01*
X149436221Y-66513856D01*
X149413166Y-66510437D01*
X149390557Y-66504773D01*
X149368613Y-66496921D01*
X149347543Y-66486956D01*
X149327552Y-66474974D01*
X149308832Y-66461090D01*
X149291562Y-66445438D01*
X149275910Y-66428168D01*
X149262026Y-66409448D01*
X149250044Y-66389457D01*
X149240079Y-66368387D01*
X149232227Y-66346443D01*
X149226563Y-66323834D01*
X149223144Y-66300779D01*
X149222000Y-66277500D01*
X149222000Y-65802500D01*
X149223144Y-65779221D01*
X149226563Y-65756166D01*
X149232227Y-65733557D01*
X149240079Y-65711613D01*
X149250044Y-65690543D01*
X149262026Y-65670552D01*
X149275910Y-65651832D01*
X149291562Y-65634562D01*
X149308832Y-65618910D01*
X149327552Y-65605026D01*
X149347543Y-65593044D01*
X149368613Y-65583079D01*
X149390557Y-65575227D01*
X149413166Y-65569563D01*
X149436221Y-65566144D01*
X149459500Y-65565000D01*
X150034500Y-65565000D01*
X150057779Y-65566144D01*
X150057779Y-65566144D01*
G37*
D17*
X149747000Y-66040000D03*
D14*
G36*
X147489779Y-67598144D02*
G01*
X147512834Y-67601563D01*
X147535443Y-67607227D01*
X147557387Y-67615079D01*
X147578457Y-67625044D01*
X147598448Y-67637026D01*
X147617168Y-67650910D01*
X147634438Y-67666562D01*
X147650090Y-67683832D01*
X147663974Y-67702552D01*
X147675956Y-67722543D01*
X147685921Y-67743613D01*
X147693773Y-67765557D01*
X147699437Y-67788166D01*
X147702856Y-67811221D01*
X147704000Y-67834500D01*
X147704000Y-68309500D01*
X147702856Y-68332779D01*
X147699437Y-68355834D01*
X147693773Y-68378443D01*
X147685921Y-68400387D01*
X147675956Y-68421457D01*
X147663974Y-68441448D01*
X147650090Y-68460168D01*
X147634438Y-68477438D01*
X147617168Y-68493090D01*
X147598448Y-68506974D01*
X147578457Y-68518956D01*
X147557387Y-68528921D01*
X147535443Y-68536773D01*
X147512834Y-68542437D01*
X147489779Y-68545856D01*
X147466500Y-68547000D01*
X146891500Y-68547000D01*
X146868221Y-68545856D01*
X146845166Y-68542437D01*
X146822557Y-68536773D01*
X146800613Y-68528921D01*
X146779543Y-68518956D01*
X146759552Y-68506974D01*
X146740832Y-68493090D01*
X146723562Y-68477438D01*
X146707910Y-68460168D01*
X146694026Y-68441448D01*
X146682044Y-68421457D01*
X146672079Y-68400387D01*
X146664227Y-68378443D01*
X146658563Y-68355834D01*
X146655144Y-68332779D01*
X146654000Y-68309500D01*
X146654000Y-67834500D01*
X146655144Y-67811221D01*
X146658563Y-67788166D01*
X146664227Y-67765557D01*
X146672079Y-67743613D01*
X146682044Y-67722543D01*
X146694026Y-67702552D01*
X146707910Y-67683832D01*
X146723562Y-67666562D01*
X146740832Y-67650910D01*
X146759552Y-67637026D01*
X146779543Y-67625044D01*
X146800613Y-67615079D01*
X146822557Y-67607227D01*
X146845166Y-67601563D01*
X146868221Y-67598144D01*
X146891500Y-67597000D01*
X147466500Y-67597000D01*
X147489779Y-67598144D01*
X147489779Y-67598144D01*
G37*
D17*
X147179000Y-68072000D03*
D14*
G36*
X145739779Y-67598144D02*
G01*
X145762834Y-67601563D01*
X145785443Y-67607227D01*
X145807387Y-67615079D01*
X145828457Y-67625044D01*
X145848448Y-67637026D01*
X145867168Y-67650910D01*
X145884438Y-67666562D01*
X145900090Y-67683832D01*
X145913974Y-67702552D01*
X145925956Y-67722543D01*
X145935921Y-67743613D01*
X145943773Y-67765557D01*
X145949437Y-67788166D01*
X145952856Y-67811221D01*
X145954000Y-67834500D01*
X145954000Y-68309500D01*
X145952856Y-68332779D01*
X145949437Y-68355834D01*
X145943773Y-68378443D01*
X145935921Y-68400387D01*
X145925956Y-68421457D01*
X145913974Y-68441448D01*
X145900090Y-68460168D01*
X145884438Y-68477438D01*
X145867168Y-68493090D01*
X145848448Y-68506974D01*
X145828457Y-68518956D01*
X145807387Y-68528921D01*
X145785443Y-68536773D01*
X145762834Y-68542437D01*
X145739779Y-68545856D01*
X145716500Y-68547000D01*
X145141500Y-68547000D01*
X145118221Y-68545856D01*
X145095166Y-68542437D01*
X145072557Y-68536773D01*
X145050613Y-68528921D01*
X145029543Y-68518956D01*
X145009552Y-68506974D01*
X144990832Y-68493090D01*
X144973562Y-68477438D01*
X144957910Y-68460168D01*
X144944026Y-68441448D01*
X144932044Y-68421457D01*
X144922079Y-68400387D01*
X144914227Y-68378443D01*
X144908563Y-68355834D01*
X144905144Y-68332779D01*
X144904000Y-68309500D01*
X144904000Y-67834500D01*
X144905144Y-67811221D01*
X144908563Y-67788166D01*
X144914227Y-67765557D01*
X144922079Y-67743613D01*
X144932044Y-67722543D01*
X144944026Y-67702552D01*
X144957910Y-67683832D01*
X144973562Y-67666562D01*
X144990832Y-67650910D01*
X145009552Y-67637026D01*
X145029543Y-67625044D01*
X145050613Y-67615079D01*
X145072557Y-67607227D01*
X145095166Y-67601563D01*
X145118221Y-67598144D01*
X145141500Y-67597000D01*
X145716500Y-67597000D01*
X145739779Y-67598144D01*
X145739779Y-67598144D01*
G37*
D17*
X145429000Y-68072000D03*
D14*
G36*
X165868779Y-53719144D02*
G01*
X165891834Y-53722563D01*
X165914443Y-53728227D01*
X165936387Y-53736079D01*
X165957457Y-53746044D01*
X165977448Y-53758026D01*
X165996168Y-53771910D01*
X166013438Y-53787562D01*
X166029090Y-53804832D01*
X166042974Y-53823552D01*
X166054956Y-53843543D01*
X166064921Y-53864613D01*
X166072773Y-53886557D01*
X166078437Y-53909166D01*
X166081856Y-53932221D01*
X166083000Y-53955500D01*
X166083000Y-54530500D01*
X166081856Y-54553779D01*
X166078437Y-54576834D01*
X166072773Y-54599443D01*
X166064921Y-54621387D01*
X166054956Y-54642457D01*
X166042974Y-54662448D01*
X166029090Y-54681168D01*
X166013438Y-54698438D01*
X165996168Y-54714090D01*
X165977448Y-54727974D01*
X165957457Y-54739956D01*
X165936387Y-54749921D01*
X165914443Y-54757773D01*
X165891834Y-54763437D01*
X165868779Y-54766856D01*
X165845500Y-54768000D01*
X165370500Y-54768000D01*
X165347221Y-54766856D01*
X165324166Y-54763437D01*
X165301557Y-54757773D01*
X165279613Y-54749921D01*
X165258543Y-54739956D01*
X165238552Y-54727974D01*
X165219832Y-54714090D01*
X165202562Y-54698438D01*
X165186910Y-54681168D01*
X165173026Y-54662448D01*
X165161044Y-54642457D01*
X165151079Y-54621387D01*
X165143227Y-54599443D01*
X165137563Y-54576834D01*
X165134144Y-54553779D01*
X165133000Y-54530500D01*
X165133000Y-53955500D01*
X165134144Y-53932221D01*
X165137563Y-53909166D01*
X165143227Y-53886557D01*
X165151079Y-53864613D01*
X165161044Y-53843543D01*
X165173026Y-53823552D01*
X165186910Y-53804832D01*
X165202562Y-53787562D01*
X165219832Y-53771910D01*
X165238552Y-53758026D01*
X165258543Y-53746044D01*
X165279613Y-53736079D01*
X165301557Y-53728227D01*
X165324166Y-53722563D01*
X165347221Y-53719144D01*
X165370500Y-53718000D01*
X165845500Y-53718000D01*
X165868779Y-53719144D01*
X165868779Y-53719144D01*
G37*
D17*
X165608000Y-54243000D03*
D14*
G36*
X165868779Y-55469144D02*
G01*
X165891834Y-55472563D01*
X165914443Y-55478227D01*
X165936387Y-55486079D01*
X165957457Y-55496044D01*
X165977448Y-55508026D01*
X165996168Y-55521910D01*
X166013438Y-55537562D01*
X166029090Y-55554832D01*
X166042974Y-55573552D01*
X166054956Y-55593543D01*
X166064921Y-55614613D01*
X166072773Y-55636557D01*
X166078437Y-55659166D01*
X166081856Y-55682221D01*
X166083000Y-55705500D01*
X166083000Y-56280500D01*
X166081856Y-56303779D01*
X166078437Y-56326834D01*
X166072773Y-56349443D01*
X166064921Y-56371387D01*
X166054956Y-56392457D01*
X166042974Y-56412448D01*
X166029090Y-56431168D01*
X166013438Y-56448438D01*
X165996168Y-56464090D01*
X165977448Y-56477974D01*
X165957457Y-56489956D01*
X165936387Y-56499921D01*
X165914443Y-56507773D01*
X165891834Y-56513437D01*
X165868779Y-56516856D01*
X165845500Y-56518000D01*
X165370500Y-56518000D01*
X165347221Y-56516856D01*
X165324166Y-56513437D01*
X165301557Y-56507773D01*
X165279613Y-56499921D01*
X165258543Y-56489956D01*
X165238552Y-56477974D01*
X165219832Y-56464090D01*
X165202562Y-56448438D01*
X165186910Y-56431168D01*
X165173026Y-56412448D01*
X165161044Y-56392457D01*
X165151079Y-56371387D01*
X165143227Y-56349443D01*
X165137563Y-56326834D01*
X165134144Y-56303779D01*
X165133000Y-56280500D01*
X165133000Y-55705500D01*
X165134144Y-55682221D01*
X165137563Y-55659166D01*
X165143227Y-55636557D01*
X165151079Y-55614613D01*
X165161044Y-55593543D01*
X165173026Y-55573552D01*
X165186910Y-55554832D01*
X165202562Y-55537562D01*
X165219832Y-55521910D01*
X165238552Y-55508026D01*
X165258543Y-55496044D01*
X165279613Y-55486079D01*
X165301557Y-55478227D01*
X165324166Y-55472563D01*
X165347221Y-55469144D01*
X165370500Y-55468000D01*
X165845500Y-55468000D01*
X165868779Y-55469144D01*
X165868779Y-55469144D01*
G37*
D17*
X165608000Y-55993000D03*
D14*
G36*
X168408779Y-53719144D02*
G01*
X168431834Y-53722563D01*
X168454443Y-53728227D01*
X168476387Y-53736079D01*
X168497457Y-53746044D01*
X168517448Y-53758026D01*
X168536168Y-53771910D01*
X168553438Y-53787562D01*
X168569090Y-53804832D01*
X168582974Y-53823552D01*
X168594956Y-53843543D01*
X168604921Y-53864613D01*
X168612773Y-53886557D01*
X168618437Y-53909166D01*
X168621856Y-53932221D01*
X168623000Y-53955500D01*
X168623000Y-54530500D01*
X168621856Y-54553779D01*
X168618437Y-54576834D01*
X168612773Y-54599443D01*
X168604921Y-54621387D01*
X168594956Y-54642457D01*
X168582974Y-54662448D01*
X168569090Y-54681168D01*
X168553438Y-54698438D01*
X168536168Y-54714090D01*
X168517448Y-54727974D01*
X168497457Y-54739956D01*
X168476387Y-54749921D01*
X168454443Y-54757773D01*
X168431834Y-54763437D01*
X168408779Y-54766856D01*
X168385500Y-54768000D01*
X167910500Y-54768000D01*
X167887221Y-54766856D01*
X167864166Y-54763437D01*
X167841557Y-54757773D01*
X167819613Y-54749921D01*
X167798543Y-54739956D01*
X167778552Y-54727974D01*
X167759832Y-54714090D01*
X167742562Y-54698438D01*
X167726910Y-54681168D01*
X167713026Y-54662448D01*
X167701044Y-54642457D01*
X167691079Y-54621387D01*
X167683227Y-54599443D01*
X167677563Y-54576834D01*
X167674144Y-54553779D01*
X167673000Y-54530500D01*
X167673000Y-53955500D01*
X167674144Y-53932221D01*
X167677563Y-53909166D01*
X167683227Y-53886557D01*
X167691079Y-53864613D01*
X167701044Y-53843543D01*
X167713026Y-53823552D01*
X167726910Y-53804832D01*
X167742562Y-53787562D01*
X167759832Y-53771910D01*
X167778552Y-53758026D01*
X167798543Y-53746044D01*
X167819613Y-53736079D01*
X167841557Y-53728227D01*
X167864166Y-53722563D01*
X167887221Y-53719144D01*
X167910500Y-53718000D01*
X168385500Y-53718000D01*
X168408779Y-53719144D01*
X168408779Y-53719144D01*
G37*
D17*
X168148000Y-54243000D03*
D14*
G36*
X168408779Y-55469144D02*
G01*
X168431834Y-55472563D01*
X168454443Y-55478227D01*
X168476387Y-55486079D01*
X168497457Y-55496044D01*
X168517448Y-55508026D01*
X168536168Y-55521910D01*
X168553438Y-55537562D01*
X168569090Y-55554832D01*
X168582974Y-55573552D01*
X168594956Y-55593543D01*
X168604921Y-55614613D01*
X168612773Y-55636557D01*
X168618437Y-55659166D01*
X168621856Y-55682221D01*
X168623000Y-55705500D01*
X168623000Y-56280500D01*
X168621856Y-56303779D01*
X168618437Y-56326834D01*
X168612773Y-56349443D01*
X168604921Y-56371387D01*
X168594956Y-56392457D01*
X168582974Y-56412448D01*
X168569090Y-56431168D01*
X168553438Y-56448438D01*
X168536168Y-56464090D01*
X168517448Y-56477974D01*
X168497457Y-56489956D01*
X168476387Y-56499921D01*
X168454443Y-56507773D01*
X168431834Y-56513437D01*
X168408779Y-56516856D01*
X168385500Y-56518000D01*
X167910500Y-56518000D01*
X167887221Y-56516856D01*
X167864166Y-56513437D01*
X167841557Y-56507773D01*
X167819613Y-56499921D01*
X167798543Y-56489956D01*
X167778552Y-56477974D01*
X167759832Y-56464090D01*
X167742562Y-56448438D01*
X167726910Y-56431168D01*
X167713026Y-56412448D01*
X167701044Y-56392457D01*
X167691079Y-56371387D01*
X167683227Y-56349443D01*
X167677563Y-56326834D01*
X167674144Y-56303779D01*
X167673000Y-56280500D01*
X167673000Y-55705500D01*
X167674144Y-55682221D01*
X167677563Y-55659166D01*
X167683227Y-55636557D01*
X167691079Y-55614613D01*
X167701044Y-55593543D01*
X167713026Y-55573552D01*
X167726910Y-55554832D01*
X167742562Y-55537562D01*
X167759832Y-55521910D01*
X167778552Y-55508026D01*
X167798543Y-55496044D01*
X167819613Y-55486079D01*
X167841557Y-55478227D01*
X167864166Y-55472563D01*
X167887221Y-55469144D01*
X167910500Y-55468000D01*
X168385500Y-55468000D01*
X168408779Y-55469144D01*
X168408779Y-55469144D01*
G37*
D17*
X168148000Y-55993000D03*
D14*
G36*
X164090779Y-52675144D02*
G01*
X164113834Y-52678563D01*
X164136443Y-52684227D01*
X164158387Y-52692079D01*
X164179457Y-52702044D01*
X164199448Y-52714026D01*
X164218168Y-52727910D01*
X164235438Y-52743562D01*
X164251090Y-52760832D01*
X164264974Y-52779552D01*
X164276956Y-52799543D01*
X164286921Y-52820613D01*
X164294773Y-52842557D01*
X164300437Y-52865166D01*
X164303856Y-52888221D01*
X164305000Y-52911500D01*
X164305000Y-53486500D01*
X164303856Y-53509779D01*
X164300437Y-53532834D01*
X164294773Y-53555443D01*
X164286921Y-53577387D01*
X164276956Y-53598457D01*
X164264974Y-53618448D01*
X164251090Y-53637168D01*
X164235438Y-53654438D01*
X164218168Y-53670090D01*
X164199448Y-53683974D01*
X164179457Y-53695956D01*
X164158387Y-53705921D01*
X164136443Y-53713773D01*
X164113834Y-53719437D01*
X164090779Y-53722856D01*
X164067500Y-53724000D01*
X163592500Y-53724000D01*
X163569221Y-53722856D01*
X163546166Y-53719437D01*
X163523557Y-53713773D01*
X163501613Y-53705921D01*
X163480543Y-53695956D01*
X163460552Y-53683974D01*
X163441832Y-53670090D01*
X163424562Y-53654438D01*
X163408910Y-53637168D01*
X163395026Y-53618448D01*
X163383044Y-53598457D01*
X163373079Y-53577387D01*
X163365227Y-53555443D01*
X163359563Y-53532834D01*
X163356144Y-53509779D01*
X163355000Y-53486500D01*
X163355000Y-52911500D01*
X163356144Y-52888221D01*
X163359563Y-52865166D01*
X163365227Y-52842557D01*
X163373079Y-52820613D01*
X163383044Y-52799543D01*
X163395026Y-52779552D01*
X163408910Y-52760832D01*
X163424562Y-52743562D01*
X163441832Y-52727910D01*
X163460552Y-52714026D01*
X163480543Y-52702044D01*
X163501613Y-52692079D01*
X163523557Y-52684227D01*
X163546166Y-52678563D01*
X163569221Y-52675144D01*
X163592500Y-52674000D01*
X164067500Y-52674000D01*
X164090779Y-52675144D01*
X164090779Y-52675144D01*
G37*
D17*
X163830000Y-53199000D03*
D14*
G36*
X164090779Y-50925144D02*
G01*
X164113834Y-50928563D01*
X164136443Y-50934227D01*
X164158387Y-50942079D01*
X164179457Y-50952044D01*
X164199448Y-50964026D01*
X164218168Y-50977910D01*
X164235438Y-50993562D01*
X164251090Y-51010832D01*
X164264974Y-51029552D01*
X164276956Y-51049543D01*
X164286921Y-51070613D01*
X164294773Y-51092557D01*
X164300437Y-51115166D01*
X164303856Y-51138221D01*
X164305000Y-51161500D01*
X164305000Y-51736500D01*
X164303856Y-51759779D01*
X164300437Y-51782834D01*
X164294773Y-51805443D01*
X164286921Y-51827387D01*
X164276956Y-51848457D01*
X164264974Y-51868448D01*
X164251090Y-51887168D01*
X164235438Y-51904438D01*
X164218168Y-51920090D01*
X164199448Y-51933974D01*
X164179457Y-51945956D01*
X164158387Y-51955921D01*
X164136443Y-51963773D01*
X164113834Y-51969437D01*
X164090779Y-51972856D01*
X164067500Y-51974000D01*
X163592500Y-51974000D01*
X163569221Y-51972856D01*
X163546166Y-51969437D01*
X163523557Y-51963773D01*
X163501613Y-51955921D01*
X163480543Y-51945956D01*
X163460552Y-51933974D01*
X163441832Y-51920090D01*
X163424562Y-51904438D01*
X163408910Y-51887168D01*
X163395026Y-51868448D01*
X163383044Y-51848457D01*
X163373079Y-51827387D01*
X163365227Y-51805443D01*
X163359563Y-51782834D01*
X163356144Y-51759779D01*
X163355000Y-51736500D01*
X163355000Y-51161500D01*
X163356144Y-51138221D01*
X163359563Y-51115166D01*
X163365227Y-51092557D01*
X163373079Y-51070613D01*
X163383044Y-51049543D01*
X163395026Y-51029552D01*
X163408910Y-51010832D01*
X163424562Y-50993562D01*
X163441832Y-50977910D01*
X163460552Y-50964026D01*
X163480543Y-50952044D01*
X163501613Y-50942079D01*
X163523557Y-50934227D01*
X163546166Y-50928563D01*
X163569221Y-50925144D01*
X163592500Y-50924000D01*
X164067500Y-50924000D01*
X164090779Y-50925144D01*
X164090779Y-50925144D01*
G37*
D17*
X163830000Y-51449000D03*
D14*
G36*
X147489779Y-69376144D02*
G01*
X147512834Y-69379563D01*
X147535443Y-69385227D01*
X147557387Y-69393079D01*
X147578457Y-69403044D01*
X147598448Y-69415026D01*
X147617168Y-69428910D01*
X147634438Y-69444562D01*
X147650090Y-69461832D01*
X147663974Y-69480552D01*
X147675956Y-69500543D01*
X147685921Y-69521613D01*
X147693773Y-69543557D01*
X147699437Y-69566166D01*
X147702856Y-69589221D01*
X147704000Y-69612500D01*
X147704000Y-70087500D01*
X147702856Y-70110779D01*
X147699437Y-70133834D01*
X147693773Y-70156443D01*
X147685921Y-70178387D01*
X147675956Y-70199457D01*
X147663974Y-70219448D01*
X147650090Y-70238168D01*
X147634438Y-70255438D01*
X147617168Y-70271090D01*
X147598448Y-70284974D01*
X147578457Y-70296956D01*
X147557387Y-70306921D01*
X147535443Y-70314773D01*
X147512834Y-70320437D01*
X147489779Y-70323856D01*
X147466500Y-70325000D01*
X146891500Y-70325000D01*
X146868221Y-70323856D01*
X146845166Y-70320437D01*
X146822557Y-70314773D01*
X146800613Y-70306921D01*
X146779543Y-70296956D01*
X146759552Y-70284974D01*
X146740832Y-70271090D01*
X146723562Y-70255438D01*
X146707910Y-70238168D01*
X146694026Y-70219448D01*
X146682044Y-70199457D01*
X146672079Y-70178387D01*
X146664227Y-70156443D01*
X146658563Y-70133834D01*
X146655144Y-70110779D01*
X146654000Y-70087500D01*
X146654000Y-69612500D01*
X146655144Y-69589221D01*
X146658563Y-69566166D01*
X146664227Y-69543557D01*
X146672079Y-69521613D01*
X146682044Y-69500543D01*
X146694026Y-69480552D01*
X146707910Y-69461832D01*
X146723562Y-69444562D01*
X146740832Y-69428910D01*
X146759552Y-69415026D01*
X146779543Y-69403044D01*
X146800613Y-69393079D01*
X146822557Y-69385227D01*
X146845166Y-69379563D01*
X146868221Y-69376144D01*
X146891500Y-69375000D01*
X147466500Y-69375000D01*
X147489779Y-69376144D01*
X147489779Y-69376144D01*
G37*
D17*
X147179000Y-69850000D03*
D14*
G36*
X145739779Y-69376144D02*
G01*
X145762834Y-69379563D01*
X145785443Y-69385227D01*
X145807387Y-69393079D01*
X145828457Y-69403044D01*
X145848448Y-69415026D01*
X145867168Y-69428910D01*
X145884438Y-69444562D01*
X145900090Y-69461832D01*
X145913974Y-69480552D01*
X145925956Y-69500543D01*
X145935921Y-69521613D01*
X145943773Y-69543557D01*
X145949437Y-69566166D01*
X145952856Y-69589221D01*
X145954000Y-69612500D01*
X145954000Y-70087500D01*
X145952856Y-70110779D01*
X145949437Y-70133834D01*
X145943773Y-70156443D01*
X145935921Y-70178387D01*
X145925956Y-70199457D01*
X145913974Y-70219448D01*
X145900090Y-70238168D01*
X145884438Y-70255438D01*
X145867168Y-70271090D01*
X145848448Y-70284974D01*
X145828457Y-70296956D01*
X145807387Y-70306921D01*
X145785443Y-70314773D01*
X145762834Y-70320437D01*
X145739779Y-70323856D01*
X145716500Y-70325000D01*
X145141500Y-70325000D01*
X145118221Y-70323856D01*
X145095166Y-70320437D01*
X145072557Y-70314773D01*
X145050613Y-70306921D01*
X145029543Y-70296956D01*
X145009552Y-70284974D01*
X144990832Y-70271090D01*
X144973562Y-70255438D01*
X144957910Y-70238168D01*
X144944026Y-70219448D01*
X144932044Y-70199457D01*
X144922079Y-70178387D01*
X144914227Y-70156443D01*
X144908563Y-70133834D01*
X144905144Y-70110779D01*
X144904000Y-70087500D01*
X144904000Y-69612500D01*
X144905144Y-69589221D01*
X144908563Y-69566166D01*
X144914227Y-69543557D01*
X144922079Y-69521613D01*
X144932044Y-69500543D01*
X144944026Y-69480552D01*
X144957910Y-69461832D01*
X144973562Y-69444562D01*
X144990832Y-69428910D01*
X145009552Y-69415026D01*
X145029543Y-69403044D01*
X145050613Y-69393079D01*
X145072557Y-69385227D01*
X145095166Y-69379563D01*
X145118221Y-69376144D01*
X145141500Y-69375000D01*
X145716500Y-69375000D01*
X145739779Y-69376144D01*
X145739779Y-69376144D01*
G37*
D17*
X145429000Y-69850000D03*
D14*
G36*
X141484779Y-115413144D02*
G01*
X141507834Y-115416563D01*
X141530443Y-115422227D01*
X141552387Y-115430079D01*
X141573457Y-115440044D01*
X141593448Y-115452026D01*
X141612168Y-115465910D01*
X141629438Y-115481562D01*
X141645090Y-115498832D01*
X141658974Y-115517552D01*
X141670956Y-115537543D01*
X141680921Y-115558613D01*
X141688773Y-115580557D01*
X141694437Y-115603166D01*
X141697856Y-115626221D01*
X141699000Y-115649500D01*
X141699000Y-116224500D01*
X141697856Y-116247779D01*
X141694437Y-116270834D01*
X141688773Y-116293443D01*
X141680921Y-116315387D01*
X141670956Y-116336457D01*
X141658974Y-116356448D01*
X141645090Y-116375168D01*
X141629438Y-116392438D01*
X141612168Y-116408090D01*
X141593448Y-116421974D01*
X141573457Y-116433956D01*
X141552387Y-116443921D01*
X141530443Y-116451773D01*
X141507834Y-116457437D01*
X141484779Y-116460856D01*
X141461500Y-116462000D01*
X140986500Y-116462000D01*
X140963221Y-116460856D01*
X140940166Y-116457437D01*
X140917557Y-116451773D01*
X140895613Y-116443921D01*
X140874543Y-116433956D01*
X140854552Y-116421974D01*
X140835832Y-116408090D01*
X140818562Y-116392438D01*
X140802910Y-116375168D01*
X140789026Y-116356448D01*
X140777044Y-116336457D01*
X140767079Y-116315387D01*
X140759227Y-116293443D01*
X140753563Y-116270834D01*
X140750144Y-116247779D01*
X140749000Y-116224500D01*
X140749000Y-115649500D01*
X140750144Y-115626221D01*
X140753563Y-115603166D01*
X140759227Y-115580557D01*
X140767079Y-115558613D01*
X140777044Y-115537543D01*
X140789026Y-115517552D01*
X140802910Y-115498832D01*
X140818562Y-115481562D01*
X140835832Y-115465910D01*
X140854552Y-115452026D01*
X140874543Y-115440044D01*
X140895613Y-115430079D01*
X140917557Y-115422227D01*
X140940166Y-115416563D01*
X140963221Y-115413144D01*
X140986500Y-115412000D01*
X141461500Y-115412000D01*
X141484779Y-115413144D01*
X141484779Y-115413144D01*
G37*
D17*
X141224000Y-115937000D03*
D14*
G36*
X141484779Y-113663144D02*
G01*
X141507834Y-113666563D01*
X141530443Y-113672227D01*
X141552387Y-113680079D01*
X141573457Y-113690044D01*
X141593448Y-113702026D01*
X141612168Y-113715910D01*
X141629438Y-113731562D01*
X141645090Y-113748832D01*
X141658974Y-113767552D01*
X141670956Y-113787543D01*
X141680921Y-113808613D01*
X141688773Y-113830557D01*
X141694437Y-113853166D01*
X141697856Y-113876221D01*
X141699000Y-113899500D01*
X141699000Y-114474500D01*
X141697856Y-114497779D01*
X141694437Y-114520834D01*
X141688773Y-114543443D01*
X141680921Y-114565387D01*
X141670956Y-114586457D01*
X141658974Y-114606448D01*
X141645090Y-114625168D01*
X141629438Y-114642438D01*
X141612168Y-114658090D01*
X141593448Y-114671974D01*
X141573457Y-114683956D01*
X141552387Y-114693921D01*
X141530443Y-114701773D01*
X141507834Y-114707437D01*
X141484779Y-114710856D01*
X141461500Y-114712000D01*
X140986500Y-114712000D01*
X140963221Y-114710856D01*
X140940166Y-114707437D01*
X140917557Y-114701773D01*
X140895613Y-114693921D01*
X140874543Y-114683956D01*
X140854552Y-114671974D01*
X140835832Y-114658090D01*
X140818562Y-114642438D01*
X140802910Y-114625168D01*
X140789026Y-114606448D01*
X140777044Y-114586457D01*
X140767079Y-114565387D01*
X140759227Y-114543443D01*
X140753563Y-114520834D01*
X140750144Y-114497779D01*
X140749000Y-114474500D01*
X140749000Y-113899500D01*
X140750144Y-113876221D01*
X140753563Y-113853166D01*
X140759227Y-113830557D01*
X140767079Y-113808613D01*
X140777044Y-113787543D01*
X140789026Y-113767552D01*
X140802910Y-113748832D01*
X140818562Y-113731562D01*
X140835832Y-113715910D01*
X140854552Y-113702026D01*
X140874543Y-113690044D01*
X140895613Y-113680079D01*
X140917557Y-113672227D01*
X140940166Y-113666563D01*
X140963221Y-113663144D01*
X140986500Y-113662000D01*
X141461500Y-113662000D01*
X141484779Y-113663144D01*
X141484779Y-113663144D01*
G37*
D17*
X141224000Y-114187000D03*
D14*
G36*
X147743779Y-106968144D02*
G01*
X147766834Y-106971563D01*
X147789443Y-106977227D01*
X147811387Y-106985079D01*
X147832457Y-106995044D01*
X147852448Y-107007026D01*
X147871168Y-107020910D01*
X147888438Y-107036562D01*
X147904090Y-107053832D01*
X147917974Y-107072552D01*
X147929956Y-107092543D01*
X147939921Y-107113613D01*
X147947773Y-107135557D01*
X147953437Y-107158166D01*
X147956856Y-107181221D01*
X147958000Y-107204500D01*
X147958000Y-107679500D01*
X147956856Y-107702779D01*
X147953437Y-107725834D01*
X147947773Y-107748443D01*
X147939921Y-107770387D01*
X147929956Y-107791457D01*
X147917974Y-107811448D01*
X147904090Y-107830168D01*
X147888438Y-107847438D01*
X147871168Y-107863090D01*
X147852448Y-107876974D01*
X147832457Y-107888956D01*
X147811387Y-107898921D01*
X147789443Y-107906773D01*
X147766834Y-107912437D01*
X147743779Y-107915856D01*
X147720500Y-107917000D01*
X147145500Y-107917000D01*
X147122221Y-107915856D01*
X147099166Y-107912437D01*
X147076557Y-107906773D01*
X147054613Y-107898921D01*
X147033543Y-107888956D01*
X147013552Y-107876974D01*
X146994832Y-107863090D01*
X146977562Y-107847438D01*
X146961910Y-107830168D01*
X146948026Y-107811448D01*
X146936044Y-107791457D01*
X146926079Y-107770387D01*
X146918227Y-107748443D01*
X146912563Y-107725834D01*
X146909144Y-107702779D01*
X146908000Y-107679500D01*
X146908000Y-107204500D01*
X146909144Y-107181221D01*
X146912563Y-107158166D01*
X146918227Y-107135557D01*
X146926079Y-107113613D01*
X146936044Y-107092543D01*
X146948026Y-107072552D01*
X146961910Y-107053832D01*
X146977562Y-107036562D01*
X146994832Y-107020910D01*
X147013552Y-107007026D01*
X147033543Y-106995044D01*
X147054613Y-106985079D01*
X147076557Y-106977227D01*
X147099166Y-106971563D01*
X147122221Y-106968144D01*
X147145500Y-106967000D01*
X147720500Y-106967000D01*
X147743779Y-106968144D01*
X147743779Y-106968144D01*
G37*
D17*
X147433000Y-107442000D03*
D14*
G36*
X145993779Y-106968144D02*
G01*
X146016834Y-106971563D01*
X146039443Y-106977227D01*
X146061387Y-106985079D01*
X146082457Y-106995044D01*
X146102448Y-107007026D01*
X146121168Y-107020910D01*
X146138438Y-107036562D01*
X146154090Y-107053832D01*
X146167974Y-107072552D01*
X146179956Y-107092543D01*
X146189921Y-107113613D01*
X146197773Y-107135557D01*
X146203437Y-107158166D01*
X146206856Y-107181221D01*
X146208000Y-107204500D01*
X146208000Y-107679500D01*
X146206856Y-107702779D01*
X146203437Y-107725834D01*
X146197773Y-107748443D01*
X146189921Y-107770387D01*
X146179956Y-107791457D01*
X146167974Y-107811448D01*
X146154090Y-107830168D01*
X146138438Y-107847438D01*
X146121168Y-107863090D01*
X146102448Y-107876974D01*
X146082457Y-107888956D01*
X146061387Y-107898921D01*
X146039443Y-107906773D01*
X146016834Y-107912437D01*
X145993779Y-107915856D01*
X145970500Y-107917000D01*
X145395500Y-107917000D01*
X145372221Y-107915856D01*
X145349166Y-107912437D01*
X145326557Y-107906773D01*
X145304613Y-107898921D01*
X145283543Y-107888956D01*
X145263552Y-107876974D01*
X145244832Y-107863090D01*
X145227562Y-107847438D01*
X145211910Y-107830168D01*
X145198026Y-107811448D01*
X145186044Y-107791457D01*
X145176079Y-107770387D01*
X145168227Y-107748443D01*
X145162563Y-107725834D01*
X145159144Y-107702779D01*
X145158000Y-107679500D01*
X145158000Y-107204500D01*
X145159144Y-107181221D01*
X145162563Y-107158166D01*
X145168227Y-107135557D01*
X145176079Y-107113613D01*
X145186044Y-107092543D01*
X145198026Y-107072552D01*
X145211910Y-107053832D01*
X145227562Y-107036562D01*
X145244832Y-107020910D01*
X145263552Y-107007026D01*
X145283543Y-106995044D01*
X145304613Y-106985079D01*
X145326557Y-106977227D01*
X145349166Y-106971563D01*
X145372221Y-106968144D01*
X145395500Y-106967000D01*
X145970500Y-106967000D01*
X145993779Y-106968144D01*
X145993779Y-106968144D01*
G37*
D17*
X145683000Y-107442000D03*
D14*
G36*
X141484779Y-110107144D02*
G01*
X141507834Y-110110563D01*
X141530443Y-110116227D01*
X141552387Y-110124079D01*
X141573457Y-110134044D01*
X141593448Y-110146026D01*
X141612168Y-110159910D01*
X141629438Y-110175562D01*
X141645090Y-110192832D01*
X141658974Y-110211552D01*
X141670956Y-110231543D01*
X141680921Y-110252613D01*
X141688773Y-110274557D01*
X141694437Y-110297166D01*
X141697856Y-110320221D01*
X141699000Y-110343500D01*
X141699000Y-110918500D01*
X141697856Y-110941779D01*
X141694437Y-110964834D01*
X141688773Y-110987443D01*
X141680921Y-111009387D01*
X141670956Y-111030457D01*
X141658974Y-111050448D01*
X141645090Y-111069168D01*
X141629438Y-111086438D01*
X141612168Y-111102090D01*
X141593448Y-111115974D01*
X141573457Y-111127956D01*
X141552387Y-111137921D01*
X141530443Y-111145773D01*
X141507834Y-111151437D01*
X141484779Y-111154856D01*
X141461500Y-111156000D01*
X140986500Y-111156000D01*
X140963221Y-111154856D01*
X140940166Y-111151437D01*
X140917557Y-111145773D01*
X140895613Y-111137921D01*
X140874543Y-111127956D01*
X140854552Y-111115974D01*
X140835832Y-111102090D01*
X140818562Y-111086438D01*
X140802910Y-111069168D01*
X140789026Y-111050448D01*
X140777044Y-111030457D01*
X140767079Y-111009387D01*
X140759227Y-110987443D01*
X140753563Y-110964834D01*
X140750144Y-110941779D01*
X140749000Y-110918500D01*
X140749000Y-110343500D01*
X140750144Y-110320221D01*
X140753563Y-110297166D01*
X140759227Y-110274557D01*
X140767079Y-110252613D01*
X140777044Y-110231543D01*
X140789026Y-110211552D01*
X140802910Y-110192832D01*
X140818562Y-110175562D01*
X140835832Y-110159910D01*
X140854552Y-110146026D01*
X140874543Y-110134044D01*
X140895613Y-110124079D01*
X140917557Y-110116227D01*
X140940166Y-110110563D01*
X140963221Y-110107144D01*
X140986500Y-110106000D01*
X141461500Y-110106000D01*
X141484779Y-110107144D01*
X141484779Y-110107144D01*
G37*
D17*
X141224000Y-110631000D03*
D14*
G36*
X141484779Y-111857144D02*
G01*
X141507834Y-111860563D01*
X141530443Y-111866227D01*
X141552387Y-111874079D01*
X141573457Y-111884044D01*
X141593448Y-111896026D01*
X141612168Y-111909910D01*
X141629438Y-111925562D01*
X141645090Y-111942832D01*
X141658974Y-111961552D01*
X141670956Y-111981543D01*
X141680921Y-112002613D01*
X141688773Y-112024557D01*
X141694437Y-112047166D01*
X141697856Y-112070221D01*
X141699000Y-112093500D01*
X141699000Y-112668500D01*
X141697856Y-112691779D01*
X141694437Y-112714834D01*
X141688773Y-112737443D01*
X141680921Y-112759387D01*
X141670956Y-112780457D01*
X141658974Y-112800448D01*
X141645090Y-112819168D01*
X141629438Y-112836438D01*
X141612168Y-112852090D01*
X141593448Y-112865974D01*
X141573457Y-112877956D01*
X141552387Y-112887921D01*
X141530443Y-112895773D01*
X141507834Y-112901437D01*
X141484779Y-112904856D01*
X141461500Y-112906000D01*
X140986500Y-112906000D01*
X140963221Y-112904856D01*
X140940166Y-112901437D01*
X140917557Y-112895773D01*
X140895613Y-112887921D01*
X140874543Y-112877956D01*
X140854552Y-112865974D01*
X140835832Y-112852090D01*
X140818562Y-112836438D01*
X140802910Y-112819168D01*
X140789026Y-112800448D01*
X140777044Y-112780457D01*
X140767079Y-112759387D01*
X140759227Y-112737443D01*
X140753563Y-112714834D01*
X140750144Y-112691779D01*
X140749000Y-112668500D01*
X140749000Y-112093500D01*
X140750144Y-112070221D01*
X140753563Y-112047166D01*
X140759227Y-112024557D01*
X140767079Y-112002613D01*
X140777044Y-111981543D01*
X140789026Y-111961552D01*
X140802910Y-111942832D01*
X140818562Y-111925562D01*
X140835832Y-111909910D01*
X140854552Y-111896026D01*
X140874543Y-111884044D01*
X140895613Y-111874079D01*
X140917557Y-111866227D01*
X140940166Y-111860563D01*
X140963221Y-111857144D01*
X140986500Y-111856000D01*
X141461500Y-111856000D01*
X141484779Y-111857144D01*
X141484779Y-111857144D01*
G37*
D17*
X141224000Y-112381000D03*
D14*
G36*
X147743779Y-108492144D02*
G01*
X147766834Y-108495563D01*
X147789443Y-108501227D01*
X147811387Y-108509079D01*
X147832457Y-108519044D01*
X147852448Y-108531026D01*
X147871168Y-108544910D01*
X147888438Y-108560562D01*
X147904090Y-108577832D01*
X147917974Y-108596552D01*
X147929956Y-108616543D01*
X147939921Y-108637613D01*
X147947773Y-108659557D01*
X147953437Y-108682166D01*
X147956856Y-108705221D01*
X147958000Y-108728500D01*
X147958000Y-109203500D01*
X147956856Y-109226779D01*
X147953437Y-109249834D01*
X147947773Y-109272443D01*
X147939921Y-109294387D01*
X147929956Y-109315457D01*
X147917974Y-109335448D01*
X147904090Y-109354168D01*
X147888438Y-109371438D01*
X147871168Y-109387090D01*
X147852448Y-109400974D01*
X147832457Y-109412956D01*
X147811387Y-109422921D01*
X147789443Y-109430773D01*
X147766834Y-109436437D01*
X147743779Y-109439856D01*
X147720500Y-109441000D01*
X147145500Y-109441000D01*
X147122221Y-109439856D01*
X147099166Y-109436437D01*
X147076557Y-109430773D01*
X147054613Y-109422921D01*
X147033543Y-109412956D01*
X147013552Y-109400974D01*
X146994832Y-109387090D01*
X146977562Y-109371438D01*
X146961910Y-109354168D01*
X146948026Y-109335448D01*
X146936044Y-109315457D01*
X146926079Y-109294387D01*
X146918227Y-109272443D01*
X146912563Y-109249834D01*
X146909144Y-109226779D01*
X146908000Y-109203500D01*
X146908000Y-108728500D01*
X146909144Y-108705221D01*
X146912563Y-108682166D01*
X146918227Y-108659557D01*
X146926079Y-108637613D01*
X146936044Y-108616543D01*
X146948026Y-108596552D01*
X146961910Y-108577832D01*
X146977562Y-108560562D01*
X146994832Y-108544910D01*
X147013552Y-108531026D01*
X147033543Y-108519044D01*
X147054613Y-108509079D01*
X147076557Y-108501227D01*
X147099166Y-108495563D01*
X147122221Y-108492144D01*
X147145500Y-108491000D01*
X147720500Y-108491000D01*
X147743779Y-108492144D01*
X147743779Y-108492144D01*
G37*
D17*
X147433000Y-108966000D03*
D14*
G36*
X145993779Y-108492144D02*
G01*
X146016834Y-108495563D01*
X146039443Y-108501227D01*
X146061387Y-108509079D01*
X146082457Y-108519044D01*
X146102448Y-108531026D01*
X146121168Y-108544910D01*
X146138438Y-108560562D01*
X146154090Y-108577832D01*
X146167974Y-108596552D01*
X146179956Y-108616543D01*
X146189921Y-108637613D01*
X146197773Y-108659557D01*
X146203437Y-108682166D01*
X146206856Y-108705221D01*
X146208000Y-108728500D01*
X146208000Y-109203500D01*
X146206856Y-109226779D01*
X146203437Y-109249834D01*
X146197773Y-109272443D01*
X146189921Y-109294387D01*
X146179956Y-109315457D01*
X146167974Y-109335448D01*
X146154090Y-109354168D01*
X146138438Y-109371438D01*
X146121168Y-109387090D01*
X146102448Y-109400974D01*
X146082457Y-109412956D01*
X146061387Y-109422921D01*
X146039443Y-109430773D01*
X146016834Y-109436437D01*
X145993779Y-109439856D01*
X145970500Y-109441000D01*
X145395500Y-109441000D01*
X145372221Y-109439856D01*
X145349166Y-109436437D01*
X145326557Y-109430773D01*
X145304613Y-109422921D01*
X145283543Y-109412956D01*
X145263552Y-109400974D01*
X145244832Y-109387090D01*
X145227562Y-109371438D01*
X145211910Y-109354168D01*
X145198026Y-109335448D01*
X145186044Y-109315457D01*
X145176079Y-109294387D01*
X145168227Y-109272443D01*
X145162563Y-109249834D01*
X145159144Y-109226779D01*
X145158000Y-109203500D01*
X145158000Y-108728500D01*
X145159144Y-108705221D01*
X145162563Y-108682166D01*
X145168227Y-108659557D01*
X145176079Y-108637613D01*
X145186044Y-108616543D01*
X145198026Y-108596552D01*
X145211910Y-108577832D01*
X145227562Y-108560562D01*
X145244832Y-108544910D01*
X145263552Y-108531026D01*
X145283543Y-108519044D01*
X145304613Y-108509079D01*
X145326557Y-108501227D01*
X145349166Y-108495563D01*
X145372221Y-108492144D01*
X145395500Y-108491000D01*
X145970500Y-108491000D01*
X145993779Y-108492144D01*
X145993779Y-108492144D01*
G37*
D17*
X145683000Y-108966000D03*
D14*
G36*
X156978779Y-95728144D02*
G01*
X157001834Y-95731563D01*
X157024443Y-95737227D01*
X157046387Y-95745079D01*
X157067457Y-95755044D01*
X157087448Y-95767026D01*
X157106168Y-95780910D01*
X157123438Y-95796562D01*
X157139090Y-95813832D01*
X157152974Y-95832552D01*
X157164956Y-95852543D01*
X157174921Y-95873613D01*
X157182773Y-95895557D01*
X157188437Y-95918166D01*
X157191856Y-95941221D01*
X157193000Y-95964500D01*
X157193000Y-96539500D01*
X157191856Y-96562779D01*
X157188437Y-96585834D01*
X157182773Y-96608443D01*
X157174921Y-96630387D01*
X157164956Y-96651457D01*
X157152974Y-96671448D01*
X157139090Y-96690168D01*
X157123438Y-96707438D01*
X157106168Y-96723090D01*
X157087448Y-96736974D01*
X157067457Y-96748956D01*
X157046387Y-96758921D01*
X157024443Y-96766773D01*
X157001834Y-96772437D01*
X156978779Y-96775856D01*
X156955500Y-96777000D01*
X156480500Y-96777000D01*
X156457221Y-96775856D01*
X156434166Y-96772437D01*
X156411557Y-96766773D01*
X156389613Y-96758921D01*
X156368543Y-96748956D01*
X156348552Y-96736974D01*
X156329832Y-96723090D01*
X156312562Y-96707438D01*
X156296910Y-96690168D01*
X156283026Y-96671448D01*
X156271044Y-96651457D01*
X156261079Y-96630387D01*
X156253227Y-96608443D01*
X156247563Y-96585834D01*
X156244144Y-96562779D01*
X156243000Y-96539500D01*
X156243000Y-95964500D01*
X156244144Y-95941221D01*
X156247563Y-95918166D01*
X156253227Y-95895557D01*
X156261079Y-95873613D01*
X156271044Y-95852543D01*
X156283026Y-95832552D01*
X156296910Y-95813832D01*
X156312562Y-95796562D01*
X156329832Y-95780910D01*
X156348552Y-95767026D01*
X156368543Y-95755044D01*
X156389613Y-95745079D01*
X156411557Y-95737227D01*
X156434166Y-95731563D01*
X156457221Y-95728144D01*
X156480500Y-95727000D01*
X156955500Y-95727000D01*
X156978779Y-95728144D01*
X156978779Y-95728144D01*
G37*
D17*
X156718000Y-96252000D03*
D14*
G36*
X156978779Y-93978144D02*
G01*
X157001834Y-93981563D01*
X157024443Y-93987227D01*
X157046387Y-93995079D01*
X157067457Y-94005044D01*
X157087448Y-94017026D01*
X157106168Y-94030910D01*
X157123438Y-94046562D01*
X157139090Y-94063832D01*
X157152974Y-94082552D01*
X157164956Y-94102543D01*
X157174921Y-94123613D01*
X157182773Y-94145557D01*
X157188437Y-94168166D01*
X157191856Y-94191221D01*
X157193000Y-94214500D01*
X157193000Y-94789500D01*
X157191856Y-94812779D01*
X157188437Y-94835834D01*
X157182773Y-94858443D01*
X157174921Y-94880387D01*
X157164956Y-94901457D01*
X157152974Y-94921448D01*
X157139090Y-94940168D01*
X157123438Y-94957438D01*
X157106168Y-94973090D01*
X157087448Y-94986974D01*
X157067457Y-94998956D01*
X157046387Y-95008921D01*
X157024443Y-95016773D01*
X157001834Y-95022437D01*
X156978779Y-95025856D01*
X156955500Y-95027000D01*
X156480500Y-95027000D01*
X156457221Y-95025856D01*
X156434166Y-95022437D01*
X156411557Y-95016773D01*
X156389613Y-95008921D01*
X156368543Y-94998956D01*
X156348552Y-94986974D01*
X156329832Y-94973090D01*
X156312562Y-94957438D01*
X156296910Y-94940168D01*
X156283026Y-94921448D01*
X156271044Y-94901457D01*
X156261079Y-94880387D01*
X156253227Y-94858443D01*
X156247563Y-94835834D01*
X156244144Y-94812779D01*
X156243000Y-94789500D01*
X156243000Y-94214500D01*
X156244144Y-94191221D01*
X156247563Y-94168166D01*
X156253227Y-94145557D01*
X156261079Y-94123613D01*
X156271044Y-94102543D01*
X156283026Y-94082552D01*
X156296910Y-94063832D01*
X156312562Y-94046562D01*
X156329832Y-94030910D01*
X156348552Y-94017026D01*
X156368543Y-94005044D01*
X156389613Y-93995079D01*
X156411557Y-93987227D01*
X156434166Y-93981563D01*
X156457221Y-93978144D01*
X156480500Y-93977000D01*
X156955500Y-93977000D01*
X156978779Y-93978144D01*
X156978779Y-93978144D01*
G37*
D17*
X156718000Y-94502000D03*
D14*
G36*
X152061779Y-111032144D02*
G01*
X152084834Y-111035563D01*
X152107443Y-111041227D01*
X152129387Y-111049079D01*
X152150457Y-111059044D01*
X152170448Y-111071026D01*
X152189168Y-111084910D01*
X152206438Y-111100562D01*
X152222090Y-111117832D01*
X152235974Y-111136552D01*
X152247956Y-111156543D01*
X152257921Y-111177613D01*
X152265773Y-111199557D01*
X152271437Y-111222166D01*
X152274856Y-111245221D01*
X152276000Y-111268500D01*
X152276000Y-111743500D01*
X152274856Y-111766779D01*
X152271437Y-111789834D01*
X152265773Y-111812443D01*
X152257921Y-111834387D01*
X152247956Y-111855457D01*
X152235974Y-111875448D01*
X152222090Y-111894168D01*
X152206438Y-111911438D01*
X152189168Y-111927090D01*
X152170448Y-111940974D01*
X152150457Y-111952956D01*
X152129387Y-111962921D01*
X152107443Y-111970773D01*
X152084834Y-111976437D01*
X152061779Y-111979856D01*
X152038500Y-111981000D01*
X151463500Y-111981000D01*
X151440221Y-111979856D01*
X151417166Y-111976437D01*
X151394557Y-111970773D01*
X151372613Y-111962921D01*
X151351543Y-111952956D01*
X151331552Y-111940974D01*
X151312832Y-111927090D01*
X151295562Y-111911438D01*
X151279910Y-111894168D01*
X151266026Y-111875448D01*
X151254044Y-111855457D01*
X151244079Y-111834387D01*
X151236227Y-111812443D01*
X151230563Y-111789834D01*
X151227144Y-111766779D01*
X151226000Y-111743500D01*
X151226000Y-111268500D01*
X151227144Y-111245221D01*
X151230563Y-111222166D01*
X151236227Y-111199557D01*
X151244079Y-111177613D01*
X151254044Y-111156543D01*
X151266026Y-111136552D01*
X151279910Y-111117832D01*
X151295562Y-111100562D01*
X151312832Y-111084910D01*
X151331552Y-111071026D01*
X151351543Y-111059044D01*
X151372613Y-111049079D01*
X151394557Y-111041227D01*
X151417166Y-111035563D01*
X151440221Y-111032144D01*
X151463500Y-111031000D01*
X152038500Y-111031000D01*
X152061779Y-111032144D01*
X152061779Y-111032144D01*
G37*
D17*
X151751000Y-111506000D03*
D14*
G36*
X150311779Y-111032144D02*
G01*
X150334834Y-111035563D01*
X150357443Y-111041227D01*
X150379387Y-111049079D01*
X150400457Y-111059044D01*
X150420448Y-111071026D01*
X150439168Y-111084910D01*
X150456438Y-111100562D01*
X150472090Y-111117832D01*
X150485974Y-111136552D01*
X150497956Y-111156543D01*
X150507921Y-111177613D01*
X150515773Y-111199557D01*
X150521437Y-111222166D01*
X150524856Y-111245221D01*
X150526000Y-111268500D01*
X150526000Y-111743500D01*
X150524856Y-111766779D01*
X150521437Y-111789834D01*
X150515773Y-111812443D01*
X150507921Y-111834387D01*
X150497956Y-111855457D01*
X150485974Y-111875448D01*
X150472090Y-111894168D01*
X150456438Y-111911438D01*
X150439168Y-111927090D01*
X150420448Y-111940974D01*
X150400457Y-111952956D01*
X150379387Y-111962921D01*
X150357443Y-111970773D01*
X150334834Y-111976437D01*
X150311779Y-111979856D01*
X150288500Y-111981000D01*
X149713500Y-111981000D01*
X149690221Y-111979856D01*
X149667166Y-111976437D01*
X149644557Y-111970773D01*
X149622613Y-111962921D01*
X149601543Y-111952956D01*
X149581552Y-111940974D01*
X149562832Y-111927090D01*
X149545562Y-111911438D01*
X149529910Y-111894168D01*
X149516026Y-111875448D01*
X149504044Y-111855457D01*
X149494079Y-111834387D01*
X149486227Y-111812443D01*
X149480563Y-111789834D01*
X149477144Y-111766779D01*
X149476000Y-111743500D01*
X149476000Y-111268500D01*
X149477144Y-111245221D01*
X149480563Y-111222166D01*
X149486227Y-111199557D01*
X149494079Y-111177613D01*
X149504044Y-111156543D01*
X149516026Y-111136552D01*
X149529910Y-111117832D01*
X149545562Y-111100562D01*
X149562832Y-111084910D01*
X149581552Y-111071026D01*
X149601543Y-111059044D01*
X149622613Y-111049079D01*
X149644557Y-111041227D01*
X149667166Y-111035563D01*
X149690221Y-111032144D01*
X149713500Y-111031000D01*
X150288500Y-111031000D01*
X150311779Y-111032144D01*
X150311779Y-111032144D01*
G37*
D17*
X150001000Y-111506000D03*
D14*
G36*
X123641779Y-106460144D02*
G01*
X123664834Y-106463563D01*
X123687443Y-106469227D01*
X123709387Y-106477079D01*
X123730457Y-106487044D01*
X123750448Y-106499026D01*
X123769168Y-106512910D01*
X123786438Y-106528562D01*
X123802090Y-106545832D01*
X123815974Y-106564552D01*
X123827956Y-106584543D01*
X123837921Y-106605613D01*
X123845773Y-106627557D01*
X123851437Y-106650166D01*
X123854856Y-106673221D01*
X123856000Y-106696500D01*
X123856000Y-107171500D01*
X123854856Y-107194779D01*
X123851437Y-107217834D01*
X123845773Y-107240443D01*
X123837921Y-107262387D01*
X123827956Y-107283457D01*
X123815974Y-107303448D01*
X123802090Y-107322168D01*
X123786438Y-107339438D01*
X123769168Y-107355090D01*
X123750448Y-107368974D01*
X123730457Y-107380956D01*
X123709387Y-107390921D01*
X123687443Y-107398773D01*
X123664834Y-107404437D01*
X123641779Y-107407856D01*
X123618500Y-107409000D01*
X123043500Y-107409000D01*
X123020221Y-107407856D01*
X122997166Y-107404437D01*
X122974557Y-107398773D01*
X122952613Y-107390921D01*
X122931543Y-107380956D01*
X122911552Y-107368974D01*
X122892832Y-107355090D01*
X122875562Y-107339438D01*
X122859910Y-107322168D01*
X122846026Y-107303448D01*
X122834044Y-107283457D01*
X122824079Y-107262387D01*
X122816227Y-107240443D01*
X122810563Y-107217834D01*
X122807144Y-107194779D01*
X122806000Y-107171500D01*
X122806000Y-106696500D01*
X122807144Y-106673221D01*
X122810563Y-106650166D01*
X122816227Y-106627557D01*
X122824079Y-106605613D01*
X122834044Y-106584543D01*
X122846026Y-106564552D01*
X122859910Y-106545832D01*
X122875562Y-106528562D01*
X122892832Y-106512910D01*
X122911552Y-106499026D01*
X122931543Y-106487044D01*
X122952613Y-106477079D01*
X122974557Y-106469227D01*
X122997166Y-106463563D01*
X123020221Y-106460144D01*
X123043500Y-106459000D01*
X123618500Y-106459000D01*
X123641779Y-106460144D01*
X123641779Y-106460144D01*
G37*
D17*
X123331000Y-106934000D03*
D14*
G36*
X125391779Y-106460144D02*
G01*
X125414834Y-106463563D01*
X125437443Y-106469227D01*
X125459387Y-106477079D01*
X125480457Y-106487044D01*
X125500448Y-106499026D01*
X125519168Y-106512910D01*
X125536438Y-106528562D01*
X125552090Y-106545832D01*
X125565974Y-106564552D01*
X125577956Y-106584543D01*
X125587921Y-106605613D01*
X125595773Y-106627557D01*
X125601437Y-106650166D01*
X125604856Y-106673221D01*
X125606000Y-106696500D01*
X125606000Y-107171500D01*
X125604856Y-107194779D01*
X125601437Y-107217834D01*
X125595773Y-107240443D01*
X125587921Y-107262387D01*
X125577956Y-107283457D01*
X125565974Y-107303448D01*
X125552090Y-107322168D01*
X125536438Y-107339438D01*
X125519168Y-107355090D01*
X125500448Y-107368974D01*
X125480457Y-107380956D01*
X125459387Y-107390921D01*
X125437443Y-107398773D01*
X125414834Y-107404437D01*
X125391779Y-107407856D01*
X125368500Y-107409000D01*
X124793500Y-107409000D01*
X124770221Y-107407856D01*
X124747166Y-107404437D01*
X124724557Y-107398773D01*
X124702613Y-107390921D01*
X124681543Y-107380956D01*
X124661552Y-107368974D01*
X124642832Y-107355090D01*
X124625562Y-107339438D01*
X124609910Y-107322168D01*
X124596026Y-107303448D01*
X124584044Y-107283457D01*
X124574079Y-107262387D01*
X124566227Y-107240443D01*
X124560563Y-107217834D01*
X124557144Y-107194779D01*
X124556000Y-107171500D01*
X124556000Y-106696500D01*
X124557144Y-106673221D01*
X124560563Y-106650166D01*
X124566227Y-106627557D01*
X124574079Y-106605613D01*
X124584044Y-106584543D01*
X124596026Y-106564552D01*
X124609910Y-106545832D01*
X124625562Y-106528562D01*
X124642832Y-106512910D01*
X124661552Y-106499026D01*
X124681543Y-106487044D01*
X124702613Y-106477079D01*
X124724557Y-106469227D01*
X124747166Y-106463563D01*
X124770221Y-106460144D01*
X124793500Y-106459000D01*
X125368500Y-106459000D01*
X125391779Y-106460144D01*
X125391779Y-106460144D01*
G37*
D17*
X125081000Y-106934000D03*
D14*
G36*
X125391779Y-108238144D02*
G01*
X125414834Y-108241563D01*
X125437443Y-108247227D01*
X125459387Y-108255079D01*
X125480457Y-108265044D01*
X125500448Y-108277026D01*
X125519168Y-108290910D01*
X125536438Y-108306562D01*
X125552090Y-108323832D01*
X125565974Y-108342552D01*
X125577956Y-108362543D01*
X125587921Y-108383613D01*
X125595773Y-108405557D01*
X125601437Y-108428166D01*
X125604856Y-108451221D01*
X125606000Y-108474500D01*
X125606000Y-108949500D01*
X125604856Y-108972779D01*
X125601437Y-108995834D01*
X125595773Y-109018443D01*
X125587921Y-109040387D01*
X125577956Y-109061457D01*
X125565974Y-109081448D01*
X125552090Y-109100168D01*
X125536438Y-109117438D01*
X125519168Y-109133090D01*
X125500448Y-109146974D01*
X125480457Y-109158956D01*
X125459387Y-109168921D01*
X125437443Y-109176773D01*
X125414834Y-109182437D01*
X125391779Y-109185856D01*
X125368500Y-109187000D01*
X124793500Y-109187000D01*
X124770221Y-109185856D01*
X124747166Y-109182437D01*
X124724557Y-109176773D01*
X124702613Y-109168921D01*
X124681543Y-109158956D01*
X124661552Y-109146974D01*
X124642832Y-109133090D01*
X124625562Y-109117438D01*
X124609910Y-109100168D01*
X124596026Y-109081448D01*
X124584044Y-109061457D01*
X124574079Y-109040387D01*
X124566227Y-109018443D01*
X124560563Y-108995834D01*
X124557144Y-108972779D01*
X124556000Y-108949500D01*
X124556000Y-108474500D01*
X124557144Y-108451221D01*
X124560563Y-108428166D01*
X124566227Y-108405557D01*
X124574079Y-108383613D01*
X124584044Y-108362543D01*
X124596026Y-108342552D01*
X124609910Y-108323832D01*
X124625562Y-108306562D01*
X124642832Y-108290910D01*
X124661552Y-108277026D01*
X124681543Y-108265044D01*
X124702613Y-108255079D01*
X124724557Y-108247227D01*
X124747166Y-108241563D01*
X124770221Y-108238144D01*
X124793500Y-108237000D01*
X125368500Y-108237000D01*
X125391779Y-108238144D01*
X125391779Y-108238144D01*
G37*
D17*
X125081000Y-108712000D03*
D14*
G36*
X123641779Y-108238144D02*
G01*
X123664834Y-108241563D01*
X123687443Y-108247227D01*
X123709387Y-108255079D01*
X123730457Y-108265044D01*
X123750448Y-108277026D01*
X123769168Y-108290910D01*
X123786438Y-108306562D01*
X123802090Y-108323832D01*
X123815974Y-108342552D01*
X123827956Y-108362543D01*
X123837921Y-108383613D01*
X123845773Y-108405557D01*
X123851437Y-108428166D01*
X123854856Y-108451221D01*
X123856000Y-108474500D01*
X123856000Y-108949500D01*
X123854856Y-108972779D01*
X123851437Y-108995834D01*
X123845773Y-109018443D01*
X123837921Y-109040387D01*
X123827956Y-109061457D01*
X123815974Y-109081448D01*
X123802090Y-109100168D01*
X123786438Y-109117438D01*
X123769168Y-109133090D01*
X123750448Y-109146974D01*
X123730457Y-109158956D01*
X123709387Y-109168921D01*
X123687443Y-109176773D01*
X123664834Y-109182437D01*
X123641779Y-109185856D01*
X123618500Y-109187000D01*
X123043500Y-109187000D01*
X123020221Y-109185856D01*
X122997166Y-109182437D01*
X122974557Y-109176773D01*
X122952613Y-109168921D01*
X122931543Y-109158956D01*
X122911552Y-109146974D01*
X122892832Y-109133090D01*
X122875562Y-109117438D01*
X122859910Y-109100168D01*
X122846026Y-109081448D01*
X122834044Y-109061457D01*
X122824079Y-109040387D01*
X122816227Y-109018443D01*
X122810563Y-108995834D01*
X122807144Y-108972779D01*
X122806000Y-108949500D01*
X122806000Y-108474500D01*
X122807144Y-108451221D01*
X122810563Y-108428166D01*
X122816227Y-108405557D01*
X122824079Y-108383613D01*
X122834044Y-108362543D01*
X122846026Y-108342552D01*
X122859910Y-108323832D01*
X122875562Y-108306562D01*
X122892832Y-108290910D01*
X122911552Y-108277026D01*
X122931543Y-108265044D01*
X122952613Y-108255079D01*
X122974557Y-108247227D01*
X122997166Y-108241563D01*
X123020221Y-108238144D01*
X123043500Y-108237000D01*
X123618500Y-108237000D01*
X123641779Y-108238144D01*
X123641779Y-108238144D01*
G37*
D17*
X123331000Y-108712000D03*
D14*
G36*
X123641779Y-110016144D02*
G01*
X123664834Y-110019563D01*
X123687443Y-110025227D01*
X123709387Y-110033079D01*
X123730457Y-110043044D01*
X123750448Y-110055026D01*
X123769168Y-110068910D01*
X123786438Y-110084562D01*
X123802090Y-110101832D01*
X123815974Y-110120552D01*
X123827956Y-110140543D01*
X123837921Y-110161613D01*
X123845773Y-110183557D01*
X123851437Y-110206166D01*
X123854856Y-110229221D01*
X123856000Y-110252500D01*
X123856000Y-110727500D01*
X123854856Y-110750779D01*
X123851437Y-110773834D01*
X123845773Y-110796443D01*
X123837921Y-110818387D01*
X123827956Y-110839457D01*
X123815974Y-110859448D01*
X123802090Y-110878168D01*
X123786438Y-110895438D01*
X123769168Y-110911090D01*
X123750448Y-110924974D01*
X123730457Y-110936956D01*
X123709387Y-110946921D01*
X123687443Y-110954773D01*
X123664834Y-110960437D01*
X123641779Y-110963856D01*
X123618500Y-110965000D01*
X123043500Y-110965000D01*
X123020221Y-110963856D01*
X122997166Y-110960437D01*
X122974557Y-110954773D01*
X122952613Y-110946921D01*
X122931543Y-110936956D01*
X122911552Y-110924974D01*
X122892832Y-110911090D01*
X122875562Y-110895438D01*
X122859910Y-110878168D01*
X122846026Y-110859448D01*
X122834044Y-110839457D01*
X122824079Y-110818387D01*
X122816227Y-110796443D01*
X122810563Y-110773834D01*
X122807144Y-110750779D01*
X122806000Y-110727500D01*
X122806000Y-110252500D01*
X122807144Y-110229221D01*
X122810563Y-110206166D01*
X122816227Y-110183557D01*
X122824079Y-110161613D01*
X122834044Y-110140543D01*
X122846026Y-110120552D01*
X122859910Y-110101832D01*
X122875562Y-110084562D01*
X122892832Y-110068910D01*
X122911552Y-110055026D01*
X122931543Y-110043044D01*
X122952613Y-110033079D01*
X122974557Y-110025227D01*
X122997166Y-110019563D01*
X123020221Y-110016144D01*
X123043500Y-110015000D01*
X123618500Y-110015000D01*
X123641779Y-110016144D01*
X123641779Y-110016144D01*
G37*
D17*
X123331000Y-110490000D03*
D14*
G36*
X125391779Y-110016144D02*
G01*
X125414834Y-110019563D01*
X125437443Y-110025227D01*
X125459387Y-110033079D01*
X125480457Y-110043044D01*
X125500448Y-110055026D01*
X125519168Y-110068910D01*
X125536438Y-110084562D01*
X125552090Y-110101832D01*
X125565974Y-110120552D01*
X125577956Y-110140543D01*
X125587921Y-110161613D01*
X125595773Y-110183557D01*
X125601437Y-110206166D01*
X125604856Y-110229221D01*
X125606000Y-110252500D01*
X125606000Y-110727500D01*
X125604856Y-110750779D01*
X125601437Y-110773834D01*
X125595773Y-110796443D01*
X125587921Y-110818387D01*
X125577956Y-110839457D01*
X125565974Y-110859448D01*
X125552090Y-110878168D01*
X125536438Y-110895438D01*
X125519168Y-110911090D01*
X125500448Y-110924974D01*
X125480457Y-110936956D01*
X125459387Y-110946921D01*
X125437443Y-110954773D01*
X125414834Y-110960437D01*
X125391779Y-110963856D01*
X125368500Y-110965000D01*
X124793500Y-110965000D01*
X124770221Y-110963856D01*
X124747166Y-110960437D01*
X124724557Y-110954773D01*
X124702613Y-110946921D01*
X124681543Y-110936956D01*
X124661552Y-110924974D01*
X124642832Y-110911090D01*
X124625562Y-110895438D01*
X124609910Y-110878168D01*
X124596026Y-110859448D01*
X124584044Y-110839457D01*
X124574079Y-110818387D01*
X124566227Y-110796443D01*
X124560563Y-110773834D01*
X124557144Y-110750779D01*
X124556000Y-110727500D01*
X124556000Y-110252500D01*
X124557144Y-110229221D01*
X124560563Y-110206166D01*
X124566227Y-110183557D01*
X124574079Y-110161613D01*
X124584044Y-110140543D01*
X124596026Y-110120552D01*
X124609910Y-110101832D01*
X124625562Y-110084562D01*
X124642832Y-110068910D01*
X124661552Y-110055026D01*
X124681543Y-110043044D01*
X124702613Y-110033079D01*
X124724557Y-110025227D01*
X124747166Y-110019563D01*
X124770221Y-110016144D01*
X124793500Y-110015000D01*
X125368500Y-110015000D01*
X125391779Y-110016144D01*
X125391779Y-110016144D01*
G37*
D17*
X125081000Y-110490000D03*
D35*
X131728000Y-64703000D03*
X133428000Y-64703000D03*
X135128000Y-64703000D03*
X136828000Y-64703000D03*
X138528000Y-64703000D03*
D36*
X137903000Y-53128000D03*
X132353000Y-57978000D03*
X132353000Y-53128000D03*
X137903000Y-57978000D03*
D14*
G36*
X161323505Y-52572204D02*
G01*
X161347773Y-52575804D01*
X161371572Y-52581765D01*
X161394671Y-52590030D01*
X161416850Y-52600520D01*
X161437893Y-52613132D01*
X161457599Y-52627747D01*
X161475777Y-52644223D01*
X161492253Y-52662401D01*
X161506868Y-52682107D01*
X161519480Y-52703150D01*
X161529970Y-52725329D01*
X161538235Y-52748428D01*
X161544196Y-52772227D01*
X161547796Y-52796495D01*
X161549000Y-52820999D01*
X161549000Y-54571001D01*
X161547796Y-54595505D01*
X161544196Y-54619773D01*
X161538235Y-54643572D01*
X161529970Y-54666671D01*
X161519480Y-54688850D01*
X161506868Y-54709893D01*
X161492253Y-54729599D01*
X161475777Y-54747777D01*
X161457599Y-54764253D01*
X161437893Y-54778868D01*
X161416850Y-54791480D01*
X161394671Y-54801970D01*
X161371572Y-54810235D01*
X161347773Y-54816196D01*
X161323505Y-54819796D01*
X161299001Y-54821000D01*
X159248999Y-54821000D01*
X159224495Y-54819796D01*
X159200227Y-54816196D01*
X159176428Y-54810235D01*
X159153329Y-54801970D01*
X159131150Y-54791480D01*
X159110107Y-54778868D01*
X159090401Y-54764253D01*
X159072223Y-54747777D01*
X159055747Y-54729599D01*
X159041132Y-54709893D01*
X159028520Y-54688850D01*
X159018030Y-54666671D01*
X159009765Y-54643572D01*
X159003804Y-54619773D01*
X159000204Y-54595505D01*
X158999000Y-54571001D01*
X158999000Y-52820999D01*
X159000204Y-52796495D01*
X159003804Y-52772227D01*
X159009765Y-52748428D01*
X159018030Y-52725329D01*
X159028520Y-52703150D01*
X159041132Y-52682107D01*
X159055747Y-52662401D01*
X159072223Y-52644223D01*
X159090401Y-52627747D01*
X159110107Y-52613132D01*
X159131150Y-52600520D01*
X159153329Y-52590030D01*
X159176428Y-52581765D01*
X159200227Y-52575804D01*
X159224495Y-52572204D01*
X159248999Y-52571000D01*
X161299001Y-52571000D01*
X161323505Y-52572204D01*
X161323505Y-52572204D01*
G37*
D37*
X160274000Y-53696000D03*
D14*
G36*
X161323505Y-58972204D02*
G01*
X161347773Y-58975804D01*
X161371572Y-58981765D01*
X161394671Y-58990030D01*
X161416850Y-59000520D01*
X161437893Y-59013132D01*
X161457599Y-59027747D01*
X161475777Y-59044223D01*
X161492253Y-59062401D01*
X161506868Y-59082107D01*
X161519480Y-59103150D01*
X161529970Y-59125329D01*
X161538235Y-59148428D01*
X161544196Y-59172227D01*
X161547796Y-59196495D01*
X161549000Y-59220999D01*
X161549000Y-60971001D01*
X161547796Y-60995505D01*
X161544196Y-61019773D01*
X161538235Y-61043572D01*
X161529970Y-61066671D01*
X161519480Y-61088850D01*
X161506868Y-61109893D01*
X161492253Y-61129599D01*
X161475777Y-61147777D01*
X161457599Y-61164253D01*
X161437893Y-61178868D01*
X161416850Y-61191480D01*
X161394671Y-61201970D01*
X161371572Y-61210235D01*
X161347773Y-61216196D01*
X161323505Y-61219796D01*
X161299001Y-61221000D01*
X159248999Y-61221000D01*
X159224495Y-61219796D01*
X159200227Y-61216196D01*
X159176428Y-61210235D01*
X159153329Y-61201970D01*
X159131150Y-61191480D01*
X159110107Y-61178868D01*
X159090401Y-61164253D01*
X159072223Y-61147777D01*
X159055747Y-61129599D01*
X159041132Y-61109893D01*
X159028520Y-61088850D01*
X159018030Y-61066671D01*
X159009765Y-61043572D01*
X159003804Y-61019773D01*
X159000204Y-60995505D01*
X158999000Y-60971001D01*
X158999000Y-59220999D01*
X159000204Y-59196495D01*
X159003804Y-59172227D01*
X159009765Y-59148428D01*
X159018030Y-59125329D01*
X159028520Y-59103150D01*
X159041132Y-59082107D01*
X159055747Y-59062401D01*
X159072223Y-59044223D01*
X159090401Y-59027747D01*
X159110107Y-59013132D01*
X159131150Y-59000520D01*
X159153329Y-58990030D01*
X159176428Y-58981765D01*
X159200227Y-58975804D01*
X159224495Y-58972204D01*
X159248999Y-58971000D01*
X161299001Y-58971000D01*
X161323505Y-58972204D01*
X161323505Y-58972204D01*
G37*
D37*
X160274000Y-60096000D03*
D14*
G36*
X158683505Y-68970204D02*
G01*
X158707773Y-68973804D01*
X158731572Y-68979765D01*
X158754671Y-68988030D01*
X158776850Y-68998520D01*
X158797893Y-69011132D01*
X158817599Y-69025747D01*
X158835777Y-69042223D01*
X158852253Y-69060401D01*
X158866868Y-69080107D01*
X158879480Y-69101150D01*
X158889970Y-69123329D01*
X158898235Y-69146428D01*
X158904196Y-69170227D01*
X158907796Y-69194495D01*
X158909000Y-69218999D01*
X158909000Y-70969001D01*
X158907796Y-70993505D01*
X158904196Y-71017773D01*
X158898235Y-71041572D01*
X158889970Y-71064671D01*
X158879480Y-71086850D01*
X158866868Y-71107893D01*
X158852253Y-71127599D01*
X158835777Y-71145777D01*
X158817599Y-71162253D01*
X158797893Y-71176868D01*
X158776850Y-71189480D01*
X158754671Y-71199970D01*
X158731572Y-71208235D01*
X158707773Y-71214196D01*
X158683505Y-71217796D01*
X158659001Y-71219000D01*
X156808999Y-71219000D01*
X156784495Y-71217796D01*
X156760227Y-71214196D01*
X156736428Y-71208235D01*
X156713329Y-71199970D01*
X156691150Y-71189480D01*
X156670107Y-71176868D01*
X156650401Y-71162253D01*
X156632223Y-71145777D01*
X156615747Y-71127599D01*
X156601132Y-71107893D01*
X156588520Y-71086850D01*
X156578030Y-71064671D01*
X156569765Y-71041572D01*
X156563804Y-71017773D01*
X156560204Y-70993505D01*
X156559000Y-70969001D01*
X156559000Y-69218999D01*
X156560204Y-69194495D01*
X156563804Y-69170227D01*
X156569765Y-69146428D01*
X156578030Y-69123329D01*
X156588520Y-69101150D01*
X156601132Y-69080107D01*
X156615747Y-69060401D01*
X156632223Y-69042223D01*
X156650401Y-69025747D01*
X156670107Y-69011132D01*
X156691150Y-68998520D01*
X156713329Y-68988030D01*
X156736428Y-68979765D01*
X156760227Y-68973804D01*
X156784495Y-68970204D01*
X156808999Y-68969000D01*
X158659001Y-68969000D01*
X158683505Y-68970204D01*
X158683505Y-68970204D01*
G37*
D37*
X157734000Y-70094000D03*
D14*
G36*
X158683505Y-74070204D02*
G01*
X158707773Y-74073804D01*
X158731572Y-74079765D01*
X158754671Y-74088030D01*
X158776850Y-74098520D01*
X158797893Y-74111132D01*
X158817599Y-74125747D01*
X158835777Y-74142223D01*
X158852253Y-74160401D01*
X158866868Y-74180107D01*
X158879480Y-74201150D01*
X158889970Y-74223329D01*
X158898235Y-74246428D01*
X158904196Y-74270227D01*
X158907796Y-74294495D01*
X158909000Y-74318999D01*
X158909000Y-76069001D01*
X158907796Y-76093505D01*
X158904196Y-76117773D01*
X158898235Y-76141572D01*
X158889970Y-76164671D01*
X158879480Y-76186850D01*
X158866868Y-76207893D01*
X158852253Y-76227599D01*
X158835777Y-76245777D01*
X158817599Y-76262253D01*
X158797893Y-76276868D01*
X158776850Y-76289480D01*
X158754671Y-76299970D01*
X158731572Y-76308235D01*
X158707773Y-76314196D01*
X158683505Y-76317796D01*
X158659001Y-76319000D01*
X156808999Y-76319000D01*
X156784495Y-76317796D01*
X156760227Y-76314196D01*
X156736428Y-76308235D01*
X156713329Y-76299970D01*
X156691150Y-76289480D01*
X156670107Y-76276868D01*
X156650401Y-76262253D01*
X156632223Y-76245777D01*
X156615747Y-76227599D01*
X156601132Y-76207893D01*
X156588520Y-76186850D01*
X156578030Y-76164671D01*
X156569765Y-76141572D01*
X156563804Y-76117773D01*
X156560204Y-76093505D01*
X156559000Y-76069001D01*
X156559000Y-74318999D01*
X156560204Y-74294495D01*
X156563804Y-74270227D01*
X156569765Y-74246428D01*
X156578030Y-74223329D01*
X156588520Y-74201150D01*
X156601132Y-74180107D01*
X156615747Y-74160401D01*
X156632223Y-74142223D01*
X156650401Y-74125747D01*
X156670107Y-74111132D01*
X156691150Y-74098520D01*
X156713329Y-74088030D01*
X156736428Y-74079765D01*
X156760227Y-74073804D01*
X156784495Y-74070204D01*
X156808999Y-74069000D01*
X158659001Y-74069000D01*
X158683505Y-74070204D01*
X158683505Y-74070204D01*
G37*
D37*
X157734000Y-75194000D03*
D14*
G36*
X163763505Y-68970204D02*
G01*
X163787773Y-68973804D01*
X163811572Y-68979765D01*
X163834671Y-68988030D01*
X163856850Y-68998520D01*
X163877893Y-69011132D01*
X163897599Y-69025747D01*
X163915777Y-69042223D01*
X163932253Y-69060401D01*
X163946868Y-69080107D01*
X163959480Y-69101150D01*
X163969970Y-69123329D01*
X163978235Y-69146428D01*
X163984196Y-69170227D01*
X163987796Y-69194495D01*
X163989000Y-69218999D01*
X163989000Y-70969001D01*
X163987796Y-70993505D01*
X163984196Y-71017773D01*
X163978235Y-71041572D01*
X163969970Y-71064671D01*
X163959480Y-71086850D01*
X163946868Y-71107893D01*
X163932253Y-71127599D01*
X163915777Y-71145777D01*
X163897599Y-71162253D01*
X163877893Y-71176868D01*
X163856850Y-71189480D01*
X163834671Y-71199970D01*
X163811572Y-71208235D01*
X163787773Y-71214196D01*
X163763505Y-71217796D01*
X163739001Y-71219000D01*
X161888999Y-71219000D01*
X161864495Y-71217796D01*
X161840227Y-71214196D01*
X161816428Y-71208235D01*
X161793329Y-71199970D01*
X161771150Y-71189480D01*
X161750107Y-71176868D01*
X161730401Y-71162253D01*
X161712223Y-71145777D01*
X161695747Y-71127599D01*
X161681132Y-71107893D01*
X161668520Y-71086850D01*
X161658030Y-71064671D01*
X161649765Y-71041572D01*
X161643804Y-71017773D01*
X161640204Y-70993505D01*
X161639000Y-70969001D01*
X161639000Y-69218999D01*
X161640204Y-69194495D01*
X161643804Y-69170227D01*
X161649765Y-69146428D01*
X161658030Y-69123329D01*
X161668520Y-69101150D01*
X161681132Y-69080107D01*
X161695747Y-69060401D01*
X161712223Y-69042223D01*
X161730401Y-69025747D01*
X161750107Y-69011132D01*
X161771150Y-68998520D01*
X161793329Y-68988030D01*
X161816428Y-68979765D01*
X161840227Y-68973804D01*
X161864495Y-68970204D01*
X161888999Y-68969000D01*
X163739001Y-68969000D01*
X163763505Y-68970204D01*
X163763505Y-68970204D01*
G37*
D37*
X162814000Y-70094000D03*
D14*
G36*
X163763505Y-74070204D02*
G01*
X163787773Y-74073804D01*
X163811572Y-74079765D01*
X163834671Y-74088030D01*
X163856850Y-74098520D01*
X163877893Y-74111132D01*
X163897599Y-74125747D01*
X163915777Y-74142223D01*
X163932253Y-74160401D01*
X163946868Y-74180107D01*
X163959480Y-74201150D01*
X163969970Y-74223329D01*
X163978235Y-74246428D01*
X163984196Y-74270227D01*
X163987796Y-74294495D01*
X163989000Y-74318999D01*
X163989000Y-76069001D01*
X163987796Y-76093505D01*
X163984196Y-76117773D01*
X163978235Y-76141572D01*
X163969970Y-76164671D01*
X163959480Y-76186850D01*
X163946868Y-76207893D01*
X163932253Y-76227599D01*
X163915777Y-76245777D01*
X163897599Y-76262253D01*
X163877893Y-76276868D01*
X163856850Y-76289480D01*
X163834671Y-76299970D01*
X163811572Y-76308235D01*
X163787773Y-76314196D01*
X163763505Y-76317796D01*
X163739001Y-76319000D01*
X161888999Y-76319000D01*
X161864495Y-76317796D01*
X161840227Y-76314196D01*
X161816428Y-76308235D01*
X161793329Y-76299970D01*
X161771150Y-76289480D01*
X161750107Y-76276868D01*
X161730401Y-76262253D01*
X161712223Y-76245777D01*
X161695747Y-76227599D01*
X161681132Y-76207893D01*
X161668520Y-76186850D01*
X161658030Y-76164671D01*
X161649765Y-76141572D01*
X161643804Y-76117773D01*
X161640204Y-76093505D01*
X161639000Y-76069001D01*
X161639000Y-74318999D01*
X161640204Y-74294495D01*
X161643804Y-74270227D01*
X161649765Y-74246428D01*
X161658030Y-74223329D01*
X161668520Y-74201150D01*
X161681132Y-74180107D01*
X161695747Y-74160401D01*
X161712223Y-74142223D01*
X161730401Y-74125747D01*
X161750107Y-74111132D01*
X161771150Y-74098520D01*
X161793329Y-74088030D01*
X161816428Y-74079765D01*
X161840227Y-74073804D01*
X161864495Y-74070204D01*
X161888999Y-74069000D01*
X163739001Y-74069000D01*
X163763505Y-74070204D01*
X163763505Y-74070204D01*
G37*
D37*
X162814000Y-75194000D03*
D14*
G36*
X168843505Y-74070204D02*
G01*
X168867773Y-74073804D01*
X168891572Y-74079765D01*
X168914671Y-74088030D01*
X168936850Y-74098520D01*
X168957893Y-74111132D01*
X168977599Y-74125747D01*
X168995777Y-74142223D01*
X169012253Y-74160401D01*
X169026868Y-74180107D01*
X169039480Y-74201150D01*
X169049970Y-74223329D01*
X169058235Y-74246428D01*
X169064196Y-74270227D01*
X169067796Y-74294495D01*
X169069000Y-74318999D01*
X169069000Y-76069001D01*
X169067796Y-76093505D01*
X169064196Y-76117773D01*
X169058235Y-76141572D01*
X169049970Y-76164671D01*
X169039480Y-76186850D01*
X169026868Y-76207893D01*
X169012253Y-76227599D01*
X168995777Y-76245777D01*
X168977599Y-76262253D01*
X168957893Y-76276868D01*
X168936850Y-76289480D01*
X168914671Y-76299970D01*
X168891572Y-76308235D01*
X168867773Y-76314196D01*
X168843505Y-76317796D01*
X168819001Y-76319000D01*
X166968999Y-76319000D01*
X166944495Y-76317796D01*
X166920227Y-76314196D01*
X166896428Y-76308235D01*
X166873329Y-76299970D01*
X166851150Y-76289480D01*
X166830107Y-76276868D01*
X166810401Y-76262253D01*
X166792223Y-76245777D01*
X166775747Y-76227599D01*
X166761132Y-76207893D01*
X166748520Y-76186850D01*
X166738030Y-76164671D01*
X166729765Y-76141572D01*
X166723804Y-76117773D01*
X166720204Y-76093505D01*
X166719000Y-76069001D01*
X166719000Y-74318999D01*
X166720204Y-74294495D01*
X166723804Y-74270227D01*
X166729765Y-74246428D01*
X166738030Y-74223329D01*
X166748520Y-74201150D01*
X166761132Y-74180107D01*
X166775747Y-74160401D01*
X166792223Y-74142223D01*
X166810401Y-74125747D01*
X166830107Y-74111132D01*
X166851150Y-74098520D01*
X166873329Y-74088030D01*
X166896428Y-74079765D01*
X166920227Y-74073804D01*
X166944495Y-74070204D01*
X166968999Y-74069000D01*
X168819001Y-74069000D01*
X168843505Y-74070204D01*
X168843505Y-74070204D01*
G37*
D37*
X167894000Y-75194000D03*
D14*
G36*
X168843505Y-68970204D02*
G01*
X168867773Y-68973804D01*
X168891572Y-68979765D01*
X168914671Y-68988030D01*
X168936850Y-68998520D01*
X168957893Y-69011132D01*
X168977599Y-69025747D01*
X168995777Y-69042223D01*
X169012253Y-69060401D01*
X169026868Y-69080107D01*
X169039480Y-69101150D01*
X169049970Y-69123329D01*
X169058235Y-69146428D01*
X169064196Y-69170227D01*
X169067796Y-69194495D01*
X169069000Y-69218999D01*
X169069000Y-70969001D01*
X169067796Y-70993505D01*
X169064196Y-71017773D01*
X169058235Y-71041572D01*
X169049970Y-71064671D01*
X169039480Y-71086850D01*
X169026868Y-71107893D01*
X169012253Y-71127599D01*
X168995777Y-71145777D01*
X168977599Y-71162253D01*
X168957893Y-71176868D01*
X168936850Y-71189480D01*
X168914671Y-71199970D01*
X168891572Y-71208235D01*
X168867773Y-71214196D01*
X168843505Y-71217796D01*
X168819001Y-71219000D01*
X166968999Y-71219000D01*
X166944495Y-71217796D01*
X166920227Y-71214196D01*
X166896428Y-71208235D01*
X166873329Y-71199970D01*
X166851150Y-71189480D01*
X166830107Y-71176868D01*
X166810401Y-71162253D01*
X166792223Y-71145777D01*
X166775747Y-71127599D01*
X166761132Y-71107893D01*
X166748520Y-71086850D01*
X166738030Y-71064671D01*
X166729765Y-71041572D01*
X166723804Y-71017773D01*
X166720204Y-70993505D01*
X166719000Y-70969001D01*
X166719000Y-69218999D01*
X166720204Y-69194495D01*
X166723804Y-69170227D01*
X166729765Y-69146428D01*
X166738030Y-69123329D01*
X166748520Y-69101150D01*
X166761132Y-69080107D01*
X166775747Y-69060401D01*
X166792223Y-69042223D01*
X166810401Y-69025747D01*
X166830107Y-69011132D01*
X166851150Y-68998520D01*
X166873329Y-68988030D01*
X166896428Y-68979765D01*
X166920227Y-68973804D01*
X166944495Y-68970204D01*
X166968999Y-68969000D01*
X168819001Y-68969000D01*
X168843505Y-68970204D01*
X168843505Y-68970204D01*
G37*
D37*
X167894000Y-70094000D03*
D25*
X151853900Y-98437700D03*
D26*
X153416000Y-100139500D03*
X153416000Y-96710500D03*
M02*
