G04 #@! TF.GenerationSoftware,KiCad,Pcbnew,(5.1.2)-2*
G04 #@! TF.CreationDate,2019-10-28T15:07:55+07:00*
G04 #@! TF.ProjectId,ph_shield_sim7000_pm2_hw,70685f73-6869-4656-9c64-5f73696d3730,rev?*
G04 #@! TF.SameCoordinates,Original*
G04 #@! TF.FileFunction,Legend,Top*
G04 #@! TF.FilePolarity,Positive*
%FSLAX46Y46*%
G04 Gerber Fmt 4.6, Leading zero omitted, Abs format (unit mm)*
G04 Created by KiCad (PCBNEW (5.1.2)-2) date 2019-10-28 15:07:55*
%MOMM*%
%LPD*%
G04 APERTURE LIST*
%ADD10C,0.300000*%
%ADD11C,0.150000*%
%ADD12C,0.010000*%
%ADD13C,0.120000*%
%ADD14C,0.381000*%
%ADD15C,0.400000*%
%ADD16C,0.254000*%
G04 APERTURE END LIST*
D10*
X135671904Y-94760952D02*
X135790952Y-94403809D01*
X135790952Y-93808571D01*
X135671904Y-93570476D01*
X135552857Y-93451428D01*
X135314761Y-93332380D01*
X135076666Y-93332380D01*
X134838571Y-93451428D01*
X134719523Y-93570476D01*
X134600476Y-93808571D01*
X134481428Y-94284761D01*
X134362380Y-94522857D01*
X134243333Y-94641904D01*
X134005238Y-94760952D01*
X133767142Y-94760952D01*
X133529047Y-94641904D01*
X133410000Y-94522857D01*
X133290952Y-94284761D01*
X133290952Y-93689523D01*
X133410000Y-93332380D01*
X135790952Y-92260952D02*
X133290952Y-92260952D01*
X135790952Y-91070476D02*
X133290952Y-91070476D01*
X135076666Y-90237142D01*
X133290952Y-89403809D01*
X135790952Y-89403809D01*
X133290952Y-88451428D02*
X133290952Y-86784761D01*
X135790952Y-87856190D01*
X133290952Y-85356190D02*
X133290952Y-85118095D01*
X133410000Y-84880000D01*
X133529047Y-84760952D01*
X133767142Y-84641904D01*
X134243333Y-84522857D01*
X134838571Y-84522857D01*
X135314761Y-84641904D01*
X135552857Y-84760952D01*
X135671904Y-84880000D01*
X135790952Y-85118095D01*
X135790952Y-85356190D01*
X135671904Y-85594285D01*
X135552857Y-85713333D01*
X135314761Y-85832380D01*
X134838571Y-85951428D01*
X134243333Y-85951428D01*
X133767142Y-85832380D01*
X133529047Y-85713333D01*
X133410000Y-85594285D01*
X133290952Y-85356190D01*
X133290952Y-82975238D02*
X133290952Y-82737142D01*
X133410000Y-82499047D01*
X133529047Y-82380000D01*
X133767142Y-82260952D01*
X134243333Y-82141904D01*
X134838571Y-82141904D01*
X135314761Y-82260952D01*
X135552857Y-82380000D01*
X135671904Y-82499047D01*
X135790952Y-82737142D01*
X135790952Y-82975238D01*
X135671904Y-83213333D01*
X135552857Y-83332380D01*
X135314761Y-83451428D01*
X134838571Y-83570476D01*
X134243333Y-83570476D01*
X133767142Y-83451428D01*
X133529047Y-83332380D01*
X133410000Y-83213333D01*
X133290952Y-82975238D01*
X133290952Y-80594285D02*
X133290952Y-80356190D01*
X133410000Y-80118095D01*
X133529047Y-79999047D01*
X133767142Y-79880000D01*
X134243333Y-79760952D01*
X134838571Y-79760952D01*
X135314761Y-79880000D01*
X135552857Y-79999047D01*
X135671904Y-80118095D01*
X135790952Y-80356190D01*
X135790952Y-80594285D01*
X135671904Y-80832380D01*
X135552857Y-80951428D01*
X135314761Y-81070476D01*
X134838571Y-81189523D01*
X134243333Y-81189523D01*
X133767142Y-81070476D01*
X133529047Y-80951428D01*
X133410000Y-80832380D01*
X133290952Y-80594285D01*
X134481428Y-78689523D02*
X134481428Y-77856190D01*
X135790952Y-77499047D02*
X135790952Y-78689523D01*
X133290952Y-78689523D01*
X133290952Y-77499047D01*
D11*
X150907904Y-101560380D02*
X151479333Y-101560380D01*
X151193619Y-102560380D02*
X151193619Y-101560380D01*
X151717428Y-101560380D02*
X152384095Y-102560380D01*
X152384095Y-101560380D02*
X151717428Y-102560380D01*
X152669809Y-101560380D02*
X153288857Y-101560380D01*
X152955523Y-101941333D01*
X153098380Y-101941333D01*
X153193619Y-101988952D01*
X153241238Y-102036571D01*
X153288857Y-102131809D01*
X153288857Y-102369904D01*
X153241238Y-102465142D01*
X153193619Y-102512761D01*
X153098380Y-102560380D01*
X152812666Y-102560380D01*
X152717428Y-102512761D01*
X152669809Y-102465142D01*
X150312380Y-101988857D02*
X149836190Y-102322190D01*
X150312380Y-102560285D02*
X149312380Y-102560285D01*
X149312380Y-102179333D01*
X149360000Y-102084095D01*
X149407619Y-102036476D01*
X149502857Y-101988857D01*
X149645714Y-101988857D01*
X149740952Y-102036476D01*
X149788571Y-102084095D01*
X149836190Y-102179333D01*
X149836190Y-102560285D01*
X149312380Y-101655523D02*
X150312380Y-100988857D01*
X149312380Y-100988857D02*
X150312380Y-101655523D01*
X149312380Y-100703142D02*
X149312380Y-100084095D01*
X149693333Y-100417428D01*
X149693333Y-100274571D01*
X149740952Y-100179333D01*
X149788571Y-100131714D01*
X149883809Y-100084095D01*
X150121904Y-100084095D01*
X150217142Y-100131714D01*
X150264761Y-100179333D01*
X150312380Y-100274571D01*
X150312380Y-100560285D01*
X150264761Y-100655523D01*
X150217142Y-100703142D01*
X147074000Y-102060190D02*
X147026380Y-102155428D01*
X147026380Y-102298285D01*
X147074000Y-102441142D01*
X147169238Y-102536380D01*
X147264476Y-102584000D01*
X147454952Y-102631619D01*
X147597809Y-102631619D01*
X147788285Y-102584000D01*
X147883523Y-102536380D01*
X147978761Y-102441142D01*
X148026380Y-102298285D01*
X148026380Y-102203047D01*
X147978761Y-102060190D01*
X147931142Y-102012571D01*
X147597809Y-102012571D01*
X147597809Y-102203047D01*
X148026380Y-101584000D02*
X147026380Y-101584000D01*
X147026380Y-101203047D01*
X147074000Y-101107809D01*
X147121619Y-101060190D01*
X147216857Y-101012571D01*
X147359714Y-101012571D01*
X147454952Y-101060190D01*
X147502571Y-101107809D01*
X147550190Y-101203047D01*
X147550190Y-101584000D01*
X148026380Y-100584000D02*
X147026380Y-100584000D01*
X147026380Y-99917333D02*
X147026380Y-99726857D01*
X147074000Y-99631619D01*
X147169238Y-99536380D01*
X147359714Y-99488761D01*
X147693047Y-99488761D01*
X147883523Y-99536380D01*
X147978761Y-99631619D01*
X148026380Y-99726857D01*
X148026380Y-99917333D01*
X147978761Y-100012571D01*
X147883523Y-100107809D01*
X147693047Y-100155428D01*
X147359714Y-100155428D01*
X147169238Y-100107809D01*
X147074000Y-100012571D01*
X147026380Y-99917333D01*
X147359714Y-98631619D02*
X148026380Y-98631619D01*
X146978761Y-98869714D02*
X147693047Y-99107809D01*
X147693047Y-98488761D01*
X145296000Y-102060190D02*
X145248380Y-102155428D01*
X145248380Y-102298285D01*
X145296000Y-102441142D01*
X145391238Y-102536380D01*
X145486476Y-102584000D01*
X145676952Y-102631619D01*
X145819809Y-102631619D01*
X146010285Y-102584000D01*
X146105523Y-102536380D01*
X146200761Y-102441142D01*
X146248380Y-102298285D01*
X146248380Y-102203047D01*
X146200761Y-102060190D01*
X146153142Y-102012571D01*
X145819809Y-102012571D01*
X145819809Y-102203047D01*
X146248380Y-101584000D02*
X145248380Y-101584000D01*
X145248380Y-101203047D01*
X145296000Y-101107809D01*
X145343619Y-101060190D01*
X145438857Y-101012571D01*
X145581714Y-101012571D01*
X145676952Y-101060190D01*
X145724571Y-101107809D01*
X145772190Y-101203047D01*
X145772190Y-101584000D01*
X146248380Y-100584000D02*
X145248380Y-100584000D01*
X145248380Y-99917333D02*
X145248380Y-99726857D01*
X145296000Y-99631619D01*
X145391238Y-99536380D01*
X145581714Y-99488761D01*
X145915047Y-99488761D01*
X146105523Y-99536380D01*
X146200761Y-99631619D01*
X146248380Y-99726857D01*
X146248380Y-99917333D01*
X146200761Y-100012571D01*
X146105523Y-100107809D01*
X145915047Y-100155428D01*
X145581714Y-100155428D01*
X145391238Y-100107809D01*
X145296000Y-100012571D01*
X145248380Y-99917333D01*
X145248380Y-99155428D02*
X145248380Y-98536380D01*
X145629333Y-98869714D01*
X145629333Y-98726857D01*
X145676952Y-98631619D01*
X145724571Y-98584000D01*
X145819809Y-98536380D01*
X146057904Y-98536380D01*
X146153142Y-98584000D01*
X146200761Y-98631619D01*
X146248380Y-98726857D01*
X146248380Y-99012571D01*
X146200761Y-99107809D01*
X146153142Y-99155428D01*
X143264000Y-102060190D02*
X143216380Y-102155428D01*
X143216380Y-102298285D01*
X143264000Y-102441142D01*
X143359238Y-102536380D01*
X143454476Y-102584000D01*
X143644952Y-102631619D01*
X143787809Y-102631619D01*
X143978285Y-102584000D01*
X144073523Y-102536380D01*
X144168761Y-102441142D01*
X144216380Y-102298285D01*
X144216380Y-102203047D01*
X144168761Y-102060190D01*
X144121142Y-102012571D01*
X143787809Y-102012571D01*
X143787809Y-102203047D01*
X144216380Y-101584000D02*
X143216380Y-101584000D01*
X143216380Y-101203047D01*
X143264000Y-101107809D01*
X143311619Y-101060190D01*
X143406857Y-101012571D01*
X143549714Y-101012571D01*
X143644952Y-101060190D01*
X143692571Y-101107809D01*
X143740190Y-101203047D01*
X143740190Y-101584000D01*
X144216380Y-100584000D02*
X143216380Y-100584000D01*
X143216380Y-99917333D02*
X143216380Y-99726857D01*
X143264000Y-99631619D01*
X143359238Y-99536380D01*
X143549714Y-99488761D01*
X143883047Y-99488761D01*
X144073523Y-99536380D01*
X144168761Y-99631619D01*
X144216380Y-99726857D01*
X144216380Y-99917333D01*
X144168761Y-100012571D01*
X144073523Y-100107809D01*
X143883047Y-100155428D01*
X143549714Y-100155428D01*
X143359238Y-100107809D01*
X143264000Y-100012571D01*
X143216380Y-99917333D01*
X143311619Y-99107809D02*
X143264000Y-99060190D01*
X143216380Y-98964952D01*
X143216380Y-98726857D01*
X143264000Y-98631619D01*
X143311619Y-98584000D01*
X143406857Y-98536380D01*
X143502095Y-98536380D01*
X143644952Y-98584000D01*
X144216380Y-99155428D01*
X144216380Y-98536380D01*
X142089142Y-101965047D02*
X142136761Y-102012666D01*
X142184380Y-102155523D01*
X142184380Y-102250761D01*
X142136761Y-102393619D01*
X142041523Y-102488857D01*
X141946285Y-102536476D01*
X141755809Y-102584095D01*
X141612952Y-102584095D01*
X141422476Y-102536476D01*
X141327238Y-102488857D01*
X141232000Y-102393619D01*
X141184380Y-102250761D01*
X141184380Y-102155523D01*
X141232000Y-102012666D01*
X141279619Y-101965047D01*
X141660571Y-101203142D02*
X141660571Y-101536476D01*
X142184380Y-101536476D02*
X141184380Y-101536476D01*
X141184380Y-101060285D01*
X141232000Y-100155523D02*
X141184380Y-100250761D01*
X141184380Y-100393619D01*
X141232000Y-100536476D01*
X141327238Y-100631714D01*
X141422476Y-100679333D01*
X141612952Y-100726952D01*
X141755809Y-100726952D01*
X141946285Y-100679333D01*
X142041523Y-100631714D01*
X142136761Y-100536476D01*
X142184380Y-100393619D01*
X142184380Y-100298380D01*
X142136761Y-100155523D01*
X142089142Y-100107904D01*
X141755809Y-100107904D01*
X141755809Y-100298380D01*
X139152380Y-102679333D02*
X140152380Y-102346000D01*
X139152380Y-102012666D01*
X140152380Y-101679333D02*
X139152380Y-101679333D01*
X139152380Y-101441238D01*
X139200000Y-101298380D01*
X139295238Y-101203142D01*
X139390476Y-101155523D01*
X139580952Y-101107904D01*
X139723809Y-101107904D01*
X139914285Y-101155523D01*
X140009523Y-101203142D01*
X140104761Y-101298380D01*
X140152380Y-101441238D01*
X140152380Y-101679333D01*
X140152380Y-100679333D02*
X139152380Y-100679333D01*
X139152380Y-100441238D01*
X139200000Y-100298380D01*
X139295238Y-100203142D01*
X139390476Y-100155523D01*
X139580952Y-100107904D01*
X139723809Y-100107904D01*
X139914285Y-100155523D01*
X140009523Y-100203142D01*
X140104761Y-100298380D01*
X140152380Y-100441238D01*
X140152380Y-100679333D01*
X137834666Y-102584095D02*
X137834666Y-102107904D01*
X138120380Y-102679333D02*
X137120380Y-102346000D01*
X138120380Y-102012666D01*
X138120380Y-101679333D02*
X137120380Y-101679333D01*
X137120380Y-101441238D01*
X137168000Y-101298380D01*
X137263238Y-101203142D01*
X137358476Y-101155523D01*
X137548952Y-101107904D01*
X137691809Y-101107904D01*
X137882285Y-101155523D01*
X137977523Y-101203142D01*
X138072761Y-101298380D01*
X138120380Y-101441238D01*
X138120380Y-101679333D01*
X138025142Y-100107904D02*
X138072761Y-100155523D01*
X138120380Y-100298380D01*
X138120380Y-100393619D01*
X138072761Y-100536476D01*
X137977523Y-100631714D01*
X137882285Y-100679333D01*
X137691809Y-100726952D01*
X137548952Y-100726952D01*
X137358476Y-100679333D01*
X137263238Y-100631714D01*
X137168000Y-100536476D01*
X137120380Y-100393619D01*
X137120380Y-100298380D01*
X137168000Y-100155523D01*
X137215619Y-100107904D01*
X135088380Y-102615904D02*
X135088380Y-102044476D01*
X136088380Y-102330190D02*
X135088380Y-102330190D01*
X135088380Y-101806380D02*
X136088380Y-101139714D01*
X135088380Y-101139714D02*
X136088380Y-101806380D01*
X133104000Y-102107904D02*
X133056380Y-102203142D01*
X133056380Y-102346000D01*
X133104000Y-102488857D01*
X133199238Y-102584095D01*
X133294476Y-102631714D01*
X133484952Y-102679333D01*
X133627809Y-102679333D01*
X133818285Y-102631714D01*
X133913523Y-102584095D01*
X134008761Y-102488857D01*
X134056380Y-102346000D01*
X134056380Y-102250761D01*
X134008761Y-102107904D01*
X133961142Y-102060285D01*
X133627809Y-102060285D01*
X133627809Y-102250761D01*
X134056380Y-101631714D02*
X133056380Y-101631714D01*
X134056380Y-101060285D01*
X133056380Y-101060285D01*
X134056380Y-100584095D02*
X133056380Y-100584095D01*
X133056380Y-100346000D01*
X133104000Y-100203142D01*
X133199238Y-100107904D01*
X133294476Y-100060285D01*
X133484952Y-100012666D01*
X133627809Y-100012666D01*
X133818285Y-100060285D01*
X133913523Y-100107904D01*
X134008761Y-100203142D01*
X134056380Y-100346000D01*
X134056380Y-100584095D01*
X134421714Y-115974761D02*
X134564571Y-116022380D01*
X134802666Y-116022380D01*
X134897904Y-115974761D01*
X134945523Y-115927142D01*
X134993142Y-115831904D01*
X134993142Y-115736666D01*
X134945523Y-115641428D01*
X134897904Y-115593809D01*
X134802666Y-115546190D01*
X134612190Y-115498571D01*
X134516952Y-115450952D01*
X134469333Y-115403333D01*
X134421714Y-115308095D01*
X134421714Y-115212857D01*
X134469333Y-115117619D01*
X134516952Y-115070000D01*
X134612190Y-115022380D01*
X134850285Y-115022380D01*
X134993142Y-115070000D01*
X135421714Y-116022380D02*
X135421714Y-115022380D01*
X135659809Y-115022380D01*
X135802666Y-115070000D01*
X135897904Y-115165238D01*
X135945523Y-115260476D01*
X135993142Y-115450952D01*
X135993142Y-115593809D01*
X135945523Y-115784285D01*
X135897904Y-115879523D01*
X135802666Y-115974761D01*
X135659809Y-116022380D01*
X135421714Y-116022380D01*
X136374095Y-115736666D02*
X136850285Y-115736666D01*
X136278857Y-116022380D02*
X136612190Y-115022380D01*
X136945523Y-116022380D01*
X134445523Y-113434761D02*
X134588380Y-113482380D01*
X134826476Y-113482380D01*
X134921714Y-113434761D01*
X134969333Y-113387142D01*
X135016952Y-113291904D01*
X135016952Y-113196666D01*
X134969333Y-113101428D01*
X134921714Y-113053809D01*
X134826476Y-113006190D01*
X134636000Y-112958571D01*
X134540761Y-112910952D01*
X134493142Y-112863333D01*
X134445523Y-112768095D01*
X134445523Y-112672857D01*
X134493142Y-112577619D01*
X134540761Y-112530000D01*
X134636000Y-112482380D01*
X134874095Y-112482380D01*
X135016952Y-112530000D01*
X136016952Y-113387142D02*
X135969333Y-113434761D01*
X135826476Y-113482380D01*
X135731238Y-113482380D01*
X135588380Y-113434761D01*
X135493142Y-113339523D01*
X135445523Y-113244285D01*
X135397904Y-113053809D01*
X135397904Y-112910952D01*
X135445523Y-112720476D01*
X135493142Y-112625238D01*
X135588380Y-112530000D01*
X135731238Y-112482380D01*
X135826476Y-112482380D01*
X135969333Y-112530000D01*
X136016952Y-112577619D01*
X136921714Y-113482380D02*
X136445523Y-113482380D01*
X136445523Y-112482380D01*
X134874095Y-109990000D02*
X134778857Y-109942380D01*
X134636000Y-109942380D01*
X134493142Y-109990000D01*
X134397904Y-110085238D01*
X134350285Y-110180476D01*
X134302666Y-110370952D01*
X134302666Y-110513809D01*
X134350285Y-110704285D01*
X134397904Y-110799523D01*
X134493142Y-110894761D01*
X134636000Y-110942380D01*
X134731238Y-110942380D01*
X134874095Y-110894761D01*
X134921714Y-110847142D01*
X134921714Y-110513809D01*
X134731238Y-110513809D01*
X135350285Y-110942380D02*
X135350285Y-109942380D01*
X135921714Y-110942380D01*
X135921714Y-109942380D01*
X136397904Y-110942380D02*
X136397904Y-109942380D01*
X136636000Y-109942380D01*
X136778857Y-109990000D01*
X136874095Y-110085238D01*
X136921714Y-110180476D01*
X136969333Y-110370952D01*
X136969333Y-110513809D01*
X136921714Y-110704285D01*
X136874095Y-110799523D01*
X136778857Y-110894761D01*
X136636000Y-110942380D01*
X136397904Y-110942380D01*
X134302666Y-107402380D02*
X134636000Y-108402380D01*
X134969333Y-107402380D01*
X135302666Y-108402380D02*
X135302666Y-107402380D01*
X135540761Y-107402380D01*
X135683619Y-107450000D01*
X135778857Y-107545238D01*
X135826476Y-107640476D01*
X135874095Y-107830952D01*
X135874095Y-107973809D01*
X135826476Y-108164285D01*
X135778857Y-108259523D01*
X135683619Y-108354761D01*
X135540761Y-108402380D01*
X135302666Y-108402380D01*
X136302666Y-108402380D02*
X136302666Y-107402380D01*
X136540761Y-107402380D01*
X136683619Y-107450000D01*
X136778857Y-107545238D01*
X136826476Y-107640476D01*
X136874095Y-107830952D01*
X136874095Y-107973809D01*
X136826476Y-108164285D01*
X136778857Y-108259523D01*
X136683619Y-108354761D01*
X136540761Y-108402380D01*
X136302666Y-108402380D01*
X109327904Y-87052095D02*
X108946952Y-87318761D01*
X109327904Y-87509238D02*
X108527904Y-87509238D01*
X108527904Y-87204476D01*
X108566000Y-87128285D01*
X108604095Y-87090190D01*
X108680285Y-87052095D01*
X108794571Y-87052095D01*
X108870761Y-87090190D01*
X108908857Y-87128285D01*
X108946952Y-87204476D01*
X108946952Y-87509238D01*
X108527904Y-86823523D02*
X108527904Y-86366380D01*
X109327904Y-86594952D02*
X108527904Y-86594952D01*
X109289809Y-86137809D02*
X109327904Y-86023523D01*
X109327904Y-85833047D01*
X109289809Y-85756857D01*
X109251714Y-85718761D01*
X109175523Y-85680666D01*
X109099333Y-85680666D01*
X109023142Y-85718761D01*
X108985047Y-85756857D01*
X108946952Y-85833047D01*
X108908857Y-85985428D01*
X108870761Y-86061619D01*
X108832666Y-86099714D01*
X108756476Y-86137809D01*
X108680285Y-86137809D01*
X108604095Y-86099714D01*
X108566000Y-86061619D01*
X108527904Y-85985428D01*
X108527904Y-85794952D01*
X108566000Y-85680666D01*
X109251714Y-84512095D02*
X109289809Y-84550190D01*
X109327904Y-84664476D01*
X109327904Y-84740666D01*
X109289809Y-84854952D01*
X109213619Y-84931142D01*
X109137428Y-84969238D01*
X108985047Y-85007333D01*
X108870761Y-85007333D01*
X108718380Y-84969238D01*
X108642190Y-84931142D01*
X108566000Y-84854952D01*
X108527904Y-84740666D01*
X108527904Y-84664476D01*
X108566000Y-84550190D01*
X108604095Y-84512095D01*
X108527904Y-84283523D02*
X108527904Y-83826380D01*
X109327904Y-84054952D02*
X108527904Y-84054952D01*
X109289809Y-83597809D02*
X109327904Y-83483523D01*
X109327904Y-83293047D01*
X109289809Y-83216857D01*
X109251714Y-83178761D01*
X109175523Y-83140666D01*
X109099333Y-83140666D01*
X109023142Y-83178761D01*
X108985047Y-83216857D01*
X108946952Y-83293047D01*
X108908857Y-83445428D01*
X108870761Y-83521619D01*
X108832666Y-83559714D01*
X108756476Y-83597809D01*
X108680285Y-83597809D01*
X108604095Y-83559714D01*
X108566000Y-83521619D01*
X108527904Y-83445428D01*
X108527904Y-83254952D01*
X108566000Y-83140666D01*
X109327904Y-82448285D02*
X108527904Y-82448285D01*
X108527904Y-82257809D01*
X108566000Y-82143523D01*
X108642190Y-82067333D01*
X108718380Y-82029238D01*
X108870761Y-81991142D01*
X108985047Y-81991142D01*
X109137428Y-82029238D01*
X109213619Y-82067333D01*
X109289809Y-82143523D01*
X109327904Y-82257809D01*
X109327904Y-82448285D01*
X108527904Y-81762571D02*
X108527904Y-81305428D01*
X109327904Y-81534000D02*
X108527904Y-81534000D01*
X109327904Y-80581619D02*
X108946952Y-80848285D01*
X109327904Y-81038761D02*
X108527904Y-81038761D01*
X108527904Y-80734000D01*
X108566000Y-80657809D01*
X108604095Y-80619714D01*
X108680285Y-80581619D01*
X108794571Y-80581619D01*
X108870761Y-80619714D01*
X108908857Y-80657809D01*
X108946952Y-80734000D01*
X108946952Y-81038761D01*
X109327904Y-79749523D02*
X108527904Y-79749523D01*
X108527904Y-79559047D01*
X108566000Y-79444761D01*
X108642190Y-79368571D01*
X108718380Y-79330476D01*
X108870761Y-79292380D01*
X108985047Y-79292380D01*
X109137428Y-79330476D01*
X109213619Y-79368571D01*
X109289809Y-79444761D01*
X109327904Y-79559047D01*
X109327904Y-79749523D01*
X109251714Y-78492380D02*
X109289809Y-78530476D01*
X109327904Y-78644761D01*
X109327904Y-78720952D01*
X109289809Y-78835238D01*
X109213619Y-78911428D01*
X109137428Y-78949523D01*
X108985047Y-78987619D01*
X108870761Y-78987619D01*
X108718380Y-78949523D01*
X108642190Y-78911428D01*
X108566000Y-78835238D01*
X108527904Y-78720952D01*
X108527904Y-78644761D01*
X108566000Y-78530476D01*
X108604095Y-78492380D01*
X109327904Y-78149523D02*
X108527904Y-78149523D01*
X108527904Y-77959047D01*
X108566000Y-77844761D01*
X108642190Y-77768571D01*
X108718380Y-77730476D01*
X108870761Y-77692380D01*
X108985047Y-77692380D01*
X109137428Y-77730476D01*
X109213619Y-77768571D01*
X109289809Y-77844761D01*
X109327904Y-77959047D01*
X109327904Y-78149523D01*
X105009904Y-91370095D02*
X104628952Y-91636761D01*
X105009904Y-91827238D02*
X104209904Y-91827238D01*
X104209904Y-91522476D01*
X104248000Y-91446285D01*
X104286095Y-91408190D01*
X104362285Y-91370095D01*
X104476571Y-91370095D01*
X104552761Y-91408190D01*
X104590857Y-91446285D01*
X104628952Y-91522476D01*
X104628952Y-91827238D01*
X104971809Y-91065333D02*
X105009904Y-90951047D01*
X105009904Y-90760571D01*
X104971809Y-90684380D01*
X104933714Y-90646285D01*
X104857523Y-90608190D01*
X104781333Y-90608190D01*
X104705142Y-90646285D01*
X104667047Y-90684380D01*
X104628952Y-90760571D01*
X104590857Y-90912952D01*
X104552761Y-90989142D01*
X104514666Y-91027238D01*
X104438476Y-91065333D01*
X104362285Y-91065333D01*
X104286095Y-91027238D01*
X104248000Y-90989142D01*
X104209904Y-90912952D01*
X104209904Y-90722476D01*
X104248000Y-90608190D01*
X104209904Y-90379619D02*
X104209904Y-89922476D01*
X105009904Y-90151047D02*
X104209904Y-90151047D01*
X105009904Y-89204666D02*
X104209904Y-89204666D01*
X104209904Y-88899904D01*
X104248000Y-88823714D01*
X104286095Y-88785619D01*
X104362285Y-88747523D01*
X104476571Y-88747523D01*
X104552761Y-88785619D01*
X104590857Y-88823714D01*
X104628952Y-88899904D01*
X104628952Y-89204666D01*
X104209904Y-88480857D02*
X105009904Y-88290380D01*
X104438476Y-88138000D01*
X105009904Y-87985619D01*
X104209904Y-87795142D01*
X105009904Y-87033238D02*
X104628952Y-87299904D01*
X105009904Y-87490380D02*
X104209904Y-87490380D01*
X104209904Y-87185619D01*
X104248000Y-87109428D01*
X104286095Y-87071333D01*
X104362285Y-87033238D01*
X104476571Y-87033238D01*
X104552761Y-87071333D01*
X104590857Y-87109428D01*
X104628952Y-87185619D01*
X104628952Y-87490380D01*
X105009904Y-85540857D02*
X104628952Y-85807523D01*
X105009904Y-85998000D02*
X104209904Y-85998000D01*
X104209904Y-85693238D01*
X104248000Y-85617047D01*
X104286095Y-85578952D01*
X104362285Y-85540857D01*
X104476571Y-85540857D01*
X104552761Y-85578952D01*
X104590857Y-85617047D01*
X104628952Y-85693238D01*
X104628952Y-85998000D01*
X105009904Y-85198000D02*
X104209904Y-85198000D01*
X104209904Y-83667523D02*
X104209904Y-83210380D01*
X105009904Y-83438952D02*
X104209904Y-83438952D01*
X104209904Y-83019904D02*
X105009904Y-82486571D01*
X104209904Y-82486571D02*
X105009904Y-83019904D01*
X105009904Y-80651333D02*
X104628952Y-80918000D01*
X105009904Y-81108476D02*
X104209904Y-81108476D01*
X104209904Y-80803714D01*
X104248000Y-80727523D01*
X104286095Y-80689428D01*
X104362285Y-80651333D01*
X104476571Y-80651333D01*
X104552761Y-80689428D01*
X104590857Y-80727523D01*
X104628952Y-80803714D01*
X104628952Y-81108476D01*
X104209904Y-80384666D02*
X105009904Y-79851333D01*
X104209904Y-79851333D02*
X105009904Y-80384666D01*
X104248000Y-78587523D02*
X104209904Y-78663714D01*
X104209904Y-78778000D01*
X104248000Y-78892285D01*
X104324190Y-78968476D01*
X104400380Y-79006571D01*
X104552761Y-79044666D01*
X104667047Y-79044666D01*
X104819428Y-79006571D01*
X104895619Y-78968476D01*
X104971809Y-78892285D01*
X105009904Y-78778000D01*
X105009904Y-78701809D01*
X104971809Y-78587523D01*
X104933714Y-78549428D01*
X104667047Y-78549428D01*
X104667047Y-78701809D01*
X105009904Y-78206571D02*
X104209904Y-78206571D01*
X105009904Y-77749428D01*
X104209904Y-77749428D01*
X105009904Y-77368476D02*
X104209904Y-77368476D01*
X104209904Y-77178000D01*
X104248000Y-77063714D01*
X104324190Y-76987523D01*
X104400380Y-76949428D01*
X104552761Y-76911333D01*
X104667047Y-76911333D01*
X104819428Y-76949428D01*
X104895619Y-76987523D01*
X104971809Y-77063714D01*
X105009904Y-77178000D01*
X105009904Y-77368476D01*
X103492476Y-75495142D02*
X104102000Y-75495142D01*
X103797238Y-75799904D02*
X103797238Y-75190380D01*
X104406761Y-74999904D02*
X104902000Y-74999904D01*
X104635333Y-75304666D01*
X104749619Y-75304666D01*
X104825809Y-75342761D01*
X104863904Y-75380857D01*
X104902000Y-75457047D01*
X104902000Y-75647523D01*
X104863904Y-75723714D01*
X104825809Y-75761809D01*
X104749619Y-75799904D01*
X104521047Y-75799904D01*
X104444857Y-75761809D01*
X104406761Y-75723714D01*
X105130571Y-74999904D02*
X105397238Y-75799904D01*
X105663904Y-74999904D01*
X105854380Y-74999904D02*
X106349619Y-74999904D01*
X106082952Y-75304666D01*
X106197238Y-75304666D01*
X106273428Y-75342761D01*
X106311523Y-75380857D01*
X106349619Y-75457047D01*
X106349619Y-75647523D01*
X106311523Y-75723714D01*
X106273428Y-75761809D01*
X106197238Y-75799904D01*
X105968666Y-75799904D01*
X105892476Y-75761809D01*
X105854380Y-75723714D01*
D12*
G36*
X169470667Y-119239333D02*
G01*
X152537334Y-119239333D01*
X152537334Y-117182351D01*
X153738027Y-117182351D01*
X153787638Y-117342811D01*
X153920368Y-117457766D01*
X154142261Y-117554027D01*
X154371800Y-117654948D01*
X154522957Y-117752230D01*
X154551483Y-117788781D01*
X154516344Y-117862468D01*
X154387434Y-117884226D01*
X154230645Y-117858516D01*
X154111875Y-117789801D01*
X154091951Y-117757667D01*
X153990753Y-117640234D01*
X153875320Y-117657518D01*
X153809125Y-117793782D01*
X153807334Y-117828222D01*
X153829219Y-118006031D01*
X153863778Y-118082222D01*
X154006427Y-118131087D01*
X154247273Y-118136554D01*
X154522193Y-118103462D01*
X154767066Y-118036649D01*
X154827538Y-118009492D01*
X155028690Y-117845160D01*
X155077334Y-117679329D01*
X155047438Y-117547082D01*
X154932592Y-117444823D01*
X154919319Y-117439025D01*
X155178768Y-117439025D01*
X155182235Y-117686145D01*
X155260433Y-117849296D01*
X155380686Y-117959728D01*
X155625868Y-118074843D01*
X155958750Y-118137710D01*
X156303513Y-118140072D01*
X156552075Y-118087275D01*
X156668954Y-117977051D01*
X156686000Y-117908519D01*
X156647285Y-117826836D01*
X156505369Y-117818078D01*
X156400114Y-117834787D01*
X156058029Y-117850275D01*
X155811548Y-117760710D01*
X155683231Y-117577246D01*
X155670000Y-117473796D01*
X155682717Y-117421603D01*
X156940121Y-117421603D01*
X156957421Y-117776246D01*
X157023252Y-118002135D01*
X157062937Y-118050628D01*
X157223760Y-118108067D01*
X157400345Y-118080311D01*
X157518400Y-117986384D01*
X157532667Y-117930353D01*
X157600854Y-117804793D01*
X157659667Y-117769382D01*
X157763262Y-117655156D01*
X157794303Y-117527490D01*
X157807704Y-117428945D01*
X157841062Y-117480170D01*
X157880884Y-117607545D01*
X158033988Y-117858584D01*
X158299792Y-118046641D01*
X158628892Y-118157683D01*
X158971884Y-118177677D01*
X159279363Y-118092589D01*
X159374167Y-118031719D01*
X159461622Y-117929638D01*
X159671635Y-117929638D01*
X159673856Y-118029932D01*
X159755167Y-118084059D01*
X159924591Y-118115530D01*
X160163685Y-118118805D01*
X160406725Y-118098259D01*
X160587990Y-118058270D01*
X160640874Y-118025079D01*
X160627693Y-117912423D01*
X160572435Y-117850656D01*
X160492244Y-117694028D01*
X160496000Y-117419000D01*
X160535578Y-117201214D01*
X160608790Y-117104447D01*
X160757727Y-117080597D01*
X160792334Y-117080333D01*
X160959294Y-117096684D01*
X161037850Y-117178555D01*
X161070489Y-117375170D01*
X161073074Y-117405591D01*
X161062425Y-117670390D01*
X160966036Y-117832105D01*
X160946074Y-117848482D01*
X160844235Y-117948569D01*
X160880613Y-118023273D01*
X160919334Y-118051094D01*
X161114200Y-118114704D01*
X161383509Y-118133459D01*
X161638315Y-118106179D01*
X161755681Y-118062169D01*
X161822528Y-117949717D01*
X161767346Y-117837649D01*
X161655170Y-117799638D01*
X161587742Y-117719628D01*
X161541307Y-117498843D01*
X161529048Y-117355252D01*
X161499415Y-117087138D01*
X161477022Y-116994191D01*
X161859052Y-116994191D01*
X161958944Y-117037610D01*
X161977667Y-117038000D01*
X162054560Y-117080119D01*
X162093963Y-117227741D01*
X162104667Y-117499459D01*
X162145074Y-117848803D01*
X162274655Y-118060252D01*
X162505944Y-118142704D01*
X162851478Y-118105054D01*
X162930167Y-118085302D01*
X163097011Y-118000308D01*
X163115530Y-117900840D01*
X162999053Y-117822832D01*
X162824334Y-117800000D01*
X162622771Y-117783047D01*
X162540913Y-117711545D01*
X162529156Y-117609500D01*
X162566909Y-117279048D01*
X162681115Y-117087576D01*
X162847592Y-117021625D01*
X163041241Y-116960078D01*
X163092650Y-116863807D01*
X163084069Y-116855646D01*
X163214671Y-116855646D01*
X163233574Y-116927942D01*
X163378214Y-116996792D01*
X163487216Y-117060976D01*
X163531963Y-117193892D01*
X163531763Y-117425136D01*
X163495989Y-117687214D01*
X163413583Y-117820198D01*
X163358882Y-117847343D01*
X163218822Y-117937270D01*
X163240385Y-118058365D01*
X163261778Y-118082222D01*
X163383800Y-118120841D01*
X163603197Y-118136729D01*
X163849484Y-118129455D01*
X164052176Y-118098587D01*
X164087409Y-118087275D01*
X164198387Y-117990798D01*
X164201545Y-117961407D01*
X164306000Y-117961407D01*
X164386472Y-118015025D01*
X164613051Y-118046778D01*
X164856334Y-118054000D01*
X165175017Y-118040461D01*
X165363744Y-118002339D01*
X165406667Y-117961407D01*
X165336741Y-117864633D01*
X165258241Y-117829999D01*
X165164781Y-117769635D01*
X165131584Y-117625166D01*
X165139093Y-117423049D01*
X165168644Y-117190754D01*
X165233518Y-117075690D01*
X165371601Y-117025775D01*
X165435686Y-117015314D01*
X165656495Y-116999158D01*
X165808834Y-117015916D01*
X165883885Y-117123223D01*
X165915791Y-117326277D01*
X165906308Y-117557556D01*
X165857188Y-117749534D01*
X165787667Y-117830618D01*
X165675000Y-117946243D01*
X165660667Y-118013434D01*
X165732377Y-118097418D01*
X165910462Y-118135882D01*
X166139356Y-118132788D01*
X166363489Y-118092098D01*
X166527295Y-118017771D01*
X166576249Y-117948167D01*
X166543456Y-117822134D01*
X166471208Y-117800000D01*
X166394683Y-117765862D01*
X166353467Y-117640769D01*
X166338638Y-117390699D01*
X166338167Y-117317705D01*
X166741061Y-117317705D01*
X166749688Y-117637597D01*
X166769101Y-117701220D01*
X166890769Y-117909325D01*
X167040967Y-118037325D01*
X167257877Y-118096086D01*
X167562376Y-118128153D01*
X167875513Y-118129974D01*
X168118336Y-118097998D01*
X168151409Y-118087275D01*
X168268286Y-117977136D01*
X168285334Y-117908678D01*
X168243722Y-117826948D01*
X168094592Y-117808870D01*
X167967834Y-117820600D01*
X167620589Y-117818357D01*
X167372847Y-117727383D01*
X167243679Y-117565735D01*
X167252158Y-117351470D01*
X167325827Y-117212810D01*
X167484424Y-117088643D01*
X167691541Y-117039211D01*
X167880153Y-117069435D01*
X167977285Y-117165000D01*
X168080603Y-117284725D01*
X168202172Y-117271880D01*
X168279867Y-117142940D01*
X168285334Y-117083312D01*
X168214119Y-116869105D01*
X168008197Y-116745622D01*
X167679148Y-116718301D01*
X167538000Y-116732331D01*
X167151665Y-116844346D01*
X166880536Y-117046379D01*
X166741061Y-117317705D01*
X166338167Y-117317705D01*
X166338000Y-117292000D01*
X166338000Y-116784000D01*
X165830000Y-116773417D01*
X165482109Y-116764812D01*
X165268617Y-116750073D01*
X165154637Y-116719142D01*
X165105281Y-116661964D01*
X165085660Y-116568480D01*
X165084231Y-116558439D01*
X165124974Y-116391156D01*
X165261797Y-116302354D01*
X165431370Y-116313394D01*
X165544315Y-116403243D01*
X165686804Y-116503580D01*
X165783599Y-116500943D01*
X165894942Y-116499886D01*
X165914667Y-116538546D01*
X165978236Y-116596940D01*
X166117746Y-116594078D01*
X166256405Y-116541819D01*
X166313785Y-116476916D01*
X166266586Y-116377906D01*
X166102715Y-116259993D01*
X165869582Y-116146107D01*
X165614601Y-116059178D01*
X165385183Y-116022135D01*
X165373144Y-116022000D01*
X165102415Y-116075557D01*
X164857032Y-116211690D01*
X164688883Y-116393587D01*
X164644667Y-116538802D01*
X164587586Y-116698969D01*
X164517667Y-116753382D01*
X164408430Y-116855795D01*
X164406435Y-116986171D01*
X164486889Y-117055963D01*
X164548838Y-117152730D01*
X164587764Y-117356208D01*
X164592722Y-117439748D01*
X164580260Y-117682366D01*
X164515502Y-117801995D01*
X164454167Y-117830137D01*
X164328499Y-117906635D01*
X164306000Y-117961407D01*
X164201545Y-117961407D01*
X164211199Y-117871584D01*
X164123046Y-117801768D01*
X164098559Y-117800000D01*
X164021047Y-117747703D01*
X163973291Y-117573818D01*
X163950392Y-117313167D01*
X163925000Y-116826333D01*
X163565167Y-116800298D01*
X163331127Y-116806870D01*
X163214671Y-116855646D01*
X163084069Y-116855646D01*
X162995487Y-116771403D01*
X162893848Y-116739675D01*
X162660802Y-116673085D01*
X162505501Y-116608003D01*
X162351497Y-116582192D01*
X162156259Y-116676056D01*
X162103334Y-116713706D01*
X161908096Y-116883863D01*
X161859052Y-116994191D01*
X161477022Y-116994191D01*
X161451305Y-116887455D01*
X161418814Y-116826447D01*
X161304618Y-116793641D01*
X161069557Y-116770819D01*
X160761564Y-116758244D01*
X160428575Y-116756179D01*
X160118525Y-116764884D01*
X159879346Y-116784623D01*
X159758975Y-116815658D01*
X159757090Y-116817355D01*
X159767884Y-116909272D01*
X159847408Y-117022981D01*
X159956531Y-117225794D01*
X159991457Y-117468703D01*
X159954332Y-117690506D01*
X159847303Y-117830001D01*
X159818667Y-117842333D01*
X159671635Y-117929638D01*
X159461622Y-117929638D01*
X159481104Y-117906898D01*
X159435326Y-117832903D01*
X159248393Y-117819481D01*
X159138487Y-117832968D01*
X158837779Y-117843160D01*
X158602946Y-117780945D01*
X158475574Y-117660542D01*
X158464000Y-117602355D01*
X158535719Y-117530482D01*
X158755297Y-117529349D01*
X158760104Y-117529904D01*
X159115360Y-117534736D01*
X159377636Y-117463953D01*
X159512691Y-117328931D01*
X159517086Y-117120614D01*
X159388195Y-116940163D01*
X159161790Y-116805750D01*
X158873640Y-116735546D01*
X158559516Y-116747723D01*
X158432786Y-116780330D01*
X158190419Y-116896848D01*
X158004493Y-117047495D01*
X157990024Y-117065646D01*
X157903393Y-117174749D01*
X157876293Y-117162017D01*
X157895940Y-117007759D01*
X157907684Y-116938814D01*
X157964829Y-116668964D01*
X158048541Y-116340193D01*
X158091354Y-116189614D01*
X158174621Y-115937447D01*
X158247720Y-115816216D01*
X158338693Y-115791889D01*
X158406265Y-115807412D01*
X158586561Y-115843470D01*
X158869357Y-115880698D01*
X159141334Y-115906609D01*
X159684079Y-115888031D01*
X160123205Y-115737265D01*
X160464085Y-115451721D01*
X160640462Y-115183183D01*
X160834667Y-114810033D01*
X160843106Y-115437183D01*
X160857009Y-115881691D01*
X160890778Y-116183087D01*
X160953691Y-116367265D01*
X161055024Y-116460113D01*
X161204054Y-116487524D01*
X161219484Y-116487667D01*
X161329910Y-116480020D01*
X161416146Y-116438932D01*
X161495548Y-116337183D01*
X161585473Y-116147553D01*
X161703277Y-115842822D01*
X161801021Y-115575636D01*
X161950606Y-115170371D01*
X162069003Y-114896436D01*
X162183924Y-114726405D01*
X162323082Y-114632848D01*
X162514189Y-114588338D01*
X162784959Y-114565446D01*
X162824334Y-114562836D01*
X163163000Y-114540333D01*
X163215618Y-115302333D01*
X163256872Y-115786728D01*
X163310376Y-116126354D01*
X163387782Y-116345771D01*
X163500742Y-116469544D01*
X163660909Y-116522233D01*
X163798000Y-116530000D01*
X164012244Y-116506310D01*
X164157931Y-116418256D01*
X164247291Y-116240363D01*
X164292551Y-115947155D01*
X164305940Y-115513155D01*
X164306000Y-115471666D01*
X164317846Y-115027543D01*
X164361421Y-114724780D01*
X164448779Y-114536554D01*
X164591976Y-114436039D01*
X164788701Y-114397524D01*
X165006395Y-114360679D01*
X165098094Y-114281508D01*
X165110334Y-114201667D01*
X165040127Y-114048078D01*
X164938790Y-114007762D01*
X164863261Y-113985438D01*
X164813622Y-113924189D01*
X164784265Y-113793780D01*
X164769584Y-113563974D01*
X164763974Y-113204536D01*
X164763194Y-113060729D01*
X164754734Y-112647194D01*
X165406667Y-112647194D01*
X165477037Y-112955222D01*
X165660944Y-113177306D01*
X165917583Y-113297165D01*
X166206151Y-113298513D01*
X166485843Y-113165070D01*
X166553515Y-113104848D01*
X166717943Y-112839762D01*
X166744768Y-112550749D01*
X166651329Y-112280159D01*
X166454960Y-112070338D01*
X166173001Y-111963636D01*
X166084000Y-111958000D01*
X165788715Y-112034867D01*
X165553054Y-112235754D01*
X165420823Y-112516086D01*
X165406667Y-112647194D01*
X164754734Y-112647194D01*
X164753503Y-112587066D01*
X164722069Y-112257281D01*
X164658047Y-112046270D01*
X164550594Y-111928931D01*
X164388866Y-111880158D01*
X164250291Y-111873333D01*
X164071854Y-111888509D01*
X163954982Y-111961092D01*
X163852924Y-112131663D01*
X163790082Y-112272806D01*
X163676976Y-112563982D01*
X163548270Y-112935655D01*
X163437567Y-113288451D01*
X163337235Y-113612175D01*
X163241880Y-113811198D01*
X163108149Y-113923106D01*
X162892688Y-113985487D01*
X162579776Y-114032162D01*
X162336982Y-114060051D01*
X162226706Y-114049737D01*
X162214506Y-113991277D01*
X162237843Y-113933446D01*
X162275301Y-113778526D01*
X162310161Y-113506665D01*
X162336097Y-113170212D01*
X162340287Y-113085751D01*
X162352301Y-112741799D01*
X162345180Y-112525460D01*
X162309845Y-112395312D01*
X162237219Y-112309935D01*
X162157948Y-112253721D01*
X161937000Y-112159866D01*
X161749729Y-112141970D01*
X161579245Y-112244343D01*
X161399525Y-112487998D01*
X161223847Y-112846382D01*
X161065486Y-113292948D01*
X160950481Y-113740185D01*
X160809216Y-114397570D01*
X160631442Y-114046302D01*
X160368406Y-113679808D01*
X160024256Y-113428188D01*
X159635290Y-113316151D01*
X159553759Y-113312667D01*
X159331688Y-113294636D01*
X159221291Y-113220431D01*
X159178116Y-113109029D01*
X159055657Y-112860987D01*
X158853921Y-112664988D01*
X158626385Y-112566337D01*
X158535786Y-112564859D01*
X158418263Y-112615928D01*
X158290482Y-112752058D01*
X158133553Y-112998037D01*
X157956000Y-113325710D01*
X157773983Y-113662872D01*
X157602481Y-113958154D01*
X157467326Y-114168020D01*
X157420085Y-114228834D01*
X157316957Y-114395079D01*
X157349092Y-114555964D01*
X157352436Y-114562303D01*
X157392090Y-114739826D01*
X157357316Y-115012906D01*
X157315094Y-115183180D01*
X157158837Y-115818995D01*
X157042885Y-116419593D01*
X156969294Y-116961591D01*
X156940121Y-117421603D01*
X155682717Y-117421603D01*
X155729546Y-117229408D01*
X155878561Y-117064628D01*
X156072611Y-117003114D01*
X156267262Y-117068524D01*
X156326153Y-117124427D01*
X156503781Y-117269671D01*
X156646550Y-117263944D01*
X156716618Y-117165000D01*
X156731553Y-116950577D01*
X156605084Y-116797108D01*
X156357785Y-116716176D01*
X156010230Y-116719366D01*
X155942556Y-116729124D01*
X155552228Y-116850188D01*
X155300885Y-117065965D01*
X155184966Y-117379764D01*
X155178768Y-117439025D01*
X154919319Y-117439025D01*
X154695059Y-117341064D01*
X154654000Y-117326111D01*
X154383977Y-117212710D01*
X154249055Y-117120020D01*
X154258259Y-117058385D01*
X154402657Y-117038000D01*
X154565463Y-117093171D01*
X154623382Y-117165000D01*
X154724627Y-117290361D01*
X154845625Y-117288433D01*
X154940997Y-117188230D01*
X154965362Y-117018766D01*
X154951027Y-116955517D01*
X154823178Y-116807550D01*
X154587115Y-116734137D01*
X154289909Y-116742305D01*
X154026880Y-116817584D01*
X153821793Y-116921717D01*
X153739983Y-117034048D01*
X153738027Y-117182351D01*
X152537334Y-117182351D01*
X152537334Y-110772667D01*
X169470667Y-110772667D01*
X169470667Y-119239333D01*
X169470667Y-119239333D01*
G37*
X169470667Y-119239333D02*
X152537334Y-119239333D01*
X152537334Y-117182351D01*
X153738027Y-117182351D01*
X153787638Y-117342811D01*
X153920368Y-117457766D01*
X154142261Y-117554027D01*
X154371800Y-117654948D01*
X154522957Y-117752230D01*
X154551483Y-117788781D01*
X154516344Y-117862468D01*
X154387434Y-117884226D01*
X154230645Y-117858516D01*
X154111875Y-117789801D01*
X154091951Y-117757667D01*
X153990753Y-117640234D01*
X153875320Y-117657518D01*
X153809125Y-117793782D01*
X153807334Y-117828222D01*
X153829219Y-118006031D01*
X153863778Y-118082222D01*
X154006427Y-118131087D01*
X154247273Y-118136554D01*
X154522193Y-118103462D01*
X154767066Y-118036649D01*
X154827538Y-118009492D01*
X155028690Y-117845160D01*
X155077334Y-117679329D01*
X155047438Y-117547082D01*
X154932592Y-117444823D01*
X154919319Y-117439025D01*
X155178768Y-117439025D01*
X155182235Y-117686145D01*
X155260433Y-117849296D01*
X155380686Y-117959728D01*
X155625868Y-118074843D01*
X155958750Y-118137710D01*
X156303513Y-118140072D01*
X156552075Y-118087275D01*
X156668954Y-117977051D01*
X156686000Y-117908519D01*
X156647285Y-117826836D01*
X156505369Y-117818078D01*
X156400114Y-117834787D01*
X156058029Y-117850275D01*
X155811548Y-117760710D01*
X155683231Y-117577246D01*
X155670000Y-117473796D01*
X155682717Y-117421603D01*
X156940121Y-117421603D01*
X156957421Y-117776246D01*
X157023252Y-118002135D01*
X157062937Y-118050628D01*
X157223760Y-118108067D01*
X157400345Y-118080311D01*
X157518400Y-117986384D01*
X157532667Y-117930353D01*
X157600854Y-117804793D01*
X157659667Y-117769382D01*
X157763262Y-117655156D01*
X157794303Y-117527490D01*
X157807704Y-117428945D01*
X157841062Y-117480170D01*
X157880884Y-117607545D01*
X158033988Y-117858584D01*
X158299792Y-118046641D01*
X158628892Y-118157683D01*
X158971884Y-118177677D01*
X159279363Y-118092589D01*
X159374167Y-118031719D01*
X159461622Y-117929638D01*
X159671635Y-117929638D01*
X159673856Y-118029932D01*
X159755167Y-118084059D01*
X159924591Y-118115530D01*
X160163685Y-118118805D01*
X160406725Y-118098259D01*
X160587990Y-118058270D01*
X160640874Y-118025079D01*
X160627693Y-117912423D01*
X160572435Y-117850656D01*
X160492244Y-117694028D01*
X160496000Y-117419000D01*
X160535578Y-117201214D01*
X160608790Y-117104447D01*
X160757727Y-117080597D01*
X160792334Y-117080333D01*
X160959294Y-117096684D01*
X161037850Y-117178555D01*
X161070489Y-117375170D01*
X161073074Y-117405591D01*
X161062425Y-117670390D01*
X160966036Y-117832105D01*
X160946074Y-117848482D01*
X160844235Y-117948569D01*
X160880613Y-118023273D01*
X160919334Y-118051094D01*
X161114200Y-118114704D01*
X161383509Y-118133459D01*
X161638315Y-118106179D01*
X161755681Y-118062169D01*
X161822528Y-117949717D01*
X161767346Y-117837649D01*
X161655170Y-117799638D01*
X161587742Y-117719628D01*
X161541307Y-117498843D01*
X161529048Y-117355252D01*
X161499415Y-117087138D01*
X161477022Y-116994191D01*
X161859052Y-116994191D01*
X161958944Y-117037610D01*
X161977667Y-117038000D01*
X162054560Y-117080119D01*
X162093963Y-117227741D01*
X162104667Y-117499459D01*
X162145074Y-117848803D01*
X162274655Y-118060252D01*
X162505944Y-118142704D01*
X162851478Y-118105054D01*
X162930167Y-118085302D01*
X163097011Y-118000308D01*
X163115530Y-117900840D01*
X162999053Y-117822832D01*
X162824334Y-117800000D01*
X162622771Y-117783047D01*
X162540913Y-117711545D01*
X162529156Y-117609500D01*
X162566909Y-117279048D01*
X162681115Y-117087576D01*
X162847592Y-117021625D01*
X163041241Y-116960078D01*
X163092650Y-116863807D01*
X163084069Y-116855646D01*
X163214671Y-116855646D01*
X163233574Y-116927942D01*
X163378214Y-116996792D01*
X163487216Y-117060976D01*
X163531963Y-117193892D01*
X163531763Y-117425136D01*
X163495989Y-117687214D01*
X163413583Y-117820198D01*
X163358882Y-117847343D01*
X163218822Y-117937270D01*
X163240385Y-118058365D01*
X163261778Y-118082222D01*
X163383800Y-118120841D01*
X163603197Y-118136729D01*
X163849484Y-118129455D01*
X164052176Y-118098587D01*
X164087409Y-118087275D01*
X164198387Y-117990798D01*
X164201545Y-117961407D01*
X164306000Y-117961407D01*
X164386472Y-118015025D01*
X164613051Y-118046778D01*
X164856334Y-118054000D01*
X165175017Y-118040461D01*
X165363744Y-118002339D01*
X165406667Y-117961407D01*
X165336741Y-117864633D01*
X165258241Y-117829999D01*
X165164781Y-117769635D01*
X165131584Y-117625166D01*
X165139093Y-117423049D01*
X165168644Y-117190754D01*
X165233518Y-117075690D01*
X165371601Y-117025775D01*
X165435686Y-117015314D01*
X165656495Y-116999158D01*
X165808834Y-117015916D01*
X165883885Y-117123223D01*
X165915791Y-117326277D01*
X165906308Y-117557556D01*
X165857188Y-117749534D01*
X165787667Y-117830618D01*
X165675000Y-117946243D01*
X165660667Y-118013434D01*
X165732377Y-118097418D01*
X165910462Y-118135882D01*
X166139356Y-118132788D01*
X166363489Y-118092098D01*
X166527295Y-118017771D01*
X166576249Y-117948167D01*
X166543456Y-117822134D01*
X166471208Y-117800000D01*
X166394683Y-117765862D01*
X166353467Y-117640769D01*
X166338638Y-117390699D01*
X166338167Y-117317705D01*
X166741061Y-117317705D01*
X166749688Y-117637597D01*
X166769101Y-117701220D01*
X166890769Y-117909325D01*
X167040967Y-118037325D01*
X167257877Y-118096086D01*
X167562376Y-118128153D01*
X167875513Y-118129974D01*
X168118336Y-118097998D01*
X168151409Y-118087275D01*
X168268286Y-117977136D01*
X168285334Y-117908678D01*
X168243722Y-117826948D01*
X168094592Y-117808870D01*
X167967834Y-117820600D01*
X167620589Y-117818357D01*
X167372847Y-117727383D01*
X167243679Y-117565735D01*
X167252158Y-117351470D01*
X167325827Y-117212810D01*
X167484424Y-117088643D01*
X167691541Y-117039211D01*
X167880153Y-117069435D01*
X167977285Y-117165000D01*
X168080603Y-117284725D01*
X168202172Y-117271880D01*
X168279867Y-117142940D01*
X168285334Y-117083312D01*
X168214119Y-116869105D01*
X168008197Y-116745622D01*
X167679148Y-116718301D01*
X167538000Y-116732331D01*
X167151665Y-116844346D01*
X166880536Y-117046379D01*
X166741061Y-117317705D01*
X166338167Y-117317705D01*
X166338000Y-117292000D01*
X166338000Y-116784000D01*
X165830000Y-116773417D01*
X165482109Y-116764812D01*
X165268617Y-116750073D01*
X165154637Y-116719142D01*
X165105281Y-116661964D01*
X165085660Y-116568480D01*
X165084231Y-116558439D01*
X165124974Y-116391156D01*
X165261797Y-116302354D01*
X165431370Y-116313394D01*
X165544315Y-116403243D01*
X165686804Y-116503580D01*
X165783599Y-116500943D01*
X165894942Y-116499886D01*
X165914667Y-116538546D01*
X165978236Y-116596940D01*
X166117746Y-116594078D01*
X166256405Y-116541819D01*
X166313785Y-116476916D01*
X166266586Y-116377906D01*
X166102715Y-116259993D01*
X165869582Y-116146107D01*
X165614601Y-116059178D01*
X165385183Y-116022135D01*
X165373144Y-116022000D01*
X165102415Y-116075557D01*
X164857032Y-116211690D01*
X164688883Y-116393587D01*
X164644667Y-116538802D01*
X164587586Y-116698969D01*
X164517667Y-116753382D01*
X164408430Y-116855795D01*
X164406435Y-116986171D01*
X164486889Y-117055963D01*
X164548838Y-117152730D01*
X164587764Y-117356208D01*
X164592722Y-117439748D01*
X164580260Y-117682366D01*
X164515502Y-117801995D01*
X164454167Y-117830137D01*
X164328499Y-117906635D01*
X164306000Y-117961407D01*
X164201545Y-117961407D01*
X164211199Y-117871584D01*
X164123046Y-117801768D01*
X164098559Y-117800000D01*
X164021047Y-117747703D01*
X163973291Y-117573818D01*
X163950392Y-117313167D01*
X163925000Y-116826333D01*
X163565167Y-116800298D01*
X163331127Y-116806870D01*
X163214671Y-116855646D01*
X163084069Y-116855646D01*
X162995487Y-116771403D01*
X162893848Y-116739675D01*
X162660802Y-116673085D01*
X162505501Y-116608003D01*
X162351497Y-116582192D01*
X162156259Y-116676056D01*
X162103334Y-116713706D01*
X161908096Y-116883863D01*
X161859052Y-116994191D01*
X161477022Y-116994191D01*
X161451305Y-116887455D01*
X161418814Y-116826447D01*
X161304618Y-116793641D01*
X161069557Y-116770819D01*
X160761564Y-116758244D01*
X160428575Y-116756179D01*
X160118525Y-116764884D01*
X159879346Y-116784623D01*
X159758975Y-116815658D01*
X159757090Y-116817355D01*
X159767884Y-116909272D01*
X159847408Y-117022981D01*
X159956531Y-117225794D01*
X159991457Y-117468703D01*
X159954332Y-117690506D01*
X159847303Y-117830001D01*
X159818667Y-117842333D01*
X159671635Y-117929638D01*
X159461622Y-117929638D01*
X159481104Y-117906898D01*
X159435326Y-117832903D01*
X159248393Y-117819481D01*
X159138487Y-117832968D01*
X158837779Y-117843160D01*
X158602946Y-117780945D01*
X158475574Y-117660542D01*
X158464000Y-117602355D01*
X158535719Y-117530482D01*
X158755297Y-117529349D01*
X158760104Y-117529904D01*
X159115360Y-117534736D01*
X159377636Y-117463953D01*
X159512691Y-117328931D01*
X159517086Y-117120614D01*
X159388195Y-116940163D01*
X159161790Y-116805750D01*
X158873640Y-116735546D01*
X158559516Y-116747723D01*
X158432786Y-116780330D01*
X158190419Y-116896848D01*
X158004493Y-117047495D01*
X157990024Y-117065646D01*
X157903393Y-117174749D01*
X157876293Y-117162017D01*
X157895940Y-117007759D01*
X157907684Y-116938814D01*
X157964829Y-116668964D01*
X158048541Y-116340193D01*
X158091354Y-116189614D01*
X158174621Y-115937447D01*
X158247720Y-115816216D01*
X158338693Y-115791889D01*
X158406265Y-115807412D01*
X158586561Y-115843470D01*
X158869357Y-115880698D01*
X159141334Y-115906609D01*
X159684079Y-115888031D01*
X160123205Y-115737265D01*
X160464085Y-115451721D01*
X160640462Y-115183183D01*
X160834667Y-114810033D01*
X160843106Y-115437183D01*
X160857009Y-115881691D01*
X160890778Y-116183087D01*
X160953691Y-116367265D01*
X161055024Y-116460113D01*
X161204054Y-116487524D01*
X161219484Y-116487667D01*
X161329910Y-116480020D01*
X161416146Y-116438932D01*
X161495548Y-116337183D01*
X161585473Y-116147553D01*
X161703277Y-115842822D01*
X161801021Y-115575636D01*
X161950606Y-115170371D01*
X162069003Y-114896436D01*
X162183924Y-114726405D01*
X162323082Y-114632848D01*
X162514189Y-114588338D01*
X162784959Y-114565446D01*
X162824334Y-114562836D01*
X163163000Y-114540333D01*
X163215618Y-115302333D01*
X163256872Y-115786728D01*
X163310376Y-116126354D01*
X163387782Y-116345771D01*
X163500742Y-116469544D01*
X163660909Y-116522233D01*
X163798000Y-116530000D01*
X164012244Y-116506310D01*
X164157931Y-116418256D01*
X164247291Y-116240363D01*
X164292551Y-115947155D01*
X164305940Y-115513155D01*
X164306000Y-115471666D01*
X164317846Y-115027543D01*
X164361421Y-114724780D01*
X164448779Y-114536554D01*
X164591976Y-114436039D01*
X164788701Y-114397524D01*
X165006395Y-114360679D01*
X165098094Y-114281508D01*
X165110334Y-114201667D01*
X165040127Y-114048078D01*
X164938790Y-114007762D01*
X164863261Y-113985438D01*
X164813622Y-113924189D01*
X164784265Y-113793780D01*
X164769584Y-113563974D01*
X164763974Y-113204536D01*
X164763194Y-113060729D01*
X164754734Y-112647194D01*
X165406667Y-112647194D01*
X165477037Y-112955222D01*
X165660944Y-113177306D01*
X165917583Y-113297165D01*
X166206151Y-113298513D01*
X166485843Y-113165070D01*
X166553515Y-113104848D01*
X166717943Y-112839762D01*
X166744768Y-112550749D01*
X166651329Y-112280159D01*
X166454960Y-112070338D01*
X166173001Y-111963636D01*
X166084000Y-111958000D01*
X165788715Y-112034867D01*
X165553054Y-112235754D01*
X165420823Y-112516086D01*
X165406667Y-112647194D01*
X164754734Y-112647194D01*
X164753503Y-112587066D01*
X164722069Y-112257281D01*
X164658047Y-112046270D01*
X164550594Y-111928931D01*
X164388866Y-111880158D01*
X164250291Y-111873333D01*
X164071854Y-111888509D01*
X163954982Y-111961092D01*
X163852924Y-112131663D01*
X163790082Y-112272806D01*
X163676976Y-112563982D01*
X163548270Y-112935655D01*
X163437567Y-113288451D01*
X163337235Y-113612175D01*
X163241880Y-113811198D01*
X163108149Y-113923106D01*
X162892688Y-113985487D01*
X162579776Y-114032162D01*
X162336982Y-114060051D01*
X162226706Y-114049737D01*
X162214506Y-113991277D01*
X162237843Y-113933446D01*
X162275301Y-113778526D01*
X162310161Y-113506665D01*
X162336097Y-113170212D01*
X162340287Y-113085751D01*
X162352301Y-112741799D01*
X162345180Y-112525460D01*
X162309845Y-112395312D01*
X162237219Y-112309935D01*
X162157948Y-112253721D01*
X161937000Y-112159866D01*
X161749729Y-112141970D01*
X161579245Y-112244343D01*
X161399525Y-112487998D01*
X161223847Y-112846382D01*
X161065486Y-113292948D01*
X160950481Y-113740185D01*
X160809216Y-114397570D01*
X160631442Y-114046302D01*
X160368406Y-113679808D01*
X160024256Y-113428188D01*
X159635290Y-113316151D01*
X159553759Y-113312667D01*
X159331688Y-113294636D01*
X159221291Y-113220431D01*
X159178116Y-113109029D01*
X159055657Y-112860987D01*
X158853921Y-112664988D01*
X158626385Y-112566337D01*
X158535786Y-112564859D01*
X158418263Y-112615928D01*
X158290482Y-112752058D01*
X158133553Y-112998037D01*
X157956000Y-113325710D01*
X157773983Y-113662872D01*
X157602481Y-113958154D01*
X157467326Y-114168020D01*
X157420085Y-114228834D01*
X157316957Y-114395079D01*
X157349092Y-114555964D01*
X157352436Y-114562303D01*
X157392090Y-114739826D01*
X157357316Y-115012906D01*
X157315094Y-115183180D01*
X157158837Y-115818995D01*
X157042885Y-116419593D01*
X156969294Y-116961591D01*
X156940121Y-117421603D01*
X155682717Y-117421603D01*
X155729546Y-117229408D01*
X155878561Y-117064628D01*
X156072611Y-117003114D01*
X156267262Y-117068524D01*
X156326153Y-117124427D01*
X156503781Y-117269671D01*
X156646550Y-117263944D01*
X156716618Y-117165000D01*
X156731553Y-116950577D01*
X156605084Y-116797108D01*
X156357785Y-116716176D01*
X156010230Y-116719366D01*
X155942556Y-116729124D01*
X155552228Y-116850188D01*
X155300885Y-117065965D01*
X155184966Y-117379764D01*
X155178768Y-117439025D01*
X154919319Y-117439025D01*
X154695059Y-117341064D01*
X154654000Y-117326111D01*
X154383977Y-117212710D01*
X154249055Y-117120020D01*
X154258259Y-117058385D01*
X154402657Y-117038000D01*
X154565463Y-117093171D01*
X154623382Y-117165000D01*
X154724627Y-117290361D01*
X154845625Y-117288433D01*
X154940997Y-117188230D01*
X154965362Y-117018766D01*
X154951027Y-116955517D01*
X154823178Y-116807550D01*
X154587115Y-116734137D01*
X154289909Y-116742305D01*
X154026880Y-116817584D01*
X153821793Y-116921717D01*
X153739983Y-117034048D01*
X153738027Y-117182351D01*
X152537334Y-117182351D01*
X152537334Y-110772667D01*
X169470667Y-110772667D01*
X169470667Y-119239333D01*
G36*
X158845000Y-117007382D02*
G01*
X158964595Y-117089940D01*
X158933510Y-117165233D01*
X158769189Y-117205797D01*
X158718000Y-117207333D01*
X158539620Y-117185422D01*
X158464018Y-117132631D01*
X158464000Y-117131725D01*
X158534762Y-117035733D01*
X158694626Y-116988627D01*
X158845000Y-117007382D01*
X158845000Y-117007382D01*
G37*
X158845000Y-117007382D02*
X158964595Y-117089940D01*
X158933510Y-117165233D01*
X158769189Y-117205797D01*
X158718000Y-117207333D01*
X158539620Y-117185422D01*
X158464018Y-117132631D01*
X158464000Y-117131725D01*
X158534762Y-117035733D01*
X158694626Y-116988627D01*
X158845000Y-117007382D01*
G36*
X159556781Y-114409113D02*
G01*
X159707940Y-114558554D01*
X159708871Y-114732533D01*
X159563145Y-114884734D01*
X159518350Y-114907743D01*
X159186162Y-114999667D01*
X158916462Y-114940496D01*
X158891246Y-114925543D01*
X158814614Y-114846998D01*
X158836143Y-114727690D01*
X158885609Y-114628222D01*
X159077843Y-114419375D01*
X159330722Y-114349008D01*
X159556781Y-114409113D01*
X159556781Y-114409113D01*
G37*
X159556781Y-114409113D02*
X159707940Y-114558554D01*
X159708871Y-114732533D01*
X159563145Y-114884734D01*
X159518350Y-114907743D01*
X159186162Y-114999667D01*
X158916462Y-114940496D01*
X158891246Y-114925543D01*
X158814614Y-114846998D01*
X158836143Y-114727690D01*
X158885609Y-114628222D01*
X159077843Y-114419375D01*
X159330722Y-114349008D01*
X159556781Y-114409113D01*
G36*
X166184413Y-112945093D02*
G01*
X166205121Y-112967504D01*
X166303187Y-113086117D01*
X166283440Y-113133715D01*
X166122268Y-113142202D01*
X166075956Y-113142037D01*
X165911018Y-113126151D01*
X165869590Y-113088542D01*
X165880805Y-113078537D01*
X165993157Y-112943951D01*
X166009970Y-112904004D01*
X166068252Y-112855280D01*
X166184413Y-112945093D01*
X166184413Y-112945093D01*
G37*
X166184413Y-112945093D02*
X166205121Y-112967504D01*
X166303187Y-113086117D01*
X166283440Y-113133715D01*
X166122268Y-113142202D01*
X166075956Y-113142037D01*
X165911018Y-113126151D01*
X165869590Y-113088542D01*
X165880805Y-113078537D01*
X165993157Y-112943951D01*
X166009970Y-112904004D01*
X166068252Y-112855280D01*
X166184413Y-112945093D01*
G36*
X165701558Y-112335743D02*
G01*
X165724161Y-112444833D01*
X165736531Y-112692529D01*
X165723785Y-112825833D01*
X165691592Y-112952349D01*
X165649849Y-112922017D01*
X165624099Y-112867977D01*
X165597021Y-112678493D01*
X165624474Y-112486977D01*
X165673519Y-112334129D01*
X165701558Y-112335743D01*
X165701558Y-112335743D01*
G37*
X165701558Y-112335743D02*
X165724161Y-112444833D01*
X165736531Y-112692529D01*
X165723785Y-112825833D01*
X165691592Y-112952349D01*
X165649849Y-112922017D01*
X165624099Y-112867977D01*
X165597021Y-112678493D01*
X165624474Y-112486977D01*
X165673519Y-112334129D01*
X165701558Y-112335743D01*
G36*
X166486167Y-112353680D02*
G01*
X166577899Y-112559100D01*
X166575359Y-112751659D01*
X166507334Y-112847000D01*
X166422142Y-112852136D01*
X166412687Y-112830830D01*
X166402591Y-112705056D01*
X166391907Y-112495134D01*
X166391520Y-112485664D01*
X166392010Y-112310317D01*
X166424486Y-112281940D01*
X166486167Y-112353680D01*
X166486167Y-112353680D01*
G37*
X166486167Y-112353680D02*
X166577899Y-112559100D01*
X166575359Y-112751659D01*
X166507334Y-112847000D01*
X166422142Y-112852136D01*
X166412687Y-112830830D01*
X166402591Y-112705056D01*
X166391907Y-112495134D01*
X166391520Y-112485664D01*
X166392010Y-112310317D01*
X166424486Y-112281940D01*
X166486167Y-112353680D01*
G36*
X166140445Y-112494222D02*
G01*
X166128822Y-112544556D01*
X166084000Y-112550667D01*
X166014310Y-112519688D01*
X166027556Y-112494222D01*
X166128035Y-112484089D01*
X166140445Y-112494222D01*
X166140445Y-112494222D01*
G37*
X166140445Y-112494222D02*
X166128822Y-112544556D01*
X166084000Y-112550667D01*
X166014310Y-112519688D01*
X166027556Y-112494222D01*
X166128035Y-112484089D01*
X166140445Y-112494222D01*
G36*
X166189834Y-112155927D02*
G01*
X166200470Y-112186829D01*
X166084000Y-112198631D01*
X165963805Y-112185326D01*
X165978167Y-112155927D01*
X166151509Y-112144744D01*
X166189834Y-112155927D01*
X166189834Y-112155927D01*
G37*
X166189834Y-112155927D02*
X166200470Y-112186829D01*
X166084000Y-112198631D01*
X165963805Y-112185326D01*
X165978167Y-112155927D01*
X166151509Y-112144744D01*
X166189834Y-112155927D01*
D13*
X146730000Y-93944000D02*
X146730000Y-97454000D01*
X126020000Y-97454000D02*
X122510000Y-97454000D01*
X122510000Y-93944000D02*
X122510000Y-97454000D01*
X126020000Y-73234000D02*
X122510000Y-73234000D01*
X146730000Y-73344000D02*
X146730000Y-76744000D01*
X146730000Y-97454000D02*
X143220000Y-97454000D01*
X122510000Y-73234000D02*
X122510000Y-76744000D01*
D11*
G36*
X142621000Y-74803000D02*
G01*
X143256000Y-76073000D01*
X141986000Y-76073000D01*
X142621000Y-74803000D01*
G37*
X142621000Y-74803000D02*
X143256000Y-76073000D01*
X141986000Y-76073000D01*
X142621000Y-74803000D01*
D13*
X121302000Y-109158000D02*
X121302000Y-107258000D01*
X118982000Y-107758000D02*
X118982000Y-109158000D01*
X150316000Y-93083748D02*
X150316000Y-93606252D01*
X148896000Y-93083748D02*
X148896000Y-93606252D01*
D11*
X115763000Y-77830000D02*
X111313000Y-77830000D01*
X115763000Y-84730000D02*
X111313000Y-84730000D01*
D13*
X118535267Y-76456000D02*
X118192733Y-76456000D01*
X118535267Y-75436000D02*
X118192733Y-75436000D01*
X114038000Y-75604000D02*
X113038000Y-75604000D01*
X113038000Y-77304000D02*
X114038000Y-77304000D01*
X126876000Y-52192000D02*
X126876000Y-61852000D01*
X126116000Y-51432000D02*
X126876000Y-52192000D01*
X116456000Y-52192000D02*
X117216000Y-51432000D01*
X116456000Y-61852000D02*
X116456000Y-52192000D01*
X126876000Y-61852000D02*
X123226000Y-61852000D01*
X116456000Y-61852000D02*
X120106000Y-61852000D01*
X117216000Y-51432000D02*
X120106000Y-51432000D01*
X126116000Y-51432000D02*
X123226000Y-51432000D01*
X129120000Y-57396000D02*
X129120000Y-56396000D01*
X127420000Y-56396000D02*
X127420000Y-57396000D01*
X113784000Y-85383000D02*
X112784000Y-85383000D01*
X112784000Y-87083000D02*
X113784000Y-87083000D01*
X112815000Y-90305000D02*
X112815000Y-91305000D01*
X114515000Y-91305000D02*
X114515000Y-90305000D01*
X114515000Y-97274000D02*
X114515000Y-96274000D01*
X112815000Y-96274000D02*
X112815000Y-97274000D01*
X167632000Y-51474000D02*
X166632000Y-51474000D01*
X166632000Y-53174000D02*
X167632000Y-53174000D01*
X167632000Y-57062000D02*
X166632000Y-57062000D01*
X166632000Y-58762000D02*
X167632000Y-58762000D01*
X110340000Y-64858000D02*
X111340000Y-64858000D01*
X111340000Y-63158000D02*
X110340000Y-63158000D01*
X156122000Y-88400000D02*
X156122000Y-89400000D01*
X157822000Y-89400000D02*
X157822000Y-88400000D01*
X159854000Y-89400000D02*
X159854000Y-88400000D01*
X158154000Y-88400000D02*
X158154000Y-89400000D01*
X152742000Y-94099000D02*
X152742000Y-93099000D01*
X151042000Y-93099000D02*
X151042000Y-94099000D01*
X159282500Y-100004500D02*
X159282500Y-99004500D01*
X157582500Y-99004500D02*
X157582500Y-100004500D01*
X122420000Y-103925000D02*
X121420000Y-103925000D01*
X121420000Y-105625000D02*
X122420000Y-105625000D01*
X154520000Y-72890000D02*
X154520000Y-71890000D01*
X152820000Y-71890000D02*
X152820000Y-72890000D01*
X150788000Y-71890000D02*
X150788000Y-72890000D01*
X152488000Y-72890000D02*
X152488000Y-71890000D01*
X151876000Y-68568000D02*
X148676000Y-68568000D01*
X148676000Y-67068000D02*
X151876000Y-67068000D01*
X148676000Y-67068000D02*
X148676000Y-68568000D01*
X163080000Y-58588000D02*
X164580000Y-58588000D01*
X163080000Y-58588000D02*
X163080000Y-55388000D01*
X164580000Y-55388000D02*
X164580000Y-58588000D01*
X148676000Y-108470000D02*
X148676000Y-109970000D01*
X148676000Y-108470000D02*
X151876000Y-108470000D01*
X151876000Y-109970000D02*
X148676000Y-109970000D01*
X107794000Y-58688000D02*
X100994000Y-58688000D01*
X107794000Y-54028000D02*
X100994000Y-54028000D01*
D11*
X111267240Y-92304820D02*
X110566200Y-92304820D01*
X111267240Y-92104160D02*
X111267240Y-92304820D01*
X111267240Y-89305180D02*
X111267240Y-89554100D01*
X110566200Y-89305180D02*
X111267240Y-89305180D01*
X111267240Y-92104160D02*
X111267240Y-92055900D01*
X111267240Y-98073160D02*
X111267240Y-98024900D01*
X110566200Y-95274180D02*
X111267240Y-95274180D01*
X111267240Y-95274180D02*
X111267240Y-95523100D01*
X111267240Y-98073160D02*
X111267240Y-98273820D01*
X111267240Y-98273820D02*
X110566200Y-98273820D01*
X147208240Y-67031820D02*
X146507200Y-67031820D01*
X147208240Y-66831160D02*
X147208240Y-67031820D01*
X147208240Y-64032180D02*
X147208240Y-64281100D01*
X146507200Y-64032180D02*
X147208240Y-64032180D01*
X147208240Y-66831160D02*
X147208240Y-66782900D01*
X147208240Y-112805160D02*
X147208240Y-112756900D01*
X146507200Y-110006180D02*
X147208240Y-110006180D01*
X147208240Y-110006180D02*
X147208240Y-110255100D01*
X147208240Y-112805160D02*
X147208240Y-113005820D01*
X147208240Y-113005820D02*
X146507200Y-113005820D01*
D13*
X111440000Y-69427500D02*
X110240000Y-69427500D01*
X110240000Y-67667500D02*
X111440000Y-67667500D01*
X157852000Y-83410500D02*
X157852000Y-84610500D01*
X156092000Y-84610500D02*
X156092000Y-83410500D01*
X158124000Y-84610500D02*
X158124000Y-83410500D01*
X159884000Y-83410500D02*
X159884000Y-84610500D01*
X151576000Y-87444000D02*
X151576000Y-83204000D01*
X151576000Y-83204000D02*
X155416000Y-83204000D01*
X155416000Y-83204000D02*
X155416000Y-87444000D01*
X155416000Y-87444000D02*
X151576000Y-87444000D01*
X152116000Y-86794000D02*
X152116000Y-83894000D01*
X152116000Y-83894000D02*
X154716000Y-83894000D01*
X154716000Y-83894000D02*
X154716000Y-86794000D01*
X154716000Y-86794000D02*
X152116000Y-86794000D01*
X154229941Y-85344000D02*
G75*
G03X154229941Y-85344000I-813941J0D01*
G01*
X153466000Y-85344000D02*
G75*
G03X153466000Y-85344000I-50000J0D01*
G01*
D14*
X165038000Y-82613500D02*
G75*
G03X165038000Y-82613500I-700000J0D01*
G01*
X166938000Y-82613500D02*
G75*
G03X166938000Y-82613500I-2600000J0D01*
G01*
X167438000Y-82613500D02*
G75*
G03X167438000Y-82613500I-3100000J0D01*
G01*
X161138000Y-79413500D02*
X161138000Y-85813500D01*
X161138000Y-79413500D02*
X167538000Y-79413500D01*
X167538000Y-79413500D02*
X167538000Y-85813500D01*
X167538000Y-85813500D02*
X161138000Y-85813500D01*
X167474500Y-99466000D02*
X161074500Y-99466000D01*
X167474500Y-93066000D02*
X167474500Y-99466000D01*
X161074500Y-93066000D02*
X167474500Y-93066000D01*
X161074500Y-93066000D02*
X161074500Y-99466000D01*
X167374500Y-96266000D02*
G75*
G03X167374500Y-96266000I-3100000J0D01*
G01*
X166874500Y-96266000D02*
G75*
G03X166874500Y-96266000I-2600000J0D01*
G01*
X164974500Y-96266000D02*
G75*
G03X164974500Y-96266000I-700000J0D01*
G01*
D13*
X108868000Y-58040000D02*
X108868000Y-61340000D01*
X108868000Y-61340000D02*
X114268000Y-61340000D01*
X108868000Y-58040000D02*
X114268000Y-58040000D01*
X115668000Y-57530000D02*
X115668000Y-54230000D01*
X115668000Y-54230000D02*
X110268000Y-54230000D01*
X115668000Y-57530000D02*
X110268000Y-57530000D01*
D15*
X141527000Y-57338000D02*
X144527000Y-57338000D01*
D16*
X141399260Y-58887360D02*
X141399260Y-53888640D01*
X144604740Y-53888640D02*
X144604740Y-58887360D01*
X143637000Y-55753000D02*
X142367000Y-55753000D01*
X142367000Y-55753000D02*
X143002000Y-56769000D01*
X143637000Y-55753000D02*
X143002000Y-56769000D01*
X143637000Y-56769000D02*
X142367000Y-56769000D01*
D13*
X116547000Y-88905000D02*
X114847000Y-88905000D01*
X114847000Y-88905000D02*
X114847000Y-92055000D01*
X116547000Y-88905000D02*
X116547000Y-92055000D01*
X116547000Y-94874000D02*
X114847000Y-94874000D01*
X114847000Y-94874000D02*
X114847000Y-98024000D01*
X116547000Y-94874000D02*
X116547000Y-98024000D01*
X112740000Y-67112750D02*
X109590000Y-67112750D01*
X112740000Y-65412750D02*
X109590000Y-65412750D01*
X112740000Y-67112750D02*
X112740000Y-65412750D01*
X108940000Y-72302000D02*
X112090000Y-72302000D01*
X108940000Y-74002000D02*
X112090000Y-74002000D01*
X108940000Y-72302000D02*
X108940000Y-74002000D01*
X108940000Y-69982250D02*
X108940000Y-71682250D01*
X108940000Y-71682250D02*
X112090000Y-71682250D01*
X108940000Y-69982250D02*
X112090000Y-69982250D01*
X167230000Y-91312000D02*
X161830000Y-91312000D01*
X167230000Y-88012000D02*
X161830000Y-88012000D01*
X167230000Y-91312000D02*
X167230000Y-88012000D01*
X162462000Y-64898000D02*
X167862000Y-64898000D01*
X162462000Y-68198000D02*
X167862000Y-68198000D01*
X162462000Y-64898000D02*
X162462000Y-68198000D01*
X167692000Y-61460748D02*
X167692000Y-61983252D01*
X169112000Y-61460748D02*
X169112000Y-61983252D01*
X159773252Y-65838000D02*
X159250748Y-65838000D01*
X159773252Y-67258000D02*
X159250748Y-67258000D01*
D11*
X100068540Y-63779399D02*
X100068540Y-73482293D01*
X106473540Y-63817500D02*
X106473540Y-72339700D01*
X106473540Y-73507600D02*
X100068540Y-73507600D01*
X106473540Y-73507600D02*
X106473540Y-64807600D01*
X100063249Y-63792100D02*
X106387900Y-63792100D01*
D13*
X137354000Y-106620000D02*
X138684000Y-106620000D01*
X137354000Y-107950000D02*
X137354000Y-106620000D01*
X137354000Y-109220000D02*
X140014000Y-109220000D01*
X140014000Y-109220000D02*
X140014000Y-116900000D01*
X137354000Y-109220000D02*
X137354000Y-116900000D01*
X137354000Y-116900000D02*
X140014000Y-116900000D01*
X132578000Y-103207000D02*
X132578000Y-105327000D01*
X150638000Y-103207000D02*
X132578000Y-103207000D01*
X150638000Y-105327000D02*
X132578000Y-105327000D01*
X150638000Y-103207000D02*
X150638000Y-105327000D01*
X151638000Y-103207000D02*
X152698000Y-103207000D01*
X152698000Y-103207000D02*
X152698000Y-104267000D01*
D11*
X103458000Y-102082000D02*
X113458000Y-102082000D01*
X116933000Y-110982000D02*
X116933000Y-117882000D01*
X113458000Y-114982000D02*
X113458000Y-102982000D01*
X113458000Y-102982000D02*
X97158000Y-102982000D01*
X99658000Y-114982000D02*
X113458000Y-114982000D01*
X97138000Y-112862000D02*
X99648000Y-114982000D01*
X97158000Y-102982000D02*
X97158000Y-112872000D01*
X116933000Y-117882000D02*
X115958000Y-117882000D01*
X116933000Y-110982000D02*
X115528000Y-110982000D01*
X115528000Y-103132000D02*
X115528000Y-110982000D01*
X103458000Y-117882000D02*
X113458000Y-117882000D01*
X100658000Y-102082000D02*
X100658000Y-117882000D01*
X156385260Y-57150000D02*
G75*
G03X156385260Y-57150000I-5001260J0D01*
G01*
X151384000Y-63149480D02*
X146382740Y-63149480D01*
X146382740Y-63149480D02*
X145384520Y-62151260D01*
X145384520Y-62151260D02*
X145384520Y-52148740D01*
X145384520Y-52148740D02*
X146382740Y-51150520D01*
X146382740Y-51150520D02*
X156385260Y-51150520D01*
X156385260Y-51150520D02*
X157383480Y-52148740D01*
X157383480Y-52148740D02*
X157383480Y-62151260D01*
X157383480Y-62151260D02*
X156385260Y-63149480D01*
X156385260Y-63149480D02*
X151384000Y-63149480D01*
D13*
X157301000Y-99179748D02*
X157301000Y-99702252D01*
X155881000Y-99179748D02*
X155881000Y-99702252D01*
X158942500Y-95205733D02*
X158942500Y-95548267D01*
X157922500Y-95205733D02*
X157922500Y-95548267D01*
X108629267Y-76456000D02*
X108286733Y-76456000D01*
X108629267Y-75436000D02*
X108286733Y-75436000D01*
X106635733Y-90426000D02*
X106978267Y-90426000D01*
X106635733Y-89406000D02*
X106978267Y-89406000D01*
X107091267Y-96395000D02*
X106748733Y-96395000D01*
X107091267Y-95375000D02*
X106748733Y-95375000D01*
X106635733Y-92204000D02*
X106978267Y-92204000D01*
X106635733Y-91184000D02*
X106978267Y-91184000D01*
X106748733Y-98173000D02*
X107091267Y-98173000D01*
X106748733Y-97153000D02*
X107091267Y-97153000D01*
X150450733Y-66550000D02*
X150793267Y-66550000D01*
X150450733Y-65530000D02*
X150793267Y-65530000D01*
X146132733Y-68582000D02*
X146475267Y-68582000D01*
X146132733Y-67562000D02*
X146475267Y-67562000D01*
X166118000Y-55289267D02*
X166118000Y-54946733D01*
X165098000Y-55289267D02*
X165098000Y-54946733D01*
X168658000Y-54946733D02*
X168658000Y-55289267D01*
X167638000Y-54946733D02*
X167638000Y-55289267D01*
X163320000Y-52495267D02*
X163320000Y-52152733D01*
X164340000Y-52495267D02*
X164340000Y-52152733D01*
X146132733Y-70360000D02*
X146475267Y-70360000D01*
X146132733Y-69340000D02*
X146475267Y-69340000D01*
X140714000Y-114890733D02*
X140714000Y-115233267D01*
X141734000Y-114890733D02*
X141734000Y-115233267D01*
X146729267Y-107952000D02*
X146386733Y-107952000D01*
X146729267Y-106932000D02*
X146386733Y-106932000D01*
X141734000Y-111334733D02*
X141734000Y-111677267D01*
X140714000Y-111334733D02*
X140714000Y-111677267D01*
X146386733Y-109476000D02*
X146729267Y-109476000D01*
X146386733Y-108456000D02*
X146729267Y-108456000D01*
X156208000Y-95548267D02*
X156208000Y-95205733D01*
X157228000Y-95548267D02*
X157228000Y-95205733D01*
X151047267Y-112016000D02*
X150704733Y-112016000D01*
X151047267Y-110996000D02*
X150704733Y-110996000D01*
X124377267Y-106424000D02*
X124034733Y-106424000D01*
X124377267Y-107444000D02*
X124034733Y-107444000D01*
X124377267Y-109222000D02*
X124034733Y-109222000D01*
X124377267Y-108202000D02*
X124034733Y-108202000D01*
X124377267Y-109980000D02*
X124034733Y-109980000D01*
X124377267Y-111000000D02*
X124034733Y-111000000D01*
X129928000Y-60378000D02*
X129928000Y-61878000D01*
X129928000Y-61878000D02*
X130878000Y-61878000D01*
X130878000Y-61878000D02*
X130878000Y-67003000D01*
X140328000Y-60378000D02*
X140328000Y-61878000D01*
X140328000Y-61878000D02*
X139378000Y-61878000D01*
X139378000Y-61878000D02*
X139378000Y-62978000D01*
X162534000Y-60546000D02*
X162534000Y-52311000D01*
X162534000Y-52311000D02*
X158014000Y-52311000D01*
X158014000Y-52311000D02*
X158014000Y-60546000D01*
X159444000Y-75644000D02*
X159444000Y-68709000D01*
X159444000Y-68709000D02*
X156024000Y-68709000D01*
X156024000Y-68709000D02*
X156024000Y-75644000D01*
X164524000Y-75644000D02*
X164524000Y-68709000D01*
X164524000Y-68709000D02*
X161104000Y-68709000D01*
X161104000Y-68709000D02*
X161104000Y-75644000D01*
X166184000Y-68709000D02*
X166184000Y-75644000D01*
X169604000Y-68709000D02*
X166184000Y-68709000D01*
X169604000Y-75644000D02*
X169604000Y-68709000D01*
X103378000Y-53470000D02*
X111058000Y-53470000D01*
X111058000Y-53470000D02*
X111058000Y-50670000D01*
X111058000Y-50670000D02*
X103378000Y-50670000D01*
X103378000Y-50670000D02*
X103378000Y-53470000D01*
X102108000Y-53470000D02*
X100778000Y-53470000D01*
X100778000Y-53470000D02*
X100778000Y-52070000D01*
X151576000Y-100525000D02*
X151576000Y-96285000D01*
X151576000Y-96285000D02*
X155416000Y-96285000D01*
X155416000Y-96285000D02*
X155416000Y-100525000D01*
X155416000Y-100525000D02*
X151576000Y-100525000D01*
X152116000Y-99875000D02*
X152116000Y-96975000D01*
X152116000Y-96975000D02*
X154716000Y-96975000D01*
X154716000Y-96975000D02*
X154716000Y-99875000D01*
X154716000Y-99875000D02*
X152116000Y-99875000D01*
X154229941Y-98425000D02*
G75*
G03X154229941Y-98425000I-813941J0D01*
G01*
X153466000Y-98425000D02*
G75*
G03X153466000Y-98425000I-50000J0D01*
G01*
D11*
X123571095Y-71461380D02*
X123571095Y-72270904D01*
X123618714Y-72366142D01*
X123666333Y-72413761D01*
X123761571Y-72461380D01*
X123952047Y-72461380D01*
X124047285Y-72413761D01*
X124094904Y-72366142D01*
X124142523Y-72270904D01*
X124142523Y-71461380D01*
X124523476Y-71461380D02*
X125142523Y-71461380D01*
X124809190Y-71842333D01*
X124952047Y-71842333D01*
X125047285Y-71889952D01*
X125094904Y-71937571D01*
X125142523Y-72032809D01*
X125142523Y-72270904D01*
X125094904Y-72366142D01*
X125047285Y-72413761D01*
X124952047Y-72461380D01*
X124666333Y-72461380D01*
X124571095Y-72413761D01*
X124523476Y-72366142D01*
X119380095Y-110958380D02*
X119380095Y-111767904D01*
X119427714Y-111863142D01*
X119475333Y-111910761D01*
X119570571Y-111958380D01*
X119761047Y-111958380D01*
X119856285Y-111910761D01*
X119903904Y-111863142D01*
X119951523Y-111767904D01*
X119951523Y-110958380D01*
X120856285Y-111291714D02*
X120856285Y-111958380D01*
X120618190Y-110910761D02*
X120380095Y-111625047D01*
X120999142Y-111625047D01*
X149439333Y-91003380D02*
X148963142Y-91003380D01*
X148963142Y-90003380D01*
X149725047Y-90098619D02*
X149772666Y-90051000D01*
X149867904Y-90003380D01*
X150106000Y-90003380D01*
X150201238Y-90051000D01*
X150248857Y-90098619D01*
X150296476Y-90193857D01*
X150296476Y-90289095D01*
X150248857Y-90431952D01*
X149677428Y-91003380D01*
X150296476Y-91003380D01*
X116078095Y-85050380D02*
X116078095Y-85859904D01*
X116125714Y-85955142D01*
X116173333Y-86002761D01*
X116268571Y-86050380D01*
X116459047Y-86050380D01*
X116554285Y-86002761D01*
X116601904Y-85955142D01*
X116649523Y-85859904D01*
X116649523Y-85050380D01*
X117649523Y-86050380D02*
X117078095Y-86050380D01*
X117363809Y-86050380D02*
X117363809Y-85050380D01*
X117268571Y-85193238D01*
X117173333Y-85288476D01*
X117078095Y-85336095D01*
X120864333Y-76398380D02*
X120531000Y-75922190D01*
X120292904Y-76398380D02*
X120292904Y-75398380D01*
X120673857Y-75398380D01*
X120769095Y-75446000D01*
X120816714Y-75493619D01*
X120864333Y-75588857D01*
X120864333Y-75731714D01*
X120816714Y-75826952D01*
X120769095Y-75874571D01*
X120673857Y-75922190D01*
X120292904Y-75922190D01*
X121245285Y-75493619D02*
X121292904Y-75446000D01*
X121388142Y-75398380D01*
X121626238Y-75398380D01*
X121721476Y-75446000D01*
X121769095Y-75493619D01*
X121816714Y-75588857D01*
X121816714Y-75684095D01*
X121769095Y-75826952D01*
X121197666Y-76398380D01*
X121816714Y-76398380D01*
X113371333Y-75287142D02*
X113323714Y-75334761D01*
X113180857Y-75382380D01*
X113085619Y-75382380D01*
X112942761Y-75334761D01*
X112847523Y-75239523D01*
X112799904Y-75144285D01*
X112752285Y-74953809D01*
X112752285Y-74810952D01*
X112799904Y-74620476D01*
X112847523Y-74525238D01*
X112942761Y-74430000D01*
X113085619Y-74382380D01*
X113180857Y-74382380D01*
X113323714Y-74430000D01*
X113371333Y-74477619D01*
X114323714Y-75382380D02*
X113752285Y-75382380D01*
X114038000Y-75382380D02*
X114038000Y-74382380D01*
X113942761Y-74525238D01*
X113847523Y-74620476D01*
X113752285Y-74668095D01*
X118705333Y-63095142D02*
X118657714Y-63142761D01*
X118514857Y-63190380D01*
X118419619Y-63190380D01*
X118276761Y-63142761D01*
X118181523Y-63047523D01*
X118133904Y-62952285D01*
X118086285Y-62761809D01*
X118086285Y-62618952D01*
X118133904Y-62428476D01*
X118181523Y-62333238D01*
X118276761Y-62238000D01*
X118419619Y-62190380D01*
X118514857Y-62190380D01*
X118657714Y-62238000D01*
X118705333Y-62285619D01*
X119086285Y-62285619D02*
X119133904Y-62238000D01*
X119229142Y-62190380D01*
X119467238Y-62190380D01*
X119562476Y-62238000D01*
X119610095Y-62285619D01*
X119657714Y-62380857D01*
X119657714Y-62476095D01*
X119610095Y-62618952D01*
X119038666Y-63190380D01*
X119657714Y-63190380D01*
X116767428Y-51242952D02*
X116767428Y-50481047D01*
X117148380Y-50862000D02*
X116386476Y-50862000D01*
X128103333Y-54205142D02*
X128055714Y-54252761D01*
X127912857Y-54300380D01*
X127817619Y-54300380D01*
X127674761Y-54252761D01*
X127579523Y-54157523D01*
X127531904Y-54062285D01*
X127484285Y-53871809D01*
X127484285Y-53728952D01*
X127531904Y-53538476D01*
X127579523Y-53443238D01*
X127674761Y-53348000D01*
X127817619Y-53300380D01*
X127912857Y-53300380D01*
X128055714Y-53348000D01*
X128103333Y-53395619D01*
X128436666Y-53300380D02*
X129055714Y-53300380D01*
X128722380Y-53681333D01*
X128865238Y-53681333D01*
X128960476Y-53728952D01*
X129008095Y-53776571D01*
X129055714Y-53871809D01*
X129055714Y-54109904D01*
X129008095Y-54205142D01*
X128960476Y-54252761D01*
X128865238Y-54300380D01*
X128579523Y-54300380D01*
X128484285Y-54252761D01*
X128436666Y-54205142D01*
X113117333Y-88340142D02*
X113069714Y-88387761D01*
X112926857Y-88435380D01*
X112831619Y-88435380D01*
X112688761Y-88387761D01*
X112593523Y-88292523D01*
X112545904Y-88197285D01*
X112498285Y-88006809D01*
X112498285Y-87863952D01*
X112545904Y-87673476D01*
X112593523Y-87578238D01*
X112688761Y-87483000D01*
X112831619Y-87435380D01*
X112926857Y-87435380D01*
X113069714Y-87483000D01*
X113117333Y-87530619D01*
X113974476Y-87768714D02*
X113974476Y-88435380D01*
X113736380Y-87387761D02*
X113498285Y-88102047D01*
X114117333Y-88102047D01*
X113498333Y-94210142D02*
X113450714Y-94257761D01*
X113307857Y-94305380D01*
X113212619Y-94305380D01*
X113069761Y-94257761D01*
X112974523Y-94162523D01*
X112926904Y-94067285D01*
X112879285Y-93876809D01*
X112879285Y-93733952D01*
X112926904Y-93543476D01*
X112974523Y-93448238D01*
X113069761Y-93353000D01*
X113212619Y-93305380D01*
X113307857Y-93305380D01*
X113450714Y-93353000D01*
X113498333Y-93400619D01*
X114403095Y-93305380D02*
X113926904Y-93305380D01*
X113879285Y-93781571D01*
X113926904Y-93733952D01*
X114022142Y-93686333D01*
X114260238Y-93686333D01*
X114355476Y-93733952D01*
X114403095Y-93781571D01*
X114450714Y-93876809D01*
X114450714Y-94114904D01*
X114403095Y-94210142D01*
X114355476Y-94257761D01*
X114260238Y-94305380D01*
X114022142Y-94305380D01*
X113926904Y-94257761D01*
X113879285Y-94210142D01*
X113498333Y-100179142D02*
X113450714Y-100226761D01*
X113307857Y-100274380D01*
X113212619Y-100274380D01*
X113069761Y-100226761D01*
X112974523Y-100131523D01*
X112926904Y-100036285D01*
X112879285Y-99845809D01*
X112879285Y-99702952D01*
X112926904Y-99512476D01*
X112974523Y-99417238D01*
X113069761Y-99322000D01*
X113212619Y-99274380D01*
X113307857Y-99274380D01*
X113450714Y-99322000D01*
X113498333Y-99369619D01*
X114355476Y-99274380D02*
X114165000Y-99274380D01*
X114069761Y-99322000D01*
X114022142Y-99369619D01*
X113926904Y-99512476D01*
X113879285Y-99702952D01*
X113879285Y-100083904D01*
X113926904Y-100179142D01*
X113974523Y-100226761D01*
X114069761Y-100274380D01*
X114260238Y-100274380D01*
X114355476Y-100226761D01*
X114403095Y-100179142D01*
X114450714Y-100083904D01*
X114450714Y-99845809D01*
X114403095Y-99750571D01*
X114355476Y-99702952D01*
X114260238Y-99655333D01*
X114069761Y-99655333D01*
X113974523Y-99702952D01*
X113926904Y-99750571D01*
X113879285Y-99845809D01*
X166998666Y-51085714D02*
X166960571Y-51123809D01*
X166846285Y-51161904D01*
X166770095Y-51161904D01*
X166655809Y-51123809D01*
X166579619Y-51047619D01*
X166541523Y-50971428D01*
X166503428Y-50819047D01*
X166503428Y-50704761D01*
X166541523Y-50552380D01*
X166579619Y-50476190D01*
X166655809Y-50400000D01*
X166770095Y-50361904D01*
X166846285Y-50361904D01*
X166960571Y-50400000D01*
X166998666Y-50438095D01*
X167455809Y-50704761D02*
X167379619Y-50666666D01*
X167341523Y-50628571D01*
X167303428Y-50552380D01*
X167303428Y-50514285D01*
X167341523Y-50438095D01*
X167379619Y-50400000D01*
X167455809Y-50361904D01*
X167608190Y-50361904D01*
X167684380Y-50400000D01*
X167722476Y-50438095D01*
X167760571Y-50514285D01*
X167760571Y-50552380D01*
X167722476Y-50628571D01*
X167684380Y-50666666D01*
X167608190Y-50704761D01*
X167455809Y-50704761D01*
X167379619Y-50742857D01*
X167341523Y-50780952D01*
X167303428Y-50857142D01*
X167303428Y-51009523D01*
X167341523Y-51085714D01*
X167379619Y-51123809D01*
X167455809Y-51161904D01*
X167608190Y-51161904D01*
X167684380Y-51123809D01*
X167722476Y-51085714D01*
X167760571Y-51009523D01*
X167760571Y-50857142D01*
X167722476Y-50780952D01*
X167684380Y-50742857D01*
X167608190Y-50704761D01*
X166998666Y-59721714D02*
X166960571Y-59759809D01*
X166846285Y-59797904D01*
X166770095Y-59797904D01*
X166655809Y-59759809D01*
X166579619Y-59683619D01*
X166541523Y-59607428D01*
X166503428Y-59455047D01*
X166503428Y-59340761D01*
X166541523Y-59188380D01*
X166579619Y-59112190D01*
X166655809Y-59036000D01*
X166770095Y-58997904D01*
X166846285Y-58997904D01*
X166960571Y-59036000D01*
X166998666Y-59074095D01*
X167379619Y-59797904D02*
X167532000Y-59797904D01*
X167608190Y-59759809D01*
X167646285Y-59721714D01*
X167722476Y-59607428D01*
X167760571Y-59455047D01*
X167760571Y-59150285D01*
X167722476Y-59074095D01*
X167684380Y-59036000D01*
X167608190Y-58997904D01*
X167455809Y-58997904D01*
X167379619Y-59036000D01*
X167341523Y-59074095D01*
X167303428Y-59150285D01*
X167303428Y-59340761D01*
X167341523Y-59416952D01*
X167379619Y-59455047D01*
X167455809Y-59493142D01*
X167608190Y-59493142D01*
X167684380Y-59455047D01*
X167722476Y-59416952D01*
X167760571Y-59340761D01*
X114007142Y-64365142D02*
X113959523Y-64412761D01*
X113816666Y-64460380D01*
X113721428Y-64460380D01*
X113578571Y-64412761D01*
X113483333Y-64317523D01*
X113435714Y-64222285D01*
X113388095Y-64031809D01*
X113388095Y-63888952D01*
X113435714Y-63698476D01*
X113483333Y-63603238D01*
X113578571Y-63508000D01*
X113721428Y-63460380D01*
X113816666Y-63460380D01*
X113959523Y-63508000D01*
X114007142Y-63555619D01*
X114959523Y-64460380D02*
X114388095Y-64460380D01*
X114673809Y-64460380D02*
X114673809Y-63460380D01*
X114578571Y-63603238D01*
X114483333Y-63698476D01*
X114388095Y-63746095D01*
X115578571Y-63460380D02*
X115673809Y-63460380D01*
X115769047Y-63508000D01*
X115816666Y-63555619D01*
X115864285Y-63650857D01*
X115911904Y-63841333D01*
X115911904Y-64079428D01*
X115864285Y-64269904D01*
X115816666Y-64365142D01*
X115769047Y-64412761D01*
X115673809Y-64460380D01*
X115578571Y-64460380D01*
X115483333Y-64412761D01*
X115435714Y-64365142D01*
X115388095Y-64269904D01*
X115340476Y-64079428D01*
X115340476Y-63841333D01*
X115388095Y-63650857D01*
X115435714Y-63555619D01*
X115483333Y-63508000D01*
X115578571Y-63460380D01*
X155948142Y-92432142D02*
X155900523Y-92479761D01*
X155757666Y-92527380D01*
X155662428Y-92527380D01*
X155519571Y-92479761D01*
X155424333Y-92384523D01*
X155376714Y-92289285D01*
X155329095Y-92098809D01*
X155329095Y-91955952D01*
X155376714Y-91765476D01*
X155424333Y-91670238D01*
X155519571Y-91575000D01*
X155662428Y-91527380D01*
X155757666Y-91527380D01*
X155900523Y-91575000D01*
X155948142Y-91622619D01*
X156900523Y-92527380D02*
X156329095Y-92527380D01*
X156614809Y-92527380D02*
X156614809Y-91527380D01*
X156519571Y-91670238D01*
X156424333Y-91765476D01*
X156329095Y-91813095D01*
X157852904Y-92527380D02*
X157281476Y-92527380D01*
X157567190Y-92527380D02*
X157567190Y-91527380D01*
X157471952Y-91670238D01*
X157376714Y-91765476D01*
X157281476Y-91813095D01*
X158615142Y-92432142D02*
X158567523Y-92479761D01*
X158424666Y-92527380D01*
X158329428Y-92527380D01*
X158186571Y-92479761D01*
X158091333Y-92384523D01*
X158043714Y-92289285D01*
X157996095Y-92098809D01*
X157996095Y-91955952D01*
X158043714Y-91765476D01*
X158091333Y-91670238D01*
X158186571Y-91575000D01*
X158329428Y-91527380D01*
X158424666Y-91527380D01*
X158567523Y-91575000D01*
X158615142Y-91622619D01*
X159567523Y-92527380D02*
X158996095Y-92527380D01*
X159281809Y-92527380D02*
X159281809Y-91527380D01*
X159186571Y-91670238D01*
X159091333Y-91765476D01*
X158996095Y-91813095D01*
X159948476Y-91622619D02*
X159996095Y-91575000D01*
X160091333Y-91527380D01*
X160329428Y-91527380D01*
X160424666Y-91575000D01*
X160472285Y-91622619D01*
X160519904Y-91717857D01*
X160519904Y-91813095D01*
X160472285Y-91955952D01*
X159900857Y-92527380D01*
X160519904Y-92527380D01*
X151249142Y-90908142D02*
X151201523Y-90955761D01*
X151058666Y-91003380D01*
X150963428Y-91003380D01*
X150820571Y-90955761D01*
X150725333Y-90860523D01*
X150677714Y-90765285D01*
X150630095Y-90574809D01*
X150630095Y-90431952D01*
X150677714Y-90241476D01*
X150725333Y-90146238D01*
X150820571Y-90051000D01*
X150963428Y-90003380D01*
X151058666Y-90003380D01*
X151201523Y-90051000D01*
X151249142Y-90098619D01*
X152201523Y-91003380D02*
X151630095Y-91003380D01*
X151915809Y-91003380D02*
X151915809Y-90003380D01*
X151820571Y-90146238D01*
X151725333Y-90241476D01*
X151630095Y-90289095D01*
X152534857Y-90003380D02*
X153153904Y-90003380D01*
X152820571Y-90384333D01*
X152963428Y-90384333D01*
X153058666Y-90431952D01*
X153106285Y-90479571D01*
X153153904Y-90574809D01*
X153153904Y-90812904D01*
X153106285Y-90908142D01*
X153058666Y-90955761D01*
X152963428Y-91003380D01*
X152677714Y-91003380D01*
X152582476Y-90955761D01*
X152534857Y-90908142D01*
X158726142Y-103893857D02*
X158773761Y-103941476D01*
X158821380Y-104084333D01*
X158821380Y-104179571D01*
X158773761Y-104322428D01*
X158678523Y-104417666D01*
X158583285Y-104465285D01*
X158392809Y-104512904D01*
X158249952Y-104512904D01*
X158059476Y-104465285D01*
X157964238Y-104417666D01*
X157869000Y-104322428D01*
X157821380Y-104179571D01*
X157821380Y-104084333D01*
X157869000Y-103941476D01*
X157916619Y-103893857D01*
X158821380Y-102941476D02*
X158821380Y-103512904D01*
X158821380Y-103227190D02*
X157821380Y-103227190D01*
X157964238Y-103322428D01*
X158059476Y-103417666D01*
X158107095Y-103512904D01*
X158154714Y-102084333D02*
X158821380Y-102084333D01*
X157773761Y-102322428D02*
X158488047Y-102560523D01*
X158488047Y-101941476D01*
X121277142Y-103382142D02*
X121229523Y-103429761D01*
X121086666Y-103477380D01*
X120991428Y-103477380D01*
X120848571Y-103429761D01*
X120753333Y-103334523D01*
X120705714Y-103239285D01*
X120658095Y-103048809D01*
X120658095Y-102905952D01*
X120705714Y-102715476D01*
X120753333Y-102620238D01*
X120848571Y-102525000D01*
X120991428Y-102477380D01*
X121086666Y-102477380D01*
X121229523Y-102525000D01*
X121277142Y-102572619D01*
X122229523Y-103477380D02*
X121658095Y-103477380D01*
X121943809Y-103477380D02*
X121943809Y-102477380D01*
X121848571Y-102620238D01*
X121753333Y-102715476D01*
X121658095Y-102763095D01*
X123134285Y-102477380D02*
X122658095Y-102477380D01*
X122610476Y-102953571D01*
X122658095Y-102905952D01*
X122753333Y-102858333D01*
X122991428Y-102858333D01*
X123086666Y-102905952D01*
X123134285Y-102953571D01*
X123181904Y-103048809D01*
X123181904Y-103286904D01*
X123134285Y-103382142D01*
X123086666Y-103429761D01*
X122991428Y-103477380D01*
X122753333Y-103477380D01*
X122658095Y-103429761D01*
X122610476Y-103382142D01*
X154027142Y-76842857D02*
X154074761Y-76890476D01*
X154122380Y-77033333D01*
X154122380Y-77128571D01*
X154074761Y-77271428D01*
X153979523Y-77366666D01*
X153884285Y-77414285D01*
X153693809Y-77461904D01*
X153550952Y-77461904D01*
X153360476Y-77414285D01*
X153265238Y-77366666D01*
X153170000Y-77271428D01*
X153122380Y-77128571D01*
X153122380Y-77033333D01*
X153170000Y-76890476D01*
X153217619Y-76842857D01*
X154122380Y-75890476D02*
X154122380Y-76461904D01*
X154122380Y-76176190D02*
X153122380Y-76176190D01*
X153265238Y-76271428D01*
X153360476Y-76366666D01*
X153408095Y-76461904D01*
X153122380Y-75033333D02*
X153122380Y-75223809D01*
X153170000Y-75319047D01*
X153217619Y-75366666D01*
X153360476Y-75461904D01*
X153550952Y-75509523D01*
X153931904Y-75509523D01*
X154027142Y-75461904D01*
X154074761Y-75414285D01*
X154122380Y-75319047D01*
X154122380Y-75128571D01*
X154074761Y-75033333D01*
X154027142Y-74985714D01*
X153931904Y-74938095D01*
X153693809Y-74938095D01*
X153598571Y-74985714D01*
X153550952Y-75033333D01*
X153503333Y-75128571D01*
X153503333Y-75319047D01*
X153550952Y-75414285D01*
X153598571Y-75461904D01*
X153693809Y-75509523D01*
X151995142Y-76842857D02*
X152042761Y-76890476D01*
X152090380Y-77033333D01*
X152090380Y-77128571D01*
X152042761Y-77271428D01*
X151947523Y-77366666D01*
X151852285Y-77414285D01*
X151661809Y-77461904D01*
X151518952Y-77461904D01*
X151328476Y-77414285D01*
X151233238Y-77366666D01*
X151138000Y-77271428D01*
X151090380Y-77128571D01*
X151090380Y-77033333D01*
X151138000Y-76890476D01*
X151185619Y-76842857D01*
X152090380Y-75890476D02*
X152090380Y-76461904D01*
X152090380Y-76176190D02*
X151090380Y-76176190D01*
X151233238Y-76271428D01*
X151328476Y-76366666D01*
X151376095Y-76461904D01*
X151090380Y-75557142D02*
X151090380Y-74890476D01*
X152090380Y-75319047D01*
X153587523Y-68179904D02*
X153587523Y-67379904D01*
X153778000Y-67379904D01*
X153892285Y-67418000D01*
X153968476Y-67494190D01*
X154006571Y-67570380D01*
X154044666Y-67722761D01*
X154044666Y-67837047D01*
X154006571Y-67989428D01*
X153968476Y-68065619D01*
X153892285Y-68141809D01*
X153778000Y-68179904D01*
X153587523Y-68179904D01*
X154730380Y-67646571D02*
X154730380Y-68179904D01*
X154539904Y-67341809D02*
X154349428Y-67913238D01*
X154844666Y-67913238D01*
X163239523Y-59543904D02*
X163239523Y-58743904D01*
X163430000Y-58743904D01*
X163544285Y-58782000D01*
X163620476Y-58858190D01*
X163658571Y-58934380D01*
X163696666Y-59086761D01*
X163696666Y-59201047D01*
X163658571Y-59353428D01*
X163620476Y-59429619D01*
X163544285Y-59505809D01*
X163430000Y-59543904D01*
X163239523Y-59543904D01*
X163963333Y-58743904D02*
X164496666Y-58743904D01*
X164153809Y-59543904D01*
X149904571Y-108057904D02*
X149904571Y-107257904D01*
X150095047Y-107257904D01*
X150209333Y-107296000D01*
X150285523Y-107372190D01*
X150323619Y-107448380D01*
X150361714Y-107600761D01*
X150361714Y-107715047D01*
X150323619Y-107867428D01*
X150285523Y-107943619D01*
X150209333Y-108019809D01*
X150095047Y-108057904D01*
X149904571Y-108057904D01*
X151123619Y-108057904D02*
X150666476Y-108057904D01*
X150895047Y-108057904D02*
X150895047Y-107257904D01*
X150818857Y-107372190D01*
X150742666Y-107448380D01*
X150666476Y-107486476D01*
X151428380Y-107334095D02*
X151466476Y-107296000D01*
X151542666Y-107257904D01*
X151733142Y-107257904D01*
X151809333Y-107296000D01*
X151847428Y-107334095D01*
X151885523Y-107410285D01*
X151885523Y-107486476D01*
X151847428Y-107600761D01*
X151390285Y-108057904D01*
X151885523Y-108057904D01*
X101774666Y-59872571D02*
X101441333Y-59872571D01*
X101441333Y-60396380D02*
X101441333Y-59396380D01*
X101917523Y-59396380D01*
X102822285Y-60396380D02*
X102250857Y-60396380D01*
X102536571Y-60396380D02*
X102536571Y-59396380D01*
X102441333Y-59539238D01*
X102346095Y-59634476D01*
X102250857Y-59682095D01*
X110267761Y-93892619D02*
X110172523Y-93845000D01*
X110077285Y-93749761D01*
X109934428Y-93606904D01*
X109839190Y-93559285D01*
X109743952Y-93559285D01*
X109791571Y-93797380D02*
X109696333Y-93749761D01*
X109601095Y-93654523D01*
X109553476Y-93464047D01*
X109553476Y-93130714D01*
X109601095Y-92940238D01*
X109696333Y-92845000D01*
X109791571Y-92797380D01*
X109982047Y-92797380D01*
X110077285Y-92845000D01*
X110172523Y-92940238D01*
X110220142Y-93130714D01*
X110220142Y-93464047D01*
X110172523Y-93654523D01*
X110077285Y-93749761D01*
X109982047Y-93797380D01*
X109791571Y-93797380D01*
X111172523Y-93797380D02*
X110601095Y-93797380D01*
X110886809Y-93797380D02*
X110886809Y-92797380D01*
X110791571Y-92940238D01*
X110696333Y-93035476D01*
X110601095Y-93083095D01*
X110521761Y-99607619D02*
X110426523Y-99560000D01*
X110331285Y-99464761D01*
X110188428Y-99321904D01*
X110093190Y-99274285D01*
X109997952Y-99274285D01*
X110045571Y-99512380D02*
X109950333Y-99464761D01*
X109855095Y-99369523D01*
X109807476Y-99179047D01*
X109807476Y-98845714D01*
X109855095Y-98655238D01*
X109950333Y-98560000D01*
X110045571Y-98512380D01*
X110236047Y-98512380D01*
X110331285Y-98560000D01*
X110426523Y-98655238D01*
X110474142Y-98845714D01*
X110474142Y-99179047D01*
X110426523Y-99369523D01*
X110331285Y-99464761D01*
X110236047Y-99512380D01*
X110045571Y-99512380D01*
X110855095Y-98607619D02*
X110902714Y-98560000D01*
X110997952Y-98512380D01*
X111236047Y-98512380D01*
X111331285Y-98560000D01*
X111378904Y-98607619D01*
X111426523Y-98702857D01*
X111426523Y-98798095D01*
X111378904Y-98940952D01*
X110807476Y-99512380D01*
X111426523Y-99512380D01*
X143687809Y-65970095D02*
X143611619Y-65932000D01*
X143535428Y-65855809D01*
X143421142Y-65741523D01*
X143344952Y-65703428D01*
X143268761Y-65703428D01*
X143306857Y-65893904D02*
X143230666Y-65855809D01*
X143154476Y-65779619D01*
X143116380Y-65627238D01*
X143116380Y-65360571D01*
X143154476Y-65208190D01*
X143230666Y-65132000D01*
X143306857Y-65093904D01*
X143459238Y-65093904D01*
X143535428Y-65132000D01*
X143611619Y-65208190D01*
X143649714Y-65360571D01*
X143649714Y-65627238D01*
X143611619Y-65779619D01*
X143535428Y-65855809D01*
X143459238Y-65893904D01*
X143306857Y-65893904D01*
X143916380Y-65093904D02*
X144411619Y-65093904D01*
X144144952Y-65398666D01*
X144259238Y-65398666D01*
X144335428Y-65436761D01*
X144373523Y-65474857D01*
X144411619Y-65551047D01*
X144411619Y-65741523D01*
X144373523Y-65817714D01*
X144335428Y-65855809D01*
X144259238Y-65893904D01*
X144030666Y-65893904D01*
X143954476Y-65855809D01*
X143916380Y-65817714D01*
X146481809Y-114230095D02*
X146405619Y-114192000D01*
X146329428Y-114115809D01*
X146215142Y-114001523D01*
X146138952Y-113963428D01*
X146062761Y-113963428D01*
X146100857Y-114153904D02*
X146024666Y-114115809D01*
X145948476Y-114039619D01*
X145910380Y-113887238D01*
X145910380Y-113620571D01*
X145948476Y-113468190D01*
X146024666Y-113392000D01*
X146100857Y-113353904D01*
X146253238Y-113353904D01*
X146329428Y-113392000D01*
X146405619Y-113468190D01*
X146443714Y-113620571D01*
X146443714Y-113887238D01*
X146405619Y-114039619D01*
X146329428Y-114115809D01*
X146253238Y-114153904D01*
X146100857Y-114153904D01*
X147129428Y-113620571D02*
X147129428Y-114153904D01*
X146938952Y-113315809D02*
X146748476Y-113887238D01*
X147243714Y-113887238D01*
X114007142Y-68999880D02*
X113673809Y-68523690D01*
X113435714Y-68999880D02*
X113435714Y-67999880D01*
X113816666Y-67999880D01*
X113911904Y-68047500D01*
X113959523Y-68095119D01*
X114007142Y-68190357D01*
X114007142Y-68333214D01*
X113959523Y-68428452D01*
X113911904Y-68476071D01*
X113816666Y-68523690D01*
X113435714Y-68523690D01*
X114959523Y-68999880D02*
X114388095Y-68999880D01*
X114673809Y-68999880D02*
X114673809Y-67999880D01*
X114578571Y-68142738D01*
X114483333Y-68237976D01*
X114388095Y-68285595D01*
X115292857Y-67999880D02*
X115911904Y-67999880D01*
X115578571Y-68380833D01*
X115721428Y-68380833D01*
X115816666Y-68428452D01*
X115864285Y-68476071D01*
X115911904Y-68571309D01*
X115911904Y-68809404D01*
X115864285Y-68904642D01*
X115816666Y-68952261D01*
X115721428Y-68999880D01*
X115435714Y-68999880D01*
X115340476Y-68952261D01*
X115292857Y-68904642D01*
X157424380Y-80843357D02*
X156948190Y-81176690D01*
X157424380Y-81414785D02*
X156424380Y-81414785D01*
X156424380Y-81033833D01*
X156472000Y-80938595D01*
X156519619Y-80890976D01*
X156614857Y-80843357D01*
X156757714Y-80843357D01*
X156852952Y-80890976D01*
X156900571Y-80938595D01*
X156948190Y-81033833D01*
X156948190Y-81414785D01*
X157424380Y-79890976D02*
X157424380Y-80462404D01*
X157424380Y-80176690D02*
X156424380Y-80176690D01*
X156567238Y-80271928D01*
X156662476Y-80367166D01*
X156710095Y-80462404D01*
X156757714Y-79033833D02*
X157424380Y-79033833D01*
X156376761Y-79271928D02*
X157091047Y-79510023D01*
X157091047Y-78890976D01*
X159456380Y-80843357D02*
X158980190Y-81176690D01*
X159456380Y-81414785D02*
X158456380Y-81414785D01*
X158456380Y-81033833D01*
X158504000Y-80938595D01*
X158551619Y-80890976D01*
X158646857Y-80843357D01*
X158789714Y-80843357D01*
X158884952Y-80890976D01*
X158932571Y-80938595D01*
X158980190Y-81033833D01*
X158980190Y-81414785D01*
X159456380Y-79890976D02*
X159456380Y-80462404D01*
X159456380Y-80176690D02*
X158456380Y-80176690D01*
X158599238Y-80271928D01*
X158694476Y-80367166D01*
X158742095Y-80462404D01*
X158456380Y-78986214D02*
X158456380Y-79462404D01*
X158932571Y-79510023D01*
X158884952Y-79462404D01*
X158837333Y-79367166D01*
X158837333Y-79129071D01*
X158884952Y-79033833D01*
X158932571Y-78986214D01*
X159027809Y-78938595D01*
X159265904Y-78938595D01*
X159361142Y-78986214D01*
X159408761Y-79033833D01*
X159456380Y-79129071D01*
X159456380Y-79367166D01*
X159408761Y-79462404D01*
X159361142Y-79510023D01*
X150582666Y-87010666D02*
X150582666Y-86534476D01*
X150868380Y-87105904D02*
X149868380Y-86772571D01*
X150868380Y-86439238D01*
X150344571Y-86105904D02*
X150344571Y-85772571D01*
X150868380Y-85629714D02*
X150868380Y-86105904D01*
X149868380Y-86105904D01*
X149868380Y-85629714D01*
X150868380Y-84677333D02*
X150868380Y-85248761D01*
X150868380Y-84963047D02*
X149868380Y-84963047D01*
X150011238Y-85058285D01*
X150106476Y-85153523D01*
X150154095Y-85248761D01*
X163171333Y-78208166D02*
X163647523Y-78208166D01*
X163076095Y-78493880D02*
X163409428Y-77493880D01*
X163742761Y-78493880D01*
X164076095Y-77970071D02*
X164409428Y-77970071D01*
X164552285Y-78493880D02*
X164076095Y-78493880D01*
X164076095Y-77493880D01*
X164552285Y-77493880D01*
X164933238Y-77589119D02*
X164980857Y-77541500D01*
X165076095Y-77493880D01*
X165314190Y-77493880D01*
X165409428Y-77541500D01*
X165457047Y-77589119D01*
X165504666Y-77684357D01*
X165504666Y-77779595D01*
X165457047Y-77922452D01*
X164885619Y-78493880D01*
X165504666Y-78493880D01*
X163107833Y-100750666D02*
X163584023Y-100750666D01*
X163012595Y-101036380D02*
X163345928Y-100036380D01*
X163679261Y-101036380D01*
X164012595Y-100512571D02*
X164345928Y-100512571D01*
X164488785Y-101036380D02*
X164012595Y-101036380D01*
X164012595Y-100036380D01*
X164488785Y-100036380D01*
X165345928Y-100369714D02*
X165345928Y-101036380D01*
X165107833Y-99988761D02*
X164869738Y-100703047D01*
X165488785Y-100703047D01*
X111529904Y-62682380D02*
X111529904Y-61682380D01*
X111768000Y-61682380D01*
X111910857Y-61730000D01*
X112006095Y-61825238D01*
X112053714Y-61920476D01*
X112101333Y-62110952D01*
X112101333Y-62253809D01*
X112053714Y-62444285D01*
X112006095Y-62539523D01*
X111910857Y-62634761D01*
X111768000Y-62682380D01*
X111529904Y-62682380D01*
X113053714Y-62682380D02*
X112482285Y-62682380D01*
X112768000Y-62682380D02*
X112768000Y-61682380D01*
X112672761Y-61825238D01*
X112577523Y-61920476D01*
X112482285Y-61968095D01*
X111529904Y-54046380D02*
X111529904Y-53046380D01*
X111768000Y-53046380D01*
X111910857Y-53094000D01*
X112006095Y-53189238D01*
X112053714Y-53284476D01*
X112101333Y-53474952D01*
X112101333Y-53617809D01*
X112053714Y-53808285D01*
X112006095Y-53903523D01*
X111910857Y-53998761D01*
X111768000Y-54046380D01*
X111529904Y-54046380D01*
X112482285Y-53141619D02*
X112529904Y-53094000D01*
X112625142Y-53046380D01*
X112863238Y-53046380D01*
X112958476Y-53094000D01*
X113006095Y-53141619D01*
X113053714Y-53236857D01*
X113053714Y-53332095D01*
X113006095Y-53474952D01*
X112434666Y-54046380D01*
X113053714Y-54046380D01*
D16*
X142064619Y-52390523D02*
X142064619Y-51120523D01*
X142367000Y-51120523D01*
X142548428Y-51181000D01*
X142669380Y-51301952D01*
X142729857Y-51422904D01*
X142790333Y-51664809D01*
X142790333Y-51846238D01*
X142729857Y-52088142D01*
X142669380Y-52209095D01*
X142548428Y-52330047D01*
X142367000Y-52390523D01*
X142064619Y-52390523D01*
X143213666Y-51120523D02*
X143999857Y-51120523D01*
X143576523Y-51604333D01*
X143757952Y-51604333D01*
X143878904Y-51664809D01*
X143939380Y-51725285D01*
X143999857Y-51846238D01*
X143999857Y-52148619D01*
X143939380Y-52269571D01*
X143878904Y-52330047D01*
X143757952Y-52390523D01*
X143395095Y-52390523D01*
X143274142Y-52330047D01*
X143213666Y-52269571D01*
D11*
X117999380Y-91543095D02*
X116999380Y-91543095D01*
X116999380Y-91305000D01*
X117047000Y-91162142D01*
X117142238Y-91066904D01*
X117237476Y-91019285D01*
X117427952Y-90971666D01*
X117570809Y-90971666D01*
X117761285Y-91019285D01*
X117856523Y-91066904D01*
X117951761Y-91162142D01*
X117999380Y-91305000D01*
X117999380Y-91543095D01*
X116999380Y-90066904D02*
X116999380Y-90543095D01*
X117475571Y-90590714D01*
X117427952Y-90543095D01*
X117380333Y-90447857D01*
X117380333Y-90209761D01*
X117427952Y-90114523D01*
X117475571Y-90066904D01*
X117570809Y-90019285D01*
X117808904Y-90019285D01*
X117904142Y-90066904D01*
X117951761Y-90114523D01*
X117999380Y-90209761D01*
X117999380Y-90447857D01*
X117951761Y-90543095D01*
X117904142Y-90590714D01*
X117999380Y-97512095D02*
X116999380Y-97512095D01*
X116999380Y-97274000D01*
X117047000Y-97131142D01*
X117142238Y-97035904D01*
X117237476Y-96988285D01*
X117427952Y-96940666D01*
X117570809Y-96940666D01*
X117761285Y-96988285D01*
X117856523Y-97035904D01*
X117951761Y-97131142D01*
X117999380Y-97274000D01*
X117999380Y-97512095D01*
X116999380Y-96083523D02*
X116999380Y-96274000D01*
X117047000Y-96369238D01*
X117094619Y-96416857D01*
X117237476Y-96512095D01*
X117427952Y-96559714D01*
X117808904Y-96559714D01*
X117904142Y-96512095D01*
X117951761Y-96464476D01*
X117999380Y-96369238D01*
X117999380Y-96178761D01*
X117951761Y-96083523D01*
X117904142Y-96035904D01*
X117808904Y-95988285D01*
X117570809Y-95988285D01*
X117475571Y-96035904D01*
X117427952Y-96083523D01*
X117380333Y-96178761D01*
X117380333Y-96369238D01*
X117427952Y-96464476D01*
X117475571Y-96512095D01*
X117570809Y-96559714D01*
X113403904Y-66715130D02*
X113403904Y-65715130D01*
X113642000Y-65715130D01*
X113784857Y-65762750D01*
X113880095Y-65857988D01*
X113927714Y-65953226D01*
X113975333Y-66143702D01*
X113975333Y-66286559D01*
X113927714Y-66477035D01*
X113880095Y-66572273D01*
X113784857Y-66667511D01*
X113642000Y-66715130D01*
X113403904Y-66715130D01*
X114546761Y-66143702D02*
X114451523Y-66096083D01*
X114403904Y-66048464D01*
X114356285Y-65953226D01*
X114356285Y-65905607D01*
X114403904Y-65810369D01*
X114451523Y-65762750D01*
X114546761Y-65715130D01*
X114737238Y-65715130D01*
X114832476Y-65762750D01*
X114880095Y-65810369D01*
X114927714Y-65905607D01*
X114927714Y-65953226D01*
X114880095Y-66048464D01*
X114832476Y-66096083D01*
X114737238Y-66143702D01*
X114546761Y-66143702D01*
X114451523Y-66191321D01*
X114403904Y-66238940D01*
X114356285Y-66334178D01*
X114356285Y-66524654D01*
X114403904Y-66619892D01*
X114451523Y-66667511D01*
X114546761Y-66715130D01*
X114737238Y-66715130D01*
X114832476Y-66667511D01*
X114880095Y-66619892D01*
X114927714Y-66524654D01*
X114927714Y-66334178D01*
X114880095Y-66238940D01*
X114832476Y-66191321D01*
X114737238Y-66143702D01*
X113149904Y-73604380D02*
X113149904Y-72604380D01*
X113388000Y-72604380D01*
X113530857Y-72652000D01*
X113626095Y-72747238D01*
X113673714Y-72842476D01*
X113721333Y-73032952D01*
X113721333Y-73175809D01*
X113673714Y-73366285D01*
X113626095Y-73461523D01*
X113530857Y-73556761D01*
X113388000Y-73604380D01*
X113149904Y-73604380D01*
X114197523Y-73604380D02*
X114388000Y-73604380D01*
X114483238Y-73556761D01*
X114530857Y-73509142D01*
X114626095Y-73366285D01*
X114673714Y-73175809D01*
X114673714Y-72794857D01*
X114626095Y-72699619D01*
X114578476Y-72652000D01*
X114483238Y-72604380D01*
X114292761Y-72604380D01*
X114197523Y-72652000D01*
X114149904Y-72699619D01*
X114102285Y-72794857D01*
X114102285Y-73032952D01*
X114149904Y-73128190D01*
X114197523Y-73175809D01*
X114292761Y-73223428D01*
X114483238Y-73223428D01*
X114578476Y-73175809D01*
X114626095Y-73128190D01*
X114673714Y-73032952D01*
X113181714Y-71157630D02*
X113181714Y-70157630D01*
X113419809Y-70157630D01*
X113562666Y-70205250D01*
X113657904Y-70300488D01*
X113705523Y-70395726D01*
X113753142Y-70586202D01*
X113753142Y-70729059D01*
X113705523Y-70919535D01*
X113657904Y-71014773D01*
X113562666Y-71110011D01*
X113419809Y-71157630D01*
X113181714Y-71157630D01*
X114705523Y-71157630D02*
X114134095Y-71157630D01*
X114419809Y-71157630D02*
X114419809Y-70157630D01*
X114324571Y-70300488D01*
X114229333Y-70395726D01*
X114134095Y-70443345D01*
X115324571Y-70157630D02*
X115419809Y-70157630D01*
X115515047Y-70205250D01*
X115562666Y-70252869D01*
X115610285Y-70348107D01*
X115657904Y-70538583D01*
X115657904Y-70776678D01*
X115610285Y-70967154D01*
X115562666Y-71062392D01*
X115515047Y-71110011D01*
X115419809Y-71157630D01*
X115324571Y-71157630D01*
X115229333Y-71110011D01*
X115181714Y-71062392D01*
X115134095Y-70967154D01*
X115086476Y-70776678D01*
X115086476Y-70538583D01*
X115134095Y-70348107D01*
X115181714Y-70252869D01*
X115229333Y-70205250D01*
X115324571Y-70157630D01*
X163123714Y-92654380D02*
X163123714Y-91654380D01*
X163361809Y-91654380D01*
X163504666Y-91702000D01*
X163599904Y-91797238D01*
X163647523Y-91892476D01*
X163695142Y-92082952D01*
X163695142Y-92225809D01*
X163647523Y-92416285D01*
X163599904Y-92511523D01*
X163504666Y-92606761D01*
X163361809Y-92654380D01*
X163123714Y-92654380D01*
X164647523Y-92654380D02*
X164076095Y-92654380D01*
X164361809Y-92654380D02*
X164361809Y-91654380D01*
X164266571Y-91797238D01*
X164171333Y-91892476D01*
X164076095Y-91940095D01*
X165599904Y-92654380D02*
X165028476Y-92654380D01*
X165314190Y-92654380D02*
X165314190Y-91654380D01*
X165218952Y-91797238D01*
X165123714Y-91892476D01*
X165028476Y-91940095D01*
X164636571Y-64623904D02*
X164636571Y-63823904D01*
X164827047Y-63823904D01*
X164941333Y-63862000D01*
X165017523Y-63938190D01*
X165055619Y-64014380D01*
X165093714Y-64166761D01*
X165093714Y-64281047D01*
X165055619Y-64433428D01*
X165017523Y-64509619D01*
X164941333Y-64585809D01*
X164827047Y-64623904D01*
X164636571Y-64623904D01*
X165855619Y-64623904D02*
X165398476Y-64623904D01*
X165627047Y-64623904D02*
X165627047Y-63823904D01*
X165550857Y-63938190D01*
X165474666Y-64014380D01*
X165398476Y-64052476D01*
X166122285Y-63823904D02*
X166617523Y-63823904D01*
X166350857Y-64128666D01*
X166465142Y-64128666D01*
X166541333Y-64166761D01*
X166579428Y-64204857D01*
X166617523Y-64281047D01*
X166617523Y-64471523D01*
X166579428Y-64547714D01*
X166541333Y-64585809D01*
X166465142Y-64623904D01*
X166236571Y-64623904D01*
X166160380Y-64585809D01*
X166122285Y-64547714D01*
X167735333Y-64204857D02*
X167468666Y-64204857D01*
X167468666Y-64623904D02*
X167468666Y-63823904D01*
X167849619Y-63823904D01*
X168421047Y-64204857D02*
X168535333Y-64242952D01*
X168573428Y-64281047D01*
X168611523Y-64357238D01*
X168611523Y-64471523D01*
X168573428Y-64547714D01*
X168535333Y-64585809D01*
X168459142Y-64623904D01*
X168154380Y-64623904D01*
X168154380Y-63823904D01*
X168421047Y-63823904D01*
X168497238Y-63862000D01*
X168535333Y-63900095D01*
X168573428Y-63976285D01*
X168573428Y-64052476D01*
X168535333Y-64128666D01*
X168497238Y-64166761D01*
X168421047Y-64204857D01*
X168154380Y-64204857D01*
X169373428Y-64623904D02*
X168916285Y-64623904D01*
X169144857Y-64623904D02*
X169144857Y-63823904D01*
X169068666Y-63938190D01*
X168992476Y-64014380D01*
X168916285Y-64052476D01*
X158678666Y-64698571D02*
X158345333Y-64698571D01*
X158345333Y-65222380D02*
X158345333Y-64222380D01*
X158821523Y-64222380D01*
X159535809Y-64698571D02*
X159678666Y-64746190D01*
X159726285Y-64793809D01*
X159773904Y-64889047D01*
X159773904Y-65031904D01*
X159726285Y-65127142D01*
X159678666Y-65174761D01*
X159583428Y-65222380D01*
X159202476Y-65222380D01*
X159202476Y-64222380D01*
X159535809Y-64222380D01*
X159631047Y-64270000D01*
X159678666Y-64317619D01*
X159726285Y-64412857D01*
X159726285Y-64508095D01*
X159678666Y-64603333D01*
X159631047Y-64650952D01*
X159535809Y-64698571D01*
X159202476Y-64698571D01*
X160154857Y-64317619D02*
X160202476Y-64270000D01*
X160297714Y-64222380D01*
X160535809Y-64222380D01*
X160631047Y-64270000D01*
X160678666Y-64317619D01*
X160726285Y-64412857D01*
X160726285Y-64508095D01*
X160678666Y-64650952D01*
X160107238Y-65222380D01*
X160726285Y-65222380D01*
X106894380Y-68913333D02*
X107608666Y-68913333D01*
X107751523Y-68960952D01*
X107846761Y-69056190D01*
X107894380Y-69199047D01*
X107894380Y-69294285D01*
X107227714Y-68008571D02*
X107894380Y-68008571D01*
X106846761Y-68246666D02*
X107561047Y-68484761D01*
X107561047Y-67865714D01*
X138350666Y-117308380D02*
X138350666Y-118022666D01*
X138303047Y-118165523D01*
X138207809Y-118260761D01*
X138064952Y-118308380D01*
X137969714Y-118308380D01*
X139303047Y-117308380D02*
X138826857Y-117308380D01*
X138779238Y-117784571D01*
X138826857Y-117736952D01*
X138922095Y-117689333D01*
X139160190Y-117689333D01*
X139255428Y-117736952D01*
X139303047Y-117784571D01*
X139350666Y-117879809D01*
X139350666Y-118117904D01*
X139303047Y-118213142D01*
X139255428Y-118260761D01*
X139160190Y-118308380D01*
X138922095Y-118308380D01*
X138826857Y-118260761D01*
X138779238Y-118213142D01*
X153336666Y-103846380D02*
X153336666Y-104560666D01*
X153289047Y-104703523D01*
X153193809Y-104798761D01*
X153050952Y-104846380D01*
X152955714Y-104846380D01*
X154241428Y-103846380D02*
X154050952Y-103846380D01*
X153955714Y-103894000D01*
X153908095Y-103941619D01*
X153812857Y-104084476D01*
X153765238Y-104274952D01*
X153765238Y-104655904D01*
X153812857Y-104751142D01*
X153860476Y-104798761D01*
X153955714Y-104846380D01*
X154146190Y-104846380D01*
X154241428Y-104798761D01*
X154289047Y-104751142D01*
X154336666Y-104655904D01*
X154336666Y-104417809D01*
X154289047Y-104322571D01*
X154241428Y-104274952D01*
X154146190Y-104227333D01*
X153955714Y-104227333D01*
X153860476Y-104274952D01*
X153812857Y-104322571D01*
X153765238Y-104417809D01*
X107411665Y-108995379D02*
X107411665Y-109709665D01*
X107364046Y-109852522D01*
X107268808Y-109947760D01*
X107125951Y-109995379D01*
X107030713Y-109995379D01*
X107792618Y-108995379D02*
X108459284Y-108995379D01*
X108030713Y-109995379D01*
X147092333Y-50627380D02*
X146616142Y-50627380D01*
X146616142Y-49627380D01*
X147949476Y-50627380D02*
X147378047Y-50627380D01*
X147663761Y-50627380D02*
X147663761Y-49627380D01*
X147568523Y-49770238D01*
X147473285Y-49865476D01*
X147378047Y-49913095D01*
X157043380Y-102401666D02*
X157043380Y-102877857D01*
X156043380Y-102877857D01*
X156043380Y-102163571D02*
X156043380Y-101544523D01*
X156424333Y-101877857D01*
X156424333Y-101735000D01*
X156471952Y-101639761D01*
X156519571Y-101592142D01*
X156614809Y-101544523D01*
X156852904Y-101544523D01*
X156948142Y-101592142D01*
X156995761Y-101639761D01*
X157043380Y-101735000D01*
X157043380Y-102020714D01*
X156995761Y-102115952D01*
X156948142Y-102163571D01*
X158710333Y-93606880D02*
X158234142Y-93606880D01*
X158234142Y-92606880D01*
X159472238Y-92940214D02*
X159472238Y-93606880D01*
X159234142Y-92559261D02*
X158996047Y-93273547D01*
X159615095Y-93273547D01*
X110704333Y-76398380D02*
X110371000Y-75922190D01*
X110132904Y-76398380D02*
X110132904Y-75398380D01*
X110513857Y-75398380D01*
X110609095Y-75446000D01*
X110656714Y-75493619D01*
X110704333Y-75588857D01*
X110704333Y-75731714D01*
X110656714Y-75826952D01*
X110609095Y-75874571D01*
X110513857Y-75922190D01*
X110132904Y-75922190D01*
X111656714Y-76398380D02*
X111085285Y-76398380D01*
X111371000Y-76398380D02*
X111371000Y-75398380D01*
X111275761Y-75541238D01*
X111180523Y-75636476D01*
X111085285Y-75684095D01*
X106640333Y-89098380D02*
X106307000Y-88622190D01*
X106068904Y-89098380D02*
X106068904Y-88098380D01*
X106449857Y-88098380D01*
X106545095Y-88146000D01*
X106592714Y-88193619D01*
X106640333Y-88288857D01*
X106640333Y-88431714D01*
X106592714Y-88526952D01*
X106545095Y-88574571D01*
X106449857Y-88622190D01*
X106068904Y-88622190D01*
X106973666Y-88098380D02*
X107592714Y-88098380D01*
X107259380Y-88479333D01*
X107402238Y-88479333D01*
X107497476Y-88526952D01*
X107545095Y-88574571D01*
X107592714Y-88669809D01*
X107592714Y-88907904D01*
X107545095Y-89003142D01*
X107497476Y-89050761D01*
X107402238Y-89098380D01*
X107116523Y-89098380D01*
X107021285Y-89050761D01*
X106973666Y-89003142D01*
X104227333Y-96337380D02*
X103894000Y-95861190D01*
X103655904Y-96337380D02*
X103655904Y-95337380D01*
X104036857Y-95337380D01*
X104132095Y-95385000D01*
X104179714Y-95432619D01*
X104227333Y-95527857D01*
X104227333Y-95670714D01*
X104179714Y-95765952D01*
X104132095Y-95813571D01*
X104036857Y-95861190D01*
X103655904Y-95861190D01*
X105084476Y-95670714D02*
X105084476Y-96337380D01*
X104846380Y-95289761D02*
X104608285Y-96004047D01*
X105227333Y-96004047D01*
X106640333Y-93670380D02*
X106307000Y-93194190D01*
X106068904Y-93670380D02*
X106068904Y-92670380D01*
X106449857Y-92670380D01*
X106545095Y-92718000D01*
X106592714Y-92765619D01*
X106640333Y-92860857D01*
X106640333Y-93003714D01*
X106592714Y-93098952D01*
X106545095Y-93146571D01*
X106449857Y-93194190D01*
X106068904Y-93194190D01*
X107545095Y-92670380D02*
X107068904Y-92670380D01*
X107021285Y-93146571D01*
X107068904Y-93098952D01*
X107164142Y-93051333D01*
X107402238Y-93051333D01*
X107497476Y-93098952D01*
X107545095Y-93146571D01*
X107592714Y-93241809D01*
X107592714Y-93479904D01*
X107545095Y-93575142D01*
X107497476Y-93622761D01*
X107402238Y-93670380D01*
X107164142Y-93670380D01*
X107068904Y-93622761D01*
X107021285Y-93575142D01*
X104227333Y-98115380D02*
X103894000Y-97639190D01*
X103655904Y-98115380D02*
X103655904Y-97115380D01*
X104036857Y-97115380D01*
X104132095Y-97163000D01*
X104179714Y-97210619D01*
X104227333Y-97305857D01*
X104227333Y-97448714D01*
X104179714Y-97543952D01*
X104132095Y-97591571D01*
X104036857Y-97639190D01*
X103655904Y-97639190D01*
X105084476Y-97115380D02*
X104894000Y-97115380D01*
X104798761Y-97163000D01*
X104751142Y-97210619D01*
X104655904Y-97353476D01*
X104608285Y-97543952D01*
X104608285Y-97924904D01*
X104655904Y-98020142D01*
X104703523Y-98067761D01*
X104798761Y-98115380D01*
X104989238Y-98115380D01*
X105084476Y-98067761D01*
X105132095Y-98020142D01*
X105179714Y-97924904D01*
X105179714Y-97686809D01*
X105132095Y-97591571D01*
X105084476Y-97543952D01*
X104989238Y-97496333D01*
X104798761Y-97496333D01*
X104703523Y-97543952D01*
X104655904Y-97591571D01*
X104608285Y-97686809D01*
X153028666Y-66401904D02*
X152762000Y-66020952D01*
X152571523Y-66401904D02*
X152571523Y-65601904D01*
X152876285Y-65601904D01*
X152952476Y-65640000D01*
X152990571Y-65678095D01*
X153028666Y-65754285D01*
X153028666Y-65868571D01*
X152990571Y-65944761D01*
X152952476Y-65982857D01*
X152876285Y-66020952D01*
X152571523Y-66020952D01*
X153295333Y-65601904D02*
X153828666Y-65601904D01*
X153485809Y-66401904D01*
X143630666Y-68433904D02*
X143364000Y-68052952D01*
X143173523Y-68433904D02*
X143173523Y-67633904D01*
X143478285Y-67633904D01*
X143554476Y-67672000D01*
X143592571Y-67710095D01*
X143630666Y-67786285D01*
X143630666Y-67900571D01*
X143592571Y-67976761D01*
X143554476Y-68014857D01*
X143478285Y-68052952D01*
X143173523Y-68052952D01*
X144087809Y-67976761D02*
X144011619Y-67938666D01*
X143973523Y-67900571D01*
X143935428Y-67824380D01*
X143935428Y-67786285D01*
X143973523Y-67710095D01*
X144011619Y-67672000D01*
X144087809Y-67633904D01*
X144240190Y-67633904D01*
X144316380Y-67672000D01*
X144354476Y-67710095D01*
X144392571Y-67786285D01*
X144392571Y-67824380D01*
X144354476Y-67900571D01*
X144316380Y-67938666D01*
X144240190Y-67976761D01*
X144087809Y-67976761D01*
X144011619Y-68014857D01*
X143973523Y-68052952D01*
X143935428Y-68129142D01*
X143935428Y-68281523D01*
X143973523Y-68357714D01*
X144011619Y-68395809D01*
X144087809Y-68433904D01*
X144240190Y-68433904D01*
X144316380Y-68395809D01*
X144354476Y-68357714D01*
X144392571Y-68281523D01*
X144392571Y-68129142D01*
X144354476Y-68052952D01*
X144316380Y-68014857D01*
X144240190Y-67976761D01*
X167239904Y-55251333D02*
X166858952Y-55518000D01*
X167239904Y-55708476D02*
X166439904Y-55708476D01*
X166439904Y-55403714D01*
X166478000Y-55327523D01*
X166516095Y-55289428D01*
X166592285Y-55251333D01*
X166706571Y-55251333D01*
X166782761Y-55289428D01*
X166820857Y-55327523D01*
X166858952Y-55403714D01*
X166858952Y-55708476D01*
X167239904Y-54870380D02*
X167239904Y-54718000D01*
X167201809Y-54641809D01*
X167163714Y-54603714D01*
X167049428Y-54527523D01*
X166897047Y-54489428D01*
X166592285Y-54489428D01*
X166516095Y-54527523D01*
X166478000Y-54565619D01*
X166439904Y-54641809D01*
X166439904Y-54794190D01*
X166478000Y-54870380D01*
X166516095Y-54908476D01*
X166592285Y-54946571D01*
X166782761Y-54946571D01*
X166858952Y-54908476D01*
X166897047Y-54870380D01*
X166935142Y-54794190D01*
X166935142Y-54641809D01*
X166897047Y-54565619D01*
X166858952Y-54527523D01*
X166782761Y-54489428D01*
X169779904Y-55632285D02*
X169398952Y-55898952D01*
X169779904Y-56089428D02*
X168979904Y-56089428D01*
X168979904Y-55784666D01*
X169018000Y-55708476D01*
X169056095Y-55670380D01*
X169132285Y-55632285D01*
X169246571Y-55632285D01*
X169322761Y-55670380D01*
X169360857Y-55708476D01*
X169398952Y-55784666D01*
X169398952Y-56089428D01*
X169779904Y-54870380D02*
X169779904Y-55327523D01*
X169779904Y-55098952D02*
X168979904Y-55098952D01*
X169094190Y-55175142D01*
X169170380Y-55251333D01*
X169208476Y-55327523D01*
X168979904Y-54375142D02*
X168979904Y-54298952D01*
X169018000Y-54222761D01*
X169056095Y-54184666D01*
X169132285Y-54146571D01*
X169284666Y-54108476D01*
X169475142Y-54108476D01*
X169627523Y-54146571D01*
X169703714Y-54184666D01*
X169741809Y-54222761D01*
X169779904Y-54298952D01*
X169779904Y-54375142D01*
X169741809Y-54451333D01*
X169703714Y-54489428D01*
X169627523Y-54527523D01*
X169475142Y-54565619D01*
X169284666Y-54565619D01*
X169132285Y-54527523D01*
X169056095Y-54489428D01*
X169018000Y-54451333D01*
X168979904Y-54375142D01*
X161537714Y-51923904D02*
X161271047Y-51542952D01*
X161080571Y-51923904D02*
X161080571Y-51123904D01*
X161385333Y-51123904D01*
X161461523Y-51162000D01*
X161499619Y-51200095D01*
X161537714Y-51276285D01*
X161537714Y-51390571D01*
X161499619Y-51466761D01*
X161461523Y-51504857D01*
X161385333Y-51542952D01*
X161080571Y-51542952D01*
X162299619Y-51923904D02*
X161842476Y-51923904D01*
X162071047Y-51923904D02*
X162071047Y-51123904D01*
X161994857Y-51238190D01*
X161918666Y-51314380D01*
X161842476Y-51352476D01*
X163061523Y-51923904D02*
X162604380Y-51923904D01*
X162832952Y-51923904D02*
X162832952Y-51123904D01*
X162756761Y-51238190D01*
X162680571Y-51314380D01*
X162604380Y-51352476D01*
X142995714Y-70211904D02*
X142729047Y-69830952D01*
X142538571Y-70211904D02*
X142538571Y-69411904D01*
X142843333Y-69411904D01*
X142919523Y-69450000D01*
X142957619Y-69488095D01*
X142995714Y-69564285D01*
X142995714Y-69678571D01*
X142957619Y-69754761D01*
X142919523Y-69792857D01*
X142843333Y-69830952D01*
X142538571Y-69830952D01*
X143757619Y-70211904D02*
X143300476Y-70211904D01*
X143529047Y-70211904D02*
X143529047Y-69411904D01*
X143452857Y-69526190D01*
X143376666Y-69602380D01*
X143300476Y-69640476D01*
X144062380Y-69488095D02*
X144100476Y-69450000D01*
X144176666Y-69411904D01*
X144367142Y-69411904D01*
X144443333Y-69450000D01*
X144481428Y-69488095D01*
X144519523Y-69564285D01*
X144519523Y-69640476D01*
X144481428Y-69754761D01*
X144024285Y-70211904D01*
X144519523Y-70211904D01*
X143106380Y-115704857D02*
X142630190Y-116038190D01*
X143106380Y-116276285D02*
X142106380Y-116276285D01*
X142106380Y-115895333D01*
X142154000Y-115800095D01*
X142201619Y-115752476D01*
X142296857Y-115704857D01*
X142439714Y-115704857D01*
X142534952Y-115752476D01*
X142582571Y-115800095D01*
X142630190Y-115895333D01*
X142630190Y-116276285D01*
X143106380Y-114752476D02*
X143106380Y-115323904D01*
X143106380Y-115038190D02*
X142106380Y-115038190D01*
X142249238Y-115133428D01*
X142344476Y-115228666D01*
X142392095Y-115323904D01*
X142106380Y-113895333D02*
X142106380Y-114085809D01*
X142154000Y-114181047D01*
X142201619Y-114228666D01*
X142344476Y-114323904D01*
X142534952Y-114371523D01*
X142915904Y-114371523D01*
X143011142Y-114323904D01*
X143058761Y-114276285D01*
X143106380Y-114181047D01*
X143106380Y-113990571D01*
X143058761Y-113895333D01*
X143011142Y-113847714D01*
X142915904Y-113800095D01*
X142677809Y-113800095D01*
X142582571Y-113847714D01*
X142534952Y-113895333D01*
X142487333Y-113990571D01*
X142487333Y-114181047D01*
X142534952Y-114276285D01*
X142582571Y-114323904D01*
X142677809Y-114371523D01*
X142867142Y-107894380D02*
X142533809Y-107418190D01*
X142295714Y-107894380D02*
X142295714Y-106894380D01*
X142676666Y-106894380D01*
X142771904Y-106942000D01*
X142819523Y-106989619D01*
X142867142Y-107084857D01*
X142867142Y-107227714D01*
X142819523Y-107322952D01*
X142771904Y-107370571D01*
X142676666Y-107418190D01*
X142295714Y-107418190D01*
X143819523Y-107894380D02*
X143248095Y-107894380D01*
X143533809Y-107894380D02*
X143533809Y-106894380D01*
X143438571Y-107037238D01*
X143343333Y-107132476D01*
X143248095Y-107180095D01*
X144152857Y-106894380D02*
X144819523Y-106894380D01*
X144390952Y-107894380D01*
X143200380Y-112148857D02*
X142724190Y-112482190D01*
X143200380Y-112720285D02*
X142200380Y-112720285D01*
X142200380Y-112339333D01*
X142248000Y-112244095D01*
X142295619Y-112196476D01*
X142390857Y-112148857D01*
X142533714Y-112148857D01*
X142628952Y-112196476D01*
X142676571Y-112244095D01*
X142724190Y-112339333D01*
X142724190Y-112720285D01*
X143200380Y-111196476D02*
X143200380Y-111767904D01*
X143200380Y-111482190D02*
X142200380Y-111482190D01*
X142343238Y-111577428D01*
X142438476Y-111672666D01*
X142486095Y-111767904D01*
X142628952Y-110625047D02*
X142581333Y-110720285D01*
X142533714Y-110767904D01*
X142438476Y-110815523D01*
X142390857Y-110815523D01*
X142295619Y-110767904D01*
X142248000Y-110720285D01*
X142200380Y-110625047D01*
X142200380Y-110434571D01*
X142248000Y-110339333D01*
X142295619Y-110291714D01*
X142390857Y-110244095D01*
X142438476Y-110244095D01*
X142533714Y-110291714D01*
X142581333Y-110339333D01*
X142628952Y-110434571D01*
X142628952Y-110625047D01*
X142676571Y-110720285D01*
X142724190Y-110767904D01*
X142819428Y-110815523D01*
X143009904Y-110815523D01*
X143105142Y-110767904D01*
X143152761Y-110720285D01*
X143200380Y-110625047D01*
X143200380Y-110434571D01*
X143152761Y-110339333D01*
X143105142Y-110291714D01*
X143009904Y-110244095D01*
X142819428Y-110244095D01*
X142724190Y-110291714D01*
X142676571Y-110339333D01*
X142628952Y-110434571D01*
X142867142Y-109418380D02*
X142533809Y-108942190D01*
X142295714Y-109418380D02*
X142295714Y-108418380D01*
X142676666Y-108418380D01*
X142771904Y-108466000D01*
X142819523Y-108513619D01*
X142867142Y-108608857D01*
X142867142Y-108751714D01*
X142819523Y-108846952D01*
X142771904Y-108894571D01*
X142676666Y-108942190D01*
X142295714Y-108942190D01*
X143819523Y-109418380D02*
X143248095Y-109418380D01*
X143533809Y-109418380D02*
X143533809Y-108418380D01*
X143438571Y-108561238D01*
X143343333Y-108656476D01*
X143248095Y-108704095D01*
X144295714Y-109418380D02*
X144486190Y-109418380D01*
X144581428Y-109370761D01*
X144629047Y-109323142D01*
X144724285Y-109180285D01*
X144771904Y-108989809D01*
X144771904Y-108608857D01*
X144724285Y-108513619D01*
X144676666Y-108466000D01*
X144581428Y-108418380D01*
X144390952Y-108418380D01*
X144295714Y-108466000D01*
X144248095Y-108513619D01*
X144200476Y-108608857D01*
X144200476Y-108846952D01*
X144248095Y-108942190D01*
X144295714Y-108989809D01*
X144390952Y-109037428D01*
X144581428Y-109037428D01*
X144676666Y-108989809D01*
X144724285Y-108942190D01*
X144771904Y-108846952D01*
X156075142Y-93670380D02*
X155741809Y-93194190D01*
X155503714Y-93670380D02*
X155503714Y-92670380D01*
X155884666Y-92670380D01*
X155979904Y-92718000D01*
X156027523Y-92765619D01*
X156075142Y-92860857D01*
X156075142Y-93003714D01*
X156027523Y-93098952D01*
X155979904Y-93146571D01*
X155884666Y-93194190D01*
X155503714Y-93194190D01*
X156456095Y-92765619D02*
X156503714Y-92718000D01*
X156598952Y-92670380D01*
X156837047Y-92670380D01*
X156932285Y-92718000D01*
X156979904Y-92765619D01*
X157027523Y-92860857D01*
X157027523Y-92956095D01*
X156979904Y-93098952D01*
X156408476Y-93670380D01*
X157027523Y-93670380D01*
X157646571Y-92670380D02*
X157741809Y-92670380D01*
X157837047Y-92718000D01*
X157884666Y-92765619D01*
X157932285Y-92860857D01*
X157979904Y-93051333D01*
X157979904Y-93289428D01*
X157932285Y-93479904D01*
X157884666Y-93575142D01*
X157837047Y-93622761D01*
X157741809Y-93670380D01*
X157646571Y-93670380D01*
X157551333Y-93622761D01*
X157503714Y-93575142D01*
X157456095Y-93479904D01*
X157408476Y-93289428D01*
X157408476Y-93051333D01*
X157456095Y-92860857D01*
X157503714Y-92765619D01*
X157551333Y-92718000D01*
X157646571Y-92670380D01*
X150335714Y-113181904D02*
X150069047Y-112800952D01*
X149878571Y-113181904D02*
X149878571Y-112381904D01*
X150183333Y-112381904D01*
X150259523Y-112420000D01*
X150297619Y-112458095D01*
X150335714Y-112534285D01*
X150335714Y-112648571D01*
X150297619Y-112724761D01*
X150259523Y-112762857D01*
X150183333Y-112800952D01*
X149878571Y-112800952D01*
X150640476Y-112458095D02*
X150678571Y-112420000D01*
X150754761Y-112381904D01*
X150945238Y-112381904D01*
X151021428Y-112420000D01*
X151059523Y-112458095D01*
X151097619Y-112534285D01*
X151097619Y-112610476D01*
X151059523Y-112724761D01*
X150602380Y-113181904D01*
X151097619Y-113181904D01*
X151859523Y-113181904D02*
X151402380Y-113181904D01*
X151630952Y-113181904D02*
X151630952Y-112381904D01*
X151554761Y-112496190D01*
X151478571Y-112572380D01*
X151402380Y-112610476D01*
X126611142Y-107386380D02*
X126277809Y-106910190D01*
X126039714Y-107386380D02*
X126039714Y-106386380D01*
X126420666Y-106386380D01*
X126515904Y-106434000D01*
X126563523Y-106481619D01*
X126611142Y-106576857D01*
X126611142Y-106719714D01*
X126563523Y-106814952D01*
X126515904Y-106862571D01*
X126420666Y-106910190D01*
X126039714Y-106910190D01*
X126992095Y-106481619D02*
X127039714Y-106434000D01*
X127134952Y-106386380D01*
X127373047Y-106386380D01*
X127468285Y-106434000D01*
X127515904Y-106481619D01*
X127563523Y-106576857D01*
X127563523Y-106672095D01*
X127515904Y-106814952D01*
X126944476Y-107386380D01*
X127563523Y-107386380D01*
X127944476Y-106481619D02*
X127992095Y-106434000D01*
X128087333Y-106386380D01*
X128325428Y-106386380D01*
X128420666Y-106434000D01*
X128468285Y-106481619D01*
X128515904Y-106576857D01*
X128515904Y-106672095D01*
X128468285Y-106814952D01*
X127896857Y-107386380D01*
X128515904Y-107386380D01*
X126611142Y-109164380D02*
X126277809Y-108688190D01*
X126039714Y-109164380D02*
X126039714Y-108164380D01*
X126420666Y-108164380D01*
X126515904Y-108212000D01*
X126563523Y-108259619D01*
X126611142Y-108354857D01*
X126611142Y-108497714D01*
X126563523Y-108592952D01*
X126515904Y-108640571D01*
X126420666Y-108688190D01*
X126039714Y-108688190D01*
X126992095Y-108259619D02*
X127039714Y-108212000D01*
X127134952Y-108164380D01*
X127373047Y-108164380D01*
X127468285Y-108212000D01*
X127515904Y-108259619D01*
X127563523Y-108354857D01*
X127563523Y-108450095D01*
X127515904Y-108592952D01*
X126944476Y-109164380D01*
X127563523Y-109164380D01*
X127896857Y-108164380D02*
X128515904Y-108164380D01*
X128182571Y-108545333D01*
X128325428Y-108545333D01*
X128420666Y-108592952D01*
X128468285Y-108640571D01*
X128515904Y-108735809D01*
X128515904Y-108973904D01*
X128468285Y-109069142D01*
X128420666Y-109116761D01*
X128325428Y-109164380D01*
X128039714Y-109164380D01*
X127944476Y-109116761D01*
X127896857Y-109069142D01*
X126611142Y-110942380D02*
X126277809Y-110466190D01*
X126039714Y-110942380D02*
X126039714Y-109942380D01*
X126420666Y-109942380D01*
X126515904Y-109990000D01*
X126563523Y-110037619D01*
X126611142Y-110132857D01*
X126611142Y-110275714D01*
X126563523Y-110370952D01*
X126515904Y-110418571D01*
X126420666Y-110466190D01*
X126039714Y-110466190D01*
X126992095Y-110037619D02*
X127039714Y-109990000D01*
X127134952Y-109942380D01*
X127373047Y-109942380D01*
X127468285Y-109990000D01*
X127515904Y-110037619D01*
X127563523Y-110132857D01*
X127563523Y-110228095D01*
X127515904Y-110370952D01*
X126944476Y-110942380D01*
X127563523Y-110942380D01*
X128420666Y-110275714D02*
X128420666Y-110942380D01*
X128182571Y-109894761D02*
X127944476Y-110609047D01*
X128563523Y-110609047D01*
X134366095Y-49236380D02*
X134366095Y-50045904D01*
X134413714Y-50141142D01*
X134461333Y-50188761D01*
X134556571Y-50236380D01*
X134747047Y-50236380D01*
X134842285Y-50188761D01*
X134889904Y-50141142D01*
X134937523Y-50045904D01*
X134937523Y-49236380D01*
X135366095Y-49331619D02*
X135413714Y-49284000D01*
X135508952Y-49236380D01*
X135747047Y-49236380D01*
X135842285Y-49284000D01*
X135889904Y-49331619D01*
X135937523Y-49426857D01*
X135937523Y-49522095D01*
X135889904Y-49664952D01*
X135318476Y-50236380D01*
X135937523Y-50236380D01*
X160107333Y-63095142D02*
X160059714Y-63142761D01*
X159916857Y-63190380D01*
X159821619Y-63190380D01*
X159678761Y-63142761D01*
X159583523Y-63047523D01*
X159535904Y-62952285D01*
X159488285Y-62761809D01*
X159488285Y-62618952D01*
X159535904Y-62428476D01*
X159583523Y-62333238D01*
X159678761Y-62238000D01*
X159821619Y-62190380D01*
X159916857Y-62190380D01*
X160059714Y-62238000D01*
X160107333Y-62285619D01*
X160440666Y-62190380D02*
X161107333Y-62190380D01*
X160678761Y-63190380D01*
X155551142Y-73032857D02*
X155598761Y-73080476D01*
X155646380Y-73223333D01*
X155646380Y-73318571D01*
X155598761Y-73461428D01*
X155503523Y-73556666D01*
X155408285Y-73604285D01*
X155217809Y-73651904D01*
X155074952Y-73651904D01*
X154884476Y-73604285D01*
X154789238Y-73556666D01*
X154694000Y-73461428D01*
X154646380Y-73318571D01*
X154646380Y-73223333D01*
X154694000Y-73080476D01*
X154741619Y-73032857D01*
X155646380Y-72080476D02*
X155646380Y-72651904D01*
X155646380Y-72366190D02*
X154646380Y-72366190D01*
X154789238Y-72461428D01*
X154884476Y-72556666D01*
X154932095Y-72651904D01*
X155074952Y-71509047D02*
X155027333Y-71604285D01*
X154979714Y-71651904D01*
X154884476Y-71699523D01*
X154836857Y-71699523D01*
X154741619Y-71651904D01*
X154694000Y-71604285D01*
X154646380Y-71509047D01*
X154646380Y-71318571D01*
X154694000Y-71223333D01*
X154741619Y-71175714D01*
X154836857Y-71128095D01*
X154884476Y-71128095D01*
X154979714Y-71175714D01*
X155027333Y-71223333D01*
X155074952Y-71318571D01*
X155074952Y-71509047D01*
X155122571Y-71604285D01*
X155170190Y-71651904D01*
X155265428Y-71699523D01*
X155455904Y-71699523D01*
X155551142Y-71651904D01*
X155598761Y-71604285D01*
X155646380Y-71509047D01*
X155646380Y-71318571D01*
X155598761Y-71223333D01*
X155551142Y-71175714D01*
X155455904Y-71128095D01*
X155265428Y-71128095D01*
X155170190Y-71175714D01*
X155122571Y-71223333D01*
X155074952Y-71318571D01*
X160631142Y-73032857D02*
X160678761Y-73080476D01*
X160726380Y-73223333D01*
X160726380Y-73318571D01*
X160678761Y-73461428D01*
X160583523Y-73556666D01*
X160488285Y-73604285D01*
X160297809Y-73651904D01*
X160154952Y-73651904D01*
X159964476Y-73604285D01*
X159869238Y-73556666D01*
X159774000Y-73461428D01*
X159726380Y-73318571D01*
X159726380Y-73223333D01*
X159774000Y-73080476D01*
X159821619Y-73032857D01*
X160726380Y-72080476D02*
X160726380Y-72651904D01*
X160726380Y-72366190D02*
X159726380Y-72366190D01*
X159869238Y-72461428D01*
X159964476Y-72556666D01*
X160012095Y-72651904D01*
X160726380Y-71604285D02*
X160726380Y-71413809D01*
X160678761Y-71318571D01*
X160631142Y-71270952D01*
X160488285Y-71175714D01*
X160297809Y-71128095D01*
X159916857Y-71128095D01*
X159821619Y-71175714D01*
X159774000Y-71223333D01*
X159726380Y-71318571D01*
X159726380Y-71509047D01*
X159774000Y-71604285D01*
X159821619Y-71651904D01*
X159916857Y-71699523D01*
X160154952Y-71699523D01*
X160250190Y-71651904D01*
X160297809Y-71604285D01*
X160345428Y-71509047D01*
X160345428Y-71318571D01*
X160297809Y-71223333D01*
X160250190Y-71175714D01*
X160154952Y-71128095D01*
X165711142Y-73032857D02*
X165758761Y-73080476D01*
X165806380Y-73223333D01*
X165806380Y-73318571D01*
X165758761Y-73461428D01*
X165663523Y-73556666D01*
X165568285Y-73604285D01*
X165377809Y-73651904D01*
X165234952Y-73651904D01*
X165044476Y-73604285D01*
X164949238Y-73556666D01*
X164854000Y-73461428D01*
X164806380Y-73318571D01*
X164806380Y-73223333D01*
X164854000Y-73080476D01*
X164901619Y-73032857D01*
X164901619Y-72651904D02*
X164854000Y-72604285D01*
X164806380Y-72509047D01*
X164806380Y-72270952D01*
X164854000Y-72175714D01*
X164901619Y-72128095D01*
X164996857Y-72080476D01*
X165092095Y-72080476D01*
X165234952Y-72128095D01*
X165806380Y-72699523D01*
X165806380Y-72080476D01*
X164806380Y-71461428D02*
X164806380Y-71366190D01*
X164854000Y-71270952D01*
X164901619Y-71223333D01*
X164996857Y-71175714D01*
X165187333Y-71128095D01*
X165425428Y-71128095D01*
X165615904Y-71175714D01*
X165711142Y-71223333D01*
X165758761Y-71270952D01*
X165806380Y-71366190D01*
X165806380Y-71461428D01*
X165758761Y-71556666D01*
X165711142Y-71604285D01*
X165615904Y-71651904D01*
X165425428Y-71699523D01*
X165187333Y-71699523D01*
X164996857Y-71651904D01*
X164901619Y-71604285D01*
X164854000Y-71556666D01*
X164806380Y-71461428D01*
X111934666Y-51522380D02*
X111934666Y-52236666D01*
X111887047Y-52379523D01*
X111791809Y-52474761D01*
X111648952Y-52522380D01*
X111553714Y-52522380D01*
X112934666Y-52522380D02*
X112363238Y-52522380D01*
X112648952Y-52522380D02*
X112648952Y-51522380D01*
X112553714Y-51665238D01*
X112458476Y-51760476D01*
X112363238Y-51808095D01*
X150788666Y-99591666D02*
X150788666Y-99115476D01*
X151074380Y-99686904D02*
X150074380Y-99353571D01*
X151074380Y-99020238D01*
X150550571Y-98686904D02*
X150550571Y-98353571D01*
X151074380Y-98210714D02*
X151074380Y-98686904D01*
X150074380Y-98686904D01*
X150074380Y-98210714D01*
X150074380Y-97877380D02*
X150074380Y-97258333D01*
X150455333Y-97591666D01*
X150455333Y-97448809D01*
X150502952Y-97353571D01*
X150550571Y-97305952D01*
X150645809Y-97258333D01*
X150883904Y-97258333D01*
X150979142Y-97305952D01*
X151026761Y-97353571D01*
X151074380Y-97448809D01*
X151074380Y-97734523D01*
X151026761Y-97829761D01*
X150979142Y-97877380D01*
M02*
