G04 #@! TF.GenerationSoftware,KiCad,Pcbnew,(5.1.2)-2*
G04 #@! TF.CreationDate,2019-11-06T08:40:08+07:00*
G04 #@! TF.ProjectId,ph_vresistor_pos_sensor_board_hw,70685f76-7265-4736-9973-746f725f706f,rev?*
G04 #@! TF.SameCoordinates,Original*
G04 #@! TF.FileFunction,Copper,L1,Top*
G04 #@! TF.FilePolarity,Positive*
%FSLAX46Y46*%
G04 Gerber Fmt 4.6, Leading zero omitted, Abs format (unit mm)*
G04 Created by KiCad (PCBNEW (5.1.2)-2) date 2019-11-06 08:40:08*
%MOMM*%
%LPD*%
G04 APERTURE LIST*
%ADD10R,2.300000X1.624000*%
%ADD11O,2.300000X1.724000*%
%ADD12C,0.100000*%
%ADD13C,1.150000*%
%ADD14R,1.000000X1.000000*%
%ADD15R,2.000000X3.500000*%
%ADD16R,7.000000X7.000000*%
%ADD17C,1.100000*%
%ADD18R,1.700000X1.700000*%
%ADD19O,1.700000X1.700000*%
%ADD20R,3.500000X5.500000*%
%ADD21O,3.500000X5.500000*%
%ADD22R,1.254000X0.800100*%
%ADD23C,1.000000*%
%ADD24C,0.700000*%
%ADD25C,0.500000*%
%ADD26C,1.000000*%
%ADD27C,0.325000*%
G04 APERTURE END LIST*
D10*
X104394000Y-91694000D03*
D11*
X104394000Y-89154000D03*
X104394000Y-86614000D03*
X104394000Y-75438000D03*
X104394000Y-77978000D03*
D10*
X104394000Y-80518000D03*
D12*
G36*
X109306505Y-92265204D02*
G01*
X109330773Y-92268804D01*
X109354572Y-92274765D01*
X109377671Y-92283030D01*
X109399850Y-92293520D01*
X109420893Y-92306132D01*
X109440599Y-92320747D01*
X109458777Y-92337223D01*
X109475253Y-92355401D01*
X109489868Y-92375107D01*
X109502480Y-92396150D01*
X109512970Y-92418329D01*
X109521235Y-92441428D01*
X109527196Y-92465227D01*
X109530796Y-92489495D01*
X109532000Y-92513999D01*
X109532000Y-93414001D01*
X109530796Y-93438505D01*
X109527196Y-93462773D01*
X109521235Y-93486572D01*
X109512970Y-93509671D01*
X109502480Y-93531850D01*
X109489868Y-93552893D01*
X109475253Y-93572599D01*
X109458777Y-93590777D01*
X109440599Y-93607253D01*
X109420893Y-93621868D01*
X109399850Y-93634480D01*
X109377671Y-93644970D01*
X109354572Y-93653235D01*
X109330773Y-93659196D01*
X109306505Y-93662796D01*
X109282001Y-93664000D01*
X108631999Y-93664000D01*
X108607495Y-93662796D01*
X108583227Y-93659196D01*
X108559428Y-93653235D01*
X108536329Y-93644970D01*
X108514150Y-93634480D01*
X108493107Y-93621868D01*
X108473401Y-93607253D01*
X108455223Y-93590777D01*
X108438747Y-93572599D01*
X108424132Y-93552893D01*
X108411520Y-93531850D01*
X108401030Y-93509671D01*
X108392765Y-93486572D01*
X108386804Y-93462773D01*
X108383204Y-93438505D01*
X108382000Y-93414001D01*
X108382000Y-92513999D01*
X108383204Y-92489495D01*
X108386804Y-92465227D01*
X108392765Y-92441428D01*
X108401030Y-92418329D01*
X108411520Y-92396150D01*
X108424132Y-92375107D01*
X108438747Y-92355401D01*
X108455223Y-92337223D01*
X108473401Y-92320747D01*
X108493107Y-92306132D01*
X108514150Y-92293520D01*
X108536329Y-92283030D01*
X108559428Y-92274765D01*
X108583227Y-92268804D01*
X108607495Y-92265204D01*
X108631999Y-92264000D01*
X109282001Y-92264000D01*
X109306505Y-92265204D01*
X109306505Y-92265204D01*
G37*
D13*
X108957000Y-92964000D03*
D12*
G36*
X111356505Y-92265204D02*
G01*
X111380773Y-92268804D01*
X111404572Y-92274765D01*
X111427671Y-92283030D01*
X111449850Y-92293520D01*
X111470893Y-92306132D01*
X111490599Y-92320747D01*
X111508777Y-92337223D01*
X111525253Y-92355401D01*
X111539868Y-92375107D01*
X111552480Y-92396150D01*
X111562970Y-92418329D01*
X111571235Y-92441428D01*
X111577196Y-92465227D01*
X111580796Y-92489495D01*
X111582000Y-92513999D01*
X111582000Y-93414001D01*
X111580796Y-93438505D01*
X111577196Y-93462773D01*
X111571235Y-93486572D01*
X111562970Y-93509671D01*
X111552480Y-93531850D01*
X111539868Y-93552893D01*
X111525253Y-93572599D01*
X111508777Y-93590777D01*
X111490599Y-93607253D01*
X111470893Y-93621868D01*
X111449850Y-93634480D01*
X111427671Y-93644970D01*
X111404572Y-93653235D01*
X111380773Y-93659196D01*
X111356505Y-93662796D01*
X111332001Y-93664000D01*
X110681999Y-93664000D01*
X110657495Y-93662796D01*
X110633227Y-93659196D01*
X110609428Y-93653235D01*
X110586329Y-93644970D01*
X110564150Y-93634480D01*
X110543107Y-93621868D01*
X110523401Y-93607253D01*
X110505223Y-93590777D01*
X110488747Y-93572599D01*
X110474132Y-93552893D01*
X110461520Y-93531850D01*
X110451030Y-93509671D01*
X110442765Y-93486572D01*
X110436804Y-93462773D01*
X110433204Y-93438505D01*
X110432000Y-93414001D01*
X110432000Y-92513999D01*
X110433204Y-92489495D01*
X110436804Y-92465227D01*
X110442765Y-92441428D01*
X110451030Y-92418329D01*
X110461520Y-92396150D01*
X110474132Y-92375107D01*
X110488747Y-92355401D01*
X110505223Y-92337223D01*
X110523401Y-92320747D01*
X110543107Y-92306132D01*
X110564150Y-92293520D01*
X110586329Y-92283030D01*
X110609428Y-92274765D01*
X110633227Y-92268804D01*
X110657495Y-92265204D01*
X110681999Y-92264000D01*
X111332001Y-92264000D01*
X111356505Y-92265204D01*
X111356505Y-92265204D01*
G37*
D13*
X111007000Y-92964000D03*
D12*
G36*
X109306505Y-73469204D02*
G01*
X109330773Y-73472804D01*
X109354572Y-73478765D01*
X109377671Y-73487030D01*
X109399850Y-73497520D01*
X109420893Y-73510132D01*
X109440599Y-73524747D01*
X109458777Y-73541223D01*
X109475253Y-73559401D01*
X109489868Y-73579107D01*
X109502480Y-73600150D01*
X109512970Y-73622329D01*
X109521235Y-73645428D01*
X109527196Y-73669227D01*
X109530796Y-73693495D01*
X109532000Y-73717999D01*
X109532000Y-74618001D01*
X109530796Y-74642505D01*
X109527196Y-74666773D01*
X109521235Y-74690572D01*
X109512970Y-74713671D01*
X109502480Y-74735850D01*
X109489868Y-74756893D01*
X109475253Y-74776599D01*
X109458777Y-74794777D01*
X109440599Y-74811253D01*
X109420893Y-74825868D01*
X109399850Y-74838480D01*
X109377671Y-74848970D01*
X109354572Y-74857235D01*
X109330773Y-74863196D01*
X109306505Y-74866796D01*
X109282001Y-74868000D01*
X108631999Y-74868000D01*
X108607495Y-74866796D01*
X108583227Y-74863196D01*
X108559428Y-74857235D01*
X108536329Y-74848970D01*
X108514150Y-74838480D01*
X108493107Y-74825868D01*
X108473401Y-74811253D01*
X108455223Y-74794777D01*
X108438747Y-74776599D01*
X108424132Y-74756893D01*
X108411520Y-74735850D01*
X108401030Y-74713671D01*
X108392765Y-74690572D01*
X108386804Y-74666773D01*
X108383204Y-74642505D01*
X108382000Y-74618001D01*
X108382000Y-73717999D01*
X108383204Y-73693495D01*
X108386804Y-73669227D01*
X108392765Y-73645428D01*
X108401030Y-73622329D01*
X108411520Y-73600150D01*
X108424132Y-73579107D01*
X108438747Y-73559401D01*
X108455223Y-73541223D01*
X108473401Y-73524747D01*
X108493107Y-73510132D01*
X108514150Y-73497520D01*
X108536329Y-73487030D01*
X108559428Y-73478765D01*
X108583227Y-73472804D01*
X108607495Y-73469204D01*
X108631999Y-73468000D01*
X109282001Y-73468000D01*
X109306505Y-73469204D01*
X109306505Y-73469204D01*
G37*
D13*
X108957000Y-74168000D03*
D12*
G36*
X111356505Y-73469204D02*
G01*
X111380773Y-73472804D01*
X111404572Y-73478765D01*
X111427671Y-73487030D01*
X111449850Y-73497520D01*
X111470893Y-73510132D01*
X111490599Y-73524747D01*
X111508777Y-73541223D01*
X111525253Y-73559401D01*
X111539868Y-73579107D01*
X111552480Y-73600150D01*
X111562970Y-73622329D01*
X111571235Y-73645428D01*
X111577196Y-73669227D01*
X111580796Y-73693495D01*
X111582000Y-73717999D01*
X111582000Y-74618001D01*
X111580796Y-74642505D01*
X111577196Y-74666773D01*
X111571235Y-74690572D01*
X111562970Y-74713671D01*
X111552480Y-74735850D01*
X111539868Y-74756893D01*
X111525253Y-74776599D01*
X111508777Y-74794777D01*
X111490599Y-74811253D01*
X111470893Y-74825868D01*
X111449850Y-74838480D01*
X111427671Y-74848970D01*
X111404572Y-74857235D01*
X111380773Y-74863196D01*
X111356505Y-74866796D01*
X111332001Y-74868000D01*
X110681999Y-74868000D01*
X110657495Y-74866796D01*
X110633227Y-74863196D01*
X110609428Y-74857235D01*
X110586329Y-74848970D01*
X110564150Y-74838480D01*
X110543107Y-74825868D01*
X110523401Y-74811253D01*
X110505223Y-74794777D01*
X110488747Y-74776599D01*
X110474132Y-74756893D01*
X110461520Y-74735850D01*
X110451030Y-74713671D01*
X110442765Y-74690572D01*
X110436804Y-74666773D01*
X110433204Y-74642505D01*
X110432000Y-74618001D01*
X110432000Y-73717999D01*
X110433204Y-73693495D01*
X110436804Y-73669227D01*
X110442765Y-73645428D01*
X110451030Y-73622329D01*
X110461520Y-73600150D01*
X110474132Y-73579107D01*
X110488747Y-73559401D01*
X110505223Y-73541223D01*
X110523401Y-73524747D01*
X110543107Y-73510132D01*
X110564150Y-73497520D01*
X110586329Y-73487030D01*
X110609428Y-73478765D01*
X110633227Y-73472804D01*
X110657495Y-73469204D01*
X110681999Y-73468000D01*
X111332001Y-73468000D01*
X111356505Y-73469204D01*
X111356505Y-73469204D01*
G37*
D13*
X111007000Y-74168000D03*
D12*
G36*
X109306505Y-78041204D02*
G01*
X109330773Y-78044804D01*
X109354572Y-78050765D01*
X109377671Y-78059030D01*
X109399850Y-78069520D01*
X109420893Y-78082132D01*
X109440599Y-78096747D01*
X109458777Y-78113223D01*
X109475253Y-78131401D01*
X109489868Y-78151107D01*
X109502480Y-78172150D01*
X109512970Y-78194329D01*
X109521235Y-78217428D01*
X109527196Y-78241227D01*
X109530796Y-78265495D01*
X109532000Y-78289999D01*
X109532000Y-79190001D01*
X109530796Y-79214505D01*
X109527196Y-79238773D01*
X109521235Y-79262572D01*
X109512970Y-79285671D01*
X109502480Y-79307850D01*
X109489868Y-79328893D01*
X109475253Y-79348599D01*
X109458777Y-79366777D01*
X109440599Y-79383253D01*
X109420893Y-79397868D01*
X109399850Y-79410480D01*
X109377671Y-79420970D01*
X109354572Y-79429235D01*
X109330773Y-79435196D01*
X109306505Y-79438796D01*
X109282001Y-79440000D01*
X108631999Y-79440000D01*
X108607495Y-79438796D01*
X108583227Y-79435196D01*
X108559428Y-79429235D01*
X108536329Y-79420970D01*
X108514150Y-79410480D01*
X108493107Y-79397868D01*
X108473401Y-79383253D01*
X108455223Y-79366777D01*
X108438747Y-79348599D01*
X108424132Y-79328893D01*
X108411520Y-79307850D01*
X108401030Y-79285671D01*
X108392765Y-79262572D01*
X108386804Y-79238773D01*
X108383204Y-79214505D01*
X108382000Y-79190001D01*
X108382000Y-78289999D01*
X108383204Y-78265495D01*
X108386804Y-78241227D01*
X108392765Y-78217428D01*
X108401030Y-78194329D01*
X108411520Y-78172150D01*
X108424132Y-78151107D01*
X108438747Y-78131401D01*
X108455223Y-78113223D01*
X108473401Y-78096747D01*
X108493107Y-78082132D01*
X108514150Y-78069520D01*
X108536329Y-78059030D01*
X108559428Y-78050765D01*
X108583227Y-78044804D01*
X108607495Y-78041204D01*
X108631999Y-78040000D01*
X109282001Y-78040000D01*
X109306505Y-78041204D01*
X109306505Y-78041204D01*
G37*
D13*
X108957000Y-78740000D03*
D12*
G36*
X111356505Y-78041204D02*
G01*
X111380773Y-78044804D01*
X111404572Y-78050765D01*
X111427671Y-78059030D01*
X111449850Y-78069520D01*
X111470893Y-78082132D01*
X111490599Y-78096747D01*
X111508777Y-78113223D01*
X111525253Y-78131401D01*
X111539868Y-78151107D01*
X111552480Y-78172150D01*
X111562970Y-78194329D01*
X111571235Y-78217428D01*
X111577196Y-78241227D01*
X111580796Y-78265495D01*
X111582000Y-78289999D01*
X111582000Y-79190001D01*
X111580796Y-79214505D01*
X111577196Y-79238773D01*
X111571235Y-79262572D01*
X111562970Y-79285671D01*
X111552480Y-79307850D01*
X111539868Y-79328893D01*
X111525253Y-79348599D01*
X111508777Y-79366777D01*
X111490599Y-79383253D01*
X111470893Y-79397868D01*
X111449850Y-79410480D01*
X111427671Y-79420970D01*
X111404572Y-79429235D01*
X111380773Y-79435196D01*
X111356505Y-79438796D01*
X111332001Y-79440000D01*
X110681999Y-79440000D01*
X110657495Y-79438796D01*
X110633227Y-79435196D01*
X110609428Y-79429235D01*
X110586329Y-79420970D01*
X110564150Y-79410480D01*
X110543107Y-79397868D01*
X110523401Y-79383253D01*
X110505223Y-79366777D01*
X110488747Y-79348599D01*
X110474132Y-79328893D01*
X110461520Y-79307850D01*
X110451030Y-79285671D01*
X110442765Y-79262572D01*
X110436804Y-79238773D01*
X110433204Y-79214505D01*
X110432000Y-79190001D01*
X110432000Y-78289999D01*
X110433204Y-78265495D01*
X110436804Y-78241227D01*
X110442765Y-78217428D01*
X110451030Y-78194329D01*
X110461520Y-78172150D01*
X110474132Y-78151107D01*
X110488747Y-78131401D01*
X110505223Y-78113223D01*
X110523401Y-78096747D01*
X110543107Y-78082132D01*
X110564150Y-78069520D01*
X110586329Y-78059030D01*
X110609428Y-78050765D01*
X110633227Y-78044804D01*
X110657495Y-78041204D01*
X110681999Y-78040000D01*
X111332001Y-78040000D01*
X111356505Y-78041204D01*
X111356505Y-78041204D01*
G37*
D13*
X111007000Y-78740000D03*
D14*
X108732000Y-87884000D03*
X111232000Y-87884000D03*
D12*
G36*
X123918505Y-78411204D02*
G01*
X123942773Y-78414804D01*
X123966572Y-78420765D01*
X123989671Y-78429030D01*
X124011850Y-78439520D01*
X124032893Y-78452132D01*
X124052599Y-78466747D01*
X124070777Y-78483223D01*
X124087253Y-78501401D01*
X124101868Y-78521107D01*
X124114480Y-78542150D01*
X124124970Y-78564329D01*
X124133235Y-78587428D01*
X124139196Y-78611227D01*
X124142796Y-78635495D01*
X124144000Y-78659999D01*
X124144000Y-79310001D01*
X124142796Y-79334505D01*
X124139196Y-79358773D01*
X124133235Y-79382572D01*
X124124970Y-79405671D01*
X124114480Y-79427850D01*
X124101868Y-79448893D01*
X124087253Y-79468599D01*
X124070777Y-79486777D01*
X124052599Y-79503253D01*
X124032893Y-79517868D01*
X124011850Y-79530480D01*
X123989671Y-79540970D01*
X123966572Y-79549235D01*
X123942773Y-79555196D01*
X123918505Y-79558796D01*
X123894001Y-79560000D01*
X122993999Y-79560000D01*
X122969495Y-79558796D01*
X122945227Y-79555196D01*
X122921428Y-79549235D01*
X122898329Y-79540970D01*
X122876150Y-79530480D01*
X122855107Y-79517868D01*
X122835401Y-79503253D01*
X122817223Y-79486777D01*
X122800747Y-79468599D01*
X122786132Y-79448893D01*
X122773520Y-79427850D01*
X122763030Y-79405671D01*
X122754765Y-79382572D01*
X122748804Y-79358773D01*
X122745204Y-79334505D01*
X122744000Y-79310001D01*
X122744000Y-78659999D01*
X122745204Y-78635495D01*
X122748804Y-78611227D01*
X122754765Y-78587428D01*
X122763030Y-78564329D01*
X122773520Y-78542150D01*
X122786132Y-78521107D01*
X122800747Y-78501401D01*
X122817223Y-78483223D01*
X122835401Y-78466747D01*
X122855107Y-78452132D01*
X122876150Y-78439520D01*
X122898329Y-78429030D01*
X122921428Y-78420765D01*
X122945227Y-78414804D01*
X122969495Y-78411204D01*
X122993999Y-78410000D01*
X123894001Y-78410000D01*
X123918505Y-78411204D01*
X123918505Y-78411204D01*
G37*
D13*
X123444000Y-78985000D03*
D12*
G36*
X123918505Y-80461204D02*
G01*
X123942773Y-80464804D01*
X123966572Y-80470765D01*
X123989671Y-80479030D01*
X124011850Y-80489520D01*
X124032893Y-80502132D01*
X124052599Y-80516747D01*
X124070777Y-80533223D01*
X124087253Y-80551401D01*
X124101868Y-80571107D01*
X124114480Y-80592150D01*
X124124970Y-80614329D01*
X124133235Y-80637428D01*
X124139196Y-80661227D01*
X124142796Y-80685495D01*
X124144000Y-80709999D01*
X124144000Y-81360001D01*
X124142796Y-81384505D01*
X124139196Y-81408773D01*
X124133235Y-81432572D01*
X124124970Y-81455671D01*
X124114480Y-81477850D01*
X124101868Y-81498893D01*
X124087253Y-81518599D01*
X124070777Y-81536777D01*
X124052599Y-81553253D01*
X124032893Y-81567868D01*
X124011850Y-81580480D01*
X123989671Y-81590970D01*
X123966572Y-81599235D01*
X123942773Y-81605196D01*
X123918505Y-81608796D01*
X123894001Y-81610000D01*
X122993999Y-81610000D01*
X122969495Y-81608796D01*
X122945227Y-81605196D01*
X122921428Y-81599235D01*
X122898329Y-81590970D01*
X122876150Y-81580480D01*
X122855107Y-81567868D01*
X122835401Y-81553253D01*
X122817223Y-81536777D01*
X122800747Y-81518599D01*
X122786132Y-81498893D01*
X122773520Y-81477850D01*
X122763030Y-81455671D01*
X122754765Y-81432572D01*
X122748804Y-81408773D01*
X122745204Y-81384505D01*
X122744000Y-81360001D01*
X122744000Y-80709999D01*
X122745204Y-80685495D01*
X122748804Y-80661227D01*
X122754765Y-80637428D01*
X122763030Y-80614329D01*
X122773520Y-80592150D01*
X122786132Y-80571107D01*
X122800747Y-80551401D01*
X122817223Y-80533223D01*
X122835401Y-80516747D01*
X122855107Y-80502132D01*
X122876150Y-80489520D01*
X122898329Y-80479030D01*
X122921428Y-80470765D01*
X122945227Y-80464804D01*
X122969495Y-80461204D01*
X122993999Y-80460000D01*
X123894001Y-80460000D01*
X123918505Y-80461204D01*
X123918505Y-80461204D01*
G37*
D13*
X123444000Y-81035000D03*
D12*
G36*
X109306505Y-89725204D02*
G01*
X109330773Y-89728804D01*
X109354572Y-89734765D01*
X109377671Y-89743030D01*
X109399850Y-89753520D01*
X109420893Y-89766132D01*
X109440599Y-89780747D01*
X109458777Y-89797223D01*
X109475253Y-89815401D01*
X109489868Y-89835107D01*
X109502480Y-89856150D01*
X109512970Y-89878329D01*
X109521235Y-89901428D01*
X109527196Y-89925227D01*
X109530796Y-89949495D01*
X109532000Y-89973999D01*
X109532000Y-90874001D01*
X109530796Y-90898505D01*
X109527196Y-90922773D01*
X109521235Y-90946572D01*
X109512970Y-90969671D01*
X109502480Y-90991850D01*
X109489868Y-91012893D01*
X109475253Y-91032599D01*
X109458777Y-91050777D01*
X109440599Y-91067253D01*
X109420893Y-91081868D01*
X109399850Y-91094480D01*
X109377671Y-91104970D01*
X109354572Y-91113235D01*
X109330773Y-91119196D01*
X109306505Y-91122796D01*
X109282001Y-91124000D01*
X108631999Y-91124000D01*
X108607495Y-91122796D01*
X108583227Y-91119196D01*
X108559428Y-91113235D01*
X108536329Y-91104970D01*
X108514150Y-91094480D01*
X108493107Y-91081868D01*
X108473401Y-91067253D01*
X108455223Y-91050777D01*
X108438747Y-91032599D01*
X108424132Y-91012893D01*
X108411520Y-90991850D01*
X108401030Y-90969671D01*
X108392765Y-90946572D01*
X108386804Y-90922773D01*
X108383204Y-90898505D01*
X108382000Y-90874001D01*
X108382000Y-89973999D01*
X108383204Y-89949495D01*
X108386804Y-89925227D01*
X108392765Y-89901428D01*
X108401030Y-89878329D01*
X108411520Y-89856150D01*
X108424132Y-89835107D01*
X108438747Y-89815401D01*
X108455223Y-89797223D01*
X108473401Y-89780747D01*
X108493107Y-89766132D01*
X108514150Y-89753520D01*
X108536329Y-89743030D01*
X108559428Y-89734765D01*
X108583227Y-89728804D01*
X108607495Y-89725204D01*
X108631999Y-89724000D01*
X109282001Y-89724000D01*
X109306505Y-89725204D01*
X109306505Y-89725204D01*
G37*
D13*
X108957000Y-90424000D03*
D12*
G36*
X111356505Y-89725204D02*
G01*
X111380773Y-89728804D01*
X111404572Y-89734765D01*
X111427671Y-89743030D01*
X111449850Y-89753520D01*
X111470893Y-89766132D01*
X111490599Y-89780747D01*
X111508777Y-89797223D01*
X111525253Y-89815401D01*
X111539868Y-89835107D01*
X111552480Y-89856150D01*
X111562970Y-89878329D01*
X111571235Y-89901428D01*
X111577196Y-89925227D01*
X111580796Y-89949495D01*
X111582000Y-89973999D01*
X111582000Y-90874001D01*
X111580796Y-90898505D01*
X111577196Y-90922773D01*
X111571235Y-90946572D01*
X111562970Y-90969671D01*
X111552480Y-90991850D01*
X111539868Y-91012893D01*
X111525253Y-91032599D01*
X111508777Y-91050777D01*
X111490599Y-91067253D01*
X111470893Y-91081868D01*
X111449850Y-91094480D01*
X111427671Y-91104970D01*
X111404572Y-91113235D01*
X111380773Y-91119196D01*
X111356505Y-91122796D01*
X111332001Y-91124000D01*
X110681999Y-91124000D01*
X110657495Y-91122796D01*
X110633227Y-91119196D01*
X110609428Y-91113235D01*
X110586329Y-91104970D01*
X110564150Y-91094480D01*
X110543107Y-91081868D01*
X110523401Y-91067253D01*
X110505223Y-91050777D01*
X110488747Y-91032599D01*
X110474132Y-91012893D01*
X110461520Y-90991850D01*
X110451030Y-90969671D01*
X110442765Y-90946572D01*
X110436804Y-90922773D01*
X110433204Y-90898505D01*
X110432000Y-90874001D01*
X110432000Y-89973999D01*
X110433204Y-89949495D01*
X110436804Y-89925227D01*
X110442765Y-89901428D01*
X110451030Y-89878329D01*
X110461520Y-89856150D01*
X110474132Y-89835107D01*
X110488747Y-89815401D01*
X110505223Y-89797223D01*
X110523401Y-89780747D01*
X110543107Y-89766132D01*
X110564150Y-89753520D01*
X110586329Y-89743030D01*
X110609428Y-89734765D01*
X110633227Y-89728804D01*
X110657495Y-89725204D01*
X110681999Y-89724000D01*
X111332001Y-89724000D01*
X111356505Y-89725204D01*
X111356505Y-89725204D01*
G37*
D13*
X111007000Y-90424000D03*
D12*
G36*
X109306505Y-75755204D02*
G01*
X109330773Y-75758804D01*
X109354572Y-75764765D01*
X109377671Y-75773030D01*
X109399850Y-75783520D01*
X109420893Y-75796132D01*
X109440599Y-75810747D01*
X109458777Y-75827223D01*
X109475253Y-75845401D01*
X109489868Y-75865107D01*
X109502480Y-75886150D01*
X109512970Y-75908329D01*
X109521235Y-75931428D01*
X109527196Y-75955227D01*
X109530796Y-75979495D01*
X109532000Y-76003999D01*
X109532000Y-76904001D01*
X109530796Y-76928505D01*
X109527196Y-76952773D01*
X109521235Y-76976572D01*
X109512970Y-76999671D01*
X109502480Y-77021850D01*
X109489868Y-77042893D01*
X109475253Y-77062599D01*
X109458777Y-77080777D01*
X109440599Y-77097253D01*
X109420893Y-77111868D01*
X109399850Y-77124480D01*
X109377671Y-77134970D01*
X109354572Y-77143235D01*
X109330773Y-77149196D01*
X109306505Y-77152796D01*
X109282001Y-77154000D01*
X108631999Y-77154000D01*
X108607495Y-77152796D01*
X108583227Y-77149196D01*
X108559428Y-77143235D01*
X108536329Y-77134970D01*
X108514150Y-77124480D01*
X108493107Y-77111868D01*
X108473401Y-77097253D01*
X108455223Y-77080777D01*
X108438747Y-77062599D01*
X108424132Y-77042893D01*
X108411520Y-77021850D01*
X108401030Y-76999671D01*
X108392765Y-76976572D01*
X108386804Y-76952773D01*
X108383204Y-76928505D01*
X108382000Y-76904001D01*
X108382000Y-76003999D01*
X108383204Y-75979495D01*
X108386804Y-75955227D01*
X108392765Y-75931428D01*
X108401030Y-75908329D01*
X108411520Y-75886150D01*
X108424132Y-75865107D01*
X108438747Y-75845401D01*
X108455223Y-75827223D01*
X108473401Y-75810747D01*
X108493107Y-75796132D01*
X108514150Y-75783520D01*
X108536329Y-75773030D01*
X108559428Y-75764765D01*
X108583227Y-75758804D01*
X108607495Y-75755204D01*
X108631999Y-75754000D01*
X109282001Y-75754000D01*
X109306505Y-75755204D01*
X109306505Y-75755204D01*
G37*
D13*
X108957000Y-76454000D03*
D12*
G36*
X111356505Y-75755204D02*
G01*
X111380773Y-75758804D01*
X111404572Y-75764765D01*
X111427671Y-75773030D01*
X111449850Y-75783520D01*
X111470893Y-75796132D01*
X111490599Y-75810747D01*
X111508777Y-75827223D01*
X111525253Y-75845401D01*
X111539868Y-75865107D01*
X111552480Y-75886150D01*
X111562970Y-75908329D01*
X111571235Y-75931428D01*
X111577196Y-75955227D01*
X111580796Y-75979495D01*
X111582000Y-76003999D01*
X111582000Y-76904001D01*
X111580796Y-76928505D01*
X111577196Y-76952773D01*
X111571235Y-76976572D01*
X111562970Y-76999671D01*
X111552480Y-77021850D01*
X111539868Y-77042893D01*
X111525253Y-77062599D01*
X111508777Y-77080777D01*
X111490599Y-77097253D01*
X111470893Y-77111868D01*
X111449850Y-77124480D01*
X111427671Y-77134970D01*
X111404572Y-77143235D01*
X111380773Y-77149196D01*
X111356505Y-77152796D01*
X111332001Y-77154000D01*
X110681999Y-77154000D01*
X110657495Y-77152796D01*
X110633227Y-77149196D01*
X110609428Y-77143235D01*
X110586329Y-77134970D01*
X110564150Y-77124480D01*
X110543107Y-77111868D01*
X110523401Y-77097253D01*
X110505223Y-77080777D01*
X110488747Y-77062599D01*
X110474132Y-77042893D01*
X110461520Y-77021850D01*
X110451030Y-76999671D01*
X110442765Y-76976572D01*
X110436804Y-76952773D01*
X110433204Y-76928505D01*
X110432000Y-76904001D01*
X110432000Y-76003999D01*
X110433204Y-75979495D01*
X110436804Y-75955227D01*
X110442765Y-75931428D01*
X110451030Y-75908329D01*
X110461520Y-75886150D01*
X110474132Y-75865107D01*
X110488747Y-75845401D01*
X110505223Y-75827223D01*
X110523401Y-75810747D01*
X110543107Y-75796132D01*
X110564150Y-75783520D01*
X110586329Y-75773030D01*
X110609428Y-75764765D01*
X110633227Y-75758804D01*
X110657495Y-75755204D01*
X110681999Y-75754000D01*
X111332001Y-75754000D01*
X111356505Y-75755204D01*
X111356505Y-75755204D01*
G37*
D13*
X111007000Y-76454000D03*
D12*
G36*
X109306505Y-84899204D02*
G01*
X109330773Y-84902804D01*
X109354572Y-84908765D01*
X109377671Y-84917030D01*
X109399850Y-84927520D01*
X109420893Y-84940132D01*
X109440599Y-84954747D01*
X109458777Y-84971223D01*
X109475253Y-84989401D01*
X109489868Y-85009107D01*
X109502480Y-85030150D01*
X109512970Y-85052329D01*
X109521235Y-85075428D01*
X109527196Y-85099227D01*
X109530796Y-85123495D01*
X109532000Y-85147999D01*
X109532000Y-86048001D01*
X109530796Y-86072505D01*
X109527196Y-86096773D01*
X109521235Y-86120572D01*
X109512970Y-86143671D01*
X109502480Y-86165850D01*
X109489868Y-86186893D01*
X109475253Y-86206599D01*
X109458777Y-86224777D01*
X109440599Y-86241253D01*
X109420893Y-86255868D01*
X109399850Y-86268480D01*
X109377671Y-86278970D01*
X109354572Y-86287235D01*
X109330773Y-86293196D01*
X109306505Y-86296796D01*
X109282001Y-86298000D01*
X108631999Y-86298000D01*
X108607495Y-86296796D01*
X108583227Y-86293196D01*
X108559428Y-86287235D01*
X108536329Y-86278970D01*
X108514150Y-86268480D01*
X108493107Y-86255868D01*
X108473401Y-86241253D01*
X108455223Y-86224777D01*
X108438747Y-86206599D01*
X108424132Y-86186893D01*
X108411520Y-86165850D01*
X108401030Y-86143671D01*
X108392765Y-86120572D01*
X108386804Y-86096773D01*
X108383204Y-86072505D01*
X108382000Y-86048001D01*
X108382000Y-85147999D01*
X108383204Y-85123495D01*
X108386804Y-85099227D01*
X108392765Y-85075428D01*
X108401030Y-85052329D01*
X108411520Y-85030150D01*
X108424132Y-85009107D01*
X108438747Y-84989401D01*
X108455223Y-84971223D01*
X108473401Y-84954747D01*
X108493107Y-84940132D01*
X108514150Y-84927520D01*
X108536329Y-84917030D01*
X108559428Y-84908765D01*
X108583227Y-84902804D01*
X108607495Y-84899204D01*
X108631999Y-84898000D01*
X109282001Y-84898000D01*
X109306505Y-84899204D01*
X109306505Y-84899204D01*
G37*
D13*
X108957000Y-85598000D03*
D12*
G36*
X111356505Y-84899204D02*
G01*
X111380773Y-84902804D01*
X111404572Y-84908765D01*
X111427671Y-84917030D01*
X111449850Y-84927520D01*
X111470893Y-84940132D01*
X111490599Y-84954747D01*
X111508777Y-84971223D01*
X111525253Y-84989401D01*
X111539868Y-85009107D01*
X111552480Y-85030150D01*
X111562970Y-85052329D01*
X111571235Y-85075428D01*
X111577196Y-85099227D01*
X111580796Y-85123495D01*
X111582000Y-85147999D01*
X111582000Y-86048001D01*
X111580796Y-86072505D01*
X111577196Y-86096773D01*
X111571235Y-86120572D01*
X111562970Y-86143671D01*
X111552480Y-86165850D01*
X111539868Y-86186893D01*
X111525253Y-86206599D01*
X111508777Y-86224777D01*
X111490599Y-86241253D01*
X111470893Y-86255868D01*
X111449850Y-86268480D01*
X111427671Y-86278970D01*
X111404572Y-86287235D01*
X111380773Y-86293196D01*
X111356505Y-86296796D01*
X111332001Y-86298000D01*
X110681999Y-86298000D01*
X110657495Y-86296796D01*
X110633227Y-86293196D01*
X110609428Y-86287235D01*
X110586329Y-86278970D01*
X110564150Y-86268480D01*
X110543107Y-86255868D01*
X110523401Y-86241253D01*
X110505223Y-86224777D01*
X110488747Y-86206599D01*
X110474132Y-86186893D01*
X110461520Y-86165850D01*
X110451030Y-86143671D01*
X110442765Y-86120572D01*
X110436804Y-86096773D01*
X110433204Y-86072505D01*
X110432000Y-86048001D01*
X110432000Y-85147999D01*
X110433204Y-85123495D01*
X110436804Y-85099227D01*
X110442765Y-85075428D01*
X110451030Y-85052329D01*
X110461520Y-85030150D01*
X110474132Y-85009107D01*
X110488747Y-84989401D01*
X110505223Y-84971223D01*
X110523401Y-84954747D01*
X110543107Y-84940132D01*
X110564150Y-84927520D01*
X110586329Y-84917030D01*
X110609428Y-84908765D01*
X110633227Y-84902804D01*
X110657495Y-84899204D01*
X110681999Y-84898000D01*
X111332001Y-84898000D01*
X111356505Y-84899204D01*
X111356505Y-84899204D01*
G37*
D13*
X111007000Y-85598000D03*
D15*
X115556000Y-87633000D03*
X120136000Y-87633000D03*
D16*
X117856000Y-80233000D03*
D17*
X115856000Y-82058000D03*
X115856000Y-81058000D03*
X115856000Y-80058000D03*
X115856000Y-79058000D03*
X115856000Y-78058000D03*
X116856000Y-78058000D03*
X116856000Y-79058000D03*
X116856000Y-80058000D03*
X116856000Y-81058000D03*
X116856000Y-82058000D03*
X117856000Y-78058000D03*
X117856000Y-79058000D03*
X117856000Y-80058000D03*
X117856000Y-81058000D03*
X117856000Y-82058000D03*
X118856000Y-78058000D03*
X118856000Y-79058000D03*
X118856000Y-80058000D03*
X118856000Y-81058000D03*
X118856000Y-82058000D03*
X119856000Y-78058000D03*
X119856000Y-79058000D03*
X119856000Y-80058000D03*
X119856000Y-81058000D03*
X119856000Y-82058000D03*
D18*
X123444000Y-84582000D03*
D19*
X123444000Y-87122000D03*
D20*
X86995000Y-82816700D03*
D21*
X92075000Y-82816700D03*
X97155000Y-82816700D03*
D22*
X110982760Y-82484000D03*
X110982760Y-80584000D03*
X108982000Y-81534000D03*
D23*
X116332000Y-88646000D03*
X114808000Y-88646000D03*
X116332000Y-86614000D03*
X114808000Y-86614000D03*
X108712000Y-87884000D03*
X115570000Y-87630000D03*
X119000000Y-93500000D03*
X117750000Y-93500000D03*
X115250000Y-92250000D03*
X116500000Y-93500000D03*
X120250000Y-92250000D03*
X116500000Y-92250000D03*
X115250000Y-93500000D03*
X119000000Y-92250000D03*
X120250000Y-93500000D03*
X117750000Y-92250000D03*
X111252000Y-87884000D03*
X110998000Y-78740000D03*
X85000000Y-77500000D03*
X85000000Y-78750000D03*
X89500000Y-73750000D03*
X90750000Y-73750000D03*
X92000000Y-73750000D03*
X93250000Y-73750000D03*
X94500000Y-73750000D03*
X95750000Y-73750000D03*
X97000000Y-73750000D03*
X98250000Y-73750000D03*
X99500000Y-73750000D03*
X100750000Y-73750000D03*
X120250000Y-73750000D03*
X119000000Y-73750000D03*
X117750000Y-73750000D03*
X116500000Y-73750000D03*
X115250000Y-73750000D03*
X120250000Y-75000000D03*
X119000000Y-75000000D03*
X117750000Y-75000000D03*
X116500000Y-75000000D03*
X115250000Y-75000000D03*
X120904000Y-86614000D03*
X119380000Y-86614000D03*
X110998000Y-90424000D03*
X119380000Y-88646000D03*
X120904000Y-88646000D03*
X120142000Y-87630000D03*
D24*
X104394000Y-91694000D02*
X108957000Y-91694000D01*
X108957000Y-92964000D02*
X108957000Y-90424000D01*
X108957000Y-88109000D02*
X108712000Y-87884000D01*
X108957000Y-90424000D02*
X108957000Y-88109000D01*
X108712000Y-87884000D02*
X108732000Y-87884000D01*
X112014000Y-92964000D02*
X111007000Y-92964000D01*
X112776000Y-92202000D02*
X112014000Y-92964000D01*
X112776000Y-86614000D02*
X112776000Y-92202000D01*
X111007000Y-85598000D02*
X111760000Y-85598000D01*
X111760000Y-85598000D02*
X112776000Y-86614000D01*
D25*
X112334000Y-82484000D02*
X110982760Y-82484000D01*
X113538000Y-81280000D02*
X112334000Y-82484000D01*
X113538000Y-75438000D02*
X113538000Y-81280000D01*
X111007000Y-74168000D02*
X112268000Y-74168000D01*
X112268000Y-74168000D02*
X113538000Y-75438000D01*
X111007000Y-82508240D02*
X110982760Y-82484000D01*
X111007000Y-85598000D02*
X111007000Y-82508240D01*
D24*
X108966000Y-78740000D02*
X108957000Y-78740000D01*
D25*
X108957000Y-81509000D02*
X108982000Y-81534000D01*
X108957000Y-78740000D02*
X108957000Y-81509000D01*
D24*
X119104000Y-78985000D02*
X117856000Y-80233000D01*
X123444000Y-78985000D02*
X119104000Y-78985000D01*
X123444000Y-81035000D02*
X123444000Y-84582000D01*
D25*
X112109760Y-80584000D02*
X110982760Y-80584000D01*
X112522000Y-80171760D02*
X112109760Y-80584000D01*
X112522000Y-76962000D02*
X112522000Y-80171760D01*
X111007000Y-76454000D02*
X112014000Y-76454000D01*
X112014000Y-76454000D02*
X112522000Y-76962000D01*
D26*
X102244000Y-77978000D02*
X104394000Y-77978000D01*
X99958000Y-75692000D02*
X102244000Y-77978000D01*
X90369700Y-75692000D02*
X99958000Y-75692000D01*
X86995000Y-82816700D02*
X86995000Y-79066700D01*
X86995000Y-79066700D02*
X90369700Y-75692000D01*
X108957000Y-84319000D02*
X108957000Y-85598000D01*
X108204000Y-83566000D02*
X108957000Y-84319000D01*
X102108000Y-83566000D02*
X108204000Y-83566000D01*
X92075000Y-82816700D02*
X92075000Y-79066700D01*
X92909700Y-78232000D02*
X99314000Y-78232000D01*
X99314000Y-78232000D02*
X101346000Y-80264000D01*
X101346000Y-80264000D02*
X101346000Y-82804000D01*
X92075000Y-79066700D02*
X92909700Y-78232000D01*
X101346000Y-82804000D02*
X102108000Y-83566000D01*
X102244000Y-89154000D02*
X104394000Y-89154000D01*
X99742300Y-89154000D02*
X102244000Y-89154000D01*
X97155000Y-86566700D02*
X99742300Y-89154000D01*
X97155000Y-82816700D02*
X97155000Y-86566700D01*
D27*
G36*
X116931500Y-89499500D02*
G01*
X114208500Y-89499500D01*
X114208500Y-85760500D01*
X116931500Y-85760500D01*
X116931500Y-89499500D01*
X116931500Y-89499500D01*
G37*
X116931500Y-89499500D02*
X114208500Y-89499500D01*
X114208500Y-85760500D01*
X116931500Y-85760500D01*
X116931500Y-89499500D01*
G36*
X121503500Y-89499500D02*
G01*
X118780500Y-89499500D01*
X118780500Y-85760500D01*
X121503500Y-85760500D01*
X121503500Y-89499500D01*
X121503500Y-89499500D01*
G37*
X121503500Y-89499500D02*
X118780500Y-89499500D01*
X118780500Y-85760500D01*
X121503500Y-85760500D01*
X121503500Y-89499500D01*
G36*
X122594000Y-86223310D02*
G01*
X124294000Y-86223310D01*
X124412501Y-86211639D01*
X124412501Y-90587500D01*
X121250000Y-90587500D01*
X121218298Y-90590622D01*
X121187814Y-90599870D01*
X121159720Y-90614886D01*
X121135095Y-90635095D01*
X121114886Y-90659720D01*
X121099870Y-90687814D01*
X121090622Y-90718298D01*
X121087500Y-90750000D01*
X121087500Y-93904500D01*
X112661047Y-93904500D01*
X112822225Y-93772225D01*
X112857844Y-93728823D01*
X113540823Y-93045844D01*
X113584225Y-93010225D01*
X113681103Y-92892179D01*
X113726372Y-92837019D01*
X113803946Y-92691887D01*
X113831997Y-92639408D01*
X113897041Y-92424989D01*
X113913500Y-92257874D01*
X113913500Y-92257864D01*
X113919002Y-92202000D01*
X113913500Y-92146136D01*
X113913500Y-90436450D01*
X114046000Y-90449500D01*
X117094000Y-90449500D01*
X117247634Y-90434368D01*
X117395363Y-90389555D01*
X117531512Y-90316782D01*
X117650847Y-90218847D01*
X117748782Y-90099512D01*
X117821555Y-89963363D01*
X117856000Y-89849813D01*
X117890445Y-89963363D01*
X117963218Y-90099512D01*
X118061153Y-90218847D01*
X118180488Y-90316782D01*
X118316637Y-90389555D01*
X118464366Y-90434368D01*
X118618000Y-90449500D01*
X121666000Y-90449500D01*
X121819634Y-90434368D01*
X121967363Y-90389555D01*
X122103512Y-90316782D01*
X122222847Y-90218847D01*
X122320782Y-90099512D01*
X122393555Y-89963363D01*
X122438368Y-89815634D01*
X122453500Y-89662000D01*
X122453500Y-86209472D01*
X122594000Y-86223310D01*
X122594000Y-86223310D01*
G37*
X122594000Y-86223310D02*
X124294000Y-86223310D01*
X124412501Y-86211639D01*
X124412501Y-90587500D01*
X121250000Y-90587500D01*
X121218298Y-90590622D01*
X121187814Y-90599870D01*
X121159720Y-90614886D01*
X121135095Y-90635095D01*
X121114886Y-90659720D01*
X121099870Y-90687814D01*
X121090622Y-90718298D01*
X121087500Y-90750000D01*
X121087500Y-93904500D01*
X112661047Y-93904500D01*
X112822225Y-93772225D01*
X112857844Y-93728823D01*
X113540823Y-93045844D01*
X113584225Y-93010225D01*
X113681103Y-92892179D01*
X113726372Y-92837019D01*
X113803946Y-92691887D01*
X113831997Y-92639408D01*
X113897041Y-92424989D01*
X113913500Y-92257874D01*
X113913500Y-92257864D01*
X113919002Y-92202000D01*
X113913500Y-92146136D01*
X113913500Y-90436450D01*
X114046000Y-90449500D01*
X117094000Y-90449500D01*
X117247634Y-90434368D01*
X117395363Y-90389555D01*
X117531512Y-90316782D01*
X117650847Y-90218847D01*
X117748782Y-90099512D01*
X117821555Y-89963363D01*
X117856000Y-89849813D01*
X117890445Y-89963363D01*
X117963218Y-90099512D01*
X118061153Y-90218847D01*
X118180488Y-90316782D01*
X118316637Y-90389555D01*
X118464366Y-90434368D01*
X118618000Y-90449500D01*
X121666000Y-90449500D01*
X121819634Y-90434368D01*
X121967363Y-90389555D01*
X122103512Y-90316782D01*
X122222847Y-90218847D01*
X122320782Y-90099512D01*
X122393555Y-89963363D01*
X122438368Y-89815634D01*
X122453500Y-89662000D01*
X122453500Y-86209472D01*
X122594000Y-86223310D01*
G36*
X109660698Y-73514850D02*
G01*
X109640690Y-73717999D01*
X109640690Y-74618001D01*
X109660698Y-74821150D01*
X109719955Y-75016493D01*
X109816182Y-75196521D01*
X109910132Y-75311000D01*
X109816182Y-75425479D01*
X109719955Y-75605507D01*
X109660698Y-75800850D01*
X109640690Y-76003999D01*
X109640690Y-76904001D01*
X109660698Y-77107150D01*
X109719955Y-77302493D01*
X109754792Y-77367669D01*
X109680493Y-77327955D01*
X109485150Y-77268698D01*
X109282001Y-77248690D01*
X108631999Y-77248690D01*
X108428850Y-77268698D01*
X108233507Y-77327955D01*
X108053479Y-77424182D01*
X107895682Y-77553682D01*
X107766182Y-77711479D01*
X107669955Y-77891507D01*
X107610698Y-78086850D01*
X107590690Y-78289999D01*
X107590690Y-79190001D01*
X107610698Y-79393150D01*
X107669955Y-79588493D01*
X107766182Y-79768521D01*
X107895682Y-79926318D01*
X107919500Y-79945865D01*
X107919501Y-80473793D01*
X107915372Y-80476000D01*
X107795459Y-80574409D01*
X107697050Y-80694322D01*
X107623925Y-80831129D01*
X107578895Y-80979573D01*
X107563690Y-81133950D01*
X107563690Y-81934050D01*
X107578895Y-82088427D01*
X107623925Y-82236871D01*
X107646176Y-82278500D01*
X102641299Y-82278500D01*
X102633500Y-82270701D01*
X102633500Y-81827447D01*
X102684459Y-81889541D01*
X102804372Y-81987950D01*
X102941179Y-82061075D01*
X103089623Y-82106105D01*
X103244000Y-82121310D01*
X105544000Y-82121310D01*
X105698377Y-82106105D01*
X105846821Y-82061075D01*
X105983628Y-81987950D01*
X106103541Y-81889541D01*
X106201950Y-81769628D01*
X106275075Y-81632821D01*
X106320105Y-81484377D01*
X106335310Y-81330000D01*
X106335310Y-79706000D01*
X106320105Y-79551623D01*
X106275075Y-79403179D01*
X106201950Y-79266372D01*
X106103541Y-79146459D01*
X105983628Y-79048050D01*
X105951702Y-79030985D01*
X106060145Y-78898847D01*
X106213313Y-78612291D01*
X106307633Y-78301359D01*
X106339481Y-77978000D01*
X106307633Y-77654641D01*
X106213313Y-77343709D01*
X106060145Y-77057153D01*
X105854016Y-76805984D01*
X105602847Y-76599855D01*
X105316291Y-76446687D01*
X105005359Y-76352367D01*
X104763033Y-76328500D01*
X104024967Y-76328500D01*
X103782641Y-76352367D01*
X103471709Y-76446687D01*
X103185153Y-76599855D01*
X103074702Y-76690500D01*
X102777300Y-76690500D01*
X100913127Y-74826328D01*
X100872805Y-74777195D01*
X100676757Y-74616304D01*
X100453089Y-74496750D01*
X100210394Y-74423130D01*
X100021243Y-74404500D01*
X100021240Y-74404500D01*
X99958000Y-74398271D01*
X99894760Y-74404500D01*
X90432943Y-74404500D01*
X90369700Y-74398271D01*
X90306457Y-74404500D01*
X90117306Y-74423130D01*
X89874611Y-74496750D01*
X89650943Y-74616304D01*
X89454895Y-74777195D01*
X89414577Y-74826323D01*
X86129324Y-78111577D01*
X86080196Y-78151895D01*
X86039881Y-78201020D01*
X85919304Y-78347943D01*
X85799750Y-78571612D01*
X85726131Y-78814307D01*
X85701271Y-79066700D01*
X85707501Y-79129950D01*
X85707501Y-79275390D01*
X85245000Y-79275390D01*
X85090623Y-79290595D01*
X84942179Y-79335625D01*
X84805372Y-79408750D01*
X84685459Y-79507159D01*
X84587050Y-79627072D01*
X84513925Y-79763879D01*
X84468895Y-79912323D01*
X84453690Y-80066700D01*
X84453690Y-85566700D01*
X84468895Y-85721077D01*
X84513925Y-85869521D01*
X84587050Y-86006328D01*
X84685459Y-86126241D01*
X84805372Y-86224650D01*
X84942179Y-86297775D01*
X85090623Y-86342805D01*
X85245000Y-86358010D01*
X88745000Y-86358010D01*
X88899377Y-86342805D01*
X89047821Y-86297775D01*
X89184628Y-86224650D01*
X89304541Y-86126241D01*
X89402950Y-86006328D01*
X89476075Y-85869521D01*
X89521105Y-85721077D01*
X89536310Y-85566700D01*
X89536310Y-80066700D01*
X89521105Y-79912323D01*
X89476075Y-79763879D01*
X89402950Y-79627072D01*
X89304541Y-79507159D01*
X89184628Y-79408750D01*
X89047821Y-79335625D01*
X88899377Y-79290595D01*
X88745000Y-79275390D01*
X88607109Y-79275390D01*
X90903000Y-76979500D01*
X92603341Y-76979500D01*
X92426340Y-77033192D01*
X92414611Y-77036750D01*
X92190942Y-77156304D01*
X92138667Y-77199205D01*
X91994895Y-77317195D01*
X91954573Y-77366328D01*
X91209324Y-78111577D01*
X91160196Y-78151895D01*
X91119881Y-78201020D01*
X90999304Y-78347943D01*
X90879750Y-78571612D01*
X90806131Y-78814307D01*
X90781271Y-79066700D01*
X90787501Y-79129950D01*
X90787501Y-79627643D01*
X90658420Y-79696638D01*
X90272035Y-80013735D01*
X89954938Y-80400121D01*
X89719313Y-80840944D01*
X89574216Y-81319264D01*
X89537500Y-81692050D01*
X89537500Y-83941351D01*
X89574216Y-84314137D01*
X89719313Y-84792457D01*
X89954938Y-85233280D01*
X90272036Y-85619665D01*
X90658421Y-85936762D01*
X91099244Y-86172387D01*
X91577564Y-86317484D01*
X92075000Y-86366477D01*
X92572437Y-86317484D01*
X93050757Y-86172387D01*
X93491580Y-85936762D01*
X93877965Y-85619665D01*
X94195062Y-85233280D01*
X94430687Y-84792457D01*
X94575784Y-84314137D01*
X94612500Y-83941351D01*
X94612500Y-81692049D01*
X94575784Y-81319263D01*
X94430687Y-80840943D01*
X94195062Y-80400120D01*
X93877965Y-80013735D01*
X93491579Y-79696638D01*
X93362500Y-79627644D01*
X93362500Y-79599999D01*
X93442999Y-79519500D01*
X96069822Y-79519500D01*
X95738420Y-79696638D01*
X95352035Y-80013735D01*
X95034938Y-80400121D01*
X94799313Y-80840944D01*
X94654216Y-81319264D01*
X94617500Y-81692050D01*
X94617500Y-83941351D01*
X94654216Y-84314137D01*
X94799313Y-84792457D01*
X95034938Y-85233280D01*
X95352036Y-85619665D01*
X95738421Y-85936762D01*
X95867501Y-86005757D01*
X95867501Y-86503450D01*
X95861271Y-86566700D01*
X95878420Y-86740808D01*
X95886131Y-86819094D01*
X95900624Y-86866870D01*
X95959750Y-87061788D01*
X96079304Y-87285457D01*
X96139249Y-87358500D01*
X96240196Y-87481505D01*
X96289324Y-87521823D01*
X98787177Y-90019677D01*
X98827495Y-90068805D01*
X98988590Y-90201011D01*
X99023543Y-90229696D01*
X99247211Y-90349250D01*
X99489906Y-90422870D01*
X99742300Y-90447729D01*
X99805543Y-90441500D01*
X102586766Y-90441500D01*
X102586050Y-90442372D01*
X102512925Y-90579179D01*
X102467895Y-90727623D01*
X102452690Y-90882000D01*
X102452690Y-92506000D01*
X102467895Y-92660377D01*
X102512925Y-92808821D01*
X102586050Y-92945628D01*
X102684459Y-93065541D01*
X102804372Y-93163950D01*
X102941179Y-93237075D01*
X103089623Y-93282105D01*
X103244000Y-93297310D01*
X105544000Y-93297310D01*
X105698377Y-93282105D01*
X105846821Y-93237075D01*
X105983628Y-93163950D01*
X106103541Y-93065541D01*
X106201950Y-92945628D01*
X106262953Y-92831500D01*
X107590690Y-92831500D01*
X107590690Y-93414001D01*
X107610698Y-93617150D01*
X107669955Y-93812493D01*
X107719134Y-93904500D01*
X87662500Y-93904500D01*
X87662500Y-90750000D01*
X87659378Y-90718298D01*
X87650130Y-90687814D01*
X87635114Y-90659720D01*
X87614905Y-90635095D01*
X87590280Y-90614886D01*
X87562186Y-90599870D01*
X87531702Y-90590622D01*
X87500000Y-90587500D01*
X84403500Y-90587500D01*
X84403500Y-76662500D01*
X87500000Y-76662500D01*
X87531702Y-76659378D01*
X87562186Y-76650130D01*
X87590280Y-76635114D01*
X87614905Y-76614905D01*
X87635114Y-76590280D01*
X87650130Y-76562186D01*
X87659378Y-76531702D01*
X87662500Y-76500000D01*
X87662500Y-73337500D01*
X109714497Y-73337500D01*
X109660698Y-73514850D01*
X109660698Y-73514850D01*
G37*
X109660698Y-73514850D02*
X109640690Y-73717999D01*
X109640690Y-74618001D01*
X109660698Y-74821150D01*
X109719955Y-75016493D01*
X109816182Y-75196521D01*
X109910132Y-75311000D01*
X109816182Y-75425479D01*
X109719955Y-75605507D01*
X109660698Y-75800850D01*
X109640690Y-76003999D01*
X109640690Y-76904001D01*
X109660698Y-77107150D01*
X109719955Y-77302493D01*
X109754792Y-77367669D01*
X109680493Y-77327955D01*
X109485150Y-77268698D01*
X109282001Y-77248690D01*
X108631999Y-77248690D01*
X108428850Y-77268698D01*
X108233507Y-77327955D01*
X108053479Y-77424182D01*
X107895682Y-77553682D01*
X107766182Y-77711479D01*
X107669955Y-77891507D01*
X107610698Y-78086850D01*
X107590690Y-78289999D01*
X107590690Y-79190001D01*
X107610698Y-79393150D01*
X107669955Y-79588493D01*
X107766182Y-79768521D01*
X107895682Y-79926318D01*
X107919500Y-79945865D01*
X107919501Y-80473793D01*
X107915372Y-80476000D01*
X107795459Y-80574409D01*
X107697050Y-80694322D01*
X107623925Y-80831129D01*
X107578895Y-80979573D01*
X107563690Y-81133950D01*
X107563690Y-81934050D01*
X107578895Y-82088427D01*
X107623925Y-82236871D01*
X107646176Y-82278500D01*
X102641299Y-82278500D01*
X102633500Y-82270701D01*
X102633500Y-81827447D01*
X102684459Y-81889541D01*
X102804372Y-81987950D01*
X102941179Y-82061075D01*
X103089623Y-82106105D01*
X103244000Y-82121310D01*
X105544000Y-82121310D01*
X105698377Y-82106105D01*
X105846821Y-82061075D01*
X105983628Y-81987950D01*
X106103541Y-81889541D01*
X106201950Y-81769628D01*
X106275075Y-81632821D01*
X106320105Y-81484377D01*
X106335310Y-81330000D01*
X106335310Y-79706000D01*
X106320105Y-79551623D01*
X106275075Y-79403179D01*
X106201950Y-79266372D01*
X106103541Y-79146459D01*
X105983628Y-79048050D01*
X105951702Y-79030985D01*
X106060145Y-78898847D01*
X106213313Y-78612291D01*
X106307633Y-78301359D01*
X106339481Y-77978000D01*
X106307633Y-77654641D01*
X106213313Y-77343709D01*
X106060145Y-77057153D01*
X105854016Y-76805984D01*
X105602847Y-76599855D01*
X105316291Y-76446687D01*
X105005359Y-76352367D01*
X104763033Y-76328500D01*
X104024967Y-76328500D01*
X103782641Y-76352367D01*
X103471709Y-76446687D01*
X103185153Y-76599855D01*
X103074702Y-76690500D01*
X102777300Y-76690500D01*
X100913127Y-74826328D01*
X100872805Y-74777195D01*
X100676757Y-74616304D01*
X100453089Y-74496750D01*
X100210394Y-74423130D01*
X100021243Y-74404500D01*
X100021240Y-74404500D01*
X99958000Y-74398271D01*
X99894760Y-74404500D01*
X90432943Y-74404500D01*
X90369700Y-74398271D01*
X90306457Y-74404500D01*
X90117306Y-74423130D01*
X89874611Y-74496750D01*
X89650943Y-74616304D01*
X89454895Y-74777195D01*
X89414577Y-74826323D01*
X86129324Y-78111577D01*
X86080196Y-78151895D01*
X86039881Y-78201020D01*
X85919304Y-78347943D01*
X85799750Y-78571612D01*
X85726131Y-78814307D01*
X85701271Y-79066700D01*
X85707501Y-79129950D01*
X85707501Y-79275390D01*
X85245000Y-79275390D01*
X85090623Y-79290595D01*
X84942179Y-79335625D01*
X84805372Y-79408750D01*
X84685459Y-79507159D01*
X84587050Y-79627072D01*
X84513925Y-79763879D01*
X84468895Y-79912323D01*
X84453690Y-80066700D01*
X84453690Y-85566700D01*
X84468895Y-85721077D01*
X84513925Y-85869521D01*
X84587050Y-86006328D01*
X84685459Y-86126241D01*
X84805372Y-86224650D01*
X84942179Y-86297775D01*
X85090623Y-86342805D01*
X85245000Y-86358010D01*
X88745000Y-86358010D01*
X88899377Y-86342805D01*
X89047821Y-86297775D01*
X89184628Y-86224650D01*
X89304541Y-86126241D01*
X89402950Y-86006328D01*
X89476075Y-85869521D01*
X89521105Y-85721077D01*
X89536310Y-85566700D01*
X89536310Y-80066700D01*
X89521105Y-79912323D01*
X89476075Y-79763879D01*
X89402950Y-79627072D01*
X89304541Y-79507159D01*
X89184628Y-79408750D01*
X89047821Y-79335625D01*
X88899377Y-79290595D01*
X88745000Y-79275390D01*
X88607109Y-79275390D01*
X90903000Y-76979500D01*
X92603341Y-76979500D01*
X92426340Y-77033192D01*
X92414611Y-77036750D01*
X92190942Y-77156304D01*
X92138667Y-77199205D01*
X91994895Y-77317195D01*
X91954573Y-77366328D01*
X91209324Y-78111577D01*
X91160196Y-78151895D01*
X91119881Y-78201020D01*
X90999304Y-78347943D01*
X90879750Y-78571612D01*
X90806131Y-78814307D01*
X90781271Y-79066700D01*
X90787501Y-79129950D01*
X90787501Y-79627643D01*
X90658420Y-79696638D01*
X90272035Y-80013735D01*
X89954938Y-80400121D01*
X89719313Y-80840944D01*
X89574216Y-81319264D01*
X89537500Y-81692050D01*
X89537500Y-83941351D01*
X89574216Y-84314137D01*
X89719313Y-84792457D01*
X89954938Y-85233280D01*
X90272036Y-85619665D01*
X90658421Y-85936762D01*
X91099244Y-86172387D01*
X91577564Y-86317484D01*
X92075000Y-86366477D01*
X92572437Y-86317484D01*
X93050757Y-86172387D01*
X93491580Y-85936762D01*
X93877965Y-85619665D01*
X94195062Y-85233280D01*
X94430687Y-84792457D01*
X94575784Y-84314137D01*
X94612500Y-83941351D01*
X94612500Y-81692049D01*
X94575784Y-81319263D01*
X94430687Y-80840943D01*
X94195062Y-80400120D01*
X93877965Y-80013735D01*
X93491579Y-79696638D01*
X93362500Y-79627644D01*
X93362500Y-79599999D01*
X93442999Y-79519500D01*
X96069822Y-79519500D01*
X95738420Y-79696638D01*
X95352035Y-80013735D01*
X95034938Y-80400121D01*
X94799313Y-80840944D01*
X94654216Y-81319264D01*
X94617500Y-81692050D01*
X94617500Y-83941351D01*
X94654216Y-84314137D01*
X94799313Y-84792457D01*
X95034938Y-85233280D01*
X95352036Y-85619665D01*
X95738421Y-85936762D01*
X95867501Y-86005757D01*
X95867501Y-86503450D01*
X95861271Y-86566700D01*
X95878420Y-86740808D01*
X95886131Y-86819094D01*
X95900624Y-86866870D01*
X95959750Y-87061788D01*
X96079304Y-87285457D01*
X96139249Y-87358500D01*
X96240196Y-87481505D01*
X96289324Y-87521823D01*
X98787177Y-90019677D01*
X98827495Y-90068805D01*
X98988590Y-90201011D01*
X99023543Y-90229696D01*
X99247211Y-90349250D01*
X99489906Y-90422870D01*
X99742300Y-90447729D01*
X99805543Y-90441500D01*
X102586766Y-90441500D01*
X102586050Y-90442372D01*
X102512925Y-90579179D01*
X102467895Y-90727623D01*
X102452690Y-90882000D01*
X102452690Y-92506000D01*
X102467895Y-92660377D01*
X102512925Y-92808821D01*
X102586050Y-92945628D01*
X102684459Y-93065541D01*
X102804372Y-93163950D01*
X102941179Y-93237075D01*
X103089623Y-93282105D01*
X103244000Y-93297310D01*
X105544000Y-93297310D01*
X105698377Y-93282105D01*
X105846821Y-93237075D01*
X105983628Y-93163950D01*
X106103541Y-93065541D01*
X106201950Y-92945628D01*
X106262953Y-92831500D01*
X107590690Y-92831500D01*
X107590690Y-93414001D01*
X107610698Y-93617150D01*
X107669955Y-93812493D01*
X107719134Y-93904500D01*
X87662500Y-93904500D01*
X87662500Y-90750000D01*
X87659378Y-90718298D01*
X87650130Y-90687814D01*
X87635114Y-90659720D01*
X87614905Y-90635095D01*
X87590280Y-90614886D01*
X87562186Y-90599870D01*
X87531702Y-90590622D01*
X87500000Y-90587500D01*
X84403500Y-90587500D01*
X84403500Y-76662500D01*
X87500000Y-76662500D01*
X87531702Y-76659378D01*
X87562186Y-76650130D01*
X87590280Y-76635114D01*
X87614905Y-76614905D01*
X87635114Y-76590280D01*
X87650130Y-76562186D01*
X87659378Y-76531702D01*
X87662500Y-76500000D01*
X87662500Y-73337500D01*
X109714497Y-73337500D01*
X109660698Y-73514850D01*
G36*
X110103479Y-86913818D02*
G01*
X110283507Y-87010045D01*
X110478850Y-87069302D01*
X110681999Y-87089310D01*
X111332001Y-87089310D01*
X111535150Y-87069302D01*
X111602273Y-87048940D01*
X111638500Y-87085168D01*
X111638500Y-88984049D01*
X111535150Y-88952698D01*
X111332001Y-88932690D01*
X110681999Y-88932690D01*
X110478850Y-88952698D01*
X110283507Y-89011955D01*
X110103479Y-89108182D01*
X110094500Y-89115551D01*
X110094500Y-88140627D01*
X110098969Y-88060405D01*
X110086653Y-87973451D01*
X110078041Y-87886011D01*
X110070963Y-87862679D01*
X110067546Y-87838553D01*
X110038504Y-87755675D01*
X110023310Y-87705589D01*
X110023310Y-87384000D01*
X110008105Y-87229623D01*
X109963075Y-87081179D01*
X109889950Y-86944372D01*
X109863123Y-86911683D01*
X109982000Y-86814123D01*
X110103479Y-86913818D01*
X110103479Y-86913818D01*
G37*
X110103479Y-86913818D02*
X110283507Y-87010045D01*
X110478850Y-87069302D01*
X110681999Y-87089310D01*
X111332001Y-87089310D01*
X111535150Y-87069302D01*
X111602273Y-87048940D01*
X111638500Y-87085168D01*
X111638500Y-88984049D01*
X111535150Y-88952698D01*
X111332001Y-88932690D01*
X110681999Y-88932690D01*
X110478850Y-88952698D01*
X110283507Y-89011955D01*
X110103479Y-89108182D01*
X110094500Y-89115551D01*
X110094500Y-88140627D01*
X110098969Y-88060405D01*
X110086653Y-87973451D01*
X110078041Y-87886011D01*
X110070963Y-87862679D01*
X110067546Y-87838553D01*
X110038504Y-87755675D01*
X110023310Y-87705589D01*
X110023310Y-87384000D01*
X110008105Y-87229623D01*
X109963075Y-87081179D01*
X109889950Y-86944372D01*
X109863123Y-86911683D01*
X109982000Y-86814123D01*
X110103479Y-86913818D01*
G36*
X110283507Y-77866045D02*
G01*
X110478850Y-77925302D01*
X110681999Y-77945310D01*
X111332001Y-77945310D01*
X111484500Y-77930290D01*
X111484501Y-79392640D01*
X110355760Y-79392640D01*
X110301846Y-79397950D01*
X110303302Y-79393150D01*
X110323310Y-79190001D01*
X110323310Y-78289999D01*
X110303302Y-78086850D01*
X110244045Y-77891507D01*
X110209208Y-77826331D01*
X110283507Y-77866045D01*
X110283507Y-77866045D01*
G37*
X110283507Y-77866045D02*
X110478850Y-77925302D01*
X110681999Y-77945310D01*
X111332001Y-77945310D01*
X111484500Y-77930290D01*
X111484501Y-79392640D01*
X110355760Y-79392640D01*
X110301846Y-79397950D01*
X110303302Y-79393150D01*
X110323310Y-79190001D01*
X110323310Y-78289999D01*
X110303302Y-78086850D01*
X110244045Y-77891507D01*
X110209208Y-77826331D01*
X110283507Y-77866045D01*
G36*
X121087500Y-75941690D02*
G01*
X114575500Y-75941690D01*
X114575500Y-75488960D01*
X114580519Y-75437999D01*
X114575500Y-75387039D01*
X114575500Y-75387032D01*
X114560488Y-75234614D01*
X114501163Y-75039045D01*
X114404824Y-74858807D01*
X114275173Y-74700827D01*
X114235579Y-74668333D01*
X113037667Y-73470421D01*
X113005173Y-73430827D01*
X112891454Y-73337500D01*
X121087500Y-73337500D01*
X121087500Y-75941690D01*
X121087500Y-75941690D01*
G37*
X121087500Y-75941690D02*
X114575500Y-75941690D01*
X114575500Y-75488960D01*
X114580519Y-75437999D01*
X114575500Y-75387039D01*
X114575500Y-75387032D01*
X114560488Y-75234614D01*
X114501163Y-75039045D01*
X114404824Y-74858807D01*
X114275173Y-74700827D01*
X114235579Y-74668333D01*
X113037667Y-73470421D01*
X113005173Y-73430827D01*
X112891454Y-73337500D01*
X121087500Y-73337500D01*
X121087500Y-75941690D01*
M02*
