G04 #@! TF.GenerationSoftware,KiCad,Pcbnew,(5.1.2)-2*
G04 #@! TF.CreationDate,2019-11-06T08:40:08+07:00*
G04 #@! TF.ProjectId,ph_vresistor_pos_sensor_board_hw,70685f76-7265-4736-9973-746f725f706f,rev?*
G04 #@! TF.SameCoordinates,Original*
G04 #@! TF.FileFunction,Legend,Bot*
G04 #@! TF.FilePolarity,Positive*
%FSLAX46Y46*%
G04 Gerber Fmt 4.6, Leading zero omitted, Abs format (unit mm)*
G04 Created by KiCad (PCBNEW (5.1.2)-2) date 2019-11-06 08:40:08*
%MOMM*%
%LPD*%
G04 APERTURE LIST*
%ADD10C,0.100000*%
%ADD11C,0.010000*%
G04 APERTURE END LIST*
D10*
X121366000Y-86664857D02*
X121337428Y-86607714D01*
X121337428Y-86522000D01*
X121366000Y-86436285D01*
X121423142Y-86379142D01*
X121480285Y-86350571D01*
X121594571Y-86322000D01*
X121680285Y-86322000D01*
X121794571Y-86350571D01*
X121851714Y-86379142D01*
X121908857Y-86436285D01*
X121937428Y-86522000D01*
X121937428Y-86579142D01*
X121908857Y-86664857D01*
X121880285Y-86693428D01*
X121680285Y-86693428D01*
X121680285Y-86579142D01*
X121937428Y-86950571D02*
X121337428Y-86950571D01*
X121937428Y-87293428D01*
X121337428Y-87293428D01*
X121937428Y-87579142D02*
X121337428Y-87579142D01*
X121337428Y-87722000D01*
X121366000Y-87807714D01*
X121423142Y-87864857D01*
X121480285Y-87893428D01*
X121594571Y-87922000D01*
X121680285Y-87922000D01*
X121794571Y-87893428D01*
X121851714Y-87864857D01*
X121908857Y-87807714D01*
X121937428Y-87722000D01*
X121937428Y-87579142D01*
X121708857Y-83397857D02*
X121708857Y-83855000D01*
X121937428Y-83626428D02*
X121480285Y-83626428D01*
X121394571Y-84112142D02*
X121366000Y-84140714D01*
X121337428Y-84197857D01*
X121337428Y-84340714D01*
X121366000Y-84397857D01*
X121394571Y-84426428D01*
X121451714Y-84455000D01*
X121508857Y-84455000D01*
X121594571Y-84426428D01*
X121937428Y-84083571D01*
X121937428Y-84455000D01*
X121537428Y-84969285D02*
X121937428Y-84969285D01*
X121308857Y-84826428D02*
X121737428Y-84683571D01*
X121737428Y-85055000D01*
X121337428Y-85197857D02*
X121937428Y-85397857D01*
X121337428Y-85597857D01*
D11*
G36*
X88814166Y-87573927D02*
G01*
X88803530Y-87604829D01*
X88920000Y-87616631D01*
X89040195Y-87603326D01*
X89025833Y-87573927D01*
X88852491Y-87562744D01*
X88814166Y-87573927D01*
X88814166Y-87573927D01*
G37*
X88814166Y-87573927D02*
X88803530Y-87604829D01*
X88920000Y-87616631D01*
X89040195Y-87603326D01*
X89025833Y-87573927D01*
X88852491Y-87562744D01*
X88814166Y-87573927D01*
G36*
X88863555Y-87912222D02*
G01*
X88875178Y-87962556D01*
X88920000Y-87968667D01*
X88989690Y-87937688D01*
X88976444Y-87912222D01*
X88875965Y-87902089D01*
X88863555Y-87912222D01*
X88863555Y-87912222D01*
G37*
X88863555Y-87912222D02*
X88875178Y-87962556D01*
X88920000Y-87968667D01*
X88989690Y-87937688D01*
X88976444Y-87912222D01*
X88875965Y-87902089D01*
X88863555Y-87912222D01*
G36*
X88517833Y-87771680D02*
G01*
X88426101Y-87977100D01*
X88428641Y-88169659D01*
X88496666Y-88265000D01*
X88581858Y-88270136D01*
X88591313Y-88248830D01*
X88601409Y-88123056D01*
X88612093Y-87913134D01*
X88612480Y-87903664D01*
X88611990Y-87728317D01*
X88579514Y-87699940D01*
X88517833Y-87771680D01*
X88517833Y-87771680D01*
G37*
X88517833Y-87771680D02*
X88426101Y-87977100D01*
X88428641Y-88169659D01*
X88496666Y-88265000D01*
X88581858Y-88270136D01*
X88591313Y-88248830D01*
X88601409Y-88123056D01*
X88612093Y-87913134D01*
X88612480Y-87903664D01*
X88611990Y-87728317D01*
X88579514Y-87699940D01*
X88517833Y-87771680D01*
G36*
X89302442Y-87753743D02*
G01*
X89279839Y-87862833D01*
X89267469Y-88110529D01*
X89280215Y-88243833D01*
X89312408Y-88370349D01*
X89354151Y-88340017D01*
X89379901Y-88285977D01*
X89406979Y-88096493D01*
X89379526Y-87904977D01*
X89330481Y-87752129D01*
X89302442Y-87753743D01*
X89302442Y-87753743D01*
G37*
X89302442Y-87753743D02*
X89279839Y-87862833D01*
X89267469Y-88110529D01*
X89280215Y-88243833D01*
X89312408Y-88370349D01*
X89354151Y-88340017D01*
X89379901Y-88285977D01*
X89406979Y-88096493D01*
X89379526Y-87904977D01*
X89330481Y-87752129D01*
X89302442Y-87753743D01*
G36*
X88819587Y-88363093D02*
G01*
X88798879Y-88385504D01*
X88700813Y-88504117D01*
X88720560Y-88551715D01*
X88881732Y-88560202D01*
X88928044Y-88560037D01*
X89092982Y-88544151D01*
X89134410Y-88506542D01*
X89123195Y-88496537D01*
X89010843Y-88361951D01*
X88994030Y-88322004D01*
X88935748Y-88273280D01*
X88819587Y-88363093D01*
X88819587Y-88363093D01*
G37*
X88819587Y-88363093D02*
X88798879Y-88385504D01*
X88700813Y-88504117D01*
X88720560Y-88551715D01*
X88881732Y-88560202D01*
X88928044Y-88560037D01*
X89092982Y-88544151D01*
X89134410Y-88506542D01*
X89123195Y-88496537D01*
X89010843Y-88361951D01*
X88994030Y-88322004D01*
X88935748Y-88273280D01*
X88819587Y-88363093D01*
G36*
X95447219Y-89827113D02*
G01*
X95296060Y-89976554D01*
X95295129Y-90150533D01*
X95440855Y-90302734D01*
X95485650Y-90325743D01*
X95817838Y-90417667D01*
X96087538Y-90358496D01*
X96112754Y-90343543D01*
X96189386Y-90264998D01*
X96167857Y-90145690D01*
X96118391Y-90046222D01*
X95926157Y-89837375D01*
X95673278Y-89767008D01*
X95447219Y-89827113D01*
X95447219Y-89827113D01*
G37*
X95447219Y-89827113D02*
X95296060Y-89976554D01*
X95295129Y-90150533D01*
X95440855Y-90302734D01*
X95485650Y-90325743D01*
X95817838Y-90417667D01*
X96087538Y-90358496D01*
X96112754Y-90343543D01*
X96189386Y-90264998D01*
X96167857Y-90145690D01*
X96118391Y-90046222D01*
X95926157Y-89837375D01*
X95673278Y-89767008D01*
X95447219Y-89827113D01*
G36*
X96159000Y-92425382D02*
G01*
X96039405Y-92507940D01*
X96070490Y-92583233D01*
X96234811Y-92623797D01*
X96286000Y-92625333D01*
X96464380Y-92603422D01*
X96539982Y-92550631D01*
X96540000Y-92549725D01*
X96469238Y-92453733D01*
X96309374Y-92406627D01*
X96159000Y-92425382D01*
X96159000Y-92425382D01*
G37*
X96159000Y-92425382D02*
X96039405Y-92507940D01*
X96070490Y-92583233D01*
X96234811Y-92623797D01*
X96286000Y-92625333D01*
X96464380Y-92603422D01*
X96539982Y-92550631D01*
X96540000Y-92549725D01*
X96469238Y-92453733D01*
X96309374Y-92406627D01*
X96159000Y-92425382D01*
G36*
X85533333Y-94657333D02*
G01*
X102466666Y-94657333D01*
X102466666Y-92600351D01*
X101265973Y-92600351D01*
X101216362Y-92760811D01*
X101083632Y-92875766D01*
X100861739Y-92972027D01*
X100632200Y-93072948D01*
X100481043Y-93170230D01*
X100452517Y-93206781D01*
X100487656Y-93280468D01*
X100616566Y-93302226D01*
X100773355Y-93276516D01*
X100892125Y-93207801D01*
X100912049Y-93175667D01*
X101013247Y-93058234D01*
X101128680Y-93075518D01*
X101194875Y-93211782D01*
X101196666Y-93246222D01*
X101174781Y-93424031D01*
X101140222Y-93500222D01*
X100997573Y-93549087D01*
X100756727Y-93554554D01*
X100481807Y-93521462D01*
X100236934Y-93454649D01*
X100176462Y-93427492D01*
X99975310Y-93263160D01*
X99926666Y-93097329D01*
X99956562Y-92965082D01*
X100071408Y-92862823D01*
X100084681Y-92857025D01*
X99825232Y-92857025D01*
X99821765Y-93104145D01*
X99743567Y-93267296D01*
X99623314Y-93377728D01*
X99378132Y-93492843D01*
X99045250Y-93555710D01*
X98700487Y-93558072D01*
X98451925Y-93505275D01*
X98335046Y-93395051D01*
X98318000Y-93326519D01*
X98356715Y-93244836D01*
X98498631Y-93236078D01*
X98603886Y-93252787D01*
X98945971Y-93268275D01*
X99192452Y-93178710D01*
X99320769Y-92995246D01*
X99334000Y-92891796D01*
X99321283Y-92839603D01*
X98063879Y-92839603D01*
X98046579Y-93194246D01*
X97980748Y-93420135D01*
X97941063Y-93468628D01*
X97780240Y-93526067D01*
X97603655Y-93498311D01*
X97485600Y-93404384D01*
X97471333Y-93348353D01*
X97403146Y-93222793D01*
X97344333Y-93187382D01*
X97240738Y-93073156D01*
X97209697Y-92945490D01*
X97196296Y-92846945D01*
X97162938Y-92898170D01*
X97123116Y-93025545D01*
X96970012Y-93276584D01*
X96704208Y-93464641D01*
X96375108Y-93575683D01*
X96032116Y-93595677D01*
X95724637Y-93510589D01*
X95629833Y-93449719D01*
X95542378Y-93347638D01*
X95332365Y-93347638D01*
X95330144Y-93447932D01*
X95248833Y-93502059D01*
X95079409Y-93533530D01*
X94840315Y-93536805D01*
X94597275Y-93516259D01*
X94416010Y-93476270D01*
X94363126Y-93443079D01*
X94376307Y-93330423D01*
X94431565Y-93268656D01*
X94511756Y-93112028D01*
X94508000Y-92837000D01*
X94468422Y-92619214D01*
X94395210Y-92522447D01*
X94246273Y-92498597D01*
X94211666Y-92498333D01*
X94044706Y-92514684D01*
X93966150Y-92596555D01*
X93933511Y-92793170D01*
X93930926Y-92823591D01*
X93941575Y-93088390D01*
X94037964Y-93250105D01*
X94057926Y-93266482D01*
X94159765Y-93366569D01*
X94123387Y-93441273D01*
X94084666Y-93469094D01*
X93889800Y-93532704D01*
X93620491Y-93551459D01*
X93365685Y-93524179D01*
X93248319Y-93480169D01*
X93181472Y-93367717D01*
X93236654Y-93255649D01*
X93348830Y-93217638D01*
X93416258Y-93137628D01*
X93462693Y-92916843D01*
X93474952Y-92773252D01*
X93504585Y-92505138D01*
X93526978Y-92412191D01*
X93144948Y-92412191D01*
X93045056Y-92455610D01*
X93026333Y-92456000D01*
X92949440Y-92498119D01*
X92910037Y-92645741D01*
X92899333Y-92917459D01*
X92858926Y-93266803D01*
X92729345Y-93478252D01*
X92498056Y-93560704D01*
X92152522Y-93523054D01*
X92073833Y-93503302D01*
X91906989Y-93418308D01*
X91888470Y-93318840D01*
X92004947Y-93240832D01*
X92179666Y-93218000D01*
X92381229Y-93201047D01*
X92463087Y-93129545D01*
X92474844Y-93027500D01*
X92437091Y-92697048D01*
X92322885Y-92505576D01*
X92156408Y-92439625D01*
X91962759Y-92378078D01*
X91911350Y-92281807D01*
X91919931Y-92273646D01*
X91789329Y-92273646D01*
X91770426Y-92345942D01*
X91625786Y-92414792D01*
X91516784Y-92478976D01*
X91472037Y-92611892D01*
X91472237Y-92843136D01*
X91508011Y-93105214D01*
X91590417Y-93238198D01*
X91645118Y-93265343D01*
X91785178Y-93355270D01*
X91763615Y-93476365D01*
X91742222Y-93500222D01*
X91620200Y-93538841D01*
X91400803Y-93554729D01*
X91154516Y-93547455D01*
X90951824Y-93516587D01*
X90916591Y-93505275D01*
X90805613Y-93408798D01*
X90802455Y-93379407D01*
X90698000Y-93379407D01*
X90617528Y-93433025D01*
X90390949Y-93464778D01*
X90147666Y-93472000D01*
X89828983Y-93458461D01*
X89640256Y-93420339D01*
X89597333Y-93379407D01*
X89667259Y-93282633D01*
X89745759Y-93247999D01*
X89839219Y-93187635D01*
X89872416Y-93043166D01*
X89864907Y-92841049D01*
X89835356Y-92608754D01*
X89770482Y-92493690D01*
X89632399Y-92443775D01*
X89568314Y-92433314D01*
X89347505Y-92417158D01*
X89195166Y-92433916D01*
X89120115Y-92541223D01*
X89088209Y-92744277D01*
X89097692Y-92975556D01*
X89146812Y-93167534D01*
X89216333Y-93248618D01*
X89329000Y-93364243D01*
X89343333Y-93431434D01*
X89271623Y-93515418D01*
X89093538Y-93553882D01*
X88864644Y-93550788D01*
X88640511Y-93510098D01*
X88476705Y-93435771D01*
X88427751Y-93366167D01*
X88460544Y-93240134D01*
X88532792Y-93218000D01*
X88609317Y-93183862D01*
X88650533Y-93058769D01*
X88665362Y-92808699D01*
X88665833Y-92735705D01*
X88262939Y-92735705D01*
X88254312Y-93055597D01*
X88234899Y-93119220D01*
X88113231Y-93327325D01*
X87963033Y-93455325D01*
X87746123Y-93514086D01*
X87441624Y-93546153D01*
X87128487Y-93547974D01*
X86885664Y-93515998D01*
X86852591Y-93505275D01*
X86735714Y-93395136D01*
X86718666Y-93326678D01*
X86760278Y-93244948D01*
X86909408Y-93226870D01*
X87036166Y-93238600D01*
X87383411Y-93236357D01*
X87631153Y-93145383D01*
X87760321Y-92983735D01*
X87751842Y-92769470D01*
X87678173Y-92630810D01*
X87519576Y-92506643D01*
X87312459Y-92457211D01*
X87123847Y-92487435D01*
X87026715Y-92583000D01*
X86923397Y-92702725D01*
X86801828Y-92689880D01*
X86724133Y-92560940D01*
X86718666Y-92501312D01*
X86789881Y-92287105D01*
X86995803Y-92163622D01*
X87324852Y-92136301D01*
X87466000Y-92150331D01*
X87852335Y-92262346D01*
X88123464Y-92464379D01*
X88262939Y-92735705D01*
X88665833Y-92735705D01*
X88666000Y-92710000D01*
X88666000Y-92202000D01*
X89174000Y-92191417D01*
X89521891Y-92182812D01*
X89735383Y-92168073D01*
X89849363Y-92137142D01*
X89898719Y-92079964D01*
X89918340Y-91986480D01*
X89919769Y-91976439D01*
X89879026Y-91809156D01*
X89742203Y-91720354D01*
X89572630Y-91731394D01*
X89459685Y-91821243D01*
X89317196Y-91921580D01*
X89220401Y-91918943D01*
X89109058Y-91917886D01*
X89089333Y-91956546D01*
X89025764Y-92014940D01*
X88886254Y-92012078D01*
X88747595Y-91959819D01*
X88690215Y-91894916D01*
X88737414Y-91795906D01*
X88901285Y-91677993D01*
X89134418Y-91564107D01*
X89389399Y-91477178D01*
X89618817Y-91440135D01*
X89630856Y-91440000D01*
X89901585Y-91493557D01*
X90146968Y-91629690D01*
X90315117Y-91811587D01*
X90359333Y-91956802D01*
X90416414Y-92116969D01*
X90486333Y-92171382D01*
X90595570Y-92273795D01*
X90597565Y-92404171D01*
X90517111Y-92473963D01*
X90455162Y-92570730D01*
X90416236Y-92774208D01*
X90411278Y-92857748D01*
X90423740Y-93100366D01*
X90488498Y-93219995D01*
X90549833Y-93248137D01*
X90675501Y-93324635D01*
X90698000Y-93379407D01*
X90802455Y-93379407D01*
X90792801Y-93289584D01*
X90880954Y-93219768D01*
X90905441Y-93218000D01*
X90982953Y-93165703D01*
X91030709Y-92991818D01*
X91053608Y-92731167D01*
X91079000Y-92244333D01*
X91438833Y-92218298D01*
X91672873Y-92224870D01*
X91789329Y-92273646D01*
X91919931Y-92273646D01*
X92008513Y-92189403D01*
X92110152Y-92157675D01*
X92343198Y-92091085D01*
X92498499Y-92026003D01*
X92652503Y-92000192D01*
X92847741Y-92094056D01*
X92900666Y-92131706D01*
X93095904Y-92301863D01*
X93144948Y-92412191D01*
X93526978Y-92412191D01*
X93552695Y-92305455D01*
X93585186Y-92244447D01*
X93699382Y-92211641D01*
X93934443Y-92188819D01*
X94242436Y-92176244D01*
X94575425Y-92174179D01*
X94885475Y-92182884D01*
X95124654Y-92202623D01*
X95245025Y-92233658D01*
X95246910Y-92235355D01*
X95236116Y-92327272D01*
X95156592Y-92440981D01*
X95047469Y-92643794D01*
X95012543Y-92886703D01*
X95049668Y-93108506D01*
X95156697Y-93248001D01*
X95185333Y-93260333D01*
X95332365Y-93347638D01*
X95542378Y-93347638D01*
X95522896Y-93324898D01*
X95568674Y-93250903D01*
X95755607Y-93237481D01*
X95865513Y-93250968D01*
X96166221Y-93261160D01*
X96401054Y-93198945D01*
X96528426Y-93078542D01*
X96540000Y-93020355D01*
X96468281Y-92948482D01*
X96248703Y-92947349D01*
X96243896Y-92947904D01*
X95888640Y-92952736D01*
X95626364Y-92881953D01*
X95491309Y-92746931D01*
X95486914Y-92538614D01*
X95615805Y-92358163D01*
X95842210Y-92223750D01*
X96130360Y-92153546D01*
X96444484Y-92165723D01*
X96571214Y-92198330D01*
X96813581Y-92314848D01*
X96999507Y-92465495D01*
X97013976Y-92483646D01*
X97100607Y-92592749D01*
X97127707Y-92580017D01*
X97108060Y-92425759D01*
X97096316Y-92356814D01*
X97039171Y-92086964D01*
X96955459Y-91758193D01*
X96912646Y-91607614D01*
X96829379Y-91355447D01*
X96756280Y-91234216D01*
X96665307Y-91209889D01*
X96597735Y-91225412D01*
X96417439Y-91261470D01*
X96134643Y-91298698D01*
X95862666Y-91324609D01*
X95319921Y-91306031D01*
X94880795Y-91155265D01*
X94539915Y-90869721D01*
X94363538Y-90601183D01*
X94169333Y-90228033D01*
X94160894Y-90855183D01*
X94146991Y-91299691D01*
X94113222Y-91601087D01*
X94050309Y-91785265D01*
X93948976Y-91878113D01*
X93799946Y-91905524D01*
X93784516Y-91905667D01*
X93674090Y-91898020D01*
X93587854Y-91856932D01*
X93508452Y-91755183D01*
X93418527Y-91565553D01*
X93300723Y-91260822D01*
X93202979Y-90993636D01*
X93053394Y-90588371D01*
X92934997Y-90314436D01*
X92820076Y-90144405D01*
X92680918Y-90050848D01*
X92489811Y-90006338D01*
X92219041Y-89983446D01*
X92179666Y-89980836D01*
X91841000Y-89958333D01*
X91788382Y-90720333D01*
X91747128Y-91204728D01*
X91693624Y-91544354D01*
X91616218Y-91763771D01*
X91503258Y-91887544D01*
X91343091Y-91940233D01*
X91206000Y-91948000D01*
X90991756Y-91924310D01*
X90846069Y-91836256D01*
X90756709Y-91658363D01*
X90711449Y-91365155D01*
X90698060Y-90931155D01*
X90698000Y-90889666D01*
X90686154Y-90445543D01*
X90642579Y-90142780D01*
X90555221Y-89954554D01*
X90412024Y-89854039D01*
X90215299Y-89815524D01*
X89997605Y-89778679D01*
X89905906Y-89699508D01*
X89893666Y-89619667D01*
X89963873Y-89466078D01*
X90065210Y-89425762D01*
X90140739Y-89403438D01*
X90190378Y-89342189D01*
X90219735Y-89211780D01*
X90234416Y-88981974D01*
X90240026Y-88622536D01*
X90240806Y-88478729D01*
X90249266Y-88065194D01*
X89597333Y-88065194D01*
X89526963Y-88373222D01*
X89343056Y-88595306D01*
X89086417Y-88715165D01*
X88797849Y-88716513D01*
X88518157Y-88583070D01*
X88450485Y-88522848D01*
X88286057Y-88257762D01*
X88259232Y-87968749D01*
X88352671Y-87698159D01*
X88549040Y-87488338D01*
X88830999Y-87381636D01*
X88920000Y-87376000D01*
X89215285Y-87452867D01*
X89450946Y-87653754D01*
X89583177Y-87934086D01*
X89597333Y-88065194D01*
X90249266Y-88065194D01*
X90250497Y-88005066D01*
X90281931Y-87675281D01*
X90345953Y-87464270D01*
X90453406Y-87346931D01*
X90615134Y-87298158D01*
X90753709Y-87291333D01*
X90932146Y-87306509D01*
X91049018Y-87379092D01*
X91151076Y-87549663D01*
X91213918Y-87690806D01*
X91327024Y-87981982D01*
X91455730Y-88353655D01*
X91566433Y-88706451D01*
X91666765Y-89030175D01*
X91762120Y-89229198D01*
X91895851Y-89341106D01*
X92111312Y-89403487D01*
X92424224Y-89450162D01*
X92667018Y-89478051D01*
X92777294Y-89467737D01*
X92789494Y-89409277D01*
X92766157Y-89351446D01*
X92728699Y-89196526D01*
X92693839Y-88924665D01*
X92667903Y-88588212D01*
X92663713Y-88503751D01*
X92651699Y-88159799D01*
X92658820Y-87943460D01*
X92694155Y-87813312D01*
X92766781Y-87727935D01*
X92846052Y-87671721D01*
X93067000Y-87577866D01*
X93254271Y-87559970D01*
X93424755Y-87662343D01*
X93604475Y-87905998D01*
X93780153Y-88264382D01*
X93938514Y-88710948D01*
X94053519Y-89158185D01*
X94194784Y-89815570D01*
X94372558Y-89464302D01*
X94635594Y-89097808D01*
X94979744Y-88846188D01*
X95368710Y-88734151D01*
X95450241Y-88730667D01*
X95672312Y-88712636D01*
X95782709Y-88638431D01*
X95825884Y-88527029D01*
X95948343Y-88278987D01*
X96150079Y-88082988D01*
X96377615Y-87984337D01*
X96468214Y-87982859D01*
X96585737Y-88033928D01*
X96713518Y-88170058D01*
X96870447Y-88416037D01*
X97048000Y-88743710D01*
X97230017Y-89080872D01*
X97401519Y-89376154D01*
X97536674Y-89586020D01*
X97583915Y-89646834D01*
X97687043Y-89813079D01*
X97654908Y-89973964D01*
X97651564Y-89980303D01*
X97611910Y-90157826D01*
X97646684Y-90430906D01*
X97688906Y-90601180D01*
X97845163Y-91236995D01*
X97961115Y-91837593D01*
X98034706Y-92379591D01*
X98063879Y-92839603D01*
X99321283Y-92839603D01*
X99274454Y-92647408D01*
X99125439Y-92482628D01*
X98931389Y-92421114D01*
X98736738Y-92486524D01*
X98677847Y-92542427D01*
X98500219Y-92687671D01*
X98357450Y-92681944D01*
X98287382Y-92583000D01*
X98272447Y-92368577D01*
X98398916Y-92215108D01*
X98646215Y-92134176D01*
X98993770Y-92137366D01*
X99061444Y-92147124D01*
X99451772Y-92268188D01*
X99703115Y-92483965D01*
X99819034Y-92797764D01*
X99825232Y-92857025D01*
X100084681Y-92857025D01*
X100308941Y-92759064D01*
X100350000Y-92744111D01*
X100620023Y-92630710D01*
X100754945Y-92538020D01*
X100745741Y-92476385D01*
X100601343Y-92456000D01*
X100438537Y-92511171D01*
X100380618Y-92583000D01*
X100279373Y-92708361D01*
X100158375Y-92706433D01*
X100063003Y-92606230D01*
X100038638Y-92436766D01*
X100052973Y-92373517D01*
X100180822Y-92225550D01*
X100416885Y-92152137D01*
X100714091Y-92160305D01*
X100977120Y-92235584D01*
X101182207Y-92339717D01*
X101264017Y-92452048D01*
X101265973Y-92600351D01*
X102466666Y-92600351D01*
X102466666Y-86190667D01*
X85533333Y-86190667D01*
X85533333Y-94657333D01*
X85533333Y-94657333D01*
G37*
X85533333Y-94657333D02*
X102466666Y-94657333D01*
X102466666Y-92600351D01*
X101265973Y-92600351D01*
X101216362Y-92760811D01*
X101083632Y-92875766D01*
X100861739Y-92972027D01*
X100632200Y-93072948D01*
X100481043Y-93170230D01*
X100452517Y-93206781D01*
X100487656Y-93280468D01*
X100616566Y-93302226D01*
X100773355Y-93276516D01*
X100892125Y-93207801D01*
X100912049Y-93175667D01*
X101013247Y-93058234D01*
X101128680Y-93075518D01*
X101194875Y-93211782D01*
X101196666Y-93246222D01*
X101174781Y-93424031D01*
X101140222Y-93500222D01*
X100997573Y-93549087D01*
X100756727Y-93554554D01*
X100481807Y-93521462D01*
X100236934Y-93454649D01*
X100176462Y-93427492D01*
X99975310Y-93263160D01*
X99926666Y-93097329D01*
X99956562Y-92965082D01*
X100071408Y-92862823D01*
X100084681Y-92857025D01*
X99825232Y-92857025D01*
X99821765Y-93104145D01*
X99743567Y-93267296D01*
X99623314Y-93377728D01*
X99378132Y-93492843D01*
X99045250Y-93555710D01*
X98700487Y-93558072D01*
X98451925Y-93505275D01*
X98335046Y-93395051D01*
X98318000Y-93326519D01*
X98356715Y-93244836D01*
X98498631Y-93236078D01*
X98603886Y-93252787D01*
X98945971Y-93268275D01*
X99192452Y-93178710D01*
X99320769Y-92995246D01*
X99334000Y-92891796D01*
X99321283Y-92839603D01*
X98063879Y-92839603D01*
X98046579Y-93194246D01*
X97980748Y-93420135D01*
X97941063Y-93468628D01*
X97780240Y-93526067D01*
X97603655Y-93498311D01*
X97485600Y-93404384D01*
X97471333Y-93348353D01*
X97403146Y-93222793D01*
X97344333Y-93187382D01*
X97240738Y-93073156D01*
X97209697Y-92945490D01*
X97196296Y-92846945D01*
X97162938Y-92898170D01*
X97123116Y-93025545D01*
X96970012Y-93276584D01*
X96704208Y-93464641D01*
X96375108Y-93575683D01*
X96032116Y-93595677D01*
X95724637Y-93510589D01*
X95629833Y-93449719D01*
X95542378Y-93347638D01*
X95332365Y-93347638D01*
X95330144Y-93447932D01*
X95248833Y-93502059D01*
X95079409Y-93533530D01*
X94840315Y-93536805D01*
X94597275Y-93516259D01*
X94416010Y-93476270D01*
X94363126Y-93443079D01*
X94376307Y-93330423D01*
X94431565Y-93268656D01*
X94511756Y-93112028D01*
X94508000Y-92837000D01*
X94468422Y-92619214D01*
X94395210Y-92522447D01*
X94246273Y-92498597D01*
X94211666Y-92498333D01*
X94044706Y-92514684D01*
X93966150Y-92596555D01*
X93933511Y-92793170D01*
X93930926Y-92823591D01*
X93941575Y-93088390D01*
X94037964Y-93250105D01*
X94057926Y-93266482D01*
X94159765Y-93366569D01*
X94123387Y-93441273D01*
X94084666Y-93469094D01*
X93889800Y-93532704D01*
X93620491Y-93551459D01*
X93365685Y-93524179D01*
X93248319Y-93480169D01*
X93181472Y-93367717D01*
X93236654Y-93255649D01*
X93348830Y-93217638D01*
X93416258Y-93137628D01*
X93462693Y-92916843D01*
X93474952Y-92773252D01*
X93504585Y-92505138D01*
X93526978Y-92412191D01*
X93144948Y-92412191D01*
X93045056Y-92455610D01*
X93026333Y-92456000D01*
X92949440Y-92498119D01*
X92910037Y-92645741D01*
X92899333Y-92917459D01*
X92858926Y-93266803D01*
X92729345Y-93478252D01*
X92498056Y-93560704D01*
X92152522Y-93523054D01*
X92073833Y-93503302D01*
X91906989Y-93418308D01*
X91888470Y-93318840D01*
X92004947Y-93240832D01*
X92179666Y-93218000D01*
X92381229Y-93201047D01*
X92463087Y-93129545D01*
X92474844Y-93027500D01*
X92437091Y-92697048D01*
X92322885Y-92505576D01*
X92156408Y-92439625D01*
X91962759Y-92378078D01*
X91911350Y-92281807D01*
X91919931Y-92273646D01*
X91789329Y-92273646D01*
X91770426Y-92345942D01*
X91625786Y-92414792D01*
X91516784Y-92478976D01*
X91472037Y-92611892D01*
X91472237Y-92843136D01*
X91508011Y-93105214D01*
X91590417Y-93238198D01*
X91645118Y-93265343D01*
X91785178Y-93355270D01*
X91763615Y-93476365D01*
X91742222Y-93500222D01*
X91620200Y-93538841D01*
X91400803Y-93554729D01*
X91154516Y-93547455D01*
X90951824Y-93516587D01*
X90916591Y-93505275D01*
X90805613Y-93408798D01*
X90802455Y-93379407D01*
X90698000Y-93379407D01*
X90617528Y-93433025D01*
X90390949Y-93464778D01*
X90147666Y-93472000D01*
X89828983Y-93458461D01*
X89640256Y-93420339D01*
X89597333Y-93379407D01*
X89667259Y-93282633D01*
X89745759Y-93247999D01*
X89839219Y-93187635D01*
X89872416Y-93043166D01*
X89864907Y-92841049D01*
X89835356Y-92608754D01*
X89770482Y-92493690D01*
X89632399Y-92443775D01*
X89568314Y-92433314D01*
X89347505Y-92417158D01*
X89195166Y-92433916D01*
X89120115Y-92541223D01*
X89088209Y-92744277D01*
X89097692Y-92975556D01*
X89146812Y-93167534D01*
X89216333Y-93248618D01*
X89329000Y-93364243D01*
X89343333Y-93431434D01*
X89271623Y-93515418D01*
X89093538Y-93553882D01*
X88864644Y-93550788D01*
X88640511Y-93510098D01*
X88476705Y-93435771D01*
X88427751Y-93366167D01*
X88460544Y-93240134D01*
X88532792Y-93218000D01*
X88609317Y-93183862D01*
X88650533Y-93058769D01*
X88665362Y-92808699D01*
X88665833Y-92735705D01*
X88262939Y-92735705D01*
X88254312Y-93055597D01*
X88234899Y-93119220D01*
X88113231Y-93327325D01*
X87963033Y-93455325D01*
X87746123Y-93514086D01*
X87441624Y-93546153D01*
X87128487Y-93547974D01*
X86885664Y-93515998D01*
X86852591Y-93505275D01*
X86735714Y-93395136D01*
X86718666Y-93326678D01*
X86760278Y-93244948D01*
X86909408Y-93226870D01*
X87036166Y-93238600D01*
X87383411Y-93236357D01*
X87631153Y-93145383D01*
X87760321Y-92983735D01*
X87751842Y-92769470D01*
X87678173Y-92630810D01*
X87519576Y-92506643D01*
X87312459Y-92457211D01*
X87123847Y-92487435D01*
X87026715Y-92583000D01*
X86923397Y-92702725D01*
X86801828Y-92689880D01*
X86724133Y-92560940D01*
X86718666Y-92501312D01*
X86789881Y-92287105D01*
X86995803Y-92163622D01*
X87324852Y-92136301D01*
X87466000Y-92150331D01*
X87852335Y-92262346D01*
X88123464Y-92464379D01*
X88262939Y-92735705D01*
X88665833Y-92735705D01*
X88666000Y-92710000D01*
X88666000Y-92202000D01*
X89174000Y-92191417D01*
X89521891Y-92182812D01*
X89735383Y-92168073D01*
X89849363Y-92137142D01*
X89898719Y-92079964D01*
X89918340Y-91986480D01*
X89919769Y-91976439D01*
X89879026Y-91809156D01*
X89742203Y-91720354D01*
X89572630Y-91731394D01*
X89459685Y-91821243D01*
X89317196Y-91921580D01*
X89220401Y-91918943D01*
X89109058Y-91917886D01*
X89089333Y-91956546D01*
X89025764Y-92014940D01*
X88886254Y-92012078D01*
X88747595Y-91959819D01*
X88690215Y-91894916D01*
X88737414Y-91795906D01*
X88901285Y-91677993D01*
X89134418Y-91564107D01*
X89389399Y-91477178D01*
X89618817Y-91440135D01*
X89630856Y-91440000D01*
X89901585Y-91493557D01*
X90146968Y-91629690D01*
X90315117Y-91811587D01*
X90359333Y-91956802D01*
X90416414Y-92116969D01*
X90486333Y-92171382D01*
X90595570Y-92273795D01*
X90597565Y-92404171D01*
X90517111Y-92473963D01*
X90455162Y-92570730D01*
X90416236Y-92774208D01*
X90411278Y-92857748D01*
X90423740Y-93100366D01*
X90488498Y-93219995D01*
X90549833Y-93248137D01*
X90675501Y-93324635D01*
X90698000Y-93379407D01*
X90802455Y-93379407D01*
X90792801Y-93289584D01*
X90880954Y-93219768D01*
X90905441Y-93218000D01*
X90982953Y-93165703D01*
X91030709Y-92991818D01*
X91053608Y-92731167D01*
X91079000Y-92244333D01*
X91438833Y-92218298D01*
X91672873Y-92224870D01*
X91789329Y-92273646D01*
X91919931Y-92273646D01*
X92008513Y-92189403D01*
X92110152Y-92157675D01*
X92343198Y-92091085D01*
X92498499Y-92026003D01*
X92652503Y-92000192D01*
X92847741Y-92094056D01*
X92900666Y-92131706D01*
X93095904Y-92301863D01*
X93144948Y-92412191D01*
X93526978Y-92412191D01*
X93552695Y-92305455D01*
X93585186Y-92244447D01*
X93699382Y-92211641D01*
X93934443Y-92188819D01*
X94242436Y-92176244D01*
X94575425Y-92174179D01*
X94885475Y-92182884D01*
X95124654Y-92202623D01*
X95245025Y-92233658D01*
X95246910Y-92235355D01*
X95236116Y-92327272D01*
X95156592Y-92440981D01*
X95047469Y-92643794D01*
X95012543Y-92886703D01*
X95049668Y-93108506D01*
X95156697Y-93248001D01*
X95185333Y-93260333D01*
X95332365Y-93347638D01*
X95542378Y-93347638D01*
X95522896Y-93324898D01*
X95568674Y-93250903D01*
X95755607Y-93237481D01*
X95865513Y-93250968D01*
X96166221Y-93261160D01*
X96401054Y-93198945D01*
X96528426Y-93078542D01*
X96540000Y-93020355D01*
X96468281Y-92948482D01*
X96248703Y-92947349D01*
X96243896Y-92947904D01*
X95888640Y-92952736D01*
X95626364Y-92881953D01*
X95491309Y-92746931D01*
X95486914Y-92538614D01*
X95615805Y-92358163D01*
X95842210Y-92223750D01*
X96130360Y-92153546D01*
X96444484Y-92165723D01*
X96571214Y-92198330D01*
X96813581Y-92314848D01*
X96999507Y-92465495D01*
X97013976Y-92483646D01*
X97100607Y-92592749D01*
X97127707Y-92580017D01*
X97108060Y-92425759D01*
X97096316Y-92356814D01*
X97039171Y-92086964D01*
X96955459Y-91758193D01*
X96912646Y-91607614D01*
X96829379Y-91355447D01*
X96756280Y-91234216D01*
X96665307Y-91209889D01*
X96597735Y-91225412D01*
X96417439Y-91261470D01*
X96134643Y-91298698D01*
X95862666Y-91324609D01*
X95319921Y-91306031D01*
X94880795Y-91155265D01*
X94539915Y-90869721D01*
X94363538Y-90601183D01*
X94169333Y-90228033D01*
X94160894Y-90855183D01*
X94146991Y-91299691D01*
X94113222Y-91601087D01*
X94050309Y-91785265D01*
X93948976Y-91878113D01*
X93799946Y-91905524D01*
X93784516Y-91905667D01*
X93674090Y-91898020D01*
X93587854Y-91856932D01*
X93508452Y-91755183D01*
X93418527Y-91565553D01*
X93300723Y-91260822D01*
X93202979Y-90993636D01*
X93053394Y-90588371D01*
X92934997Y-90314436D01*
X92820076Y-90144405D01*
X92680918Y-90050848D01*
X92489811Y-90006338D01*
X92219041Y-89983446D01*
X92179666Y-89980836D01*
X91841000Y-89958333D01*
X91788382Y-90720333D01*
X91747128Y-91204728D01*
X91693624Y-91544354D01*
X91616218Y-91763771D01*
X91503258Y-91887544D01*
X91343091Y-91940233D01*
X91206000Y-91948000D01*
X90991756Y-91924310D01*
X90846069Y-91836256D01*
X90756709Y-91658363D01*
X90711449Y-91365155D01*
X90698060Y-90931155D01*
X90698000Y-90889666D01*
X90686154Y-90445543D01*
X90642579Y-90142780D01*
X90555221Y-89954554D01*
X90412024Y-89854039D01*
X90215299Y-89815524D01*
X89997605Y-89778679D01*
X89905906Y-89699508D01*
X89893666Y-89619667D01*
X89963873Y-89466078D01*
X90065210Y-89425762D01*
X90140739Y-89403438D01*
X90190378Y-89342189D01*
X90219735Y-89211780D01*
X90234416Y-88981974D01*
X90240026Y-88622536D01*
X90240806Y-88478729D01*
X90249266Y-88065194D01*
X89597333Y-88065194D01*
X89526963Y-88373222D01*
X89343056Y-88595306D01*
X89086417Y-88715165D01*
X88797849Y-88716513D01*
X88518157Y-88583070D01*
X88450485Y-88522848D01*
X88286057Y-88257762D01*
X88259232Y-87968749D01*
X88352671Y-87698159D01*
X88549040Y-87488338D01*
X88830999Y-87381636D01*
X88920000Y-87376000D01*
X89215285Y-87452867D01*
X89450946Y-87653754D01*
X89583177Y-87934086D01*
X89597333Y-88065194D01*
X90249266Y-88065194D01*
X90250497Y-88005066D01*
X90281931Y-87675281D01*
X90345953Y-87464270D01*
X90453406Y-87346931D01*
X90615134Y-87298158D01*
X90753709Y-87291333D01*
X90932146Y-87306509D01*
X91049018Y-87379092D01*
X91151076Y-87549663D01*
X91213918Y-87690806D01*
X91327024Y-87981982D01*
X91455730Y-88353655D01*
X91566433Y-88706451D01*
X91666765Y-89030175D01*
X91762120Y-89229198D01*
X91895851Y-89341106D01*
X92111312Y-89403487D01*
X92424224Y-89450162D01*
X92667018Y-89478051D01*
X92777294Y-89467737D01*
X92789494Y-89409277D01*
X92766157Y-89351446D01*
X92728699Y-89196526D01*
X92693839Y-88924665D01*
X92667903Y-88588212D01*
X92663713Y-88503751D01*
X92651699Y-88159799D01*
X92658820Y-87943460D01*
X92694155Y-87813312D01*
X92766781Y-87727935D01*
X92846052Y-87671721D01*
X93067000Y-87577866D01*
X93254271Y-87559970D01*
X93424755Y-87662343D01*
X93604475Y-87905998D01*
X93780153Y-88264382D01*
X93938514Y-88710948D01*
X94053519Y-89158185D01*
X94194784Y-89815570D01*
X94372558Y-89464302D01*
X94635594Y-89097808D01*
X94979744Y-88846188D01*
X95368710Y-88734151D01*
X95450241Y-88730667D01*
X95672312Y-88712636D01*
X95782709Y-88638431D01*
X95825884Y-88527029D01*
X95948343Y-88278987D01*
X96150079Y-88082988D01*
X96377615Y-87984337D01*
X96468214Y-87982859D01*
X96585737Y-88033928D01*
X96713518Y-88170058D01*
X96870447Y-88416037D01*
X97048000Y-88743710D01*
X97230017Y-89080872D01*
X97401519Y-89376154D01*
X97536674Y-89586020D01*
X97583915Y-89646834D01*
X97687043Y-89813079D01*
X97654908Y-89973964D01*
X97651564Y-89980303D01*
X97611910Y-90157826D01*
X97646684Y-90430906D01*
X97688906Y-90601180D01*
X97845163Y-91236995D01*
X97961115Y-91837593D01*
X98034706Y-92379591D01*
X98063879Y-92839603D01*
X99321283Y-92839603D01*
X99274454Y-92647408D01*
X99125439Y-92482628D01*
X98931389Y-92421114D01*
X98736738Y-92486524D01*
X98677847Y-92542427D01*
X98500219Y-92687671D01*
X98357450Y-92681944D01*
X98287382Y-92583000D01*
X98272447Y-92368577D01*
X98398916Y-92215108D01*
X98646215Y-92134176D01*
X98993770Y-92137366D01*
X99061444Y-92147124D01*
X99451772Y-92268188D01*
X99703115Y-92483965D01*
X99819034Y-92797764D01*
X99825232Y-92857025D01*
X100084681Y-92857025D01*
X100308941Y-92759064D01*
X100350000Y-92744111D01*
X100620023Y-92630710D01*
X100754945Y-92538020D01*
X100745741Y-92476385D01*
X100601343Y-92456000D01*
X100438537Y-92511171D01*
X100380618Y-92583000D01*
X100279373Y-92708361D01*
X100158375Y-92706433D01*
X100063003Y-92606230D01*
X100038638Y-92436766D01*
X100052973Y-92373517D01*
X100180822Y-92225550D01*
X100416885Y-92152137D01*
X100714091Y-92160305D01*
X100977120Y-92235584D01*
X101182207Y-92339717D01*
X101264017Y-92452048D01*
X101265973Y-92600351D01*
X102466666Y-92600351D01*
X102466666Y-86190667D01*
X85533333Y-86190667D01*
X85533333Y-94657333D01*
M02*
