G04 #@! TF.GenerationSoftware,KiCad,Pcbnew,(5.1.2)-2*
G04 #@! TF.CreationDate,2019-11-06T08:40:08+07:00*
G04 #@! TF.ProjectId,ph_vresistor_pos_sensor_board_hw,70685f76-7265-4736-9973-746f725f706f,rev?*
G04 #@! TF.SameCoordinates,Original*
G04 #@! TF.FileFunction,Paste,Top*
G04 #@! TF.FilePolarity,Positive*
%FSLAX46Y46*%
G04 Gerber Fmt 4.6, Leading zero omitted, Abs format (unit mm)*
G04 Created by KiCad (PCBNEW (5.1.2)-2) date 2019-11-06 08:40:08*
%MOMM*%
%LPD*%
G04 APERTURE LIST*
%ADD10C,0.100000*%
%ADD11C,1.150000*%
%ADD12R,1.000000X1.000000*%
%ADD13R,2.000000X3.500000*%
%ADD14R,7.000000X7.000000*%
%ADD15R,1.254000X0.800100*%
G04 APERTURE END LIST*
D10*
G36*
X109306505Y-92265204D02*
G01*
X109330773Y-92268804D01*
X109354572Y-92274765D01*
X109377671Y-92283030D01*
X109399850Y-92293520D01*
X109420893Y-92306132D01*
X109440599Y-92320747D01*
X109458777Y-92337223D01*
X109475253Y-92355401D01*
X109489868Y-92375107D01*
X109502480Y-92396150D01*
X109512970Y-92418329D01*
X109521235Y-92441428D01*
X109527196Y-92465227D01*
X109530796Y-92489495D01*
X109532000Y-92513999D01*
X109532000Y-93414001D01*
X109530796Y-93438505D01*
X109527196Y-93462773D01*
X109521235Y-93486572D01*
X109512970Y-93509671D01*
X109502480Y-93531850D01*
X109489868Y-93552893D01*
X109475253Y-93572599D01*
X109458777Y-93590777D01*
X109440599Y-93607253D01*
X109420893Y-93621868D01*
X109399850Y-93634480D01*
X109377671Y-93644970D01*
X109354572Y-93653235D01*
X109330773Y-93659196D01*
X109306505Y-93662796D01*
X109282001Y-93664000D01*
X108631999Y-93664000D01*
X108607495Y-93662796D01*
X108583227Y-93659196D01*
X108559428Y-93653235D01*
X108536329Y-93644970D01*
X108514150Y-93634480D01*
X108493107Y-93621868D01*
X108473401Y-93607253D01*
X108455223Y-93590777D01*
X108438747Y-93572599D01*
X108424132Y-93552893D01*
X108411520Y-93531850D01*
X108401030Y-93509671D01*
X108392765Y-93486572D01*
X108386804Y-93462773D01*
X108383204Y-93438505D01*
X108382000Y-93414001D01*
X108382000Y-92513999D01*
X108383204Y-92489495D01*
X108386804Y-92465227D01*
X108392765Y-92441428D01*
X108401030Y-92418329D01*
X108411520Y-92396150D01*
X108424132Y-92375107D01*
X108438747Y-92355401D01*
X108455223Y-92337223D01*
X108473401Y-92320747D01*
X108493107Y-92306132D01*
X108514150Y-92293520D01*
X108536329Y-92283030D01*
X108559428Y-92274765D01*
X108583227Y-92268804D01*
X108607495Y-92265204D01*
X108631999Y-92264000D01*
X109282001Y-92264000D01*
X109306505Y-92265204D01*
X109306505Y-92265204D01*
G37*
D11*
X108957000Y-92964000D03*
D10*
G36*
X111356505Y-92265204D02*
G01*
X111380773Y-92268804D01*
X111404572Y-92274765D01*
X111427671Y-92283030D01*
X111449850Y-92293520D01*
X111470893Y-92306132D01*
X111490599Y-92320747D01*
X111508777Y-92337223D01*
X111525253Y-92355401D01*
X111539868Y-92375107D01*
X111552480Y-92396150D01*
X111562970Y-92418329D01*
X111571235Y-92441428D01*
X111577196Y-92465227D01*
X111580796Y-92489495D01*
X111582000Y-92513999D01*
X111582000Y-93414001D01*
X111580796Y-93438505D01*
X111577196Y-93462773D01*
X111571235Y-93486572D01*
X111562970Y-93509671D01*
X111552480Y-93531850D01*
X111539868Y-93552893D01*
X111525253Y-93572599D01*
X111508777Y-93590777D01*
X111490599Y-93607253D01*
X111470893Y-93621868D01*
X111449850Y-93634480D01*
X111427671Y-93644970D01*
X111404572Y-93653235D01*
X111380773Y-93659196D01*
X111356505Y-93662796D01*
X111332001Y-93664000D01*
X110681999Y-93664000D01*
X110657495Y-93662796D01*
X110633227Y-93659196D01*
X110609428Y-93653235D01*
X110586329Y-93644970D01*
X110564150Y-93634480D01*
X110543107Y-93621868D01*
X110523401Y-93607253D01*
X110505223Y-93590777D01*
X110488747Y-93572599D01*
X110474132Y-93552893D01*
X110461520Y-93531850D01*
X110451030Y-93509671D01*
X110442765Y-93486572D01*
X110436804Y-93462773D01*
X110433204Y-93438505D01*
X110432000Y-93414001D01*
X110432000Y-92513999D01*
X110433204Y-92489495D01*
X110436804Y-92465227D01*
X110442765Y-92441428D01*
X110451030Y-92418329D01*
X110461520Y-92396150D01*
X110474132Y-92375107D01*
X110488747Y-92355401D01*
X110505223Y-92337223D01*
X110523401Y-92320747D01*
X110543107Y-92306132D01*
X110564150Y-92293520D01*
X110586329Y-92283030D01*
X110609428Y-92274765D01*
X110633227Y-92268804D01*
X110657495Y-92265204D01*
X110681999Y-92264000D01*
X111332001Y-92264000D01*
X111356505Y-92265204D01*
X111356505Y-92265204D01*
G37*
D11*
X111007000Y-92964000D03*
D10*
G36*
X109306505Y-73469204D02*
G01*
X109330773Y-73472804D01*
X109354572Y-73478765D01*
X109377671Y-73487030D01*
X109399850Y-73497520D01*
X109420893Y-73510132D01*
X109440599Y-73524747D01*
X109458777Y-73541223D01*
X109475253Y-73559401D01*
X109489868Y-73579107D01*
X109502480Y-73600150D01*
X109512970Y-73622329D01*
X109521235Y-73645428D01*
X109527196Y-73669227D01*
X109530796Y-73693495D01*
X109532000Y-73717999D01*
X109532000Y-74618001D01*
X109530796Y-74642505D01*
X109527196Y-74666773D01*
X109521235Y-74690572D01*
X109512970Y-74713671D01*
X109502480Y-74735850D01*
X109489868Y-74756893D01*
X109475253Y-74776599D01*
X109458777Y-74794777D01*
X109440599Y-74811253D01*
X109420893Y-74825868D01*
X109399850Y-74838480D01*
X109377671Y-74848970D01*
X109354572Y-74857235D01*
X109330773Y-74863196D01*
X109306505Y-74866796D01*
X109282001Y-74868000D01*
X108631999Y-74868000D01*
X108607495Y-74866796D01*
X108583227Y-74863196D01*
X108559428Y-74857235D01*
X108536329Y-74848970D01*
X108514150Y-74838480D01*
X108493107Y-74825868D01*
X108473401Y-74811253D01*
X108455223Y-74794777D01*
X108438747Y-74776599D01*
X108424132Y-74756893D01*
X108411520Y-74735850D01*
X108401030Y-74713671D01*
X108392765Y-74690572D01*
X108386804Y-74666773D01*
X108383204Y-74642505D01*
X108382000Y-74618001D01*
X108382000Y-73717999D01*
X108383204Y-73693495D01*
X108386804Y-73669227D01*
X108392765Y-73645428D01*
X108401030Y-73622329D01*
X108411520Y-73600150D01*
X108424132Y-73579107D01*
X108438747Y-73559401D01*
X108455223Y-73541223D01*
X108473401Y-73524747D01*
X108493107Y-73510132D01*
X108514150Y-73497520D01*
X108536329Y-73487030D01*
X108559428Y-73478765D01*
X108583227Y-73472804D01*
X108607495Y-73469204D01*
X108631999Y-73468000D01*
X109282001Y-73468000D01*
X109306505Y-73469204D01*
X109306505Y-73469204D01*
G37*
D11*
X108957000Y-74168000D03*
D10*
G36*
X111356505Y-73469204D02*
G01*
X111380773Y-73472804D01*
X111404572Y-73478765D01*
X111427671Y-73487030D01*
X111449850Y-73497520D01*
X111470893Y-73510132D01*
X111490599Y-73524747D01*
X111508777Y-73541223D01*
X111525253Y-73559401D01*
X111539868Y-73579107D01*
X111552480Y-73600150D01*
X111562970Y-73622329D01*
X111571235Y-73645428D01*
X111577196Y-73669227D01*
X111580796Y-73693495D01*
X111582000Y-73717999D01*
X111582000Y-74618001D01*
X111580796Y-74642505D01*
X111577196Y-74666773D01*
X111571235Y-74690572D01*
X111562970Y-74713671D01*
X111552480Y-74735850D01*
X111539868Y-74756893D01*
X111525253Y-74776599D01*
X111508777Y-74794777D01*
X111490599Y-74811253D01*
X111470893Y-74825868D01*
X111449850Y-74838480D01*
X111427671Y-74848970D01*
X111404572Y-74857235D01*
X111380773Y-74863196D01*
X111356505Y-74866796D01*
X111332001Y-74868000D01*
X110681999Y-74868000D01*
X110657495Y-74866796D01*
X110633227Y-74863196D01*
X110609428Y-74857235D01*
X110586329Y-74848970D01*
X110564150Y-74838480D01*
X110543107Y-74825868D01*
X110523401Y-74811253D01*
X110505223Y-74794777D01*
X110488747Y-74776599D01*
X110474132Y-74756893D01*
X110461520Y-74735850D01*
X110451030Y-74713671D01*
X110442765Y-74690572D01*
X110436804Y-74666773D01*
X110433204Y-74642505D01*
X110432000Y-74618001D01*
X110432000Y-73717999D01*
X110433204Y-73693495D01*
X110436804Y-73669227D01*
X110442765Y-73645428D01*
X110451030Y-73622329D01*
X110461520Y-73600150D01*
X110474132Y-73579107D01*
X110488747Y-73559401D01*
X110505223Y-73541223D01*
X110523401Y-73524747D01*
X110543107Y-73510132D01*
X110564150Y-73497520D01*
X110586329Y-73487030D01*
X110609428Y-73478765D01*
X110633227Y-73472804D01*
X110657495Y-73469204D01*
X110681999Y-73468000D01*
X111332001Y-73468000D01*
X111356505Y-73469204D01*
X111356505Y-73469204D01*
G37*
D11*
X111007000Y-74168000D03*
D10*
G36*
X109306505Y-78041204D02*
G01*
X109330773Y-78044804D01*
X109354572Y-78050765D01*
X109377671Y-78059030D01*
X109399850Y-78069520D01*
X109420893Y-78082132D01*
X109440599Y-78096747D01*
X109458777Y-78113223D01*
X109475253Y-78131401D01*
X109489868Y-78151107D01*
X109502480Y-78172150D01*
X109512970Y-78194329D01*
X109521235Y-78217428D01*
X109527196Y-78241227D01*
X109530796Y-78265495D01*
X109532000Y-78289999D01*
X109532000Y-79190001D01*
X109530796Y-79214505D01*
X109527196Y-79238773D01*
X109521235Y-79262572D01*
X109512970Y-79285671D01*
X109502480Y-79307850D01*
X109489868Y-79328893D01*
X109475253Y-79348599D01*
X109458777Y-79366777D01*
X109440599Y-79383253D01*
X109420893Y-79397868D01*
X109399850Y-79410480D01*
X109377671Y-79420970D01*
X109354572Y-79429235D01*
X109330773Y-79435196D01*
X109306505Y-79438796D01*
X109282001Y-79440000D01*
X108631999Y-79440000D01*
X108607495Y-79438796D01*
X108583227Y-79435196D01*
X108559428Y-79429235D01*
X108536329Y-79420970D01*
X108514150Y-79410480D01*
X108493107Y-79397868D01*
X108473401Y-79383253D01*
X108455223Y-79366777D01*
X108438747Y-79348599D01*
X108424132Y-79328893D01*
X108411520Y-79307850D01*
X108401030Y-79285671D01*
X108392765Y-79262572D01*
X108386804Y-79238773D01*
X108383204Y-79214505D01*
X108382000Y-79190001D01*
X108382000Y-78289999D01*
X108383204Y-78265495D01*
X108386804Y-78241227D01*
X108392765Y-78217428D01*
X108401030Y-78194329D01*
X108411520Y-78172150D01*
X108424132Y-78151107D01*
X108438747Y-78131401D01*
X108455223Y-78113223D01*
X108473401Y-78096747D01*
X108493107Y-78082132D01*
X108514150Y-78069520D01*
X108536329Y-78059030D01*
X108559428Y-78050765D01*
X108583227Y-78044804D01*
X108607495Y-78041204D01*
X108631999Y-78040000D01*
X109282001Y-78040000D01*
X109306505Y-78041204D01*
X109306505Y-78041204D01*
G37*
D11*
X108957000Y-78740000D03*
D10*
G36*
X111356505Y-78041204D02*
G01*
X111380773Y-78044804D01*
X111404572Y-78050765D01*
X111427671Y-78059030D01*
X111449850Y-78069520D01*
X111470893Y-78082132D01*
X111490599Y-78096747D01*
X111508777Y-78113223D01*
X111525253Y-78131401D01*
X111539868Y-78151107D01*
X111552480Y-78172150D01*
X111562970Y-78194329D01*
X111571235Y-78217428D01*
X111577196Y-78241227D01*
X111580796Y-78265495D01*
X111582000Y-78289999D01*
X111582000Y-79190001D01*
X111580796Y-79214505D01*
X111577196Y-79238773D01*
X111571235Y-79262572D01*
X111562970Y-79285671D01*
X111552480Y-79307850D01*
X111539868Y-79328893D01*
X111525253Y-79348599D01*
X111508777Y-79366777D01*
X111490599Y-79383253D01*
X111470893Y-79397868D01*
X111449850Y-79410480D01*
X111427671Y-79420970D01*
X111404572Y-79429235D01*
X111380773Y-79435196D01*
X111356505Y-79438796D01*
X111332001Y-79440000D01*
X110681999Y-79440000D01*
X110657495Y-79438796D01*
X110633227Y-79435196D01*
X110609428Y-79429235D01*
X110586329Y-79420970D01*
X110564150Y-79410480D01*
X110543107Y-79397868D01*
X110523401Y-79383253D01*
X110505223Y-79366777D01*
X110488747Y-79348599D01*
X110474132Y-79328893D01*
X110461520Y-79307850D01*
X110451030Y-79285671D01*
X110442765Y-79262572D01*
X110436804Y-79238773D01*
X110433204Y-79214505D01*
X110432000Y-79190001D01*
X110432000Y-78289999D01*
X110433204Y-78265495D01*
X110436804Y-78241227D01*
X110442765Y-78217428D01*
X110451030Y-78194329D01*
X110461520Y-78172150D01*
X110474132Y-78151107D01*
X110488747Y-78131401D01*
X110505223Y-78113223D01*
X110523401Y-78096747D01*
X110543107Y-78082132D01*
X110564150Y-78069520D01*
X110586329Y-78059030D01*
X110609428Y-78050765D01*
X110633227Y-78044804D01*
X110657495Y-78041204D01*
X110681999Y-78040000D01*
X111332001Y-78040000D01*
X111356505Y-78041204D01*
X111356505Y-78041204D01*
G37*
D11*
X111007000Y-78740000D03*
D12*
X108732000Y-87884000D03*
X111232000Y-87884000D03*
D10*
G36*
X123918505Y-78411204D02*
G01*
X123942773Y-78414804D01*
X123966572Y-78420765D01*
X123989671Y-78429030D01*
X124011850Y-78439520D01*
X124032893Y-78452132D01*
X124052599Y-78466747D01*
X124070777Y-78483223D01*
X124087253Y-78501401D01*
X124101868Y-78521107D01*
X124114480Y-78542150D01*
X124124970Y-78564329D01*
X124133235Y-78587428D01*
X124139196Y-78611227D01*
X124142796Y-78635495D01*
X124144000Y-78659999D01*
X124144000Y-79310001D01*
X124142796Y-79334505D01*
X124139196Y-79358773D01*
X124133235Y-79382572D01*
X124124970Y-79405671D01*
X124114480Y-79427850D01*
X124101868Y-79448893D01*
X124087253Y-79468599D01*
X124070777Y-79486777D01*
X124052599Y-79503253D01*
X124032893Y-79517868D01*
X124011850Y-79530480D01*
X123989671Y-79540970D01*
X123966572Y-79549235D01*
X123942773Y-79555196D01*
X123918505Y-79558796D01*
X123894001Y-79560000D01*
X122993999Y-79560000D01*
X122969495Y-79558796D01*
X122945227Y-79555196D01*
X122921428Y-79549235D01*
X122898329Y-79540970D01*
X122876150Y-79530480D01*
X122855107Y-79517868D01*
X122835401Y-79503253D01*
X122817223Y-79486777D01*
X122800747Y-79468599D01*
X122786132Y-79448893D01*
X122773520Y-79427850D01*
X122763030Y-79405671D01*
X122754765Y-79382572D01*
X122748804Y-79358773D01*
X122745204Y-79334505D01*
X122744000Y-79310001D01*
X122744000Y-78659999D01*
X122745204Y-78635495D01*
X122748804Y-78611227D01*
X122754765Y-78587428D01*
X122763030Y-78564329D01*
X122773520Y-78542150D01*
X122786132Y-78521107D01*
X122800747Y-78501401D01*
X122817223Y-78483223D01*
X122835401Y-78466747D01*
X122855107Y-78452132D01*
X122876150Y-78439520D01*
X122898329Y-78429030D01*
X122921428Y-78420765D01*
X122945227Y-78414804D01*
X122969495Y-78411204D01*
X122993999Y-78410000D01*
X123894001Y-78410000D01*
X123918505Y-78411204D01*
X123918505Y-78411204D01*
G37*
D11*
X123444000Y-78985000D03*
D10*
G36*
X123918505Y-80461204D02*
G01*
X123942773Y-80464804D01*
X123966572Y-80470765D01*
X123989671Y-80479030D01*
X124011850Y-80489520D01*
X124032893Y-80502132D01*
X124052599Y-80516747D01*
X124070777Y-80533223D01*
X124087253Y-80551401D01*
X124101868Y-80571107D01*
X124114480Y-80592150D01*
X124124970Y-80614329D01*
X124133235Y-80637428D01*
X124139196Y-80661227D01*
X124142796Y-80685495D01*
X124144000Y-80709999D01*
X124144000Y-81360001D01*
X124142796Y-81384505D01*
X124139196Y-81408773D01*
X124133235Y-81432572D01*
X124124970Y-81455671D01*
X124114480Y-81477850D01*
X124101868Y-81498893D01*
X124087253Y-81518599D01*
X124070777Y-81536777D01*
X124052599Y-81553253D01*
X124032893Y-81567868D01*
X124011850Y-81580480D01*
X123989671Y-81590970D01*
X123966572Y-81599235D01*
X123942773Y-81605196D01*
X123918505Y-81608796D01*
X123894001Y-81610000D01*
X122993999Y-81610000D01*
X122969495Y-81608796D01*
X122945227Y-81605196D01*
X122921428Y-81599235D01*
X122898329Y-81590970D01*
X122876150Y-81580480D01*
X122855107Y-81567868D01*
X122835401Y-81553253D01*
X122817223Y-81536777D01*
X122800747Y-81518599D01*
X122786132Y-81498893D01*
X122773520Y-81477850D01*
X122763030Y-81455671D01*
X122754765Y-81432572D01*
X122748804Y-81408773D01*
X122745204Y-81384505D01*
X122744000Y-81360001D01*
X122744000Y-80709999D01*
X122745204Y-80685495D01*
X122748804Y-80661227D01*
X122754765Y-80637428D01*
X122763030Y-80614329D01*
X122773520Y-80592150D01*
X122786132Y-80571107D01*
X122800747Y-80551401D01*
X122817223Y-80533223D01*
X122835401Y-80516747D01*
X122855107Y-80502132D01*
X122876150Y-80489520D01*
X122898329Y-80479030D01*
X122921428Y-80470765D01*
X122945227Y-80464804D01*
X122969495Y-80461204D01*
X122993999Y-80460000D01*
X123894001Y-80460000D01*
X123918505Y-80461204D01*
X123918505Y-80461204D01*
G37*
D11*
X123444000Y-81035000D03*
D10*
G36*
X109306505Y-89725204D02*
G01*
X109330773Y-89728804D01*
X109354572Y-89734765D01*
X109377671Y-89743030D01*
X109399850Y-89753520D01*
X109420893Y-89766132D01*
X109440599Y-89780747D01*
X109458777Y-89797223D01*
X109475253Y-89815401D01*
X109489868Y-89835107D01*
X109502480Y-89856150D01*
X109512970Y-89878329D01*
X109521235Y-89901428D01*
X109527196Y-89925227D01*
X109530796Y-89949495D01*
X109532000Y-89973999D01*
X109532000Y-90874001D01*
X109530796Y-90898505D01*
X109527196Y-90922773D01*
X109521235Y-90946572D01*
X109512970Y-90969671D01*
X109502480Y-90991850D01*
X109489868Y-91012893D01*
X109475253Y-91032599D01*
X109458777Y-91050777D01*
X109440599Y-91067253D01*
X109420893Y-91081868D01*
X109399850Y-91094480D01*
X109377671Y-91104970D01*
X109354572Y-91113235D01*
X109330773Y-91119196D01*
X109306505Y-91122796D01*
X109282001Y-91124000D01*
X108631999Y-91124000D01*
X108607495Y-91122796D01*
X108583227Y-91119196D01*
X108559428Y-91113235D01*
X108536329Y-91104970D01*
X108514150Y-91094480D01*
X108493107Y-91081868D01*
X108473401Y-91067253D01*
X108455223Y-91050777D01*
X108438747Y-91032599D01*
X108424132Y-91012893D01*
X108411520Y-90991850D01*
X108401030Y-90969671D01*
X108392765Y-90946572D01*
X108386804Y-90922773D01*
X108383204Y-90898505D01*
X108382000Y-90874001D01*
X108382000Y-89973999D01*
X108383204Y-89949495D01*
X108386804Y-89925227D01*
X108392765Y-89901428D01*
X108401030Y-89878329D01*
X108411520Y-89856150D01*
X108424132Y-89835107D01*
X108438747Y-89815401D01*
X108455223Y-89797223D01*
X108473401Y-89780747D01*
X108493107Y-89766132D01*
X108514150Y-89753520D01*
X108536329Y-89743030D01*
X108559428Y-89734765D01*
X108583227Y-89728804D01*
X108607495Y-89725204D01*
X108631999Y-89724000D01*
X109282001Y-89724000D01*
X109306505Y-89725204D01*
X109306505Y-89725204D01*
G37*
D11*
X108957000Y-90424000D03*
D10*
G36*
X111356505Y-89725204D02*
G01*
X111380773Y-89728804D01*
X111404572Y-89734765D01*
X111427671Y-89743030D01*
X111449850Y-89753520D01*
X111470893Y-89766132D01*
X111490599Y-89780747D01*
X111508777Y-89797223D01*
X111525253Y-89815401D01*
X111539868Y-89835107D01*
X111552480Y-89856150D01*
X111562970Y-89878329D01*
X111571235Y-89901428D01*
X111577196Y-89925227D01*
X111580796Y-89949495D01*
X111582000Y-89973999D01*
X111582000Y-90874001D01*
X111580796Y-90898505D01*
X111577196Y-90922773D01*
X111571235Y-90946572D01*
X111562970Y-90969671D01*
X111552480Y-90991850D01*
X111539868Y-91012893D01*
X111525253Y-91032599D01*
X111508777Y-91050777D01*
X111490599Y-91067253D01*
X111470893Y-91081868D01*
X111449850Y-91094480D01*
X111427671Y-91104970D01*
X111404572Y-91113235D01*
X111380773Y-91119196D01*
X111356505Y-91122796D01*
X111332001Y-91124000D01*
X110681999Y-91124000D01*
X110657495Y-91122796D01*
X110633227Y-91119196D01*
X110609428Y-91113235D01*
X110586329Y-91104970D01*
X110564150Y-91094480D01*
X110543107Y-91081868D01*
X110523401Y-91067253D01*
X110505223Y-91050777D01*
X110488747Y-91032599D01*
X110474132Y-91012893D01*
X110461520Y-90991850D01*
X110451030Y-90969671D01*
X110442765Y-90946572D01*
X110436804Y-90922773D01*
X110433204Y-90898505D01*
X110432000Y-90874001D01*
X110432000Y-89973999D01*
X110433204Y-89949495D01*
X110436804Y-89925227D01*
X110442765Y-89901428D01*
X110451030Y-89878329D01*
X110461520Y-89856150D01*
X110474132Y-89835107D01*
X110488747Y-89815401D01*
X110505223Y-89797223D01*
X110523401Y-89780747D01*
X110543107Y-89766132D01*
X110564150Y-89753520D01*
X110586329Y-89743030D01*
X110609428Y-89734765D01*
X110633227Y-89728804D01*
X110657495Y-89725204D01*
X110681999Y-89724000D01*
X111332001Y-89724000D01*
X111356505Y-89725204D01*
X111356505Y-89725204D01*
G37*
D11*
X111007000Y-90424000D03*
D10*
G36*
X109306505Y-75755204D02*
G01*
X109330773Y-75758804D01*
X109354572Y-75764765D01*
X109377671Y-75773030D01*
X109399850Y-75783520D01*
X109420893Y-75796132D01*
X109440599Y-75810747D01*
X109458777Y-75827223D01*
X109475253Y-75845401D01*
X109489868Y-75865107D01*
X109502480Y-75886150D01*
X109512970Y-75908329D01*
X109521235Y-75931428D01*
X109527196Y-75955227D01*
X109530796Y-75979495D01*
X109532000Y-76003999D01*
X109532000Y-76904001D01*
X109530796Y-76928505D01*
X109527196Y-76952773D01*
X109521235Y-76976572D01*
X109512970Y-76999671D01*
X109502480Y-77021850D01*
X109489868Y-77042893D01*
X109475253Y-77062599D01*
X109458777Y-77080777D01*
X109440599Y-77097253D01*
X109420893Y-77111868D01*
X109399850Y-77124480D01*
X109377671Y-77134970D01*
X109354572Y-77143235D01*
X109330773Y-77149196D01*
X109306505Y-77152796D01*
X109282001Y-77154000D01*
X108631999Y-77154000D01*
X108607495Y-77152796D01*
X108583227Y-77149196D01*
X108559428Y-77143235D01*
X108536329Y-77134970D01*
X108514150Y-77124480D01*
X108493107Y-77111868D01*
X108473401Y-77097253D01*
X108455223Y-77080777D01*
X108438747Y-77062599D01*
X108424132Y-77042893D01*
X108411520Y-77021850D01*
X108401030Y-76999671D01*
X108392765Y-76976572D01*
X108386804Y-76952773D01*
X108383204Y-76928505D01*
X108382000Y-76904001D01*
X108382000Y-76003999D01*
X108383204Y-75979495D01*
X108386804Y-75955227D01*
X108392765Y-75931428D01*
X108401030Y-75908329D01*
X108411520Y-75886150D01*
X108424132Y-75865107D01*
X108438747Y-75845401D01*
X108455223Y-75827223D01*
X108473401Y-75810747D01*
X108493107Y-75796132D01*
X108514150Y-75783520D01*
X108536329Y-75773030D01*
X108559428Y-75764765D01*
X108583227Y-75758804D01*
X108607495Y-75755204D01*
X108631999Y-75754000D01*
X109282001Y-75754000D01*
X109306505Y-75755204D01*
X109306505Y-75755204D01*
G37*
D11*
X108957000Y-76454000D03*
D10*
G36*
X111356505Y-75755204D02*
G01*
X111380773Y-75758804D01*
X111404572Y-75764765D01*
X111427671Y-75773030D01*
X111449850Y-75783520D01*
X111470893Y-75796132D01*
X111490599Y-75810747D01*
X111508777Y-75827223D01*
X111525253Y-75845401D01*
X111539868Y-75865107D01*
X111552480Y-75886150D01*
X111562970Y-75908329D01*
X111571235Y-75931428D01*
X111577196Y-75955227D01*
X111580796Y-75979495D01*
X111582000Y-76003999D01*
X111582000Y-76904001D01*
X111580796Y-76928505D01*
X111577196Y-76952773D01*
X111571235Y-76976572D01*
X111562970Y-76999671D01*
X111552480Y-77021850D01*
X111539868Y-77042893D01*
X111525253Y-77062599D01*
X111508777Y-77080777D01*
X111490599Y-77097253D01*
X111470893Y-77111868D01*
X111449850Y-77124480D01*
X111427671Y-77134970D01*
X111404572Y-77143235D01*
X111380773Y-77149196D01*
X111356505Y-77152796D01*
X111332001Y-77154000D01*
X110681999Y-77154000D01*
X110657495Y-77152796D01*
X110633227Y-77149196D01*
X110609428Y-77143235D01*
X110586329Y-77134970D01*
X110564150Y-77124480D01*
X110543107Y-77111868D01*
X110523401Y-77097253D01*
X110505223Y-77080777D01*
X110488747Y-77062599D01*
X110474132Y-77042893D01*
X110461520Y-77021850D01*
X110451030Y-76999671D01*
X110442765Y-76976572D01*
X110436804Y-76952773D01*
X110433204Y-76928505D01*
X110432000Y-76904001D01*
X110432000Y-76003999D01*
X110433204Y-75979495D01*
X110436804Y-75955227D01*
X110442765Y-75931428D01*
X110451030Y-75908329D01*
X110461520Y-75886150D01*
X110474132Y-75865107D01*
X110488747Y-75845401D01*
X110505223Y-75827223D01*
X110523401Y-75810747D01*
X110543107Y-75796132D01*
X110564150Y-75783520D01*
X110586329Y-75773030D01*
X110609428Y-75764765D01*
X110633227Y-75758804D01*
X110657495Y-75755204D01*
X110681999Y-75754000D01*
X111332001Y-75754000D01*
X111356505Y-75755204D01*
X111356505Y-75755204D01*
G37*
D11*
X111007000Y-76454000D03*
D10*
G36*
X109306505Y-84899204D02*
G01*
X109330773Y-84902804D01*
X109354572Y-84908765D01*
X109377671Y-84917030D01*
X109399850Y-84927520D01*
X109420893Y-84940132D01*
X109440599Y-84954747D01*
X109458777Y-84971223D01*
X109475253Y-84989401D01*
X109489868Y-85009107D01*
X109502480Y-85030150D01*
X109512970Y-85052329D01*
X109521235Y-85075428D01*
X109527196Y-85099227D01*
X109530796Y-85123495D01*
X109532000Y-85147999D01*
X109532000Y-86048001D01*
X109530796Y-86072505D01*
X109527196Y-86096773D01*
X109521235Y-86120572D01*
X109512970Y-86143671D01*
X109502480Y-86165850D01*
X109489868Y-86186893D01*
X109475253Y-86206599D01*
X109458777Y-86224777D01*
X109440599Y-86241253D01*
X109420893Y-86255868D01*
X109399850Y-86268480D01*
X109377671Y-86278970D01*
X109354572Y-86287235D01*
X109330773Y-86293196D01*
X109306505Y-86296796D01*
X109282001Y-86298000D01*
X108631999Y-86298000D01*
X108607495Y-86296796D01*
X108583227Y-86293196D01*
X108559428Y-86287235D01*
X108536329Y-86278970D01*
X108514150Y-86268480D01*
X108493107Y-86255868D01*
X108473401Y-86241253D01*
X108455223Y-86224777D01*
X108438747Y-86206599D01*
X108424132Y-86186893D01*
X108411520Y-86165850D01*
X108401030Y-86143671D01*
X108392765Y-86120572D01*
X108386804Y-86096773D01*
X108383204Y-86072505D01*
X108382000Y-86048001D01*
X108382000Y-85147999D01*
X108383204Y-85123495D01*
X108386804Y-85099227D01*
X108392765Y-85075428D01*
X108401030Y-85052329D01*
X108411520Y-85030150D01*
X108424132Y-85009107D01*
X108438747Y-84989401D01*
X108455223Y-84971223D01*
X108473401Y-84954747D01*
X108493107Y-84940132D01*
X108514150Y-84927520D01*
X108536329Y-84917030D01*
X108559428Y-84908765D01*
X108583227Y-84902804D01*
X108607495Y-84899204D01*
X108631999Y-84898000D01*
X109282001Y-84898000D01*
X109306505Y-84899204D01*
X109306505Y-84899204D01*
G37*
D11*
X108957000Y-85598000D03*
D10*
G36*
X111356505Y-84899204D02*
G01*
X111380773Y-84902804D01*
X111404572Y-84908765D01*
X111427671Y-84917030D01*
X111449850Y-84927520D01*
X111470893Y-84940132D01*
X111490599Y-84954747D01*
X111508777Y-84971223D01*
X111525253Y-84989401D01*
X111539868Y-85009107D01*
X111552480Y-85030150D01*
X111562970Y-85052329D01*
X111571235Y-85075428D01*
X111577196Y-85099227D01*
X111580796Y-85123495D01*
X111582000Y-85147999D01*
X111582000Y-86048001D01*
X111580796Y-86072505D01*
X111577196Y-86096773D01*
X111571235Y-86120572D01*
X111562970Y-86143671D01*
X111552480Y-86165850D01*
X111539868Y-86186893D01*
X111525253Y-86206599D01*
X111508777Y-86224777D01*
X111490599Y-86241253D01*
X111470893Y-86255868D01*
X111449850Y-86268480D01*
X111427671Y-86278970D01*
X111404572Y-86287235D01*
X111380773Y-86293196D01*
X111356505Y-86296796D01*
X111332001Y-86298000D01*
X110681999Y-86298000D01*
X110657495Y-86296796D01*
X110633227Y-86293196D01*
X110609428Y-86287235D01*
X110586329Y-86278970D01*
X110564150Y-86268480D01*
X110543107Y-86255868D01*
X110523401Y-86241253D01*
X110505223Y-86224777D01*
X110488747Y-86206599D01*
X110474132Y-86186893D01*
X110461520Y-86165850D01*
X110451030Y-86143671D01*
X110442765Y-86120572D01*
X110436804Y-86096773D01*
X110433204Y-86072505D01*
X110432000Y-86048001D01*
X110432000Y-85147999D01*
X110433204Y-85123495D01*
X110436804Y-85099227D01*
X110442765Y-85075428D01*
X110451030Y-85052329D01*
X110461520Y-85030150D01*
X110474132Y-85009107D01*
X110488747Y-84989401D01*
X110505223Y-84971223D01*
X110523401Y-84954747D01*
X110543107Y-84940132D01*
X110564150Y-84927520D01*
X110586329Y-84917030D01*
X110609428Y-84908765D01*
X110633227Y-84902804D01*
X110657495Y-84899204D01*
X110681999Y-84898000D01*
X111332001Y-84898000D01*
X111356505Y-84899204D01*
X111356505Y-84899204D01*
G37*
D11*
X111007000Y-85598000D03*
D13*
X115556000Y-87633000D03*
X120136000Y-87633000D03*
D14*
X117856000Y-80233000D03*
D15*
X110982760Y-82484000D03*
X110982760Y-80584000D03*
X108982000Y-81534000D03*
M02*
