G04 #@! TF.GenerationSoftware,KiCad,Pcbnew,(5.1.2)-2*
G04 #@! TF.CreationDate,2019-11-06T08:40:08+07:00*
G04 #@! TF.ProjectId,ph_vresistor_pos_sensor_board_hw,70685f76-7265-4736-9973-746f725f706f,rev?*
G04 #@! TF.SameCoordinates,Original*
G04 #@! TF.FileFunction,Soldermask,Bot*
G04 #@! TF.FilePolarity,Negative*
%FSLAX46Y46*%
G04 Gerber Fmt 4.6, Leading zero omitted, Abs format (unit mm)*
G04 Created by KiCad (PCBNEW (5.1.2)-2) date 2019-11-06 08:40:08*
%MOMM*%
%LPD*%
G04 APERTURE LIST*
%ADD10C,0.100000*%
G04 APERTURE END LIST*
D10*
G36*
X105595000Y-92557000D02*
G01*
X103193000Y-92557000D01*
X103193000Y-90831000D01*
X105595000Y-90831000D01*
X105595000Y-92557000D01*
X105595000Y-92557000D01*
G37*
G36*
X104860977Y-88254210D02*
G01*
X105033081Y-88306417D01*
X105191690Y-88391196D01*
X105330712Y-88505288D01*
X105444804Y-88644310D01*
X105529583Y-88802919D01*
X105581790Y-88975023D01*
X105599417Y-89154000D01*
X105581790Y-89332977D01*
X105529583Y-89505081D01*
X105444804Y-89663690D01*
X105330712Y-89802712D01*
X105191690Y-89916804D01*
X105033081Y-90001583D01*
X104860977Y-90053790D01*
X104726850Y-90067000D01*
X104061150Y-90067000D01*
X103927023Y-90053790D01*
X103754919Y-90001583D01*
X103596310Y-89916804D01*
X103457288Y-89802712D01*
X103343196Y-89663690D01*
X103258417Y-89505081D01*
X103206210Y-89332977D01*
X103188583Y-89154000D01*
X103206210Y-88975023D01*
X103258417Y-88802919D01*
X103343196Y-88644310D01*
X103457288Y-88505288D01*
X103596310Y-88391196D01*
X103754919Y-88306417D01*
X103927023Y-88254210D01*
X104061150Y-88241000D01*
X104726850Y-88241000D01*
X104860977Y-88254210D01*
X104860977Y-88254210D01*
G37*
G36*
X123554443Y-86227519D02*
G01*
X123620627Y-86234037D01*
X123790466Y-86285557D01*
X123946991Y-86369222D01*
X123982729Y-86398552D01*
X124084186Y-86481814D01*
X124167448Y-86583271D01*
X124196778Y-86619009D01*
X124280443Y-86775534D01*
X124331963Y-86945373D01*
X124349359Y-87122000D01*
X124331963Y-87298627D01*
X124280443Y-87468466D01*
X124196778Y-87624991D01*
X124167448Y-87660729D01*
X124084186Y-87762186D01*
X123982729Y-87845448D01*
X123946991Y-87874778D01*
X123790466Y-87958443D01*
X123620627Y-88009963D01*
X123554443Y-88016481D01*
X123488260Y-88023000D01*
X123399740Y-88023000D01*
X123333557Y-88016481D01*
X123267373Y-88009963D01*
X123097534Y-87958443D01*
X122941009Y-87874778D01*
X122905271Y-87845448D01*
X122803814Y-87762186D01*
X122720552Y-87660729D01*
X122691222Y-87624991D01*
X122607557Y-87468466D01*
X122556037Y-87298627D01*
X122538641Y-87122000D01*
X122556037Y-86945373D01*
X122607557Y-86775534D01*
X122691222Y-86619009D01*
X122720552Y-86583271D01*
X122803814Y-86481814D01*
X122905271Y-86398552D01*
X122941009Y-86369222D01*
X123097534Y-86285557D01*
X123267373Y-86234037D01*
X123333557Y-86227519D01*
X123399740Y-86221000D01*
X123488260Y-86221000D01*
X123554443Y-86227519D01*
X123554443Y-86227519D01*
G37*
G36*
X104860977Y-85714210D02*
G01*
X105033081Y-85766417D01*
X105191690Y-85851196D01*
X105330712Y-85965288D01*
X105444804Y-86104310D01*
X105529583Y-86262919D01*
X105581790Y-86435023D01*
X105599417Y-86614000D01*
X105581790Y-86792977D01*
X105529583Y-86965081D01*
X105444804Y-87123690D01*
X105330712Y-87262712D01*
X105191690Y-87376804D01*
X105033081Y-87461583D01*
X104860977Y-87513790D01*
X104726850Y-87527000D01*
X104061150Y-87527000D01*
X103927023Y-87513790D01*
X103754919Y-87461583D01*
X103596310Y-87376804D01*
X103457288Y-87262712D01*
X103343196Y-87123690D01*
X103258417Y-86965081D01*
X103206210Y-86792977D01*
X103188583Y-86614000D01*
X103206210Y-86435023D01*
X103258417Y-86262919D01*
X103343196Y-86104310D01*
X103457288Y-85965288D01*
X103596310Y-85851196D01*
X103754919Y-85766417D01*
X103927023Y-85714210D01*
X104061150Y-85701000D01*
X104726850Y-85701000D01*
X104860977Y-85714210D01*
X104860977Y-85714210D01*
G37*
G36*
X97508057Y-80041759D02*
G01*
X97847547Y-80144742D01*
X97847549Y-80144743D01*
X98160423Y-80311977D01*
X98434661Y-80537039D01*
X98659723Y-80811278D01*
X98823238Y-81117193D01*
X98826958Y-81124152D01*
X98929941Y-81463642D01*
X98939234Y-81558000D01*
X98950747Y-81674885D01*
X98956000Y-81728225D01*
X98956000Y-83905175D01*
X98929941Y-84169758D01*
X98826958Y-84509248D01*
X98826957Y-84509250D01*
X98659723Y-84822122D01*
X98434661Y-85096361D01*
X98160422Y-85321423D01*
X97858133Y-85483000D01*
X97847548Y-85488658D01*
X97508058Y-85591641D01*
X97155000Y-85626414D01*
X96801943Y-85591641D01*
X96462453Y-85488658D01*
X96451868Y-85483000D01*
X96149579Y-85321423D01*
X95875340Y-85096361D01*
X95650278Y-84822122D01*
X95483044Y-84509250D01*
X95483043Y-84509248D01*
X95380060Y-84169758D01*
X95354001Y-83905175D01*
X95354000Y-81728226D01*
X95380059Y-81463643D01*
X95483042Y-81124153D01*
X95550042Y-80998805D01*
X95650277Y-80811277D01*
X95875339Y-80537039D01*
X96149578Y-80311977D01*
X96462450Y-80144743D01*
X96462452Y-80144742D01*
X96801942Y-80041759D01*
X97155000Y-80006986D01*
X97508057Y-80041759D01*
X97508057Y-80041759D01*
G37*
G36*
X92428057Y-80041759D02*
G01*
X92767547Y-80144742D01*
X92767549Y-80144743D01*
X93080423Y-80311977D01*
X93354661Y-80537039D01*
X93579723Y-80811278D01*
X93743238Y-81117193D01*
X93746958Y-81124152D01*
X93849941Y-81463642D01*
X93859234Y-81558000D01*
X93870747Y-81674885D01*
X93876000Y-81728225D01*
X93876000Y-83905175D01*
X93849941Y-84169758D01*
X93746958Y-84509248D01*
X93746957Y-84509250D01*
X93579723Y-84822122D01*
X93354661Y-85096361D01*
X93080422Y-85321423D01*
X92778133Y-85483000D01*
X92767548Y-85488658D01*
X92428058Y-85591641D01*
X92075000Y-85626414D01*
X91721943Y-85591641D01*
X91382453Y-85488658D01*
X91371868Y-85483000D01*
X91069579Y-85321423D01*
X90795340Y-85096361D01*
X90570278Y-84822122D01*
X90403044Y-84509250D01*
X90403043Y-84509248D01*
X90300060Y-84169758D01*
X90274001Y-83905175D01*
X90274000Y-81728226D01*
X90300059Y-81463643D01*
X90403042Y-81124153D01*
X90470042Y-80998805D01*
X90570277Y-80811277D01*
X90795339Y-80537039D01*
X91069578Y-80311977D01*
X91382450Y-80144743D01*
X91382452Y-80144742D01*
X91721942Y-80041759D01*
X92075000Y-80006986D01*
X92428057Y-80041759D01*
X92428057Y-80041759D01*
G37*
G36*
X88796000Y-85617700D02*
G01*
X85194000Y-85617700D01*
X85194000Y-80015700D01*
X88796000Y-80015700D01*
X88796000Y-85617700D01*
X88796000Y-85617700D01*
G37*
G36*
X124345000Y-85483000D02*
G01*
X122543000Y-85483000D01*
X122543000Y-83681000D01*
X124345000Y-83681000D01*
X124345000Y-85483000D01*
X124345000Y-85483000D01*
G37*
G36*
X115992601Y-77472397D02*
G01*
X116031305Y-77480096D01*
X116063340Y-77493365D01*
X116140680Y-77525400D01*
X116239115Y-77591173D01*
X116267612Y-77619670D01*
X116286554Y-77635215D01*
X116308165Y-77646766D01*
X116331614Y-77653879D01*
X116356000Y-77656281D01*
X116380386Y-77653879D01*
X116403835Y-77646766D01*
X116425446Y-77635215D01*
X116444388Y-77619670D01*
X116472885Y-77591173D01*
X116571320Y-77525400D01*
X116648660Y-77493365D01*
X116680695Y-77480096D01*
X116719399Y-77472397D01*
X116796805Y-77457000D01*
X116915195Y-77457000D01*
X116992601Y-77472397D01*
X117031305Y-77480096D01*
X117063340Y-77493365D01*
X117140680Y-77525400D01*
X117239115Y-77591173D01*
X117267612Y-77619670D01*
X117286554Y-77635215D01*
X117308165Y-77646766D01*
X117331614Y-77653879D01*
X117356000Y-77656281D01*
X117380386Y-77653879D01*
X117403835Y-77646766D01*
X117425446Y-77635215D01*
X117444388Y-77619670D01*
X117472885Y-77591173D01*
X117571320Y-77525400D01*
X117648660Y-77493365D01*
X117680695Y-77480096D01*
X117719399Y-77472397D01*
X117796805Y-77457000D01*
X117915195Y-77457000D01*
X117992601Y-77472397D01*
X118031305Y-77480096D01*
X118063340Y-77493365D01*
X118140680Y-77525400D01*
X118239115Y-77591173D01*
X118267612Y-77619670D01*
X118286554Y-77635215D01*
X118308165Y-77646766D01*
X118331614Y-77653879D01*
X118356000Y-77656281D01*
X118380386Y-77653879D01*
X118403835Y-77646766D01*
X118425446Y-77635215D01*
X118444388Y-77619670D01*
X118472885Y-77591173D01*
X118571320Y-77525400D01*
X118648660Y-77493365D01*
X118680695Y-77480096D01*
X118719399Y-77472397D01*
X118796805Y-77457000D01*
X118915195Y-77457000D01*
X118992601Y-77472397D01*
X119031305Y-77480096D01*
X119063340Y-77493365D01*
X119140680Y-77525400D01*
X119239115Y-77591173D01*
X119267612Y-77619670D01*
X119286554Y-77635215D01*
X119308165Y-77646766D01*
X119331614Y-77653879D01*
X119356000Y-77656281D01*
X119380386Y-77653879D01*
X119403835Y-77646766D01*
X119425446Y-77635215D01*
X119444388Y-77619670D01*
X119472885Y-77591173D01*
X119571320Y-77525400D01*
X119648660Y-77493365D01*
X119680695Y-77480096D01*
X119719399Y-77472397D01*
X119796805Y-77457000D01*
X119915195Y-77457000D01*
X119992601Y-77472397D01*
X120031305Y-77480096D01*
X120063340Y-77493365D01*
X120140680Y-77525400D01*
X120239115Y-77591173D01*
X120322827Y-77674885D01*
X120388600Y-77773320D01*
X120433904Y-77882696D01*
X120457000Y-77998805D01*
X120457000Y-78117195D01*
X120433904Y-78233304D01*
X120388600Y-78342680D01*
X120322827Y-78441115D01*
X120294330Y-78469612D01*
X120278785Y-78488554D01*
X120267234Y-78510165D01*
X120260121Y-78533614D01*
X120257719Y-78558000D01*
X120260121Y-78582386D01*
X120267234Y-78605835D01*
X120278785Y-78627446D01*
X120294330Y-78646388D01*
X120322827Y-78674885D01*
X120388600Y-78773320D01*
X120420635Y-78850660D01*
X120431872Y-78877789D01*
X120433904Y-78882696D01*
X120457000Y-78998805D01*
X120457000Y-79117195D01*
X120433904Y-79233304D01*
X120388600Y-79342680D01*
X120322827Y-79441115D01*
X120294330Y-79469612D01*
X120278785Y-79488554D01*
X120267234Y-79510165D01*
X120260121Y-79533614D01*
X120257719Y-79558000D01*
X120260121Y-79582386D01*
X120267234Y-79605835D01*
X120278785Y-79627446D01*
X120294330Y-79646388D01*
X120322827Y-79674885D01*
X120388600Y-79773320D01*
X120433904Y-79882696D01*
X120457000Y-79998805D01*
X120457000Y-80117195D01*
X120433904Y-80233304D01*
X120388600Y-80342680D01*
X120322827Y-80441115D01*
X120294330Y-80469612D01*
X120278785Y-80488554D01*
X120267234Y-80510165D01*
X120260121Y-80533614D01*
X120257719Y-80558000D01*
X120260121Y-80582386D01*
X120267234Y-80605835D01*
X120278785Y-80627446D01*
X120294330Y-80646388D01*
X120322827Y-80674885D01*
X120388600Y-80773320D01*
X120433904Y-80882696D01*
X120457000Y-80998805D01*
X120457000Y-81117195D01*
X120433904Y-81233304D01*
X120388600Y-81342680D01*
X120322827Y-81441115D01*
X120294330Y-81469612D01*
X120278785Y-81488554D01*
X120267234Y-81510165D01*
X120260121Y-81533614D01*
X120257719Y-81558000D01*
X120260121Y-81582386D01*
X120267234Y-81605835D01*
X120278785Y-81627446D01*
X120294330Y-81646388D01*
X120322827Y-81674885D01*
X120388600Y-81773320D01*
X120433904Y-81882696D01*
X120457000Y-81998805D01*
X120457000Y-82117195D01*
X120433904Y-82233304D01*
X120388600Y-82342680D01*
X120322827Y-82441115D01*
X120239115Y-82524827D01*
X120140680Y-82590600D01*
X120063340Y-82622635D01*
X120031305Y-82635904D01*
X119992601Y-82643603D01*
X119915195Y-82659000D01*
X119796805Y-82659000D01*
X119719399Y-82643603D01*
X119680695Y-82635904D01*
X119648660Y-82622635D01*
X119571320Y-82590600D01*
X119472885Y-82524827D01*
X119444388Y-82496330D01*
X119425446Y-82480785D01*
X119403835Y-82469234D01*
X119380386Y-82462121D01*
X119356000Y-82459719D01*
X119331614Y-82462121D01*
X119308165Y-82469234D01*
X119286554Y-82480785D01*
X119267612Y-82496330D01*
X119239115Y-82524827D01*
X119140680Y-82590600D01*
X119063340Y-82622635D01*
X119031305Y-82635904D01*
X118992601Y-82643603D01*
X118915195Y-82659000D01*
X118796805Y-82659000D01*
X118719399Y-82643603D01*
X118680695Y-82635904D01*
X118648660Y-82622635D01*
X118571320Y-82590600D01*
X118472885Y-82524827D01*
X118444388Y-82496330D01*
X118425446Y-82480785D01*
X118403835Y-82469234D01*
X118380386Y-82462121D01*
X118356000Y-82459719D01*
X118331614Y-82462121D01*
X118308165Y-82469234D01*
X118286554Y-82480785D01*
X118267612Y-82496330D01*
X118239115Y-82524827D01*
X118140680Y-82590600D01*
X118063340Y-82622635D01*
X118031305Y-82635904D01*
X117992601Y-82643603D01*
X117915195Y-82659000D01*
X117796805Y-82659000D01*
X117719399Y-82643603D01*
X117680695Y-82635904D01*
X117648660Y-82622635D01*
X117571320Y-82590600D01*
X117472885Y-82524827D01*
X117444388Y-82496330D01*
X117425446Y-82480785D01*
X117403835Y-82469234D01*
X117380386Y-82462121D01*
X117356000Y-82459719D01*
X117331614Y-82462121D01*
X117308165Y-82469234D01*
X117286554Y-82480785D01*
X117267612Y-82496330D01*
X117239115Y-82524827D01*
X117140680Y-82590600D01*
X117063340Y-82622635D01*
X117031305Y-82635904D01*
X116992601Y-82643603D01*
X116915195Y-82659000D01*
X116796805Y-82659000D01*
X116719399Y-82643603D01*
X116680695Y-82635904D01*
X116648660Y-82622635D01*
X116571320Y-82590600D01*
X116472885Y-82524827D01*
X116444388Y-82496330D01*
X116425446Y-82480785D01*
X116403835Y-82469234D01*
X116380386Y-82462121D01*
X116356000Y-82459719D01*
X116331614Y-82462121D01*
X116308165Y-82469234D01*
X116286554Y-82480785D01*
X116267612Y-82496330D01*
X116239115Y-82524827D01*
X116140680Y-82590600D01*
X116063340Y-82622635D01*
X116031305Y-82635904D01*
X115992601Y-82643603D01*
X115915195Y-82659000D01*
X115796805Y-82659000D01*
X115719399Y-82643603D01*
X115680695Y-82635904D01*
X115648660Y-82622635D01*
X115571320Y-82590600D01*
X115472885Y-82524827D01*
X115389173Y-82441115D01*
X115323400Y-82342680D01*
X115278096Y-82233304D01*
X115255000Y-82117195D01*
X115255000Y-81998805D01*
X115278096Y-81882696D01*
X115323400Y-81773320D01*
X115389173Y-81674885D01*
X115417670Y-81646388D01*
X115433215Y-81627446D01*
X115444766Y-81605835D01*
X115451879Y-81582386D01*
X115454281Y-81558000D01*
X115451879Y-81533614D01*
X115444766Y-81510165D01*
X115433215Y-81488554D01*
X115417670Y-81469612D01*
X115389173Y-81441115D01*
X115323400Y-81342680D01*
X115278096Y-81233304D01*
X115255000Y-81117195D01*
X115255000Y-80998805D01*
X115278096Y-80882696D01*
X115323400Y-80773320D01*
X115389173Y-80674885D01*
X115417670Y-80646388D01*
X115433215Y-80627446D01*
X115444766Y-80605835D01*
X115451879Y-80582386D01*
X115454281Y-80558000D01*
X115451879Y-80533614D01*
X115444766Y-80510165D01*
X115433215Y-80488554D01*
X115417670Y-80469612D01*
X115389173Y-80441115D01*
X115323400Y-80342680D01*
X115278096Y-80233304D01*
X115255000Y-80117195D01*
X115255000Y-79998805D01*
X115278096Y-79882696D01*
X115323400Y-79773320D01*
X115389173Y-79674885D01*
X115417670Y-79646388D01*
X115433215Y-79627446D01*
X115444766Y-79605835D01*
X115451879Y-79582386D01*
X115454281Y-79558000D01*
X115451879Y-79533614D01*
X115444766Y-79510165D01*
X115433215Y-79488554D01*
X115417670Y-79469612D01*
X115389173Y-79441115D01*
X115323400Y-79342680D01*
X115278096Y-79233304D01*
X115255000Y-79117195D01*
X115255000Y-78998805D01*
X115278096Y-78882696D01*
X115280129Y-78877789D01*
X115291365Y-78850660D01*
X115323400Y-78773320D01*
X115389173Y-78674885D01*
X115417670Y-78646388D01*
X115433215Y-78627446D01*
X115444766Y-78605835D01*
X115451879Y-78582386D01*
X115454281Y-78558000D01*
X115451879Y-78533614D01*
X115444766Y-78510165D01*
X115433215Y-78488554D01*
X115417670Y-78469612D01*
X115389173Y-78441115D01*
X115323400Y-78342680D01*
X115278096Y-78233304D01*
X115255000Y-78117195D01*
X115255000Y-77998805D01*
X115278096Y-77882696D01*
X115323400Y-77773320D01*
X115389173Y-77674885D01*
X115472885Y-77591173D01*
X115571320Y-77525400D01*
X115648660Y-77493365D01*
X115680695Y-77480096D01*
X115719399Y-77472397D01*
X115796805Y-77457000D01*
X115915195Y-77457000D01*
X115992601Y-77472397D01*
X115992601Y-77472397D01*
G37*
G36*
X105595000Y-81381000D02*
G01*
X103193000Y-81381000D01*
X103193000Y-79655000D01*
X105595000Y-79655000D01*
X105595000Y-81381000D01*
X105595000Y-81381000D01*
G37*
G36*
X104860977Y-77078210D02*
G01*
X105033081Y-77130417D01*
X105191690Y-77215196D01*
X105330712Y-77329288D01*
X105444804Y-77468310D01*
X105529583Y-77626919D01*
X105581790Y-77799023D01*
X105599417Y-77978000D01*
X105581790Y-78156977D01*
X105529583Y-78329081D01*
X105444804Y-78487690D01*
X105330712Y-78626712D01*
X105191690Y-78740804D01*
X105033081Y-78825583D01*
X104860977Y-78877790D01*
X104726850Y-78891000D01*
X104061150Y-78891000D01*
X103927023Y-78877790D01*
X103754919Y-78825583D01*
X103596310Y-78740804D01*
X103457288Y-78626712D01*
X103343196Y-78487690D01*
X103258417Y-78329081D01*
X103206210Y-78156977D01*
X103188583Y-77978000D01*
X103206210Y-77799023D01*
X103258417Y-77626919D01*
X103343196Y-77468310D01*
X103457288Y-77329288D01*
X103596310Y-77215196D01*
X103754919Y-77130417D01*
X103927023Y-77078210D01*
X104061150Y-77065000D01*
X104726850Y-77065000D01*
X104860977Y-77078210D01*
X104860977Y-77078210D01*
G37*
G36*
X104860977Y-74538210D02*
G01*
X105033081Y-74590417D01*
X105191690Y-74675196D01*
X105330712Y-74789288D01*
X105444804Y-74928310D01*
X105529583Y-75086919D01*
X105581790Y-75259023D01*
X105599417Y-75438000D01*
X105581790Y-75616977D01*
X105529583Y-75789081D01*
X105444804Y-75947690D01*
X105330712Y-76086712D01*
X105191690Y-76200804D01*
X105033081Y-76285583D01*
X104860977Y-76337790D01*
X104726850Y-76351000D01*
X104061150Y-76351000D01*
X103927023Y-76337790D01*
X103754919Y-76285583D01*
X103596310Y-76200804D01*
X103457288Y-76086712D01*
X103343196Y-75947690D01*
X103258417Y-75789081D01*
X103206210Y-75616977D01*
X103188583Y-75438000D01*
X103206210Y-75259023D01*
X103258417Y-75086919D01*
X103343196Y-74928310D01*
X103457288Y-74789288D01*
X103596310Y-74675196D01*
X103754919Y-74590417D01*
X103927023Y-74538210D01*
X104061150Y-74525000D01*
X104726850Y-74525000D01*
X104860977Y-74538210D01*
X104860977Y-74538210D01*
G37*
M02*
