M48
; DRILL file {KiCad (5.1.2)-2} date 06/11/2019 08:40:20
; FORMAT={3:3/ absolute / metric / suppress leading zeros}
; #@! TF.CreationDate,2019-11-06T08:40:20+07:00
; #@! TF.GenerationSoftware,Kicad,Pcbnew,(5.1.2)-2
FMAT,2
METRIC,TZ
T1C0.500
T2C0.600
T3C0.800
T4C1.000
T5C2.080
%
G90
G05
T1
X85000Y-77500
X85000Y-78750
X89500Y-73750
X90750Y-73750
X92000Y-73750
X93250Y-73750
X94500Y-73750
X95750Y-73750
X97000Y-73750
X98250Y-73750
X99500Y-73750
X100750Y-73750
X108712Y-87884
X110998Y-78740
X110998Y-90424
X111252Y-87884
X114808Y-86614
X114808Y-88646
X115250Y-73750
X115250Y-75000
X115250Y-92250
X115250Y-93500
X115570Y-87630
X116332Y-86614
X116332Y-88646
X116500Y-73750
X116500Y-75000
X116500Y-92250
X116500Y-93500
X117750Y-73750
X117750Y-75000
X117750Y-92250
X117750Y-93500
X119000Y-73750
X119000Y-75000
X119000Y-92250
X119000Y-93500
X119380Y-86614
X119380Y-88646
X120142Y-87630
X120250Y-73750
X120250Y-75000
X120250Y-92250
X120250Y-93500
X120904Y-86614
X120904Y-88646
T2
X115856Y-78058
X115856Y-79058
X115856Y-80058
X115856Y-81058
X115856Y-82058
X116856Y-78058
X116856Y-79058
X116856Y-80058
X116856Y-81058
X116856Y-82058
X117856Y-78058
X117856Y-79058
X117856Y-80058
X117856Y-81058
X117856Y-82058
X118856Y-78058
X118856Y-79058
X118856Y-80058
X118856Y-81058
X118856Y-82058
X119856Y-78058
X119856Y-79058
X119856Y-80058
X119856Y-81058
X119856Y-82058
T3
X104394Y-86614
X104394Y-89154
X104394Y-91694
X104394Y-75438
X104394Y-77978
X104394Y-80518
T4
X123444Y-84582
X123444Y-87122
T5
G00X86995Y-82567
M15
G01X86995Y-83067
M16
G05
G00X92075Y-82567
M15
G01X92075Y-83067
M16
G05
G00X97155Y-82567
M15
G01X97155Y-83067
M16
G05
T0
M30
