M48
; DRILL file {KiCad (5.1.2)-2} date 06/11/2019 08:34:31
; FORMAT={3:3/ absolute / metric / suppress leading zeros}
; #@! TF.CreationDate,2019-11-06T08:34:31+07:00
; #@! TF.GenerationSoftware,Kicad,Pcbnew,(5.1.2)-2
FMAT,2
METRIC,TZ
T1C0.500
T2C0.550
T3C0.600
T4C0.762
T5C0.800
T6C0.860
T7C0.900
T8C1.000
T9C1.100
T10C1.200
T11C1.500
T12C2.500
T13C4.000
%
G90
G05
T1
X84836Y-99314
X92730Y-83647
X92730Y-90145
X94996Y-121920
X94996Y-123444
X95579Y-78232
X96520Y-121920
X96520Y-123444
X96774Y-80518
X97629Y-78232
X98044Y-121920
X98044Y-123444
X98298Y-80518
X99187Y-87503
X99314Y-81534
X100076Y-96266
X101727Y-88646
X102997Y-84201
X102997Y-86741
X105038Y-84201
X105038Y-86741
X105501Y-81534
X107442Y-86995
X107442Y-93737
X107696Y-79883
X107696Y-89027
X109347Y-80137
X110744Y-82042
X110744Y-93726
X111355Y-87164
X111760Y-83820
X111941Y-86117
X112141Y-82169
X113516Y-86214
X113792Y-83185
X114046Y-123063
X114427Y-87122
X114554Y-74168
X114808Y-131318
X114808Y-133858
X115189Y-84201
X116078Y-62484
X116078Y-83312
X116078Y-117856
X116586Y-73344
X117094Y-118872
X117602Y-76200
X117602Y-117602
X118110Y-77470
X118237Y-91440
X118237Y-93472
X118491Y-89916
X118618Y-75184
X118618Y-98743
X118872Y-100330
X118999Y-95885
X119126Y-124587
X119380Y-82423
X119634Y-74168
X120015Y-89408
X120142Y-132588
X120142Y-135128
X120904Y-82423
X121031Y-73025
X121031Y-74803
X121158Y-126492
X122174Y-93472
X122555Y-73025
X123698Y-125349
X123698Y-126619
X123698Y-127889
X123698Y-129159
X124460Y-137160
X124841Y-88265
X125095Y-138303
X125730Y-109728
X125857Y-137160
X126238Y-101854
X126492Y-77851
X126619Y-91948
X127381Y-53340
X127381Y-98679
X127508Y-93599
X127508Y-120142
X128270Y-69723
X128524Y-128905
X129921Y-94488
X130048Y-101854
X130302Y-75946
X130429Y-124841
X130556Y-107950
X130619Y-109982
X130810Y-93218
X131064Y-116586
X131826Y-94488
X132448Y-129235
X132842Y-86106
X133858Y-80010
X133858Y-132080
X133985Y-96393
X135382Y-103886
X135509Y-106426
X135636Y-70231
X135890Y-68453
X135890Y-118110
X136017Y-121412
X136017Y-122682
X136017Y-123952
X136906Y-70231
X136906Y-75946
X136906Y-105156
X136906Y-107696
X138176Y-128778
X140716Y-133350
X148590Y-84582
X148590Y-85852
X149860Y-119126
X149860Y-120523
X149860Y-121920
X151257Y-119126
X151257Y-120523
X151257Y-121920
X154051Y-99568
X155575Y-97536
X155956Y-83566
X155956Y-91440
X158115Y-83312
X158115Y-85852
X159004Y-110998
X159004Y-112268
X159004Y-113538
X165100Y-107950
X166370Y-96139
X170942Y-95631
X172212Y-95631
X177936Y-43933
X178816Y-105918
X179832Y-74168
X182118Y-75184
X183642Y-48895
X183642Y-105156
X183642Y-125730
X188468Y-129667
X188468Y-130937
X189865Y-78676
X189865Y-79947
X189865Y-81217
X189865Y-82487
T2
X96188Y-136153
X100288Y-136153
T3
X84836Y-86360
X84836Y-92710
X90297Y-58039
X90297Y-59436
X90805Y-100965
X91948Y-71374
X92075Y-100965
X92710Y-65278
X92730Y-96643
X96647Y-60706
X97629Y-56245
X97629Y-62891
X98425Y-67437
X98806Y-71120
X100060Y-83550
X103378Y-78740
X105664Y-93472
X111252Y-124460
X111252Y-126619
X111506Y-75184
X111760Y-70358
X113030Y-93472
X113284Y-74930
X114808Y-100457
X114808Y-101727
X114808Y-102997
X115316Y-91440
X115316Y-93472
X115824Y-40640
X115824Y-42164
X118872Y-37592
X118872Y-39116
X118872Y-40640
X118872Y-42164
X118872Y-43688
X120396Y-37592
X120396Y-39116
X120396Y-40640
X120396Y-42164
X120396Y-43688
X121920Y-37592
X121920Y-39116
X121920Y-40640
X121920Y-42164
X121920Y-43688
X123444Y-37592
X123444Y-39116
X123444Y-40640
X123444Y-42164
X123444Y-43688
X124968Y-37592
X124968Y-39116
X124968Y-40640
X124968Y-42164
X124968Y-43688
X126492Y-37592
X126492Y-39116
X126492Y-40640
X126492Y-42164
X126492Y-43688
X127000Y-54610
X128016Y-37592
X128016Y-39116
X128016Y-40640
X128016Y-42164
X128016Y-43688
X130556Y-63500
X130556Y-69596
X142494Y-82296
X142494Y-83820
X142494Y-92202
X142494Y-93726
X143764Y-92964
X145034Y-75946
X146304Y-88773
X146558Y-91567
X147701Y-80010
X147701Y-96384
X151003Y-92202
X151003Y-92202
X152400Y-71628
X152400Y-73025
X153670Y-72390
X153670Y-80772
X154686Y-82296
X156210Y-67818
X156718Y-67310
X157226Y-66802
X157734Y-77851
X157988Y-93472
X158109Y-90932
X159766Y-61214
X159766Y-72263
X159766Y-73533
X159893Y-98806
X160084Y-74739
X160782Y-84963
X161290Y-75008
X161290Y-89027
X161417Y-69406
X162052Y-61214
X162306Y-70993
X162306Y-73025
X162306Y-75057
X162306Y-89027
X162687Y-82931
X163068Y-76962
X163576Y-82931
X164592Y-47244
X164592Y-48641
X164592Y-50038
X164592Y-74930
X164592Y-76962
X164592Y-78994
X165100Y-114173
X165100Y-121412
X165100Y-128143
X170688Y-98679
X172466Y-86868
X172466Y-88392
X172466Y-89916
X172593Y-48133
X174117Y-48133
X175641Y-48133
X176530Y-43933
X176530Y-43933
X177292Y-132588
X177292Y-136398
X178359Y-95860
X179070Y-56388
X179070Y-86614
X179070Y-88138
X179070Y-89662
X179832Y-95860
X180848Y-75184
X181102Y-105918
X181102Y-112395
X181102Y-119380
X181102Y-126102
X183579Y-79057
X183642Y-47625
X183642Y-87821
X183896Y-131064
X184404Y-77978
X184404Y-80264
X184531Y-86551
X184594Y-88964
X185945Y-78994
X185946Y-86868
X185946Y-88438
X186436Y-50800
X187833Y-50800
X188722Y-65298
X189230Y-50800
X193548Y-103104
X193548Y-111379
X193548Y-120015
X193548Y-128524
X195782Y-91297
X195834Y-93599
X196850Y-136652
X199136Y-74422
X200152Y-71882
X200152Y-73406
X172503Y-60087
X172503Y-61087
X172503Y-62087
X172503Y-63087
X172503Y-64087
X173503Y-60087
X173503Y-61087
X173503Y-62087
X173503Y-63087
X173503Y-64087
X174503Y-60087
X174503Y-61087
X174503Y-62087
X174503Y-63087
X174503Y-64087
X175503Y-60087
X175503Y-61087
X175503Y-62087
X175503Y-63087
X175503Y-64087
X176503Y-60087
X176503Y-61087
X176503Y-62087
X176503Y-63087
X176503Y-64087
T4
X166324Y-70008
X166324Y-72008
X166324Y-74008
X166324Y-76008
X166324Y-78008
X166324Y-80008
X166324Y-82008
X166324Y-84008
X166324Y-86008
X166324Y-88008
X166324Y-90008
X166324Y-92008
X166324Y-94008
T5
X209930Y-57150
X209930Y-62230
X212470Y-59690
T6
X209400Y-93842
X209400Y-96382
X209400Y-98922
X209400Y-101462
X209400Y-104002
X209400Y-106542
X214480Y-93842
X214480Y-96382
X214480Y-98922
X214480Y-101462
X214480Y-104002
X214480Y-106542
X67460Y-87648
X67460Y-90188
X67460Y-92727
X72540Y-87648
X72540Y-90188
X72540Y-92727
X209402Y-111842
X209402Y-114382
X214482Y-111842
X214482Y-114382
X67460Y-59182
X67460Y-61722
X67460Y-64262
X67460Y-66802
X67460Y-69342
X67460Y-71882
X72540Y-59182
X72540Y-61722
X72540Y-64262
X72540Y-66802
X72540Y-69342
X72540Y-71882
X67460Y-98062
X67460Y-100602
X67460Y-103142
X72540Y-98062
X72540Y-100602
X72540Y-103142
X67460Y-77234
X67460Y-79774
X67460Y-82313
X72540Y-77234
X72540Y-79774
X72540Y-82313
X67460Y-108665
X67460Y-111205
X72540Y-108665
X72540Y-111205
T7
X105156Y-55372
X105156Y-57912
X105156Y-62992
X105156Y-65532
X105156Y-68072
T8
X141224Y-108986
X141224Y-116586
X104013Y-96266
X106553Y-96266
X109093Y-96266
X111633Y-96266
X139749Y-137841
X142289Y-137841
X144829Y-137841
X95758Y-106426
X95758Y-108966
X95758Y-111506
X110998Y-106426
X110998Y-108966
X110998Y-111506
X110998Y-114046
X102108Y-76835
X104648Y-76835
X107188Y-76835
X109728Y-76835
X113538Y-137922
X116078Y-137922
X131113Y-137841
X133653Y-137841
X136193Y-137841
T9
X208280Y-73406
X208280Y-78486
X208280Y-83566
X208280Y-88646
X215900Y-73406
X215900Y-78486
X215900Y-83566
X215900Y-88646
X66040Y-41656
X66040Y-46736
X73660Y-41656
X73660Y-46736
T10
X121596Y-107632
X121596Y-115032
T11
X78232Y-41656
X100232Y-41656
T12
X144676Y-51766
X144701Y-39766
T13
X64008Y-37846
X217932Y-136906
X217932Y-37846
X64008Y-136906
T0
M30
