G04 #@! TF.GenerationSoftware,KiCad,Pcbnew,(5.1.2)-2*
G04 #@! TF.CreationDate,2019-11-06T08:34:27+07:00*
G04 #@! TF.ProjectId,ph_door_fume_hood_controller_hw,70685f64-6f6f-4725-9f66-756d655f686f,VinhTho*
G04 #@! TF.SameCoordinates,Original*
G04 #@! TF.FileFunction,Legend,Bot*
G04 #@! TF.FilePolarity,Positive*
%FSLAX46Y46*%
G04 Gerber Fmt 4.6, Leading zero omitted, Abs format (unit mm)*
G04 Created by KiCad (PCBNEW (5.1.2)-2) date 2019-11-06 08:34:27*
%MOMM*%
%LPD*%
G04 APERTURE LIST*
%ADD10C,0.150000*%
%ADD11C,0.300000*%
%ADD12C,0.010000*%
G04 APERTURE END LIST*
D10*
X139866666Y-130056285D02*
X139866666Y-130532476D01*
X140152380Y-129961047D02*
X139152380Y-130294380D01*
X140152380Y-130627714D01*
X139485714Y-130961047D02*
X140152380Y-130961047D01*
X139580952Y-130961047D02*
X139533333Y-131008666D01*
X139485714Y-131103904D01*
X139485714Y-131246761D01*
X139533333Y-131342000D01*
X139628571Y-131389619D01*
X140152380Y-131389619D01*
X140152380Y-132294380D02*
X139628571Y-132294380D01*
X139533333Y-132246761D01*
X139485714Y-132151523D01*
X139485714Y-131961047D01*
X139533333Y-131865809D01*
X140104761Y-132294380D02*
X140152380Y-132199142D01*
X140152380Y-131961047D01*
X140104761Y-131865809D01*
X140009523Y-131818190D01*
X139914285Y-131818190D01*
X139819047Y-131865809D01*
X139771428Y-131961047D01*
X139771428Y-132199142D01*
X139723809Y-132294380D01*
X140152380Y-132913428D02*
X140104761Y-132818190D01*
X140009523Y-132770571D01*
X139152380Y-132770571D01*
X140152380Y-133437238D02*
X140104761Y-133342000D01*
X140057142Y-133294380D01*
X139961904Y-133246761D01*
X139676190Y-133246761D01*
X139580952Y-133294380D01*
X139533333Y-133342000D01*
X139485714Y-133437238D01*
X139485714Y-133580095D01*
X139533333Y-133675333D01*
X139580952Y-133722952D01*
X139676190Y-133770571D01*
X139961904Y-133770571D01*
X140057142Y-133722952D01*
X140104761Y-133675333D01*
X140152380Y-133580095D01*
X140152380Y-133437238D01*
X139485714Y-134627714D02*
X140295238Y-134627714D01*
X140390476Y-134580095D01*
X140438095Y-134532476D01*
X140485714Y-134437238D01*
X140485714Y-134294380D01*
X140438095Y-134199142D01*
X140104761Y-134627714D02*
X140152380Y-134532476D01*
X140152380Y-134342000D01*
X140104761Y-134246761D01*
X140057142Y-134199142D01*
X139961904Y-134151523D01*
X139676190Y-134151523D01*
X139580952Y-134199142D01*
X139533333Y-134246761D01*
X139485714Y-134342000D01*
X139485714Y-134532476D01*
X139533333Y-134627714D01*
X140152380Y-135627714D02*
X140152380Y-135056285D01*
X140152380Y-135342000D02*
X139152380Y-135342000D01*
X139295238Y-135246761D01*
X139390476Y-135151523D01*
X139438095Y-135056285D01*
X141740000Y-133604095D02*
X141692380Y-133508857D01*
X141692380Y-133366000D01*
X141740000Y-133223142D01*
X141835238Y-133127904D01*
X141930476Y-133080285D01*
X142120952Y-133032666D01*
X142263809Y-133032666D01*
X142454285Y-133080285D01*
X142549523Y-133127904D01*
X142644761Y-133223142D01*
X142692380Y-133366000D01*
X142692380Y-133461238D01*
X142644761Y-133604095D01*
X142597142Y-133651714D01*
X142263809Y-133651714D01*
X142263809Y-133461238D01*
X142692380Y-134080285D02*
X141692380Y-134080285D01*
X142692380Y-134651714D01*
X141692380Y-134651714D01*
X142692380Y-135127904D02*
X141692380Y-135127904D01*
X141692380Y-135366000D01*
X141740000Y-135508857D01*
X141835238Y-135604095D01*
X141930476Y-135651714D01*
X142120952Y-135699333D01*
X142263809Y-135699333D01*
X142454285Y-135651714D01*
X142549523Y-135604095D01*
X142644761Y-135508857D01*
X142692380Y-135366000D01*
X142692380Y-135127904D01*
X144851428Y-132096095D02*
X144851428Y-132858000D01*
X145232380Y-132477047D02*
X144470476Y-132477047D01*
X144232380Y-133238952D02*
X144232380Y-133858000D01*
X144613333Y-133524666D01*
X144613333Y-133667523D01*
X144660952Y-133762761D01*
X144708571Y-133810380D01*
X144803809Y-133858000D01*
X145041904Y-133858000D01*
X145137142Y-133810380D01*
X145184761Y-133762761D01*
X145232380Y-133667523D01*
X145232380Y-133381809D01*
X145184761Y-133286571D01*
X145137142Y-133238952D01*
X144232380Y-134143714D02*
X145232380Y-134477047D01*
X144232380Y-134810380D01*
X144232380Y-135048476D02*
X144232380Y-135667523D01*
X144613333Y-135334190D01*
X144613333Y-135477047D01*
X144660952Y-135572285D01*
X144708571Y-135619904D01*
X144803809Y-135667523D01*
X145041904Y-135667523D01*
X145137142Y-135619904D01*
X145184761Y-135572285D01*
X145232380Y-135477047D01*
X145232380Y-135191333D01*
X145184761Y-135096095D01*
X145137142Y-135048476D01*
X136215428Y-130707142D02*
X136215428Y-131469047D01*
X136596380Y-131088095D02*
X135834476Y-131088095D01*
X136596380Y-132469047D02*
X136596380Y-131897619D01*
X136596380Y-132183333D02*
X135596380Y-132183333D01*
X135739238Y-132088095D01*
X135834476Y-131992857D01*
X135882095Y-131897619D01*
X135691619Y-132850000D02*
X135644000Y-132897619D01*
X135596380Y-132992857D01*
X135596380Y-133230952D01*
X135644000Y-133326190D01*
X135691619Y-133373809D01*
X135786857Y-133421428D01*
X135882095Y-133421428D01*
X136024952Y-133373809D01*
X136596380Y-132802380D01*
X136596380Y-133421428D01*
X135596380Y-133707142D02*
X136596380Y-134040476D01*
X135596380Y-134373809D01*
X136596380Y-135135714D02*
X135596380Y-135135714D01*
X136548761Y-135135714D02*
X136596380Y-135040476D01*
X136596380Y-134850000D01*
X136548761Y-134754761D01*
X136501142Y-134707142D01*
X136405904Y-134659523D01*
X136120190Y-134659523D01*
X136024952Y-134707142D01*
X135977333Y-134754761D01*
X135929714Y-134850000D01*
X135929714Y-135040476D01*
X135977333Y-135135714D01*
X136548761Y-136040476D02*
X136596380Y-135945238D01*
X136596380Y-135754761D01*
X136548761Y-135659523D01*
X136501142Y-135611904D01*
X136405904Y-135564285D01*
X136120190Y-135564285D01*
X136024952Y-135611904D01*
X135977333Y-135659523D01*
X135929714Y-135754761D01*
X135929714Y-135945238D01*
X135977333Y-136040476D01*
X133104000Y-133858095D02*
X133056380Y-133762857D01*
X133056380Y-133620000D01*
X133104000Y-133477142D01*
X133199238Y-133381904D01*
X133294476Y-133334285D01*
X133484952Y-133286666D01*
X133627809Y-133286666D01*
X133818285Y-133334285D01*
X133913523Y-133381904D01*
X134008761Y-133477142D01*
X134056380Y-133620000D01*
X134056380Y-133715238D01*
X134008761Y-133858095D01*
X133961142Y-133905714D01*
X133627809Y-133905714D01*
X133627809Y-133715238D01*
X134056380Y-134334285D02*
X133056380Y-134334285D01*
X134056380Y-134905714D01*
X133056380Y-134905714D01*
X134056380Y-135381904D02*
X133056380Y-135381904D01*
X133056380Y-135620000D01*
X133104000Y-135762857D01*
X133199238Y-135858095D01*
X133294476Y-135905714D01*
X133484952Y-135953333D01*
X133627809Y-135953333D01*
X133818285Y-135905714D01*
X133913523Y-135858095D01*
X134008761Y-135762857D01*
X134056380Y-135620000D01*
X134056380Y-135381904D01*
X131230666Y-130310285D02*
X131230666Y-130786476D01*
X131516380Y-130215047D02*
X130516380Y-130548380D01*
X131516380Y-130881714D01*
X130849714Y-131215047D02*
X131516380Y-131215047D01*
X130944952Y-131215047D02*
X130897333Y-131262666D01*
X130849714Y-131357904D01*
X130849714Y-131500761D01*
X130897333Y-131596000D01*
X130992571Y-131643619D01*
X131516380Y-131643619D01*
X131516380Y-132548380D02*
X130992571Y-132548380D01*
X130897333Y-132500761D01*
X130849714Y-132405523D01*
X130849714Y-132215047D01*
X130897333Y-132119809D01*
X131468761Y-132548380D02*
X131516380Y-132453142D01*
X131516380Y-132215047D01*
X131468761Y-132119809D01*
X131373523Y-132072190D01*
X131278285Y-132072190D01*
X131183047Y-132119809D01*
X131135428Y-132215047D01*
X131135428Y-132453142D01*
X131087809Y-132548380D01*
X131516380Y-133167428D02*
X131468761Y-133072190D01*
X131373523Y-133024571D01*
X130516380Y-133024571D01*
X131516380Y-133691238D02*
X131468761Y-133596000D01*
X131421142Y-133548380D01*
X131325904Y-133500761D01*
X131040190Y-133500761D01*
X130944952Y-133548380D01*
X130897333Y-133596000D01*
X130849714Y-133691238D01*
X130849714Y-133834095D01*
X130897333Y-133929333D01*
X130944952Y-133976952D01*
X131040190Y-134024571D01*
X131325904Y-134024571D01*
X131421142Y-133976952D01*
X131468761Y-133929333D01*
X131516380Y-133834095D01*
X131516380Y-133691238D01*
X130849714Y-134881714D02*
X131659238Y-134881714D01*
X131754476Y-134834095D01*
X131802095Y-134786476D01*
X131849714Y-134691238D01*
X131849714Y-134548380D01*
X131802095Y-134453142D01*
X131468761Y-134881714D02*
X131516380Y-134786476D01*
X131516380Y-134596000D01*
X131468761Y-134500761D01*
X131421142Y-134453142D01*
X131325904Y-134405523D01*
X131040190Y-134405523D01*
X130944952Y-134453142D01*
X130897333Y-134500761D01*
X130849714Y-134596000D01*
X130849714Y-134786476D01*
X130897333Y-134881714D01*
X130611619Y-135310285D02*
X130564000Y-135357904D01*
X130516380Y-135453142D01*
X130516380Y-135691238D01*
X130564000Y-135786476D01*
X130611619Y-135834095D01*
X130706857Y-135881714D01*
X130802095Y-135881714D01*
X130944952Y-135834095D01*
X131516380Y-135262666D01*
X131516380Y-135881714D01*
X113038000Y-134112095D02*
X112990380Y-134016857D01*
X112990380Y-133874000D01*
X113038000Y-133731142D01*
X113133238Y-133635904D01*
X113228476Y-133588285D01*
X113418952Y-133540666D01*
X113561809Y-133540666D01*
X113752285Y-133588285D01*
X113847523Y-133635904D01*
X113942761Y-133731142D01*
X113990380Y-133874000D01*
X113990380Y-133969238D01*
X113942761Y-134112095D01*
X113895142Y-134159714D01*
X113561809Y-134159714D01*
X113561809Y-133969238D01*
X113990380Y-134588285D02*
X112990380Y-134588285D01*
X113990380Y-135159714D01*
X112990380Y-135159714D01*
X113990380Y-135635904D02*
X112990380Y-135635904D01*
X112990380Y-135874000D01*
X113038000Y-136016857D01*
X113133238Y-136112095D01*
X113228476Y-136159714D01*
X113418952Y-136207333D01*
X113561809Y-136207333D01*
X113752285Y-136159714D01*
X113847523Y-136112095D01*
X113942761Y-136016857D01*
X113990380Y-135874000D01*
X113990380Y-135635904D01*
X116530380Y-133683523D02*
X115530380Y-133683523D01*
X115530380Y-133921619D01*
X115578000Y-134064476D01*
X115673238Y-134159714D01*
X115768476Y-134207333D01*
X115958952Y-134254952D01*
X116101809Y-134254952D01*
X116292285Y-134207333D01*
X116387523Y-134159714D01*
X116482761Y-134064476D01*
X116530380Y-133921619D01*
X116530380Y-133683523D01*
X116244666Y-134635904D02*
X116244666Y-135112095D01*
X116530380Y-134540666D02*
X115530380Y-134874000D01*
X116530380Y-135207333D01*
X116435142Y-136112095D02*
X116482761Y-136064476D01*
X116530380Y-135921619D01*
X116530380Y-135826380D01*
X116482761Y-135683523D01*
X116387523Y-135588285D01*
X116292285Y-135540666D01*
X116101809Y-135493047D01*
X115958952Y-135493047D01*
X115768476Y-135540666D01*
X115673238Y-135588285D01*
X115578000Y-135683523D01*
X115530380Y-135826380D01*
X115530380Y-135921619D01*
X115578000Y-136064476D01*
X115625619Y-136112095D01*
X99559904Y-137882380D02*
X99559904Y-138691904D01*
X99512285Y-138787142D01*
X99464666Y-138834761D01*
X99369428Y-138882380D01*
X99178952Y-138882380D01*
X99083714Y-138834761D01*
X99036095Y-138787142D01*
X98988476Y-138691904D01*
X98988476Y-137882380D01*
X98559904Y-138834761D02*
X98417047Y-138882380D01*
X98178952Y-138882380D01*
X98083714Y-138834761D01*
X98036095Y-138787142D01*
X97988476Y-138691904D01*
X97988476Y-138596666D01*
X98036095Y-138501428D01*
X98083714Y-138453809D01*
X98178952Y-138406190D01*
X98369428Y-138358571D01*
X98464666Y-138310952D01*
X98512285Y-138263333D01*
X98559904Y-138168095D01*
X98559904Y-138072857D01*
X98512285Y-137977619D01*
X98464666Y-137930000D01*
X98369428Y-137882380D01*
X98131333Y-137882380D01*
X97988476Y-137930000D01*
X97226571Y-138358571D02*
X97083714Y-138406190D01*
X97036095Y-138453809D01*
X96988476Y-138549047D01*
X96988476Y-138691904D01*
X97036095Y-138787142D01*
X97083714Y-138834761D01*
X97178952Y-138882380D01*
X97559904Y-138882380D01*
X97559904Y-137882380D01*
X97226571Y-137882380D01*
X97131333Y-137930000D01*
X97083714Y-137977619D01*
X97036095Y-138072857D01*
X97036095Y-138168095D01*
X97083714Y-138263333D01*
X97131333Y-138310952D01*
X97226571Y-138358571D01*
X97559904Y-138358571D01*
D11*
X75076857Y-111144857D02*
X74862571Y-111216285D01*
X74791142Y-111287714D01*
X74719714Y-111430571D01*
X74719714Y-111644857D01*
X74791142Y-111787714D01*
X74862571Y-111859142D01*
X75005428Y-111930571D01*
X75576857Y-111930571D01*
X75576857Y-110430571D01*
X75076857Y-110430571D01*
X74934000Y-110502000D01*
X74862571Y-110573428D01*
X74791142Y-110716285D01*
X74791142Y-110859142D01*
X74862571Y-111002000D01*
X74934000Y-111073428D01*
X75076857Y-111144857D01*
X75576857Y-111144857D01*
X74826857Y-108708000D02*
X75541142Y-108708000D01*
X74684000Y-109136571D02*
X75184000Y-107636571D01*
X75684000Y-109136571D01*
D10*
X80485904Y-103195428D02*
X79724000Y-103195428D01*
X80104952Y-103576380D02*
X80104952Y-102814476D01*
X79295428Y-102671619D02*
X79247809Y-102624000D01*
X79152571Y-102576380D01*
X78914476Y-102576380D01*
X78819238Y-102624000D01*
X78771619Y-102671619D01*
X78724000Y-102766857D01*
X78724000Y-102862095D01*
X78771619Y-103004952D01*
X79343047Y-103576380D01*
X78724000Y-103576380D01*
X77866857Y-102909714D02*
X77866857Y-103576380D01*
X78104952Y-102528761D02*
X78343047Y-103243047D01*
X77724000Y-103243047D01*
X77485904Y-102576380D02*
X77152571Y-103576380D01*
X76819238Y-102576380D01*
X76485904Y-103576380D02*
X76485904Y-102576380D01*
X76247809Y-102576380D01*
X76104952Y-102624000D01*
X76009714Y-102719238D01*
X75962095Y-102814476D01*
X75914476Y-103004952D01*
X75914476Y-103147809D01*
X75962095Y-103338285D01*
X76009714Y-103433523D01*
X76104952Y-103528761D01*
X76247809Y-103576380D01*
X76485904Y-103576380D01*
X74914476Y-103481142D02*
X74962095Y-103528761D01*
X75104952Y-103576380D01*
X75200190Y-103576380D01*
X75343047Y-103528761D01*
X75438285Y-103433523D01*
X75485904Y-103338285D01*
X75533523Y-103147809D01*
X75533523Y-103004952D01*
X75485904Y-102814476D01*
X75438285Y-102719238D01*
X75343047Y-102624000D01*
X75200190Y-102576380D01*
X75104952Y-102576380D01*
X74962095Y-102624000D01*
X74914476Y-102671619D01*
X76961904Y-100084000D02*
X77057142Y-100036380D01*
X77200000Y-100036380D01*
X77342857Y-100084000D01*
X77438095Y-100179238D01*
X77485714Y-100274476D01*
X77533333Y-100464952D01*
X77533333Y-100607809D01*
X77485714Y-100798285D01*
X77438095Y-100893523D01*
X77342857Y-100988761D01*
X77200000Y-101036380D01*
X77104761Y-101036380D01*
X76961904Y-100988761D01*
X76914285Y-100941142D01*
X76914285Y-100607809D01*
X77104761Y-100607809D01*
X76485714Y-101036380D02*
X76485714Y-100036380D01*
X75914285Y-101036380D01*
X75914285Y-100036380D01*
X75438095Y-101036380D02*
X75438095Y-100036380D01*
X75200000Y-100036380D01*
X75057142Y-100084000D01*
X74961904Y-100179238D01*
X74914285Y-100274476D01*
X74866666Y-100464952D01*
X74866666Y-100607809D01*
X74914285Y-100798285D01*
X74961904Y-100893523D01*
X75057142Y-100988761D01*
X75200000Y-101036380D01*
X75438095Y-101036380D01*
X80279523Y-98448761D02*
X80136666Y-98496380D01*
X79898571Y-98496380D01*
X79803333Y-98448761D01*
X79755714Y-98401142D01*
X79708095Y-98305904D01*
X79708095Y-98210666D01*
X79755714Y-98115428D01*
X79803333Y-98067809D01*
X79898571Y-98020190D01*
X80089047Y-97972571D01*
X80184285Y-97924952D01*
X80231904Y-97877333D01*
X80279523Y-97782095D01*
X80279523Y-97686857D01*
X80231904Y-97591619D01*
X80184285Y-97544000D01*
X80089047Y-97496380D01*
X79850952Y-97496380D01*
X79708095Y-97544000D01*
X78898571Y-98448761D02*
X78993809Y-98496380D01*
X79184285Y-98496380D01*
X79279523Y-98448761D01*
X79327142Y-98353523D01*
X79327142Y-97972571D01*
X79279523Y-97877333D01*
X79184285Y-97829714D01*
X78993809Y-97829714D01*
X78898571Y-97877333D01*
X78850952Y-97972571D01*
X78850952Y-98067809D01*
X79327142Y-98163047D01*
X78422380Y-97829714D02*
X78422380Y-98496380D01*
X78422380Y-97924952D02*
X78374761Y-97877333D01*
X78279523Y-97829714D01*
X78136666Y-97829714D01*
X78041428Y-97877333D01*
X77993809Y-97972571D01*
X77993809Y-98496380D01*
X77565238Y-98448761D02*
X77470000Y-98496380D01*
X77279523Y-98496380D01*
X77184285Y-98448761D01*
X77136666Y-98353523D01*
X77136666Y-98305904D01*
X77184285Y-98210666D01*
X77279523Y-98163047D01*
X77422380Y-98163047D01*
X77517619Y-98115428D01*
X77565238Y-98020190D01*
X77565238Y-97972571D01*
X77517619Y-97877333D01*
X77422380Y-97829714D01*
X77279523Y-97829714D01*
X77184285Y-97877333D01*
X76565238Y-98496380D02*
X76660476Y-98448761D01*
X76708095Y-98401142D01*
X76755714Y-98305904D01*
X76755714Y-98020190D01*
X76708095Y-97924952D01*
X76660476Y-97877333D01*
X76565238Y-97829714D01*
X76422380Y-97829714D01*
X76327142Y-97877333D01*
X76279523Y-97924952D01*
X76231904Y-98020190D01*
X76231904Y-98305904D01*
X76279523Y-98401142D01*
X76327142Y-98448761D01*
X76422380Y-98496380D01*
X76565238Y-98496380D01*
X75803333Y-98496380D02*
X75803333Y-97829714D01*
X75803333Y-98020190D02*
X75755714Y-97924952D01*
X75708095Y-97877333D01*
X75612857Y-97829714D01*
X75517619Y-97829714D01*
X74660476Y-98496380D02*
X75231904Y-98496380D01*
X74946190Y-98496380D02*
X74946190Y-97496380D01*
X75041428Y-97639238D01*
X75136666Y-97734476D01*
X75231904Y-97782095D01*
X79977904Y-92781428D02*
X79216000Y-92781428D01*
X79596952Y-93162380D02*
X79596952Y-92400476D01*
X78787428Y-92257619D02*
X78739809Y-92210000D01*
X78644571Y-92162380D01*
X78406476Y-92162380D01*
X78311238Y-92210000D01*
X78263619Y-92257619D01*
X78216000Y-92352857D01*
X78216000Y-92448095D01*
X78263619Y-92590952D01*
X78835047Y-93162380D01*
X78216000Y-93162380D01*
X77358857Y-92495714D02*
X77358857Y-93162380D01*
X77596952Y-92114761D02*
X77835047Y-92829047D01*
X77216000Y-92829047D01*
X76977904Y-92162380D02*
X76644571Y-93162380D01*
X76311238Y-92162380D01*
X75977904Y-93162380D02*
X75977904Y-92162380D01*
X75739809Y-92162380D01*
X75596952Y-92210000D01*
X75501714Y-92305238D01*
X75454095Y-92400476D01*
X75406476Y-92590952D01*
X75406476Y-92733809D01*
X75454095Y-92924285D01*
X75501714Y-93019523D01*
X75596952Y-93114761D01*
X75739809Y-93162380D01*
X75977904Y-93162380D01*
X74406476Y-93067142D02*
X74454095Y-93114761D01*
X74596952Y-93162380D01*
X74692190Y-93162380D01*
X74835047Y-93114761D01*
X74930285Y-93019523D01*
X74977904Y-92924285D01*
X75025523Y-92733809D01*
X75025523Y-92590952D01*
X74977904Y-92400476D01*
X74930285Y-92305238D01*
X74835047Y-92210000D01*
X74692190Y-92162380D01*
X74596952Y-92162380D01*
X74454095Y-92210000D01*
X74406476Y-92257619D01*
X76453904Y-89670000D02*
X76549142Y-89622380D01*
X76692000Y-89622380D01*
X76834857Y-89670000D01*
X76930095Y-89765238D01*
X76977714Y-89860476D01*
X77025333Y-90050952D01*
X77025333Y-90193809D01*
X76977714Y-90384285D01*
X76930095Y-90479523D01*
X76834857Y-90574761D01*
X76692000Y-90622380D01*
X76596761Y-90622380D01*
X76453904Y-90574761D01*
X76406285Y-90527142D01*
X76406285Y-90193809D01*
X76596761Y-90193809D01*
X75977714Y-90622380D02*
X75977714Y-89622380D01*
X75406285Y-90622380D01*
X75406285Y-89622380D01*
X74930095Y-90622380D02*
X74930095Y-89622380D01*
X74692000Y-89622380D01*
X74549142Y-89670000D01*
X74453904Y-89765238D01*
X74406285Y-89860476D01*
X74358666Y-90050952D01*
X74358666Y-90193809D01*
X74406285Y-90384285D01*
X74453904Y-90479523D01*
X74549142Y-90574761D01*
X74692000Y-90622380D01*
X74930095Y-90622380D01*
X80025523Y-88034761D02*
X79882666Y-88082380D01*
X79644571Y-88082380D01*
X79549333Y-88034761D01*
X79501714Y-87987142D01*
X79454095Y-87891904D01*
X79454095Y-87796666D01*
X79501714Y-87701428D01*
X79549333Y-87653809D01*
X79644571Y-87606190D01*
X79835047Y-87558571D01*
X79930285Y-87510952D01*
X79977904Y-87463333D01*
X80025523Y-87368095D01*
X80025523Y-87272857D01*
X79977904Y-87177619D01*
X79930285Y-87130000D01*
X79835047Y-87082380D01*
X79596952Y-87082380D01*
X79454095Y-87130000D01*
X78644571Y-88034761D02*
X78739809Y-88082380D01*
X78930285Y-88082380D01*
X79025523Y-88034761D01*
X79073142Y-87939523D01*
X79073142Y-87558571D01*
X79025523Y-87463333D01*
X78930285Y-87415714D01*
X78739809Y-87415714D01*
X78644571Y-87463333D01*
X78596952Y-87558571D01*
X78596952Y-87653809D01*
X79073142Y-87749047D01*
X78168380Y-87415714D02*
X78168380Y-88082380D01*
X78168380Y-87510952D02*
X78120761Y-87463333D01*
X78025523Y-87415714D01*
X77882666Y-87415714D01*
X77787428Y-87463333D01*
X77739809Y-87558571D01*
X77739809Y-88082380D01*
X77311238Y-88034761D02*
X77216000Y-88082380D01*
X77025523Y-88082380D01*
X76930285Y-88034761D01*
X76882666Y-87939523D01*
X76882666Y-87891904D01*
X76930285Y-87796666D01*
X77025523Y-87749047D01*
X77168380Y-87749047D01*
X77263619Y-87701428D01*
X77311238Y-87606190D01*
X77311238Y-87558571D01*
X77263619Y-87463333D01*
X77168380Y-87415714D01*
X77025523Y-87415714D01*
X76930285Y-87463333D01*
X76311238Y-88082380D02*
X76406476Y-88034761D01*
X76454095Y-87987142D01*
X76501714Y-87891904D01*
X76501714Y-87606190D01*
X76454095Y-87510952D01*
X76406476Y-87463333D01*
X76311238Y-87415714D01*
X76168380Y-87415714D01*
X76073142Y-87463333D01*
X76025523Y-87510952D01*
X75977904Y-87606190D01*
X75977904Y-87891904D01*
X76025523Y-87987142D01*
X76073142Y-88034761D01*
X76168380Y-88082380D01*
X76311238Y-88082380D01*
X75549333Y-88082380D02*
X75549333Y-87415714D01*
X75549333Y-87606190D02*
X75501714Y-87510952D01*
X75454095Y-87463333D01*
X75358857Y-87415714D01*
X75263619Y-87415714D01*
X74977904Y-87177619D02*
X74930285Y-87130000D01*
X74835047Y-87082380D01*
X74596952Y-87082380D01*
X74501714Y-87130000D01*
X74454095Y-87177619D01*
X74406476Y-87272857D01*
X74406476Y-87368095D01*
X74454095Y-87510952D01*
X75025523Y-88082380D01*
X74406476Y-88082380D01*
X80231904Y-82367428D02*
X79470000Y-82367428D01*
X79850952Y-82748380D02*
X79850952Y-81986476D01*
X79041428Y-81843619D02*
X78993809Y-81796000D01*
X78898571Y-81748380D01*
X78660476Y-81748380D01*
X78565238Y-81796000D01*
X78517619Y-81843619D01*
X78470000Y-81938857D01*
X78470000Y-82034095D01*
X78517619Y-82176952D01*
X79089047Y-82748380D01*
X78470000Y-82748380D01*
X77612857Y-82081714D02*
X77612857Y-82748380D01*
X77850952Y-81700761D02*
X78089047Y-82415047D01*
X77470000Y-82415047D01*
X77231904Y-81748380D02*
X76898571Y-82748380D01*
X76565238Y-81748380D01*
X76231904Y-82748380D02*
X76231904Y-81748380D01*
X75993809Y-81748380D01*
X75850952Y-81796000D01*
X75755714Y-81891238D01*
X75708095Y-81986476D01*
X75660476Y-82176952D01*
X75660476Y-82319809D01*
X75708095Y-82510285D01*
X75755714Y-82605523D01*
X75850952Y-82700761D01*
X75993809Y-82748380D01*
X76231904Y-82748380D01*
X74660476Y-82653142D02*
X74708095Y-82700761D01*
X74850952Y-82748380D01*
X74946190Y-82748380D01*
X75089047Y-82700761D01*
X75184285Y-82605523D01*
X75231904Y-82510285D01*
X75279523Y-82319809D01*
X75279523Y-82176952D01*
X75231904Y-81986476D01*
X75184285Y-81891238D01*
X75089047Y-81796000D01*
X74946190Y-81748380D01*
X74850952Y-81748380D01*
X74708095Y-81796000D01*
X74660476Y-81843619D01*
X76707904Y-79256000D02*
X76803142Y-79208380D01*
X76946000Y-79208380D01*
X77088857Y-79256000D01*
X77184095Y-79351238D01*
X77231714Y-79446476D01*
X77279333Y-79636952D01*
X77279333Y-79779809D01*
X77231714Y-79970285D01*
X77184095Y-80065523D01*
X77088857Y-80160761D01*
X76946000Y-80208380D01*
X76850761Y-80208380D01*
X76707904Y-80160761D01*
X76660285Y-80113142D01*
X76660285Y-79779809D01*
X76850761Y-79779809D01*
X76231714Y-80208380D02*
X76231714Y-79208380D01*
X75660285Y-80208380D01*
X75660285Y-79208380D01*
X75184095Y-80208380D02*
X75184095Y-79208380D01*
X74946000Y-79208380D01*
X74803142Y-79256000D01*
X74707904Y-79351238D01*
X74660285Y-79446476D01*
X74612666Y-79636952D01*
X74612666Y-79779809D01*
X74660285Y-79970285D01*
X74707904Y-80065523D01*
X74803142Y-80160761D01*
X74946000Y-80208380D01*
X75184095Y-80208380D01*
X80279523Y-77620761D02*
X80136666Y-77668380D01*
X79898571Y-77668380D01*
X79803333Y-77620761D01*
X79755714Y-77573142D01*
X79708095Y-77477904D01*
X79708095Y-77382666D01*
X79755714Y-77287428D01*
X79803333Y-77239809D01*
X79898571Y-77192190D01*
X80089047Y-77144571D01*
X80184285Y-77096952D01*
X80231904Y-77049333D01*
X80279523Y-76954095D01*
X80279523Y-76858857D01*
X80231904Y-76763619D01*
X80184285Y-76716000D01*
X80089047Y-76668380D01*
X79850952Y-76668380D01*
X79708095Y-76716000D01*
X78898571Y-77620761D02*
X78993809Y-77668380D01*
X79184285Y-77668380D01*
X79279523Y-77620761D01*
X79327142Y-77525523D01*
X79327142Y-77144571D01*
X79279523Y-77049333D01*
X79184285Y-77001714D01*
X78993809Y-77001714D01*
X78898571Y-77049333D01*
X78850952Y-77144571D01*
X78850952Y-77239809D01*
X79327142Y-77335047D01*
X78422380Y-77001714D02*
X78422380Y-77668380D01*
X78422380Y-77096952D02*
X78374761Y-77049333D01*
X78279523Y-77001714D01*
X78136666Y-77001714D01*
X78041428Y-77049333D01*
X77993809Y-77144571D01*
X77993809Y-77668380D01*
X77565238Y-77620761D02*
X77470000Y-77668380D01*
X77279523Y-77668380D01*
X77184285Y-77620761D01*
X77136666Y-77525523D01*
X77136666Y-77477904D01*
X77184285Y-77382666D01*
X77279523Y-77335047D01*
X77422380Y-77335047D01*
X77517619Y-77287428D01*
X77565238Y-77192190D01*
X77565238Y-77144571D01*
X77517619Y-77049333D01*
X77422380Y-77001714D01*
X77279523Y-77001714D01*
X77184285Y-77049333D01*
X76565238Y-77668380D02*
X76660476Y-77620761D01*
X76708095Y-77573142D01*
X76755714Y-77477904D01*
X76755714Y-77192190D01*
X76708095Y-77096952D01*
X76660476Y-77049333D01*
X76565238Y-77001714D01*
X76422380Y-77001714D01*
X76327142Y-77049333D01*
X76279523Y-77096952D01*
X76231904Y-77192190D01*
X76231904Y-77477904D01*
X76279523Y-77573142D01*
X76327142Y-77620761D01*
X76422380Y-77668380D01*
X76565238Y-77668380D01*
X75803333Y-77668380D02*
X75803333Y-77001714D01*
X75803333Y-77192190D02*
X75755714Y-77096952D01*
X75708095Y-77049333D01*
X75612857Y-77001714D01*
X75517619Y-77001714D01*
X75279523Y-76668380D02*
X74660476Y-76668380D01*
X74993809Y-77049333D01*
X74850952Y-77049333D01*
X74755714Y-77096952D01*
X74708095Y-77144571D01*
X74660476Y-77239809D01*
X74660476Y-77477904D01*
X74708095Y-77573142D01*
X74755714Y-77620761D01*
X74850952Y-77668380D01*
X75136666Y-77668380D01*
X75231904Y-77620761D01*
X75279523Y-77573142D01*
X79977904Y-70683428D02*
X79216000Y-70683428D01*
X79596952Y-71064380D02*
X79596952Y-70302476D01*
X78787428Y-70159619D02*
X78739809Y-70112000D01*
X78644571Y-70064380D01*
X78406476Y-70064380D01*
X78311238Y-70112000D01*
X78263619Y-70159619D01*
X78216000Y-70254857D01*
X78216000Y-70350095D01*
X78263619Y-70492952D01*
X78835047Y-71064380D01*
X78216000Y-71064380D01*
X77358857Y-70397714D02*
X77358857Y-71064380D01*
X77596952Y-70016761D02*
X77835047Y-70731047D01*
X77216000Y-70731047D01*
X76977904Y-70064380D02*
X76644571Y-71064380D01*
X76311238Y-70064380D01*
X75977904Y-71064380D02*
X75977904Y-70064380D01*
X75739809Y-70064380D01*
X75596952Y-70112000D01*
X75501714Y-70207238D01*
X75454095Y-70302476D01*
X75406476Y-70492952D01*
X75406476Y-70635809D01*
X75454095Y-70826285D01*
X75501714Y-70921523D01*
X75596952Y-71016761D01*
X75739809Y-71064380D01*
X75977904Y-71064380D01*
X74406476Y-70969142D02*
X74454095Y-71016761D01*
X74596952Y-71064380D01*
X74692190Y-71064380D01*
X74835047Y-71016761D01*
X74930285Y-70921523D01*
X74977904Y-70826285D01*
X75025523Y-70635809D01*
X75025523Y-70492952D01*
X74977904Y-70302476D01*
X74930285Y-70207238D01*
X74835047Y-70112000D01*
X74692190Y-70064380D01*
X74596952Y-70064380D01*
X74454095Y-70112000D01*
X74406476Y-70159619D01*
X79112761Y-67254380D02*
X79112761Y-66254380D01*
X78636571Y-67254380D02*
X78636571Y-66254380D01*
X78065142Y-67254380D01*
X78065142Y-66254380D01*
X77588952Y-67254380D02*
X77588952Y-66254380D01*
X77208000Y-66254380D01*
X77112761Y-66302000D01*
X77065142Y-66349619D01*
X77017523Y-66444857D01*
X77017523Y-66587714D01*
X77065142Y-66682952D01*
X77112761Y-66730571D01*
X77208000Y-66778190D01*
X77588952Y-66778190D01*
X76588952Y-66254380D02*
X76588952Y-67063904D01*
X76541333Y-67159142D01*
X76493714Y-67206761D01*
X76398476Y-67254380D01*
X76208000Y-67254380D01*
X76112761Y-67206761D01*
X76065142Y-67159142D01*
X76017523Y-67063904D01*
X76017523Y-66254380D01*
X75684190Y-66254380D02*
X75112761Y-66254380D01*
X75398476Y-67254380D02*
X75398476Y-66254380D01*
X74255619Y-67254380D02*
X74827047Y-67254380D01*
X74541333Y-67254380D02*
X74541333Y-66254380D01*
X74636571Y-66397238D01*
X74731809Y-66492476D01*
X74827047Y-66540095D01*
X79112761Y-64714380D02*
X79112761Y-63714380D01*
X78636571Y-64714380D02*
X78636571Y-63714380D01*
X78065142Y-64714380D01*
X78065142Y-63714380D01*
X77588952Y-64714380D02*
X77588952Y-63714380D01*
X77208000Y-63714380D01*
X77112761Y-63762000D01*
X77065142Y-63809619D01*
X77017523Y-63904857D01*
X77017523Y-64047714D01*
X77065142Y-64142952D01*
X77112761Y-64190571D01*
X77208000Y-64238190D01*
X77588952Y-64238190D01*
X76588952Y-63714380D02*
X76588952Y-64523904D01*
X76541333Y-64619142D01*
X76493714Y-64666761D01*
X76398476Y-64714380D01*
X76208000Y-64714380D01*
X76112761Y-64666761D01*
X76065142Y-64619142D01*
X76017523Y-64523904D01*
X76017523Y-63714380D01*
X75684190Y-63714380D02*
X75112761Y-63714380D01*
X75398476Y-64714380D02*
X75398476Y-63714380D01*
X74827047Y-63809619D02*
X74779428Y-63762000D01*
X74684190Y-63714380D01*
X74446095Y-63714380D01*
X74350857Y-63762000D01*
X74303238Y-63809619D01*
X74255619Y-63904857D01*
X74255619Y-64000095D01*
X74303238Y-64142952D01*
X74874666Y-64714380D01*
X74255619Y-64714380D01*
X79112761Y-62174380D02*
X79112761Y-61174380D01*
X78636571Y-62174380D02*
X78636571Y-61174380D01*
X78065142Y-62174380D01*
X78065142Y-61174380D01*
X77588952Y-62174380D02*
X77588952Y-61174380D01*
X77208000Y-61174380D01*
X77112761Y-61222000D01*
X77065142Y-61269619D01*
X77017523Y-61364857D01*
X77017523Y-61507714D01*
X77065142Y-61602952D01*
X77112761Y-61650571D01*
X77208000Y-61698190D01*
X77588952Y-61698190D01*
X76588952Y-61174380D02*
X76588952Y-61983904D01*
X76541333Y-62079142D01*
X76493714Y-62126761D01*
X76398476Y-62174380D01*
X76208000Y-62174380D01*
X76112761Y-62126761D01*
X76065142Y-62079142D01*
X76017523Y-61983904D01*
X76017523Y-61174380D01*
X75684190Y-61174380D02*
X75112761Y-61174380D01*
X75398476Y-62174380D02*
X75398476Y-61174380D01*
X74874666Y-61174380D02*
X74255619Y-61174380D01*
X74588952Y-61555333D01*
X74446095Y-61555333D01*
X74350857Y-61602952D01*
X74303238Y-61650571D01*
X74255619Y-61745809D01*
X74255619Y-61983904D01*
X74303238Y-62079142D01*
X74350857Y-62126761D01*
X74446095Y-62174380D01*
X74731809Y-62174380D01*
X74827047Y-62126761D01*
X74874666Y-62079142D01*
X79112761Y-59634380D02*
X79112761Y-58634380D01*
X78636571Y-59634380D02*
X78636571Y-58634380D01*
X78065142Y-59634380D01*
X78065142Y-58634380D01*
X77588952Y-59634380D02*
X77588952Y-58634380D01*
X77208000Y-58634380D01*
X77112761Y-58682000D01*
X77065142Y-58729619D01*
X77017523Y-58824857D01*
X77017523Y-58967714D01*
X77065142Y-59062952D01*
X77112761Y-59110571D01*
X77208000Y-59158190D01*
X77588952Y-59158190D01*
X76588952Y-58634380D02*
X76588952Y-59443904D01*
X76541333Y-59539142D01*
X76493714Y-59586761D01*
X76398476Y-59634380D01*
X76208000Y-59634380D01*
X76112761Y-59586761D01*
X76065142Y-59539142D01*
X76017523Y-59443904D01*
X76017523Y-58634380D01*
X75684190Y-58634380D02*
X75112761Y-58634380D01*
X75398476Y-59634380D02*
X75398476Y-58634380D01*
X74350857Y-58967714D02*
X74350857Y-59634380D01*
X74588952Y-58586761D02*
X74827047Y-59301047D01*
X74208000Y-59301047D01*
X69096000Y-45974095D02*
X69048380Y-45878857D01*
X69048380Y-45736000D01*
X69096000Y-45593142D01*
X69191238Y-45497904D01*
X69286476Y-45450285D01*
X69476952Y-45402666D01*
X69619809Y-45402666D01*
X69810285Y-45450285D01*
X69905523Y-45497904D01*
X70000761Y-45593142D01*
X70048380Y-45736000D01*
X70048380Y-45831238D01*
X70000761Y-45974095D01*
X69953142Y-46021714D01*
X69619809Y-46021714D01*
X69619809Y-45831238D01*
X70048380Y-46450285D02*
X69048380Y-46450285D01*
X70048380Y-47021714D01*
X69048380Y-47021714D01*
X70048380Y-47497904D02*
X69048380Y-47497904D01*
X69048380Y-47736000D01*
X69096000Y-47878857D01*
X69191238Y-47974095D01*
X69286476Y-48021714D01*
X69476952Y-48069333D01*
X69619809Y-48069333D01*
X69810285Y-48021714D01*
X69905523Y-47974095D01*
X70000761Y-47878857D01*
X70048380Y-47736000D01*
X70048380Y-47497904D01*
X69667428Y-38759142D02*
X69667428Y-39521047D01*
X70048380Y-39140095D02*
X69286476Y-39140095D01*
X69143619Y-39949619D02*
X69096000Y-39997238D01*
X69048380Y-40092476D01*
X69048380Y-40330571D01*
X69096000Y-40425809D01*
X69143619Y-40473428D01*
X69238857Y-40521047D01*
X69334095Y-40521047D01*
X69476952Y-40473428D01*
X70048380Y-39902000D01*
X70048380Y-40521047D01*
X69381714Y-41378190D02*
X70048380Y-41378190D01*
X69000761Y-41140095D02*
X69715047Y-40902000D01*
X69715047Y-41521047D01*
X69048380Y-41759142D02*
X70048380Y-42092476D01*
X69048380Y-42425809D01*
X70048380Y-43187714D02*
X69048380Y-43187714D01*
X70000761Y-43187714D02*
X70048380Y-43092476D01*
X70048380Y-42902000D01*
X70000761Y-42806761D01*
X69953142Y-42759142D01*
X69857904Y-42711523D01*
X69572190Y-42711523D01*
X69476952Y-42759142D01*
X69429333Y-42806761D01*
X69381714Y-42902000D01*
X69381714Y-43092476D01*
X69429333Y-43187714D01*
X70000761Y-44092476D02*
X70048380Y-43997238D01*
X70048380Y-43806761D01*
X70000761Y-43711523D01*
X69953142Y-43663904D01*
X69857904Y-43616285D01*
X69572190Y-43616285D01*
X69476952Y-43663904D01*
X69429333Y-43711523D01*
X69381714Y-43806761D01*
X69381714Y-43997238D01*
X69429333Y-44092476D01*
D12*
G36*
X202353333Y-51223333D02*
G01*
X219286666Y-51223333D01*
X219286666Y-49166351D01*
X218085973Y-49166351D01*
X218036362Y-49326811D01*
X217903632Y-49441766D01*
X217681739Y-49538027D01*
X217452200Y-49638948D01*
X217301043Y-49736230D01*
X217272517Y-49772781D01*
X217307656Y-49846468D01*
X217436566Y-49868226D01*
X217593355Y-49842516D01*
X217712125Y-49773801D01*
X217732049Y-49741667D01*
X217833247Y-49624234D01*
X217948680Y-49641518D01*
X218014875Y-49777782D01*
X218016666Y-49812222D01*
X217994781Y-49990031D01*
X217960222Y-50066222D01*
X217817573Y-50115087D01*
X217576727Y-50120554D01*
X217301807Y-50087462D01*
X217056934Y-50020649D01*
X216996462Y-49993492D01*
X216795310Y-49829160D01*
X216746666Y-49663329D01*
X216776562Y-49531082D01*
X216891408Y-49428823D01*
X216904681Y-49423025D01*
X216645232Y-49423025D01*
X216641765Y-49670145D01*
X216563567Y-49833296D01*
X216443314Y-49943728D01*
X216198132Y-50058843D01*
X215865250Y-50121710D01*
X215520487Y-50124072D01*
X215271925Y-50071275D01*
X215155046Y-49961051D01*
X215138000Y-49892519D01*
X215176715Y-49810836D01*
X215318631Y-49802078D01*
X215423886Y-49818787D01*
X215765971Y-49834275D01*
X216012452Y-49744710D01*
X216140769Y-49561246D01*
X216154000Y-49457796D01*
X216141283Y-49405603D01*
X214883879Y-49405603D01*
X214866579Y-49760246D01*
X214800748Y-49986135D01*
X214761063Y-50034628D01*
X214600240Y-50092067D01*
X214423655Y-50064311D01*
X214305600Y-49970384D01*
X214291333Y-49914353D01*
X214223146Y-49788793D01*
X214164333Y-49753382D01*
X214060738Y-49639156D01*
X214029697Y-49511490D01*
X214016296Y-49412945D01*
X213982938Y-49464170D01*
X213943116Y-49591545D01*
X213790012Y-49842584D01*
X213524208Y-50030641D01*
X213195108Y-50141683D01*
X212852116Y-50161677D01*
X212544637Y-50076589D01*
X212449833Y-50015719D01*
X212362378Y-49913638D01*
X212152365Y-49913638D01*
X212150144Y-50013932D01*
X212068833Y-50068059D01*
X211899409Y-50099530D01*
X211660315Y-50102805D01*
X211417275Y-50082259D01*
X211236010Y-50042270D01*
X211183126Y-50009079D01*
X211196307Y-49896423D01*
X211251565Y-49834656D01*
X211331756Y-49678028D01*
X211328000Y-49403000D01*
X211288422Y-49185214D01*
X211215210Y-49088447D01*
X211066273Y-49064597D01*
X211031666Y-49064333D01*
X210864706Y-49080684D01*
X210786150Y-49162555D01*
X210753511Y-49359170D01*
X210750926Y-49389591D01*
X210761575Y-49654390D01*
X210857964Y-49816105D01*
X210877926Y-49832482D01*
X210979765Y-49932569D01*
X210943387Y-50007273D01*
X210904666Y-50035094D01*
X210709800Y-50098704D01*
X210440491Y-50117459D01*
X210185685Y-50090179D01*
X210068319Y-50046169D01*
X210001472Y-49933717D01*
X210056654Y-49821649D01*
X210168830Y-49783638D01*
X210236258Y-49703628D01*
X210282693Y-49482843D01*
X210294952Y-49339252D01*
X210324585Y-49071138D01*
X210346978Y-48978191D01*
X209964948Y-48978191D01*
X209865056Y-49021610D01*
X209846333Y-49022000D01*
X209769440Y-49064119D01*
X209730037Y-49211741D01*
X209719333Y-49483459D01*
X209678926Y-49832803D01*
X209549345Y-50044252D01*
X209318056Y-50126704D01*
X208972522Y-50089054D01*
X208893833Y-50069302D01*
X208726989Y-49984308D01*
X208708470Y-49884840D01*
X208824947Y-49806832D01*
X208999666Y-49784000D01*
X209201229Y-49767047D01*
X209283087Y-49695545D01*
X209294844Y-49593500D01*
X209257091Y-49263048D01*
X209142885Y-49071576D01*
X208976408Y-49005625D01*
X208782759Y-48944078D01*
X208731350Y-48847807D01*
X208739931Y-48839646D01*
X208609329Y-48839646D01*
X208590426Y-48911942D01*
X208445786Y-48980792D01*
X208336784Y-49044976D01*
X208292037Y-49177892D01*
X208292237Y-49409136D01*
X208328011Y-49671214D01*
X208410417Y-49804198D01*
X208465118Y-49831343D01*
X208605178Y-49921270D01*
X208583615Y-50042365D01*
X208562222Y-50066222D01*
X208440200Y-50104841D01*
X208220803Y-50120729D01*
X207974516Y-50113455D01*
X207771824Y-50082587D01*
X207736591Y-50071275D01*
X207625613Y-49974798D01*
X207622455Y-49945407D01*
X207518000Y-49945407D01*
X207437528Y-49999025D01*
X207210949Y-50030778D01*
X206967666Y-50038000D01*
X206648983Y-50024461D01*
X206460256Y-49986339D01*
X206417333Y-49945407D01*
X206487259Y-49848633D01*
X206565759Y-49813999D01*
X206659219Y-49753635D01*
X206692416Y-49609166D01*
X206684907Y-49407049D01*
X206655356Y-49174754D01*
X206590482Y-49059690D01*
X206452399Y-49009775D01*
X206388314Y-48999314D01*
X206167505Y-48983158D01*
X206015166Y-48999916D01*
X205940115Y-49107223D01*
X205908209Y-49310277D01*
X205917692Y-49541556D01*
X205966812Y-49733534D01*
X206036333Y-49814618D01*
X206149000Y-49930243D01*
X206163333Y-49997434D01*
X206091623Y-50081418D01*
X205913538Y-50119882D01*
X205684644Y-50116788D01*
X205460511Y-50076098D01*
X205296705Y-50001771D01*
X205247751Y-49932167D01*
X205280544Y-49806134D01*
X205352792Y-49784000D01*
X205429317Y-49749862D01*
X205470533Y-49624769D01*
X205485362Y-49374699D01*
X205485833Y-49301705D01*
X205082939Y-49301705D01*
X205074312Y-49621597D01*
X205054899Y-49685220D01*
X204933231Y-49893325D01*
X204783033Y-50021325D01*
X204566123Y-50080086D01*
X204261624Y-50112153D01*
X203948487Y-50113974D01*
X203705664Y-50081998D01*
X203672591Y-50071275D01*
X203555714Y-49961136D01*
X203538666Y-49892678D01*
X203580278Y-49810948D01*
X203729408Y-49792870D01*
X203856166Y-49804600D01*
X204203411Y-49802357D01*
X204451153Y-49711383D01*
X204580321Y-49549735D01*
X204571842Y-49335470D01*
X204498173Y-49196810D01*
X204339576Y-49072643D01*
X204132459Y-49023211D01*
X203943847Y-49053435D01*
X203846715Y-49149000D01*
X203743397Y-49268725D01*
X203621828Y-49255880D01*
X203544133Y-49126940D01*
X203538666Y-49067312D01*
X203609881Y-48853105D01*
X203815803Y-48729622D01*
X204144852Y-48702301D01*
X204286000Y-48716331D01*
X204672335Y-48828346D01*
X204943464Y-49030379D01*
X205082939Y-49301705D01*
X205485833Y-49301705D01*
X205486000Y-49276000D01*
X205486000Y-48768000D01*
X205994000Y-48757417D01*
X206341891Y-48748812D01*
X206555383Y-48734073D01*
X206669363Y-48703142D01*
X206718719Y-48645964D01*
X206738340Y-48552480D01*
X206739769Y-48542439D01*
X206699026Y-48375156D01*
X206562203Y-48286354D01*
X206392630Y-48297394D01*
X206279685Y-48387243D01*
X206137196Y-48487580D01*
X206040401Y-48484943D01*
X205929058Y-48483886D01*
X205909333Y-48522546D01*
X205845764Y-48580940D01*
X205706254Y-48578078D01*
X205567595Y-48525819D01*
X205510215Y-48460916D01*
X205557414Y-48361906D01*
X205721285Y-48243993D01*
X205954418Y-48130107D01*
X206209399Y-48043178D01*
X206438817Y-48006135D01*
X206450856Y-48006000D01*
X206721585Y-48059557D01*
X206966968Y-48195690D01*
X207135117Y-48377587D01*
X207179333Y-48522802D01*
X207236414Y-48682969D01*
X207306333Y-48737382D01*
X207415570Y-48839795D01*
X207417565Y-48970171D01*
X207337111Y-49039963D01*
X207275162Y-49136730D01*
X207236236Y-49340208D01*
X207231278Y-49423748D01*
X207243740Y-49666366D01*
X207308498Y-49785995D01*
X207369833Y-49814137D01*
X207495501Y-49890635D01*
X207518000Y-49945407D01*
X207622455Y-49945407D01*
X207612801Y-49855584D01*
X207700954Y-49785768D01*
X207725441Y-49784000D01*
X207802953Y-49731703D01*
X207850709Y-49557818D01*
X207873608Y-49297167D01*
X207899000Y-48810333D01*
X208258833Y-48784298D01*
X208492873Y-48790870D01*
X208609329Y-48839646D01*
X208739931Y-48839646D01*
X208828513Y-48755403D01*
X208930152Y-48723675D01*
X209163198Y-48657085D01*
X209318499Y-48592003D01*
X209472503Y-48566192D01*
X209667741Y-48660056D01*
X209720666Y-48697706D01*
X209915904Y-48867863D01*
X209964948Y-48978191D01*
X210346978Y-48978191D01*
X210372695Y-48871455D01*
X210405186Y-48810447D01*
X210519382Y-48777641D01*
X210754443Y-48754819D01*
X211062436Y-48742244D01*
X211395425Y-48740179D01*
X211705475Y-48748884D01*
X211944654Y-48768623D01*
X212065025Y-48799658D01*
X212066910Y-48801355D01*
X212056116Y-48893272D01*
X211976592Y-49006981D01*
X211867469Y-49209794D01*
X211832543Y-49452703D01*
X211869668Y-49674506D01*
X211976697Y-49814001D01*
X212005333Y-49826333D01*
X212152365Y-49913638D01*
X212362378Y-49913638D01*
X212342896Y-49890898D01*
X212388674Y-49816903D01*
X212575607Y-49803481D01*
X212685513Y-49816968D01*
X212986221Y-49827160D01*
X213221054Y-49764945D01*
X213348426Y-49644542D01*
X213360000Y-49586355D01*
X213288281Y-49514482D01*
X213068703Y-49513349D01*
X213063896Y-49513904D01*
X212708640Y-49518736D01*
X212446364Y-49447953D01*
X212311309Y-49312931D01*
X212306914Y-49104614D01*
X212435805Y-48924163D01*
X212662210Y-48789750D01*
X212950360Y-48719546D01*
X213264484Y-48731723D01*
X213391214Y-48764330D01*
X213633581Y-48880848D01*
X213819507Y-49031495D01*
X213833976Y-49049646D01*
X213920607Y-49158749D01*
X213947707Y-49146017D01*
X213928060Y-48991759D01*
X213916316Y-48922814D01*
X213859171Y-48652964D01*
X213775459Y-48324193D01*
X213732646Y-48173614D01*
X213649379Y-47921447D01*
X213576280Y-47800216D01*
X213485307Y-47775889D01*
X213417735Y-47791412D01*
X213237439Y-47827470D01*
X212954643Y-47864698D01*
X212682666Y-47890609D01*
X212139921Y-47872031D01*
X211700795Y-47721265D01*
X211359915Y-47435721D01*
X211183538Y-47167183D01*
X210989333Y-46794033D01*
X210980894Y-47421183D01*
X210966991Y-47865691D01*
X210933222Y-48167087D01*
X210870309Y-48351265D01*
X210768976Y-48444113D01*
X210619946Y-48471524D01*
X210604516Y-48471667D01*
X210494090Y-48464020D01*
X210407854Y-48422932D01*
X210328452Y-48321183D01*
X210238527Y-48131553D01*
X210120723Y-47826822D01*
X210022979Y-47559636D01*
X209873394Y-47154371D01*
X209754997Y-46880436D01*
X209640076Y-46710405D01*
X209500918Y-46616848D01*
X209309811Y-46572338D01*
X209039041Y-46549446D01*
X208999666Y-46546836D01*
X208661000Y-46524333D01*
X208608382Y-47286333D01*
X208567128Y-47770728D01*
X208513624Y-48110354D01*
X208436218Y-48329771D01*
X208323258Y-48453544D01*
X208163091Y-48506233D01*
X208026000Y-48514000D01*
X207811756Y-48490310D01*
X207666069Y-48402256D01*
X207576709Y-48224363D01*
X207531449Y-47931155D01*
X207518060Y-47497155D01*
X207518000Y-47455666D01*
X207506154Y-47011543D01*
X207462579Y-46708780D01*
X207375221Y-46520554D01*
X207232024Y-46420039D01*
X207035299Y-46381524D01*
X206817605Y-46344679D01*
X206725906Y-46265508D01*
X206713666Y-46185667D01*
X206783873Y-46032078D01*
X206885210Y-45991762D01*
X206960739Y-45969438D01*
X207010378Y-45908189D01*
X207039735Y-45777780D01*
X207054416Y-45547974D01*
X207060026Y-45188536D01*
X207060806Y-45044729D01*
X207069266Y-44631194D01*
X206417333Y-44631194D01*
X206346963Y-44939222D01*
X206163056Y-45161306D01*
X205906417Y-45281165D01*
X205617849Y-45282513D01*
X205338157Y-45149070D01*
X205270485Y-45088848D01*
X205106057Y-44823762D01*
X205079232Y-44534749D01*
X205172671Y-44264159D01*
X205369040Y-44054338D01*
X205650999Y-43947636D01*
X205740000Y-43942000D01*
X206035285Y-44018867D01*
X206270946Y-44219754D01*
X206403177Y-44500086D01*
X206417333Y-44631194D01*
X207069266Y-44631194D01*
X207070497Y-44571066D01*
X207101931Y-44241281D01*
X207165953Y-44030270D01*
X207273406Y-43912931D01*
X207435134Y-43864158D01*
X207573709Y-43857333D01*
X207752146Y-43872509D01*
X207869018Y-43945092D01*
X207971076Y-44115663D01*
X208033918Y-44256806D01*
X208147024Y-44547982D01*
X208275730Y-44919655D01*
X208386433Y-45272451D01*
X208486765Y-45596175D01*
X208582120Y-45795198D01*
X208715851Y-45907106D01*
X208931312Y-45969487D01*
X209244224Y-46016162D01*
X209487018Y-46044051D01*
X209597294Y-46033737D01*
X209609494Y-45975277D01*
X209586157Y-45917446D01*
X209548699Y-45762526D01*
X209513839Y-45490665D01*
X209487903Y-45154212D01*
X209483713Y-45069751D01*
X209471699Y-44725799D01*
X209478820Y-44509460D01*
X209514155Y-44379312D01*
X209586781Y-44293935D01*
X209666052Y-44237721D01*
X209887000Y-44143866D01*
X210074271Y-44125970D01*
X210244755Y-44228343D01*
X210424475Y-44471998D01*
X210600153Y-44830382D01*
X210758514Y-45276948D01*
X210873519Y-45724185D01*
X211014784Y-46381570D01*
X211192558Y-46030302D01*
X211455594Y-45663808D01*
X211799744Y-45412188D01*
X212188710Y-45300151D01*
X212270241Y-45296667D01*
X212492312Y-45278636D01*
X212602709Y-45204431D01*
X212645884Y-45093029D01*
X212768343Y-44844987D01*
X212970079Y-44648988D01*
X213197615Y-44550337D01*
X213288214Y-44548859D01*
X213405737Y-44599928D01*
X213533518Y-44736058D01*
X213690447Y-44982037D01*
X213868000Y-45309710D01*
X214050017Y-45646872D01*
X214221519Y-45942154D01*
X214356674Y-46152020D01*
X214403915Y-46212834D01*
X214507043Y-46379079D01*
X214474908Y-46539964D01*
X214471564Y-46546303D01*
X214431910Y-46723826D01*
X214466684Y-46996906D01*
X214508906Y-47167180D01*
X214665163Y-47802995D01*
X214781115Y-48403593D01*
X214854706Y-48945591D01*
X214883879Y-49405603D01*
X216141283Y-49405603D01*
X216094454Y-49213408D01*
X215945439Y-49048628D01*
X215751389Y-48987114D01*
X215556738Y-49052524D01*
X215497847Y-49108427D01*
X215320219Y-49253671D01*
X215177450Y-49247944D01*
X215107382Y-49149000D01*
X215092447Y-48934577D01*
X215218916Y-48781108D01*
X215466215Y-48700176D01*
X215813770Y-48703366D01*
X215881444Y-48713124D01*
X216271772Y-48834188D01*
X216523115Y-49049965D01*
X216639034Y-49363764D01*
X216645232Y-49423025D01*
X216904681Y-49423025D01*
X217128941Y-49325064D01*
X217170000Y-49310111D01*
X217440023Y-49196710D01*
X217574945Y-49104020D01*
X217565741Y-49042385D01*
X217421343Y-49022000D01*
X217258537Y-49077171D01*
X217200618Y-49149000D01*
X217099373Y-49274361D01*
X216978375Y-49272433D01*
X216883003Y-49172230D01*
X216858638Y-49002766D01*
X216872973Y-48939517D01*
X217000822Y-48791550D01*
X217236885Y-48718137D01*
X217534091Y-48726305D01*
X217797120Y-48801584D01*
X218002207Y-48905717D01*
X218084017Y-49018048D01*
X218085973Y-49166351D01*
X219286666Y-49166351D01*
X219286666Y-42756667D01*
X202353333Y-42756667D01*
X202353333Y-51223333D01*
X202353333Y-51223333D01*
G37*
X202353333Y-51223333D02*
X219286666Y-51223333D01*
X219286666Y-49166351D01*
X218085973Y-49166351D01*
X218036362Y-49326811D01*
X217903632Y-49441766D01*
X217681739Y-49538027D01*
X217452200Y-49638948D01*
X217301043Y-49736230D01*
X217272517Y-49772781D01*
X217307656Y-49846468D01*
X217436566Y-49868226D01*
X217593355Y-49842516D01*
X217712125Y-49773801D01*
X217732049Y-49741667D01*
X217833247Y-49624234D01*
X217948680Y-49641518D01*
X218014875Y-49777782D01*
X218016666Y-49812222D01*
X217994781Y-49990031D01*
X217960222Y-50066222D01*
X217817573Y-50115087D01*
X217576727Y-50120554D01*
X217301807Y-50087462D01*
X217056934Y-50020649D01*
X216996462Y-49993492D01*
X216795310Y-49829160D01*
X216746666Y-49663329D01*
X216776562Y-49531082D01*
X216891408Y-49428823D01*
X216904681Y-49423025D01*
X216645232Y-49423025D01*
X216641765Y-49670145D01*
X216563567Y-49833296D01*
X216443314Y-49943728D01*
X216198132Y-50058843D01*
X215865250Y-50121710D01*
X215520487Y-50124072D01*
X215271925Y-50071275D01*
X215155046Y-49961051D01*
X215138000Y-49892519D01*
X215176715Y-49810836D01*
X215318631Y-49802078D01*
X215423886Y-49818787D01*
X215765971Y-49834275D01*
X216012452Y-49744710D01*
X216140769Y-49561246D01*
X216154000Y-49457796D01*
X216141283Y-49405603D01*
X214883879Y-49405603D01*
X214866579Y-49760246D01*
X214800748Y-49986135D01*
X214761063Y-50034628D01*
X214600240Y-50092067D01*
X214423655Y-50064311D01*
X214305600Y-49970384D01*
X214291333Y-49914353D01*
X214223146Y-49788793D01*
X214164333Y-49753382D01*
X214060738Y-49639156D01*
X214029697Y-49511490D01*
X214016296Y-49412945D01*
X213982938Y-49464170D01*
X213943116Y-49591545D01*
X213790012Y-49842584D01*
X213524208Y-50030641D01*
X213195108Y-50141683D01*
X212852116Y-50161677D01*
X212544637Y-50076589D01*
X212449833Y-50015719D01*
X212362378Y-49913638D01*
X212152365Y-49913638D01*
X212150144Y-50013932D01*
X212068833Y-50068059D01*
X211899409Y-50099530D01*
X211660315Y-50102805D01*
X211417275Y-50082259D01*
X211236010Y-50042270D01*
X211183126Y-50009079D01*
X211196307Y-49896423D01*
X211251565Y-49834656D01*
X211331756Y-49678028D01*
X211328000Y-49403000D01*
X211288422Y-49185214D01*
X211215210Y-49088447D01*
X211066273Y-49064597D01*
X211031666Y-49064333D01*
X210864706Y-49080684D01*
X210786150Y-49162555D01*
X210753511Y-49359170D01*
X210750926Y-49389591D01*
X210761575Y-49654390D01*
X210857964Y-49816105D01*
X210877926Y-49832482D01*
X210979765Y-49932569D01*
X210943387Y-50007273D01*
X210904666Y-50035094D01*
X210709800Y-50098704D01*
X210440491Y-50117459D01*
X210185685Y-50090179D01*
X210068319Y-50046169D01*
X210001472Y-49933717D01*
X210056654Y-49821649D01*
X210168830Y-49783638D01*
X210236258Y-49703628D01*
X210282693Y-49482843D01*
X210294952Y-49339252D01*
X210324585Y-49071138D01*
X210346978Y-48978191D01*
X209964948Y-48978191D01*
X209865056Y-49021610D01*
X209846333Y-49022000D01*
X209769440Y-49064119D01*
X209730037Y-49211741D01*
X209719333Y-49483459D01*
X209678926Y-49832803D01*
X209549345Y-50044252D01*
X209318056Y-50126704D01*
X208972522Y-50089054D01*
X208893833Y-50069302D01*
X208726989Y-49984308D01*
X208708470Y-49884840D01*
X208824947Y-49806832D01*
X208999666Y-49784000D01*
X209201229Y-49767047D01*
X209283087Y-49695545D01*
X209294844Y-49593500D01*
X209257091Y-49263048D01*
X209142885Y-49071576D01*
X208976408Y-49005625D01*
X208782759Y-48944078D01*
X208731350Y-48847807D01*
X208739931Y-48839646D01*
X208609329Y-48839646D01*
X208590426Y-48911942D01*
X208445786Y-48980792D01*
X208336784Y-49044976D01*
X208292037Y-49177892D01*
X208292237Y-49409136D01*
X208328011Y-49671214D01*
X208410417Y-49804198D01*
X208465118Y-49831343D01*
X208605178Y-49921270D01*
X208583615Y-50042365D01*
X208562222Y-50066222D01*
X208440200Y-50104841D01*
X208220803Y-50120729D01*
X207974516Y-50113455D01*
X207771824Y-50082587D01*
X207736591Y-50071275D01*
X207625613Y-49974798D01*
X207622455Y-49945407D01*
X207518000Y-49945407D01*
X207437528Y-49999025D01*
X207210949Y-50030778D01*
X206967666Y-50038000D01*
X206648983Y-50024461D01*
X206460256Y-49986339D01*
X206417333Y-49945407D01*
X206487259Y-49848633D01*
X206565759Y-49813999D01*
X206659219Y-49753635D01*
X206692416Y-49609166D01*
X206684907Y-49407049D01*
X206655356Y-49174754D01*
X206590482Y-49059690D01*
X206452399Y-49009775D01*
X206388314Y-48999314D01*
X206167505Y-48983158D01*
X206015166Y-48999916D01*
X205940115Y-49107223D01*
X205908209Y-49310277D01*
X205917692Y-49541556D01*
X205966812Y-49733534D01*
X206036333Y-49814618D01*
X206149000Y-49930243D01*
X206163333Y-49997434D01*
X206091623Y-50081418D01*
X205913538Y-50119882D01*
X205684644Y-50116788D01*
X205460511Y-50076098D01*
X205296705Y-50001771D01*
X205247751Y-49932167D01*
X205280544Y-49806134D01*
X205352792Y-49784000D01*
X205429317Y-49749862D01*
X205470533Y-49624769D01*
X205485362Y-49374699D01*
X205485833Y-49301705D01*
X205082939Y-49301705D01*
X205074312Y-49621597D01*
X205054899Y-49685220D01*
X204933231Y-49893325D01*
X204783033Y-50021325D01*
X204566123Y-50080086D01*
X204261624Y-50112153D01*
X203948487Y-50113974D01*
X203705664Y-50081998D01*
X203672591Y-50071275D01*
X203555714Y-49961136D01*
X203538666Y-49892678D01*
X203580278Y-49810948D01*
X203729408Y-49792870D01*
X203856166Y-49804600D01*
X204203411Y-49802357D01*
X204451153Y-49711383D01*
X204580321Y-49549735D01*
X204571842Y-49335470D01*
X204498173Y-49196810D01*
X204339576Y-49072643D01*
X204132459Y-49023211D01*
X203943847Y-49053435D01*
X203846715Y-49149000D01*
X203743397Y-49268725D01*
X203621828Y-49255880D01*
X203544133Y-49126940D01*
X203538666Y-49067312D01*
X203609881Y-48853105D01*
X203815803Y-48729622D01*
X204144852Y-48702301D01*
X204286000Y-48716331D01*
X204672335Y-48828346D01*
X204943464Y-49030379D01*
X205082939Y-49301705D01*
X205485833Y-49301705D01*
X205486000Y-49276000D01*
X205486000Y-48768000D01*
X205994000Y-48757417D01*
X206341891Y-48748812D01*
X206555383Y-48734073D01*
X206669363Y-48703142D01*
X206718719Y-48645964D01*
X206738340Y-48552480D01*
X206739769Y-48542439D01*
X206699026Y-48375156D01*
X206562203Y-48286354D01*
X206392630Y-48297394D01*
X206279685Y-48387243D01*
X206137196Y-48487580D01*
X206040401Y-48484943D01*
X205929058Y-48483886D01*
X205909333Y-48522546D01*
X205845764Y-48580940D01*
X205706254Y-48578078D01*
X205567595Y-48525819D01*
X205510215Y-48460916D01*
X205557414Y-48361906D01*
X205721285Y-48243993D01*
X205954418Y-48130107D01*
X206209399Y-48043178D01*
X206438817Y-48006135D01*
X206450856Y-48006000D01*
X206721585Y-48059557D01*
X206966968Y-48195690D01*
X207135117Y-48377587D01*
X207179333Y-48522802D01*
X207236414Y-48682969D01*
X207306333Y-48737382D01*
X207415570Y-48839795D01*
X207417565Y-48970171D01*
X207337111Y-49039963D01*
X207275162Y-49136730D01*
X207236236Y-49340208D01*
X207231278Y-49423748D01*
X207243740Y-49666366D01*
X207308498Y-49785995D01*
X207369833Y-49814137D01*
X207495501Y-49890635D01*
X207518000Y-49945407D01*
X207622455Y-49945407D01*
X207612801Y-49855584D01*
X207700954Y-49785768D01*
X207725441Y-49784000D01*
X207802953Y-49731703D01*
X207850709Y-49557818D01*
X207873608Y-49297167D01*
X207899000Y-48810333D01*
X208258833Y-48784298D01*
X208492873Y-48790870D01*
X208609329Y-48839646D01*
X208739931Y-48839646D01*
X208828513Y-48755403D01*
X208930152Y-48723675D01*
X209163198Y-48657085D01*
X209318499Y-48592003D01*
X209472503Y-48566192D01*
X209667741Y-48660056D01*
X209720666Y-48697706D01*
X209915904Y-48867863D01*
X209964948Y-48978191D01*
X210346978Y-48978191D01*
X210372695Y-48871455D01*
X210405186Y-48810447D01*
X210519382Y-48777641D01*
X210754443Y-48754819D01*
X211062436Y-48742244D01*
X211395425Y-48740179D01*
X211705475Y-48748884D01*
X211944654Y-48768623D01*
X212065025Y-48799658D01*
X212066910Y-48801355D01*
X212056116Y-48893272D01*
X211976592Y-49006981D01*
X211867469Y-49209794D01*
X211832543Y-49452703D01*
X211869668Y-49674506D01*
X211976697Y-49814001D01*
X212005333Y-49826333D01*
X212152365Y-49913638D01*
X212362378Y-49913638D01*
X212342896Y-49890898D01*
X212388674Y-49816903D01*
X212575607Y-49803481D01*
X212685513Y-49816968D01*
X212986221Y-49827160D01*
X213221054Y-49764945D01*
X213348426Y-49644542D01*
X213360000Y-49586355D01*
X213288281Y-49514482D01*
X213068703Y-49513349D01*
X213063896Y-49513904D01*
X212708640Y-49518736D01*
X212446364Y-49447953D01*
X212311309Y-49312931D01*
X212306914Y-49104614D01*
X212435805Y-48924163D01*
X212662210Y-48789750D01*
X212950360Y-48719546D01*
X213264484Y-48731723D01*
X213391214Y-48764330D01*
X213633581Y-48880848D01*
X213819507Y-49031495D01*
X213833976Y-49049646D01*
X213920607Y-49158749D01*
X213947707Y-49146017D01*
X213928060Y-48991759D01*
X213916316Y-48922814D01*
X213859171Y-48652964D01*
X213775459Y-48324193D01*
X213732646Y-48173614D01*
X213649379Y-47921447D01*
X213576280Y-47800216D01*
X213485307Y-47775889D01*
X213417735Y-47791412D01*
X213237439Y-47827470D01*
X212954643Y-47864698D01*
X212682666Y-47890609D01*
X212139921Y-47872031D01*
X211700795Y-47721265D01*
X211359915Y-47435721D01*
X211183538Y-47167183D01*
X210989333Y-46794033D01*
X210980894Y-47421183D01*
X210966991Y-47865691D01*
X210933222Y-48167087D01*
X210870309Y-48351265D01*
X210768976Y-48444113D01*
X210619946Y-48471524D01*
X210604516Y-48471667D01*
X210494090Y-48464020D01*
X210407854Y-48422932D01*
X210328452Y-48321183D01*
X210238527Y-48131553D01*
X210120723Y-47826822D01*
X210022979Y-47559636D01*
X209873394Y-47154371D01*
X209754997Y-46880436D01*
X209640076Y-46710405D01*
X209500918Y-46616848D01*
X209309811Y-46572338D01*
X209039041Y-46549446D01*
X208999666Y-46546836D01*
X208661000Y-46524333D01*
X208608382Y-47286333D01*
X208567128Y-47770728D01*
X208513624Y-48110354D01*
X208436218Y-48329771D01*
X208323258Y-48453544D01*
X208163091Y-48506233D01*
X208026000Y-48514000D01*
X207811756Y-48490310D01*
X207666069Y-48402256D01*
X207576709Y-48224363D01*
X207531449Y-47931155D01*
X207518060Y-47497155D01*
X207518000Y-47455666D01*
X207506154Y-47011543D01*
X207462579Y-46708780D01*
X207375221Y-46520554D01*
X207232024Y-46420039D01*
X207035299Y-46381524D01*
X206817605Y-46344679D01*
X206725906Y-46265508D01*
X206713666Y-46185667D01*
X206783873Y-46032078D01*
X206885210Y-45991762D01*
X206960739Y-45969438D01*
X207010378Y-45908189D01*
X207039735Y-45777780D01*
X207054416Y-45547974D01*
X207060026Y-45188536D01*
X207060806Y-45044729D01*
X207069266Y-44631194D01*
X206417333Y-44631194D01*
X206346963Y-44939222D01*
X206163056Y-45161306D01*
X205906417Y-45281165D01*
X205617849Y-45282513D01*
X205338157Y-45149070D01*
X205270485Y-45088848D01*
X205106057Y-44823762D01*
X205079232Y-44534749D01*
X205172671Y-44264159D01*
X205369040Y-44054338D01*
X205650999Y-43947636D01*
X205740000Y-43942000D01*
X206035285Y-44018867D01*
X206270946Y-44219754D01*
X206403177Y-44500086D01*
X206417333Y-44631194D01*
X207069266Y-44631194D01*
X207070497Y-44571066D01*
X207101931Y-44241281D01*
X207165953Y-44030270D01*
X207273406Y-43912931D01*
X207435134Y-43864158D01*
X207573709Y-43857333D01*
X207752146Y-43872509D01*
X207869018Y-43945092D01*
X207971076Y-44115663D01*
X208033918Y-44256806D01*
X208147024Y-44547982D01*
X208275730Y-44919655D01*
X208386433Y-45272451D01*
X208486765Y-45596175D01*
X208582120Y-45795198D01*
X208715851Y-45907106D01*
X208931312Y-45969487D01*
X209244224Y-46016162D01*
X209487018Y-46044051D01*
X209597294Y-46033737D01*
X209609494Y-45975277D01*
X209586157Y-45917446D01*
X209548699Y-45762526D01*
X209513839Y-45490665D01*
X209487903Y-45154212D01*
X209483713Y-45069751D01*
X209471699Y-44725799D01*
X209478820Y-44509460D01*
X209514155Y-44379312D01*
X209586781Y-44293935D01*
X209666052Y-44237721D01*
X209887000Y-44143866D01*
X210074271Y-44125970D01*
X210244755Y-44228343D01*
X210424475Y-44471998D01*
X210600153Y-44830382D01*
X210758514Y-45276948D01*
X210873519Y-45724185D01*
X211014784Y-46381570D01*
X211192558Y-46030302D01*
X211455594Y-45663808D01*
X211799744Y-45412188D01*
X212188710Y-45300151D01*
X212270241Y-45296667D01*
X212492312Y-45278636D01*
X212602709Y-45204431D01*
X212645884Y-45093029D01*
X212768343Y-44844987D01*
X212970079Y-44648988D01*
X213197615Y-44550337D01*
X213288214Y-44548859D01*
X213405737Y-44599928D01*
X213533518Y-44736058D01*
X213690447Y-44982037D01*
X213868000Y-45309710D01*
X214050017Y-45646872D01*
X214221519Y-45942154D01*
X214356674Y-46152020D01*
X214403915Y-46212834D01*
X214507043Y-46379079D01*
X214474908Y-46539964D01*
X214471564Y-46546303D01*
X214431910Y-46723826D01*
X214466684Y-46996906D01*
X214508906Y-47167180D01*
X214665163Y-47802995D01*
X214781115Y-48403593D01*
X214854706Y-48945591D01*
X214883879Y-49405603D01*
X216141283Y-49405603D01*
X216094454Y-49213408D01*
X215945439Y-49048628D01*
X215751389Y-48987114D01*
X215556738Y-49052524D01*
X215497847Y-49108427D01*
X215320219Y-49253671D01*
X215177450Y-49247944D01*
X215107382Y-49149000D01*
X215092447Y-48934577D01*
X215218916Y-48781108D01*
X215466215Y-48700176D01*
X215813770Y-48703366D01*
X215881444Y-48713124D01*
X216271772Y-48834188D01*
X216523115Y-49049965D01*
X216639034Y-49363764D01*
X216645232Y-49423025D01*
X216904681Y-49423025D01*
X217128941Y-49325064D01*
X217170000Y-49310111D01*
X217440023Y-49196710D01*
X217574945Y-49104020D01*
X217565741Y-49042385D01*
X217421343Y-49022000D01*
X217258537Y-49077171D01*
X217200618Y-49149000D01*
X217099373Y-49274361D01*
X216978375Y-49272433D01*
X216883003Y-49172230D01*
X216858638Y-49002766D01*
X216872973Y-48939517D01*
X217000822Y-48791550D01*
X217236885Y-48718137D01*
X217534091Y-48726305D01*
X217797120Y-48801584D01*
X218002207Y-48905717D01*
X218084017Y-49018048D01*
X218085973Y-49166351D01*
X219286666Y-49166351D01*
X219286666Y-42756667D01*
X202353333Y-42756667D01*
X202353333Y-51223333D01*
G36*
X212979000Y-48991382D02*
G01*
X212859405Y-49073940D01*
X212890490Y-49149233D01*
X213054811Y-49189797D01*
X213106000Y-49191333D01*
X213284380Y-49169422D01*
X213359982Y-49116631D01*
X213360000Y-49115725D01*
X213289238Y-49019733D01*
X213129374Y-48972627D01*
X212979000Y-48991382D01*
X212979000Y-48991382D01*
G37*
X212979000Y-48991382D02*
X212859405Y-49073940D01*
X212890490Y-49149233D01*
X213054811Y-49189797D01*
X213106000Y-49191333D01*
X213284380Y-49169422D01*
X213359982Y-49116631D01*
X213360000Y-49115725D01*
X213289238Y-49019733D01*
X213129374Y-48972627D01*
X212979000Y-48991382D01*
G36*
X212267219Y-46393113D02*
G01*
X212116060Y-46542554D01*
X212115129Y-46716533D01*
X212260855Y-46868734D01*
X212305650Y-46891743D01*
X212637838Y-46983667D01*
X212907538Y-46924496D01*
X212932754Y-46909543D01*
X213009386Y-46830998D01*
X212987857Y-46711690D01*
X212938391Y-46612222D01*
X212746157Y-46403375D01*
X212493278Y-46333008D01*
X212267219Y-46393113D01*
X212267219Y-46393113D01*
G37*
X212267219Y-46393113D02*
X212116060Y-46542554D01*
X212115129Y-46716533D01*
X212260855Y-46868734D01*
X212305650Y-46891743D01*
X212637838Y-46983667D01*
X212907538Y-46924496D01*
X212932754Y-46909543D01*
X213009386Y-46830998D01*
X212987857Y-46711690D01*
X212938391Y-46612222D01*
X212746157Y-46403375D01*
X212493278Y-46333008D01*
X212267219Y-46393113D01*
G36*
X205639587Y-44929093D02*
G01*
X205618879Y-44951504D01*
X205520813Y-45070117D01*
X205540560Y-45117715D01*
X205701732Y-45126202D01*
X205748044Y-45126037D01*
X205912982Y-45110151D01*
X205954410Y-45072542D01*
X205943195Y-45062537D01*
X205830843Y-44927951D01*
X205814030Y-44888004D01*
X205755748Y-44839280D01*
X205639587Y-44929093D01*
X205639587Y-44929093D01*
G37*
X205639587Y-44929093D02*
X205618879Y-44951504D01*
X205520813Y-45070117D01*
X205540560Y-45117715D01*
X205701732Y-45126202D01*
X205748044Y-45126037D01*
X205912982Y-45110151D01*
X205954410Y-45072542D01*
X205943195Y-45062537D01*
X205830843Y-44927951D01*
X205814030Y-44888004D01*
X205755748Y-44839280D01*
X205639587Y-44929093D01*
G36*
X206122442Y-44319743D02*
G01*
X206099839Y-44428833D01*
X206087469Y-44676529D01*
X206100215Y-44809833D01*
X206132408Y-44936349D01*
X206174151Y-44906017D01*
X206199901Y-44851977D01*
X206226979Y-44662493D01*
X206199526Y-44470977D01*
X206150481Y-44318129D01*
X206122442Y-44319743D01*
X206122442Y-44319743D01*
G37*
X206122442Y-44319743D02*
X206099839Y-44428833D01*
X206087469Y-44676529D01*
X206100215Y-44809833D01*
X206132408Y-44936349D01*
X206174151Y-44906017D01*
X206199901Y-44851977D01*
X206226979Y-44662493D01*
X206199526Y-44470977D01*
X206150481Y-44318129D01*
X206122442Y-44319743D01*
G36*
X205337833Y-44337680D02*
G01*
X205246101Y-44543100D01*
X205248641Y-44735659D01*
X205316666Y-44831000D01*
X205401858Y-44836136D01*
X205411313Y-44814830D01*
X205421409Y-44689056D01*
X205432093Y-44479134D01*
X205432480Y-44469664D01*
X205431990Y-44294317D01*
X205399514Y-44265940D01*
X205337833Y-44337680D01*
X205337833Y-44337680D01*
G37*
X205337833Y-44337680D02*
X205246101Y-44543100D01*
X205248641Y-44735659D01*
X205316666Y-44831000D01*
X205401858Y-44836136D01*
X205411313Y-44814830D01*
X205421409Y-44689056D01*
X205432093Y-44479134D01*
X205432480Y-44469664D01*
X205431990Y-44294317D01*
X205399514Y-44265940D01*
X205337833Y-44337680D01*
G36*
X205683555Y-44478222D02*
G01*
X205695178Y-44528556D01*
X205740000Y-44534667D01*
X205809690Y-44503688D01*
X205796444Y-44478222D01*
X205695965Y-44468089D01*
X205683555Y-44478222D01*
X205683555Y-44478222D01*
G37*
X205683555Y-44478222D02*
X205695178Y-44528556D01*
X205740000Y-44534667D01*
X205809690Y-44503688D01*
X205796444Y-44478222D01*
X205695965Y-44468089D01*
X205683555Y-44478222D01*
G36*
X205634166Y-44139927D02*
G01*
X205623530Y-44170829D01*
X205740000Y-44182631D01*
X205860195Y-44169326D01*
X205845833Y-44139927D01*
X205672491Y-44128744D01*
X205634166Y-44139927D01*
X205634166Y-44139927D01*
G37*
X205634166Y-44139927D02*
X205623530Y-44170829D01*
X205740000Y-44182631D01*
X205860195Y-44169326D01*
X205845833Y-44139927D01*
X205672491Y-44128744D01*
X205634166Y-44139927D01*
M02*
